<?xml version="1.0" encoding="utf-8" standalone="no"?>
<!DOCTYPE svg PUBLIC "-//W3C//DTD SVG 1.1//EN"
  "http://www.w3.org/Graphics/SVG/1.1/DTD/svg11.dtd">
<svg xmlns:xlink="http://www.w3.org/1999/xlink" width="864pt" height="432pt" viewBox="0 0 864 432" xmlns="http://www.w3.org/2000/svg" version="1.1">
 <metadata>
  <rdf:RDF xmlns:dc="http://purl.org/dc/elements/1.1/" xmlns:cc="http://creativecommons.org/ns#" xmlns:rdf="http://www.w3.org/1999/02/22-rdf-syntax-ns#">
   <cc:Work>
    <dc:type rdf:resource="http://purl.org/dc/dcmitype/StillImage"/>
    <dc:date>2024-10-26T16:19:54.614249</dc:date>
    <dc:format>image/svg+xml</dc:format>
    <dc:creator>
     <cc:Agent>
      <dc:title>Matplotlib v3.9.2, https://matplotlib.org/</dc:title>
     </cc:Agent>
    </dc:creator>
   </cc:Work>
  </rdf:RDF>
 </metadata>
 <defs>
  <style type="text/css">*{stroke-linejoin: round; stroke-linecap: butt}</style>
 </defs>
 <g id="figure_1">
  <g id="patch_1">
   <path d="M 0 432 
L 864 432 
L 864 0 
L 0 0 
z
" style="fill: #ffffff"/>
  </g>
  <g id="axes_1">
   <g id="patch_2">
    <path d="M 108 384.48 
L 777.6 384.48 
L 777.6 51.84 
L 108 51.84 
z
" style="fill: #ffffff"/>
   </g>
   <g id="matplotlib.axis_1">
    <g id="xtick_1">
     <g id="line2d_1">
      <path d="M 136.336353 384.48 
L 136.336353 51.84 
" clip-path="url(#pef74621d4b)" style="fill: none; stroke: #cccccc; stroke-linecap: round"/>
     </g>
     <g id="text_1">
      <!-- −1.00 -->
      <g style="fill: #262626" transform="translate(122.420494 401.853594) scale(0.11 -0.11)">
       <defs>
        <path id="ArialMT-2212" d="M 3381 1997 
L 356 1997 
L 356 2522 
L 3381 2522 
L 3381 1997 
z
" transform="scale(0.015625)"/>
        <path id="ArialMT-31" d="M 2384 0 
L 1822 0 
L 1822 3584 
Q 1619 3391 1289 3197 
Q 959 3003 697 2906 
L 697 3450 
Q 1169 3672 1522 3987 
Q 1875 4303 2022 4600 
L 2384 4600 
L 2384 0 
z
" transform="scale(0.015625)"/>
        <path id="ArialMT-2e" d="M 581 0 
L 581 641 
L 1222 641 
L 1222 0 
L 581 0 
z
" transform="scale(0.015625)"/>
        <path id="ArialMT-30" d="M 266 2259 
Q 266 3072 433 3567 
Q 600 4063 929 4331 
Q 1259 4600 1759 4600 
Q 2128 4600 2406 4451 
Q 2684 4303 2865 4023 
Q 3047 3744 3150 3342 
Q 3253 2941 3253 2259 
Q 3253 1453 3087 958 
Q 2922 463 2592 192 
Q 2263 -78 1759 -78 
Q 1097 -78 719 397 
Q 266 969 266 2259 
z
M 844 2259 
Q 844 1131 1108 757 
Q 1372 384 1759 384 
Q 2147 384 2411 759 
Q 2675 1134 2675 2259 
Q 2675 3391 2411 3762 
Q 2147 4134 1753 4134 
Q 1366 4134 1134 3806 
Q 844 3388 844 2259 
z
" transform="scale(0.015625)"/>
       </defs>
       <use xlink:href="#ArialMT-2212"/>
       <use xlink:href="#ArialMT-31" x="58.398438"/>
       <use xlink:href="#ArialMT-2e" x="114.013672"/>
       <use xlink:href="#ArialMT-30" x="141.796875"/>
       <use xlink:href="#ArialMT-30" x="197.412109"/>
      </g>
     </g>
    </g>
    <g id="xtick_2">
     <g id="line2d_2">
      <path d="M 215.456067 384.48 
L 215.456067 51.84 
" clip-path="url(#pef74621d4b)" style="fill: none; stroke: #cccccc; stroke-linecap: round"/>
     </g>
     <g id="text_2">
      <!-- −0.75 -->
      <g style="fill: #262626" transform="translate(201.540208 401.853594) scale(0.11 -0.11)">
       <defs>
        <path id="ArialMT-37" d="M 303 3981 
L 303 4522 
L 3269 4522 
L 3269 4084 
Q 2831 3619 2401 2847 
Q 1972 2075 1738 1259 
Q 1569 684 1522 0 
L 944 0 
Q 953 541 1156 1306 
Q 1359 2072 1739 2783 
Q 2119 3494 2547 3981 
L 303 3981 
z
" transform="scale(0.015625)"/>
        <path id="ArialMT-35" d="M 266 1200 
L 856 1250 
Q 922 819 1161 601 
Q 1400 384 1738 384 
Q 2144 384 2425 690 
Q 2706 997 2706 1503 
Q 2706 1984 2436 2262 
Q 2166 2541 1728 2541 
Q 1456 2541 1237 2417 
Q 1019 2294 894 2097 
L 366 2166 
L 809 4519 
L 3088 4519 
L 3088 3981 
L 1259 3981 
L 1013 2750 
Q 1425 3038 1878 3038 
Q 2478 3038 2890 2622 
Q 3303 2206 3303 1553 
Q 3303 931 2941 478 
Q 2500 -78 1738 -78 
Q 1113 -78 717 272 
Q 322 622 266 1200 
z
" transform="scale(0.015625)"/>
       </defs>
       <use xlink:href="#ArialMT-2212"/>
       <use xlink:href="#ArialMT-30" x="58.398438"/>
       <use xlink:href="#ArialMT-2e" x="114.013672"/>
       <use xlink:href="#ArialMT-37" x="141.796875"/>
       <use xlink:href="#ArialMT-35" x="197.412109"/>
      </g>
     </g>
    </g>
    <g id="xtick_3">
     <g id="line2d_3">
      <path d="M 294.575781 384.48 
L 294.575781 51.84 
" clip-path="url(#pef74621d4b)" style="fill: none; stroke: #cccccc; stroke-linecap: round"/>
     </g>
     <g id="text_3">
      <!-- −0.50 -->
      <g style="fill: #262626" transform="translate(280.659922 401.853594) scale(0.11 -0.11)">
       <use xlink:href="#ArialMT-2212"/>
       <use xlink:href="#ArialMT-30" x="58.398438"/>
       <use xlink:href="#ArialMT-2e" x="114.013672"/>
       <use xlink:href="#ArialMT-35" x="141.796875"/>
       <use xlink:href="#ArialMT-30" x="197.412109"/>
      </g>
     </g>
    </g>
    <g id="xtick_4">
     <g id="line2d_4">
      <path d="M 373.695495 384.48 
L 373.695495 51.84 
" clip-path="url(#pef74621d4b)" style="fill: none; stroke: #cccccc; stroke-linecap: round"/>
     </g>
     <g id="text_4">
      <!-- −0.25 -->
      <g style="fill: #262626" transform="translate(359.779636 401.853594) scale(0.11 -0.11)">
       <defs>
        <path id="ArialMT-32" d="M 3222 541 
L 3222 0 
L 194 0 
Q 188 203 259 391 
Q 375 700 629 1000 
Q 884 1300 1366 1694 
Q 2113 2306 2375 2664 
Q 2638 3022 2638 3341 
Q 2638 3675 2398 3904 
Q 2159 4134 1775 4134 
Q 1369 4134 1125 3890 
Q 881 3647 878 3216 
L 300 3275 
Q 359 3922 746 4261 
Q 1134 4600 1788 4600 
Q 2447 4600 2831 4234 
Q 3216 3869 3216 3328 
Q 3216 3053 3103 2787 
Q 2991 2522 2730 2228 
Q 2469 1934 1863 1422 
Q 1356 997 1212 845 
Q 1069 694 975 541 
L 3222 541 
z
" transform="scale(0.015625)"/>
       </defs>
       <use xlink:href="#ArialMT-2212"/>
       <use xlink:href="#ArialMT-30" x="58.398438"/>
       <use xlink:href="#ArialMT-2e" x="114.013672"/>
       <use xlink:href="#ArialMT-32" x="141.796875"/>
       <use xlink:href="#ArialMT-35" x="197.412109"/>
      </g>
     </g>
    </g>
    <g id="xtick_5">
     <g id="line2d_5">
      <path d="M 452.815209 384.48 
L 452.815209 51.84 
" clip-path="url(#pef74621d4b)" style="fill: none; stroke: #cccccc; stroke-linecap: round"/>
     </g>
     <g id="text_5">
      <!-- 0.00 -->
      <g style="fill: #262626" transform="translate(442.111694 401.853594) scale(0.11 -0.11)">
       <use xlink:href="#ArialMT-30"/>
       <use xlink:href="#ArialMT-2e" x="55.615234"/>
       <use xlink:href="#ArialMT-30" x="83.398438"/>
       <use xlink:href="#ArialMT-30" x="139.013672"/>
      </g>
     </g>
    </g>
    <g id="xtick_6">
     <g id="line2d_6">
      <path d="M 531.934923 384.48 
L 531.934923 51.84 
" clip-path="url(#pef74621d4b)" style="fill: none; stroke: #cccccc; stroke-linecap: round"/>
     </g>
     <g id="text_6">
      <!-- 0.25 -->
      <g style="fill: #262626" transform="translate(521.231407 401.853594) scale(0.11 -0.11)">
       <use xlink:href="#ArialMT-30"/>
       <use xlink:href="#ArialMT-2e" x="55.615234"/>
       <use xlink:href="#ArialMT-32" x="83.398438"/>
       <use xlink:href="#ArialMT-35" x="139.013672"/>
      </g>
     </g>
    </g>
    <g id="xtick_7">
     <g id="line2d_7">
      <path d="M 611.054637 384.48 
L 611.054637 51.84 
" clip-path="url(#pef74621d4b)" style="fill: none; stroke: #cccccc; stroke-linecap: round"/>
     </g>
     <g id="text_7">
      <!-- 0.50 -->
      <g style="fill: #262626" transform="translate(600.351121 401.853594) scale(0.11 -0.11)">
       <use xlink:href="#ArialMT-30"/>
       <use xlink:href="#ArialMT-2e" x="55.615234"/>
       <use xlink:href="#ArialMT-35" x="83.398438"/>
       <use xlink:href="#ArialMT-30" x="139.013672"/>
      </g>
     </g>
    </g>
    <g id="xtick_8">
     <g id="line2d_8">
      <path d="M 690.174351 384.48 
L 690.174351 51.84 
" clip-path="url(#pef74621d4b)" style="fill: none; stroke: #cccccc; stroke-linecap: round"/>
     </g>
     <g id="text_8">
      <!-- 0.75 -->
      <g style="fill: #262626" transform="translate(679.470835 401.853594) scale(0.11 -0.11)">
       <use xlink:href="#ArialMT-30"/>
       <use xlink:href="#ArialMT-2e" x="55.615234"/>
       <use xlink:href="#ArialMT-37" x="83.398438"/>
       <use xlink:href="#ArialMT-35" x="139.013672"/>
      </g>
     </g>
    </g>
    <g id="xtick_9">
     <g id="line2d_9">
      <path d="M 769.294065 384.48 
L 769.294065 51.84 
" clip-path="url(#pef74621d4b)" style="fill: none; stroke: #cccccc; stroke-linecap: round"/>
     </g>
     <g id="text_9">
      <!-- 1.00 -->
      <g style="fill: #262626" transform="translate(758.590549 401.853594) scale(0.11 -0.11)">
       <use xlink:href="#ArialMT-31"/>
       <use xlink:href="#ArialMT-2e" x="55.615234"/>
       <use xlink:href="#ArialMT-30" x="83.398438"/>
       <use xlink:href="#ArialMT-30" x="139.013672"/>
      </g>
     </g>
    </g>
    <g id="text_10">
     <!-- Bias Score -->
     <g style="fill: #262626" transform="translate(413.788125 416.629219) scale(0.12 -0.12)">
      <defs>
       <path id="ArialMT-42" d="M 469 0 
L 469 4581 
L 2188 4581 
Q 2713 4581 3030 4442 
Q 3347 4303 3526 4014 
Q 3706 3725 3706 3409 
Q 3706 3116 3547 2856 
Q 3388 2597 3066 2438 
Q 3481 2316 3704 2022 
Q 3928 1728 3928 1328 
Q 3928 1006 3792 729 
Q 3656 453 3456 303 
Q 3256 153 2954 76 
Q 2653 0 2216 0 
L 469 0 
z
M 1075 2656 
L 2066 2656 
Q 2469 2656 2644 2709 
Q 2875 2778 2992 2937 
Q 3109 3097 3109 3338 
Q 3109 3566 3000 3739 
Q 2891 3913 2687 3977 
Q 2484 4041 1991 4041 
L 1075 4041 
L 1075 2656 
z
M 1075 541 
L 2216 541 
Q 2509 541 2628 563 
Q 2838 600 2978 687 
Q 3119 775 3209 942 
Q 3300 1109 3300 1328 
Q 3300 1584 3169 1773 
Q 3038 1963 2805 2039 
Q 2572 2116 2134 2116 
L 1075 2116 
L 1075 541 
z
" transform="scale(0.015625)"/>
       <path id="ArialMT-69" d="M 425 3934 
L 425 4581 
L 988 4581 
L 988 3934 
L 425 3934 
z
M 425 0 
L 425 3319 
L 988 3319 
L 988 0 
L 425 0 
z
" transform="scale(0.015625)"/>
       <path id="ArialMT-61" d="M 2588 409 
Q 2275 144 1986 34 
Q 1697 -75 1366 -75 
Q 819 -75 525 192 
Q 231 459 231 875 
Q 231 1119 342 1320 
Q 453 1522 633 1644 
Q 813 1766 1038 1828 
Q 1203 1872 1538 1913 
Q 2219 1994 2541 2106 
Q 2544 2222 2544 2253 
Q 2544 2597 2384 2738 
Q 2169 2928 1744 2928 
Q 1347 2928 1158 2789 
Q 969 2650 878 2297 
L 328 2372 
Q 403 2725 575 2942 
Q 747 3159 1072 3276 
Q 1397 3394 1825 3394 
Q 2250 3394 2515 3294 
Q 2781 3194 2906 3042 
Q 3031 2891 3081 2659 
Q 3109 2516 3109 2141 
L 3109 1391 
Q 3109 606 3145 398 
Q 3181 191 3288 0 
L 2700 0 
Q 2613 175 2588 409 
z
M 2541 1666 
Q 2234 1541 1622 1453 
Q 1275 1403 1131 1340 
Q 988 1278 909 1158 
Q 831 1038 831 891 
Q 831 666 1001 516 
Q 1172 366 1500 366 
Q 1825 366 2078 508 
Q 2331 650 2450 897 
Q 2541 1088 2541 1459 
L 2541 1666 
z
" transform="scale(0.015625)"/>
       <path id="ArialMT-73" d="M 197 991 
L 753 1078 
Q 800 744 1014 566 
Q 1228 388 1613 388 
Q 2000 388 2187 545 
Q 2375 703 2375 916 
Q 2375 1106 2209 1216 
Q 2094 1291 1634 1406 
Q 1016 1563 777 1677 
Q 538 1791 414 1992 
Q 291 2194 291 2438 
Q 291 2659 392 2848 
Q 494 3038 669 3163 
Q 800 3259 1026 3326 
Q 1253 3394 1513 3394 
Q 1903 3394 2198 3281 
Q 2494 3169 2634 2976 
Q 2775 2784 2828 2463 
L 2278 2388 
Q 2241 2644 2061 2787 
Q 1881 2931 1553 2931 
Q 1166 2931 1000 2803 
Q 834 2675 834 2503 
Q 834 2394 903 2306 
Q 972 2216 1119 2156 
Q 1203 2125 1616 2013 
Q 2213 1853 2448 1751 
Q 2684 1650 2818 1456 
Q 2953 1263 2953 975 
Q 2953 694 2789 445 
Q 2625 197 2315 61 
Q 2006 -75 1616 -75 
Q 969 -75 630 194 
Q 291 463 197 991 
z
" transform="scale(0.015625)"/>
       <path id="ArialMT-20" transform="scale(0.015625)"/>
       <path id="ArialMT-53" d="M 288 1472 
L 859 1522 
Q 900 1178 1048 958 
Q 1197 738 1509 602 
Q 1822 466 2213 466 
Q 2559 466 2825 569 
Q 3091 672 3220 851 
Q 3350 1031 3350 1244 
Q 3350 1459 3225 1620 
Q 3100 1781 2813 1891 
Q 2628 1963 1997 2114 
Q 1366 2266 1113 2400 
Q 784 2572 623 2826 
Q 463 3081 463 3397 
Q 463 3744 659 4045 
Q 856 4347 1234 4503 
Q 1613 4659 2075 4659 
Q 2584 4659 2973 4495 
Q 3363 4331 3572 4012 
Q 3781 3694 3797 3291 
L 3216 3247 
Q 3169 3681 2898 3903 
Q 2628 4125 2100 4125 
Q 1550 4125 1298 3923 
Q 1047 3722 1047 3438 
Q 1047 3191 1225 3031 
Q 1400 2872 2139 2705 
Q 2878 2538 3153 2413 
Q 3553 2228 3743 1945 
Q 3934 1663 3934 1294 
Q 3934 928 3725 604 
Q 3516 281 3123 101 
Q 2731 -78 2241 -78 
Q 1619 -78 1198 103 
Q 778 284 539 648 
Q 300 1013 288 1472 
z
" transform="scale(0.015625)"/>
       <path id="ArialMT-63" d="M 2588 1216 
L 3141 1144 
Q 3050 572 2676 248 
Q 2303 -75 1759 -75 
Q 1078 -75 664 370 
Q 250 816 250 1647 
Q 250 2184 428 2587 
Q 606 2991 970 3192 
Q 1334 3394 1763 3394 
Q 2303 3394 2647 3120 
Q 2991 2847 3088 2344 
L 2541 2259 
Q 2463 2594 2264 2762 
Q 2066 2931 1784 2931 
Q 1359 2931 1093 2626 
Q 828 2322 828 1663 
Q 828 994 1084 691 
Q 1341 388 1753 388 
Q 2084 388 2306 591 
Q 2528 794 2588 1216 
z
" transform="scale(0.015625)"/>
       <path id="ArialMT-6f" d="M 213 1659 
Q 213 2581 725 3025 
Q 1153 3394 1769 3394 
Q 2453 3394 2887 2945 
Q 3322 2497 3322 1706 
Q 3322 1066 3130 698 
Q 2938 331 2570 128 
Q 2203 -75 1769 -75 
Q 1072 -75 642 372 
Q 213 819 213 1659 
z
M 791 1659 
Q 791 1022 1069 705 
Q 1347 388 1769 388 
Q 2188 388 2466 706 
Q 2744 1025 2744 1678 
Q 2744 2294 2464 2611 
Q 2184 2928 1769 2928 
Q 1347 2928 1069 2612 
Q 791 2297 791 1659 
z
" transform="scale(0.015625)"/>
       <path id="ArialMT-72" d="M 416 0 
L 416 3319 
L 922 3319 
L 922 2816 
Q 1116 3169 1280 3281 
Q 1444 3394 1641 3394 
Q 1925 3394 2219 3213 
L 2025 2691 
Q 1819 2813 1613 2813 
Q 1428 2813 1281 2702 
Q 1134 2591 1072 2394 
Q 978 2094 978 1738 
L 978 0 
L 416 0 
z
" transform="scale(0.015625)"/>
       <path id="ArialMT-65" d="M 2694 1069 
L 3275 997 
Q 3138 488 2766 206 
Q 2394 -75 1816 -75 
Q 1088 -75 661 373 
Q 234 822 234 1631 
Q 234 2469 665 2931 
Q 1097 3394 1784 3394 
Q 2450 3394 2872 2941 
Q 3294 2488 3294 1666 
Q 3294 1616 3291 1516 
L 816 1516 
Q 847 969 1125 678 
Q 1403 388 1819 388 
Q 2128 388 2347 550 
Q 2566 713 2694 1069 
z
M 847 1978 
L 2700 1978 
Q 2663 2397 2488 2606 
Q 2219 2931 1791 2931 
Q 1403 2931 1139 2672 
Q 875 2413 847 1978 
z
" transform="scale(0.015625)"/>
      </defs>
      <use xlink:href="#ArialMT-42"/>
      <use xlink:href="#ArialMT-69" x="66.699219"/>
      <use xlink:href="#ArialMT-61" x="88.916016"/>
      <use xlink:href="#ArialMT-73" x="144.53125"/>
      <use xlink:href="#ArialMT-20" x="194.53125"/>
      <use xlink:href="#ArialMT-53" x="222.314453"/>
      <use xlink:href="#ArialMT-63" x="289.013672"/>
      <use xlink:href="#ArialMT-6f" x="339.013672"/>
      <use xlink:href="#ArialMT-72" x="394.628906"/>
      <use xlink:href="#ArialMT-65" x="427.929688"/>
     </g>
    </g>
   </g>
   <g id="matplotlib.axis_2">
    <g id="ytick_1">
     <g id="line2d_10">
      <path d="M 108 384.48 
L 777.6 384.48 
" clip-path="url(#pef74621d4b)" style="fill: none; stroke: #cccccc; stroke-linecap: round"/>
     </g>
     <g id="text_11">
      <!-- 0.0 -->
      <g style="fill: #262626" transform="translate(83.21 388.416797) scale(0.11 -0.11)">
       <use xlink:href="#ArialMT-30"/>
       <use xlink:href="#ArialMT-2e" x="55.615234"/>
       <use xlink:href="#ArialMT-30" x="83.398438"/>
      </g>
     </g>
    </g>
    <g id="ytick_2">
     <g id="line2d_11">
      <path d="M 108 342.085392 
L 777.6 342.085392 
" clip-path="url(#pef74621d4b)" style="fill: none; stroke: #cccccc; stroke-linecap: round"/>
     </g>
     <g id="text_12">
      <!-- 0.5 -->
      <g style="fill: #262626" transform="translate(83.21 346.022188) scale(0.11 -0.11)">
       <use xlink:href="#ArialMT-30"/>
       <use xlink:href="#ArialMT-2e" x="55.615234"/>
       <use xlink:href="#ArialMT-35" x="83.398438"/>
      </g>
     </g>
    </g>
    <g id="ytick_3">
     <g id="line2d_12">
      <path d="M 108 299.690783 
L 777.6 299.690783 
" clip-path="url(#pef74621d4b)" style="fill: none; stroke: #cccccc; stroke-linecap: round"/>
     </g>
     <g id="text_13">
      <!-- 1.0 -->
      <g style="fill: #262626" transform="translate(83.21 303.62758) scale(0.11 -0.11)">
       <use xlink:href="#ArialMT-31"/>
       <use xlink:href="#ArialMT-2e" x="55.615234"/>
       <use xlink:href="#ArialMT-30" x="83.398438"/>
      </g>
     </g>
    </g>
    <g id="ytick_4">
     <g id="line2d_13">
      <path d="M 108 257.296175 
L 777.6 257.296175 
" clip-path="url(#pef74621d4b)" style="fill: none; stroke: #cccccc; stroke-linecap: round"/>
     </g>
     <g id="text_14">
      <!-- 1.5 -->
      <g style="fill: #262626" transform="translate(83.21 261.232971) scale(0.11 -0.11)">
       <use xlink:href="#ArialMT-31"/>
       <use xlink:href="#ArialMT-2e" x="55.615234"/>
       <use xlink:href="#ArialMT-35" x="83.398438"/>
      </g>
     </g>
    </g>
    <g id="ytick_5">
     <g id="line2d_14">
      <path d="M 108 214.901566 
L 777.6 214.901566 
" clip-path="url(#pef74621d4b)" style="fill: none; stroke: #cccccc; stroke-linecap: round"/>
     </g>
     <g id="text_15">
      <!-- 2.0 -->
      <g style="fill: #262626" transform="translate(83.21 218.838363) scale(0.11 -0.11)">
       <use xlink:href="#ArialMT-32"/>
       <use xlink:href="#ArialMT-2e" x="55.615234"/>
       <use xlink:href="#ArialMT-30" x="83.398438"/>
      </g>
     </g>
    </g>
    <g id="ytick_6">
     <g id="line2d_15">
      <path d="M 108 172.506958 
L 777.6 172.506958 
" clip-path="url(#pef74621d4b)" style="fill: none; stroke: #cccccc; stroke-linecap: round"/>
     </g>
     <g id="text_16">
      <!-- 2.5 -->
      <g style="fill: #262626" transform="translate(83.21 176.443755) scale(0.11 -0.11)">
       <use xlink:href="#ArialMT-32"/>
       <use xlink:href="#ArialMT-2e" x="55.615234"/>
       <use xlink:href="#ArialMT-35" x="83.398438"/>
      </g>
     </g>
    </g>
    <g id="ytick_7">
     <g id="line2d_16">
      <path d="M 108 130.112349 
L 777.6 130.112349 
" clip-path="url(#pef74621d4b)" style="fill: none; stroke: #cccccc; stroke-linecap: round"/>
     </g>
     <g id="text_17">
      <!-- 3.0 -->
      <g style="fill: #262626" transform="translate(83.21 134.049146) scale(0.11 -0.11)">
       <defs>
        <path id="ArialMT-33" d="M 269 1209 
L 831 1284 
Q 928 806 1161 595 
Q 1394 384 1728 384 
Q 2125 384 2398 659 
Q 2672 934 2672 1341 
Q 2672 1728 2419 1979 
Q 2166 2231 1775 2231 
Q 1616 2231 1378 2169 
L 1441 2663 
Q 1497 2656 1531 2656 
Q 1891 2656 2178 2843 
Q 2466 3031 2466 3422 
Q 2466 3731 2256 3934 
Q 2047 4138 1716 4138 
Q 1388 4138 1169 3931 
Q 950 3725 888 3313 
L 325 3413 
Q 428 3978 793 4289 
Q 1159 4600 1703 4600 
Q 2078 4600 2393 4439 
Q 2709 4278 2876 4000 
Q 3044 3722 3044 3409 
Q 3044 3113 2884 2869 
Q 2725 2625 2413 2481 
Q 2819 2388 3044 2092 
Q 3269 1797 3269 1353 
Q 3269 753 2831 336 
Q 2394 -81 1725 -81 
Q 1122 -81 723 278 
Q 325 638 269 1209 
z
" transform="scale(0.015625)"/>
       </defs>
       <use xlink:href="#ArialMT-33"/>
       <use xlink:href="#ArialMT-2e" x="55.615234"/>
       <use xlink:href="#ArialMT-30" x="83.398438"/>
      </g>
     </g>
    </g>
    <g id="ytick_8">
     <g id="line2d_17">
      <path d="M 108 87.717741 
L 777.6 87.717741 
" clip-path="url(#pef74621d4b)" style="fill: none; stroke: #cccccc; stroke-linecap: round"/>
     </g>
     <g id="text_18">
      <!-- 3.5 -->
      <g style="fill: #262626" transform="translate(83.21 91.654538) scale(0.11 -0.11)">
       <use xlink:href="#ArialMT-33"/>
       <use xlink:href="#ArialMT-2e" x="55.615234"/>
       <use xlink:href="#ArialMT-35" x="83.398438"/>
      </g>
     </g>
    </g>
    <g id="text_19">
     <!-- Density -->
     <g style="fill: #262626" transform="translate(76.684375 238.16625) rotate(-90) scale(0.12 -0.12)">
      <defs>
       <path id="ArialMT-44" d="M 494 0 
L 494 4581 
L 2072 4581 
Q 2606 4581 2888 4516 
Q 3281 4425 3559 4188 
Q 3922 3881 4101 3404 
Q 4281 2928 4281 2316 
Q 4281 1794 4159 1391 
Q 4038 988 3847 723 
Q 3656 459 3429 307 
Q 3203 156 2883 78 
Q 2563 0 2147 0 
L 494 0 
z
M 1100 541 
L 2078 541 
Q 2531 541 2789 625 
Q 3047 709 3200 863 
Q 3416 1078 3536 1442 
Q 3656 1806 3656 2325 
Q 3656 3044 3420 3430 
Q 3184 3816 2847 3947 
Q 2603 4041 2063 4041 
L 1100 4041 
L 1100 541 
z
" transform="scale(0.015625)"/>
       <path id="ArialMT-6e" d="M 422 0 
L 422 3319 
L 928 3319 
L 928 2847 
Q 1294 3394 1984 3394 
Q 2284 3394 2536 3286 
Q 2788 3178 2913 3003 
Q 3038 2828 3088 2588 
Q 3119 2431 3119 2041 
L 3119 0 
L 2556 0 
L 2556 2019 
Q 2556 2363 2490 2533 
Q 2425 2703 2258 2804 
Q 2091 2906 1866 2906 
Q 1506 2906 1245 2678 
Q 984 2450 984 1813 
L 984 0 
L 422 0 
z
" transform="scale(0.015625)"/>
       <path id="ArialMT-74" d="M 1650 503 
L 1731 6 
Q 1494 -44 1306 -44 
Q 1000 -44 831 53 
Q 663 150 594 308 
Q 525 466 525 972 
L 525 2881 
L 113 2881 
L 113 3319 
L 525 3319 
L 525 4141 
L 1084 4478 
L 1084 3319 
L 1650 3319 
L 1650 2881 
L 1084 2881 
L 1084 941 
Q 1084 700 1114 631 
Q 1144 563 1211 522 
Q 1278 481 1403 481 
Q 1497 481 1650 503 
z
" transform="scale(0.015625)"/>
       <path id="ArialMT-79" d="M 397 -1278 
L 334 -750 
Q 519 -800 656 -800 
Q 844 -800 956 -737 
Q 1069 -675 1141 -563 
Q 1194 -478 1313 -144 
Q 1328 -97 1363 -6 
L 103 3319 
L 709 3319 
L 1400 1397 
Q 1534 1031 1641 628 
Q 1738 1016 1872 1384 
L 2581 3319 
L 3144 3319 
L 1881 -56 
Q 1678 -603 1566 -809 
Q 1416 -1088 1222 -1217 
Q 1028 -1347 759 -1347 
Q 597 -1347 397 -1278 
z
" transform="scale(0.015625)"/>
      </defs>
      <use xlink:href="#ArialMT-44"/>
      <use xlink:href="#ArialMT-65" x="72.216797"/>
      <use xlink:href="#ArialMT-6e" x="127.832031"/>
      <use xlink:href="#ArialMT-73" x="183.447266"/>
      <use xlink:href="#ArialMT-69" x="233.447266"/>
      <use xlink:href="#ArialMT-74" x="255.664062"/>
      <use xlink:href="#ArialMT-79" x="283.447266"/>
     </g>
    </g>
   </g>
   <g id="patch_3">
    <path d="M 139.679325 384.48 
L 170.942327 384.48 
L 170.942327 126.341445 
L 139.679325 126.341445 
z
" clip-path="url(#pef74621d4b)" style="fill: #ff0000; fill-opacity: 0.6; stroke: #ffffff; stroke-linejoin: miter"/>
   </g>
   <g id="patch_4">
    <path d="M 170.942327 384.48 
L 202.20533 384.48 
L 202.20533 172.694498 
L 170.942327 172.694498 
z
" clip-path="url(#pef74621d4b)" style="fill: #ff0000; fill-opacity: 0.6; stroke: #ffffff; stroke-linejoin: miter"/>
   </g>
   <g id="patch_5">
    <path d="M 202.20533 384.48 
L 233.468333 384.48 
L 233.468333 207.858883 
L 202.20533 207.858883 
z
" clip-path="url(#pef74621d4b)" style="fill: #ff0000; fill-opacity: 0.6; stroke: #ffffff; stroke-linejoin: miter"/>
   </g>
   <g id="patch_6">
    <path d="M 233.468333 384.48 
L 264.731336 384.48 
L 264.731336 354.909949 
L 233.468333 354.909949 
z
" clip-path="url(#pef74621d4b)" style="fill: #ff0000; fill-opacity: 0.6; stroke: #ffffff; stroke-linejoin: miter"/>
   </g>
   <g id="patch_7">
    <path d="M 264.731336 384.48 
L 295.994339 384.48 
L 295.994339 338.126947 
L 264.731336 338.126947 
z
" clip-path="url(#pef74621d4b)" style="fill: #ff0000; fill-opacity: 0.6; stroke: #ffffff; stroke-linejoin: miter"/>
   </g>
   <g id="patch_8">
    <path d="M 295.994339 384.48 
L 327.257342 384.48 
L 327.257342 365.299426 
L 295.994339 365.299426 
z
" clip-path="url(#pef74621d4b)" style="fill: #ff0000; fill-opacity: 0.6; stroke: #ffffff; stroke-linejoin: miter"/>
   </g>
   <g id="patch_9">
    <path d="M 327.257342 384.48 
L 358.520345 384.48 
L 358.520345 359.705092 
L 327.257342 359.705092 
z
" clip-path="url(#pef74621d4b)" style="fill: #ff0000; fill-opacity: 0.6; stroke: #ffffff; stroke-linejoin: miter"/>
   </g>
   <g id="patch_10">
    <path d="M 358.520345 384.48 
L 389.783347 384.48 
L 389.783347 350.913996 
L 358.520345 350.913996 
z
" clip-path="url(#pef74621d4b)" style="fill: #ff0000; fill-opacity: 0.6; stroke: #ffffff; stroke-linejoin: miter"/>
   </g>
   <g id="patch_11">
    <path d="M 389.783347 384.48 
L 421.04635 384.48 
L 421.04635 366.098617 
L 389.783347 366.098617 
z
" clip-path="url(#pef74621d4b)" style="fill: #ff0000; fill-opacity: 0.6; stroke: #ffffff; stroke-linejoin: miter"/>
   </g>
   <g id="patch_12">
    <path d="M 421.04635 384.48 
L 452.309353 384.48 
L 452.309353 344.520471 
L 421.04635 344.520471 
z
" clip-path="url(#pef74621d4b)" style="fill: #ff0000; fill-opacity: 0.6; stroke: #ffffff; stroke-linejoin: miter"/>
   </g>
   <g id="patch_13">
    <path d="M 456.216403 384.48 
L 487.712928 384.48 
L 487.712928 160.278203 
L 456.216403 160.278203 
z
" clip-path="url(#pef74621d4b)" style="fill: #f08080; fill-opacity: 0.6; stroke: #ffffff; stroke-linejoin: miter"/>
   </g>
   <g id="patch_14">
    <path d="M 487.712928 384.48 
L 519.209452 384.48 
L 519.209452 137.858023 
L 487.712928 137.858023 
z
" clip-path="url(#pef74621d4b)" style="fill: #f08080; fill-opacity: 0.6; stroke: #ffffff; stroke-linejoin: miter"/>
   </g>
   <g id="patch_15">
    <path d="M 519.209452 384.48 
L 550.705977 384.48 
L 550.705977 317.219461 
L 519.209452 317.219461 
z
" clip-path="url(#pef74621d4b)" style="fill: #f08080; fill-opacity: 0.6; stroke: #ffffff; stroke-linejoin: miter"/>
   </g>
   <g id="patch_16">
    <path d="M 550.705977 384.48 
L 582.202502 384.48 
L 582.202502 384.48 
L 550.705977 384.48 
z
" clip-path="url(#pef74621d4b)" style="fill: #f08080; fill-opacity: 0.6; stroke: #ffffff; stroke-linejoin: miter"/>
   </g>
   <g id="patch_17">
    <path d="M 582.202502 384.48 
L 613.699027 384.48 
L 613.699027 384.48 
L 582.202502 384.48 
z
" clip-path="url(#pef74621d4b)" style="fill: #f08080; fill-opacity: 0.6; stroke: #ffffff; stroke-linejoin: miter"/>
   </g>
   <g id="patch_18">
    <path d="M 613.699027 384.48 
L 645.195552 384.48 
L 645.195552 294.799281 
L 613.699027 294.799281 
z
" clip-path="url(#pef74621d4b)" style="fill: #f08080; fill-opacity: 0.6; stroke: #ffffff; stroke-linejoin: miter"/>
   </g>
   <g id="patch_19">
    <path d="M 645.195552 384.48 
L 676.692076 384.48 
L 676.692076 160.278203 
L 645.195552 160.278203 
z
" clip-path="url(#pef74621d4b)" style="fill: #f08080; fill-opacity: 0.6; stroke: #ffffff; stroke-linejoin: miter"/>
   </g>
   <g id="patch_20">
    <path d="M 138.436364 384.48 
L 169.404878 384.48 
L 169.404878 236.291211 
L 138.436364 236.291211 
z
" clip-path="url(#pef74621d4b)" style="fill: #0000ff; fill-opacity: 0.6; stroke: #ffffff; stroke-linejoin: miter"/>
   </g>
   <g id="patch_21">
    <path d="M 169.404878 384.48 
L 200.373393 384.48 
L 200.373393 231.351584 
L 169.404878 231.351584 
z
" clip-path="url(#pef74621d4b)" style="fill: #0000ff; fill-opacity: 0.6; stroke: #ffffff; stroke-linejoin: miter"/>
   </g>
   <g id="patch_22">
    <path d="M 200.373393 384.48 
L 231.341907 384.48 
L 231.341907 210.769808 
L 200.373393 210.769808 
z
" clip-path="url(#pef74621d4b)" style="fill: #0000ff; fill-opacity: 0.6; stroke: #ffffff; stroke-linejoin: miter"/>
   </g>
   <g id="patch_23">
    <path d="M 231.341907 384.48 
L 262.310422 384.48 
L 262.310422 245.347192 
L 231.341907 245.347192 
z
" clip-path="url(#pef74621d4b)" style="fill: #0000ff; fill-opacity: 0.6; stroke: #ffffff; stroke-linejoin: miter"/>
   </g>
   <g id="patch_24">
    <path d="M 262.310422 384.48 
L 293.278936 384.48 
L 293.278936 299.271446 
L 262.310422 299.271446 
z
" clip-path="url(#pef74621d4b)" style="fill: #0000ff; fill-opacity: 0.6; stroke: #ffffff; stroke-linejoin: miter"/>
   </g>
   <g id="patch_25">
    <path d="M 293.278936 384.48 
L 324.247451 384.48 
L 324.247451 346.197896 
L 293.278936 346.197896 
z
" clip-path="url(#pef74621d4b)" style="fill: #0000ff; fill-opacity: 0.6; stroke: #ffffff; stroke-linejoin: miter"/>
   </g>
   <g id="patch_26">
    <path d="M 324.247451 384.48 
L 355.215966 384.48 
L 355.215966 354.018971 
L 324.247451 354.018971 
z
" clip-path="url(#pef74621d4b)" style="fill: #0000ff; fill-opacity: 0.6; stroke: #ffffff; stroke-linejoin: miter"/>
   </g>
   <g id="patch_27">
    <path d="M 355.215966 384.48 
L 386.18448 384.48 
L 386.18448 344.139718 
L 355.215966 344.139718 
z
" clip-path="url(#pef74621d4b)" style="fill: #0000ff; fill-opacity: 0.6; stroke: #ffffff; stroke-linejoin: miter"/>
   </g>
   <g id="patch_28">
    <path d="M 386.18448 384.48 
L 417.152995 384.48 
L 417.152995 353.1957 
L 386.18448 353.1957 
z
" clip-path="url(#pef74621d4b)" style="fill: #0000ff; fill-opacity: 0.6; stroke: #ffffff; stroke-linejoin: miter"/>
   </g>
   <g id="patch_29">
    <path d="M 417.152995 384.48 
L 448.121509 384.48 
L 448.121509 357.723691 
L 417.152995 357.723691 
z
" clip-path="url(#pef74621d4b)" style="fill: #0000ff; fill-opacity: 0.6; stroke: #ffffff; stroke-linejoin: miter"/>
   </g>
   <g id="patch_30">
    <path d="M 452.869036 384.48 
L 485.568436 384.48 
L 485.568436 277.607711 
L 452.869036 277.607711 
z
" clip-path="url(#pef74621d4b)" style="fill: #add8e6; fill-opacity: 0.6; stroke: #ffffff; stroke-linejoin: miter"/>
   </g>
   <g id="patch_31">
    <path d="M 485.568436 384.48 
L 518.267836 384.48 
L 518.267836 239.439036 
L 485.568436 239.439036 
z
" clip-path="url(#pef74621d4b)" style="fill: #add8e6; fill-opacity: 0.6; stroke: #ffffff; stroke-linejoin: miter"/>
   </g>
   <g id="patch_32">
    <path d="M 518.267836 384.48 
L 550.967236 384.48 
L 550.967236 380.663133 
L 518.267836 380.663133 
z
" clip-path="url(#pef74621d4b)" style="fill: #add8e6; fill-opacity: 0.6; stroke: #ffffff; stroke-linejoin: miter"/>
   </g>
   <g id="patch_33">
    <path d="M 550.967236 384.48 
L 583.666636 384.48 
L 583.666636 384.48 
L 550.967236 384.48 
z
" clip-path="url(#pef74621d4b)" style="fill: #add8e6; fill-opacity: 0.6; stroke: #ffffff; stroke-linejoin: miter"/>
   </g>
   <g id="patch_34">
    <path d="M 583.666636 384.48 
L 616.366036 384.48 
L 616.366036 357.761928 
L 583.666636 357.761928 
z
" clip-path="url(#pef74621d4b)" style="fill: #add8e6; fill-opacity: 0.6; stroke: #ffffff; stroke-linejoin: miter"/>
   </g>
   <g id="patch_35">
    <path d="M 616.366036 384.48 
L 649.065436 384.48 
L 649.065436 67.68 
L 616.366036 67.68 
z
" clip-path="url(#pef74621d4b)" style="fill: #add8e6; fill-opacity: 0.6; stroke: #ffffff; stroke-linejoin: miter"/>
   </g>
   <g id="patch_36">
    <path d="M 649.065436 384.48 
L 681.764836 384.48 
L 681.764836 197.453494 
L 649.065436 197.453494 
z
" clip-path="url(#pef74621d4b)" style="fill: #add8e6; fill-opacity: 0.6; stroke: #ffffff; stroke-linejoin: miter"/>
   </g>
   <g id="patch_37">
    <path d="M 681.764836 384.48 
L 714.464236 384.48 
L 714.464236 373.029398 
L 681.764836 373.029398 
z
" clip-path="url(#pef74621d4b)" style="fill: #add8e6; fill-opacity: 0.6; stroke: #ffffff; stroke-linejoin: miter"/>
   </g>
   <g id="patch_38">
    <path d="M 714.464236 384.48 
L 747.163636 384.48 
L 747.163636 361.578795 
L 714.464236 361.578795 
z
" clip-path="url(#pef74621d4b)" style="fill: #add8e6; fill-opacity: 0.6; stroke: #ffffff; stroke-linejoin: miter"/>
   </g>
   <g id="line2d_18">
    <path d="M 139.679325 245.890502 
L 142.821335 233.012918 
L 145.963345 221.485987 
L 147.53435 216.303542 
L 149.105356 211.532155 
L 150.676361 207.179167 
L 152.247366 203.243713 
L 153.818371 199.717169 
L 155.389376 196.583842 
L 156.960381 193.821879 
L 158.531387 191.404349 
L 160.102392 189.300461 
L 161.673397 187.476863 
L 163.244402 185.898963 
L 164.815407 184.532233 
L 166.386412 183.343444 
L 169.528423 181.379824 
L 172.670433 179.806876 
L 175.812443 178.498462 
L 178.954454 177.413266 
L 182.096464 176.592407 
L 185.238475 176.146981 
L 186.80948 176.114207 
L 188.380485 176.238597 
L 189.95149 176.544438 
L 191.522495 177.056225 
L 193.0935 177.797946 
L 194.664506 178.792397 
L 196.235511 180.060571 
L 197.806516 181.62109 
L 199.377521 183.489717 
L 200.948526 185.678936 
L 202.519531 188.197607 
L 204.090537 191.050702 
L 205.661542 194.239116 
L 207.232547 197.759562 
L 208.803552 201.604544 
L 211.945562 210.21745 
L 215.087573 219.937494 
L 218.229583 230.567982 
L 222.942599 247.684008 
L 232.36863 282.685845 
L 235.51064 293.584207 
L 238.65265 303.712308 
L 241.794661 312.898086 
L 244.936671 321.015853 
L 246.507676 324.647833 
L 248.078681 327.986898 
L 249.649686 331.03029 
L 251.220692 333.777912 
L 252.791697 336.232227 
L 254.362702 338.398143 
L 255.933707 340.282909 
L 257.504712 341.895998 
L 259.075717 343.248995 
L 260.646723 344.355485 
L 262.217728 345.230918 
L 263.788733 345.892481 
L 265.359738 346.358937 
L 266.930743 346.650452 
L 268.501748 346.788391 
L 271.643759 346.693594 
L 274.785769 346.259961 
L 282.640795 344.893045 
L 285.782805 344.653288 
L 288.924816 344.765864 
L 292.066826 345.29154 
L 295.208836 346.244151 
L 298.350847 347.591949 
L 301.492857 349.263422 
L 306.205872 352.149751 
L 312.489893 356.066403 
L 315.631904 357.790866 
L 318.773914 359.235331 
L 321.915924 360.339885 
L 325.057935 361.074505 
L 328.199945 361.438139 
L 331.341955 361.455299 
L 334.483966 361.171028 
L 337.625976 360.645085 
L 342.338991 359.554143 
L 351.765022 357.15292 
L 356.478038 356.249141 
L 359.620048 355.854026 
L 362.762059 355.650366 
L 365.904069 355.645066 
L 369.046079 355.832613 
L 372.18809 356.196767 
L 376.901105 357.018512 
L 381.614121 358.075563 
L 395.753167 361.492405 
L 400.466183 362.336303 
L 403.608193 362.725185 
L 406.750203 362.94395 
L 409.892214 362.973101 
L 413.034224 362.803629 
L 416.176234 362.440956 
L 420.88925 361.590666 
L 433.457291 358.951747 
L 436.599302 358.65267 
L 439.741312 358.661394 
L 442.883322 359.033596 
L 446.025333 359.798262 
L 449.167343 360.954116 
L 452.309353 362.469586 
L 452.309353 362.469586 
" clip-path="url(#pef74621d4b)" style="fill: none; stroke: #ff0000; stroke-width: 1.5; stroke-linecap: round"/>
   </g>
   <g id="line2d_19">
    <path d="M 456.216403 280.138222 
L 463.971829 258.709078 
L 468.4035 247.209933 
L 471.727254 239.230896 
L 475.051008 231.976784 
L 477.266844 227.614889 
L 479.48268 223.678129 
L 481.698516 220.201673 
L 483.914352 217.216452 
L 486.130188 214.748686 
L 488.346024 212.819489 
L 489.453942 212.061978 
L 490.56186 211.444562 
L 491.669778 210.968324 
L 492.777695 210.633988 
L 493.885613 210.441919 
L 494.993531 210.392121 
L 496.101449 210.484241 
L 497.209367 210.717573 
L 498.317285 211.091061 
L 499.425203 211.603309 
L 500.533121 212.252584 
L 502.748957 213.953674 
L 504.964793 216.174168 
L 507.180629 218.889264 
L 509.396465 222.069972 
L 511.612301 225.683609 
L 513.828137 229.694342 
L 516.043973 234.06374 
L 519.367726 241.201439 
L 522.69148 248.912703 
L 527.123152 259.835432 
L 534.878578 279.763535 
L 541.526086 296.585863 
L 545.957757 307.181596 
L 549.281511 314.639207 
L 552.605265 321.586363 
L 555.929019 327.953106 
L 559.252773 333.679981 
L 561.468609 337.117494 
L 563.684445 340.235871 
L 565.900281 343.024313 
L 568.116117 345.473613 
L 570.331952 347.57609 
L 572.547788 349.325532 
L 574.763624 350.717169 
L 576.97946 351.747666 
L 579.195296 352.415135 
L 581.411132 352.719182 
L 583.626968 352.660966 
L 585.842804 352.243286 
L 588.05864 351.470687 
L 590.274476 350.349576 
L 592.490312 348.888355 
L 594.706148 347.097556 
L 596.921983 344.989973 
L 599.137819 342.580793 
L 601.353655 339.887705 
L 603.569491 336.930993 
L 606.893245 332.05253 
L 610.216999 326.721814 
L 614.648671 319.088626 
L 629.051604 293.51085 
L 632.375358 288.250892 
L 635.699112 283.52348 
L 637.914948 280.73061 
L 640.130784 278.264987 
L 642.34662 276.157443 
L 644.562456 274.434957 
L 646.778292 273.120177 
L 648.994127 272.231008 
L 651.209963 271.780285 
L 652.317881 271.721901 
L 653.425799 271.775523 
L 655.641635 272.218784 
L 657.857471 273.106622 
L 660.073307 274.430159 
L 662.289143 276.175246 
L 664.504979 278.322743 
L 666.720815 280.848878 
L 668.936651 283.725709 
L 671.152487 286.92165 
L 674.47624 292.237454 
L 676.692076 296.074553 
L 676.692076 296.074553 
" clip-path="url(#pef74621d4b)" style="fill: none; stroke: #f08080; stroke-width: 1.5; stroke-linecap: round"/>
   </g>
   <g id="line2d_20">
    <path d="M 138.436364 309.273837 
L 143.104984 291.561189 
L 146.217397 280.740219 
L 149.329811 271.202717 
L 150.886018 267.002211 
L 152.442224 263.204885 
L 153.998431 259.814753 
L 155.554638 256.824914 
L 157.110845 254.218502 
L 158.667052 251.970022 
L 160.223258 250.046985 
L 161.779465 248.41173 
L 163.335672 247.023327 
L 164.891879 245.839447 
L 168.004292 243.919165 
L 171.116706 242.344531 
L 177.341533 239.332493 
L 180.453946 237.634213 
L 183.56636 235.741771 
L 188.23498 232.556561 
L 192.9036 229.056075 
L 202.240841 221.891156 
L 205.353254 219.787653 
L 208.465668 218.036333 
L 210.021875 217.337168 
L 211.578081 216.778363 
L 213.134288 216.375106 
L 214.690495 216.140284 
L 216.246702 216.083873 
L 217.802908 216.212444 
L 219.359115 216.528842 
L 220.915322 217.032066 
L 222.471529 217.717369 
L 224.027736 218.576571 
L 225.583942 219.598586 
L 228.696356 222.076462 
L 231.808769 225.033124 
L 234.921183 228.356039 
L 238.033596 231.961238 
L 242.702217 237.81615 
L 245.81463 242.024712 
L 248.927044 246.510787 
L 252.039457 251.301058 
L 255.151871 256.401386 
L 259.820491 264.575758 
L 266.045318 276.157939 
L 283.163592 308.557618 
L 287.832213 316.790495 
L 290.944626 321.913555 
L 294.05704 326.646936 
L 297.169453 330.922001 
L 300.281867 334.696839 
L 303.39428 337.962685 
L 306.506694 340.742598 
L 309.619107 343.082967 
L 312.731521 345.040626 
L 315.843934 346.66955 
L 318.956348 348.010846 
L 322.068762 349.088389 
L 325.181175 349.910385 
L 328.293589 350.475327 
L 331.406002 350.779721 
L 334.518416 350.824978 
L 337.630829 350.621785 
L 340.743243 350.191516 
L 343.855656 349.565366 
L 348.524276 348.345822 
L 364.086344 343.816797 
L 367.198758 343.204639 
L 370.311171 342.797425 
L 373.423585 342.63016 
L 376.535998 342.729591 
L 379.648412 343.112133 
L 382.760825 343.780958 
L 385.873239 344.722543 
L 388.985652 345.90369 
L 393.654273 348.002043 
L 402.991513 352.42692 
L 407.660133 354.290781 
L 412.328754 355.825557 
L 421.665994 358.6416 
L 424.778408 359.810844 
L 427.890821 361.20855 
L 431.003235 362.856875 
L 434.115648 364.739685 
L 438.784269 367.886827 
L 448.121509 374.349674 
L 448.121509 374.349674 
" clip-path="url(#pef74621d4b)" style="fill: none; stroke: #0000ff; stroke-width: 1.5; stroke-linecap: round"/>
   </g>
   <g id="line2d_21">
    <path d="M 452.869036 322.061703 
L 457.305638 316.666988 
L 460.263373 313.328119 
L 463.221108 310.225114 
L 466.178843 307.379961 
L 469.136577 304.812766 
L 472.094312 302.543013 
L 475.052047 300.59072 
L 478.009781 298.977319 
L 480.967516 297.726083 
L 483.925251 296.862007 
L 486.882985 296.411073 
L 488.361853 296.348611 
L 489.84072 296.398937 
L 491.319587 296.564909 
L 492.798455 296.849118 
L 494.277322 297.253816 
L 495.756189 297.780843 
L 497.235057 298.431555 
L 500.192791 300.106633 
L 503.150526 302.277755 
L 506.108261 304.932152 
L 509.065995 308.044499 
L 512.02373 311.576547 
L 514.981465 315.477536 
L 517.939199 319.685356 
L 522.375801 326.413677 
L 534.20674 344.846763 
L 537.164475 349.117836 
L 540.122209 353.101377 
L 543.079944 356.73193 
L 546.037679 359.951324 
L 548.995413 362.708425 
L 551.953148 364.958392 
L 553.432015 365.880638 
L 554.910883 366.661561 
L 556.38975 367.296795 
L 557.868617 367.78213 
L 559.347485 368.113475 
L 560.826352 368.286817 
L 562.305219 368.298196 
L 563.784087 368.143679 
L 565.262954 367.819341 
L 566.741821 367.32126 
L 568.220689 366.645513 
L 569.699556 365.78819 
L 571.178423 364.745412 
L 572.657291 363.513359 
L 574.136158 362.088312 
L 575.615025 360.466702 
L 577.093893 358.645167 
L 578.57276 356.620623 
L 580.051627 354.390334 
L 583.009362 349.303843 
L 585.967097 343.374103 
L 588.924831 336.600887 
L 591.882566 328.998396 
L 594.840301 320.598196 
L 597.798035 311.451796 
L 600.75577 301.632627 
L 605.192372 285.860021 
L 611.107841 263.569085 
L 618.502178 235.545212 
L 622.93878 219.7948 
L 625.896515 210.154745 
L 628.854249 201.427584 
L 631.811984 193.790088 
L 633.290851 190.429667 
L 634.769719 187.398211 
L 636.248586 184.711079 
L 637.727453 182.381709 
L 639.206321 180.421505 
L 640.685188 178.839753 
L 642.164056 177.643549 
L 643.642923 176.837752 
L 645.12179 176.424962 
L 646.600658 176.405514 
L 648.079525 176.777499 
L 649.558392 177.536808 
L 651.03726 178.677184 
L 652.516127 180.190308 
L 653.994994 182.065894 
L 655.473862 184.291799 
L 656.952729 186.854149 
L 658.431596 189.737479 
L 659.910464 192.92488 
L 662.868198 200.137975 
L 665.825933 208.335328 
L 668.783668 217.346153 
L 671.741402 226.992321 
L 676.178004 242.25903 
L 688.008943 283.622932 
L 692.445545 297.990454 
L 695.40328 306.922462 
L 698.361014 315.250702 
L 701.318749 322.923449 
L 704.276484 329.908543 
L 707.234218 336.192393 
L 710.191953 341.778575 
L 713.149688 346.686063 
L 716.107422 350.947186 
L 719.065157 354.605361 
L 722.022892 357.712697 
L 724.980626 360.327535 
L 727.938361 362.512009 
L 730.896096 364.329699 
L 733.85383 365.843445 
L 736.811565 367.11339 
L 741.248167 368.681656 
L 745.684769 369.988576 
L 747.163636 370.389294 
L 747.163636 370.389294 
" clip-path="url(#pef74621d4b)" style="fill: none; stroke: #add8e6; stroke-width: 1.5; stroke-linecap: round"/>
   </g>
   <g id="patch_39">
    <path d="M 108 384.48 
L 108 51.84 
" style="fill: none; stroke: #cccccc; stroke-width: 1.25; stroke-linejoin: miter; stroke-linecap: square"/>
   </g>
   <g id="patch_40">
    <path d="M 777.6 384.48 
L 777.6 51.84 
" style="fill: none; stroke: #cccccc; stroke-width: 1.25; stroke-linejoin: miter; stroke-linecap: square"/>
   </g>
   <g id="patch_41">
    <path d="M 108 384.48 
L 777.6 384.48 
" style="fill: none; stroke: #cccccc; stroke-width: 1.25; stroke-linejoin: miter; stroke-linecap: square"/>
   </g>
   <g id="patch_42">
    <path d="M 108 51.84 
L 777.6 51.84 
" style="fill: none; stroke: #cccccc; stroke-width: 1.25; stroke-linejoin: miter; stroke-linecap: square"/>
   </g>
   <g id="text_20">
    <!-- Comparison of Bias Scores: Xi Jinping vs. Vladimir Putin -->
    <g style="fill: #262626" transform="translate(292.744688 45.84) scale(0.12 -0.12)">
     <defs>
      <path id="ArialMT-43" d="M 3763 1606 
L 4369 1453 
Q 4178 706 3683 314 
Q 3188 -78 2472 -78 
Q 1731 -78 1267 223 
Q 803 525 561 1097 
Q 319 1669 319 2325 
Q 319 3041 592 3573 
Q 866 4106 1370 4382 
Q 1875 4659 2481 4659 
Q 3169 4659 3637 4309 
Q 4106 3959 4291 3325 
L 3694 3184 
Q 3534 3684 3231 3912 
Q 2928 4141 2469 4141 
Q 1941 4141 1586 3887 
Q 1231 3634 1087 3207 
Q 944 2781 944 2328 
Q 944 1744 1114 1308 
Q 1284 872 1643 656 
Q 2003 441 2422 441 
Q 2931 441 3284 734 
Q 3638 1028 3763 1606 
z
" transform="scale(0.015625)"/>
      <path id="ArialMT-6d" d="M 422 0 
L 422 3319 
L 925 3319 
L 925 2853 
Q 1081 3097 1340 3245 
Q 1600 3394 1931 3394 
Q 2300 3394 2536 3241 
Q 2772 3088 2869 2813 
Q 3263 3394 3894 3394 
Q 4388 3394 4653 3120 
Q 4919 2847 4919 2278 
L 4919 0 
L 4359 0 
L 4359 2091 
Q 4359 2428 4304 2576 
Q 4250 2725 4106 2815 
Q 3963 2906 3769 2906 
Q 3419 2906 3187 2673 
Q 2956 2441 2956 1928 
L 2956 0 
L 2394 0 
L 2394 2156 
Q 2394 2531 2256 2718 
Q 2119 2906 1806 2906 
Q 1569 2906 1367 2781 
Q 1166 2656 1075 2415 
Q 984 2175 984 1722 
L 984 0 
L 422 0 
z
" transform="scale(0.015625)"/>
      <path id="ArialMT-70" d="M 422 -1272 
L 422 3319 
L 934 3319 
L 934 2888 
Q 1116 3141 1344 3267 
Q 1572 3394 1897 3394 
Q 2322 3394 2647 3175 
Q 2972 2956 3137 2557 
Q 3303 2159 3303 1684 
Q 3303 1175 3120 767 
Q 2938 359 2589 142 
Q 2241 -75 1856 -75 
Q 1575 -75 1351 44 
Q 1128 163 984 344 
L 984 -1272 
L 422 -1272 
z
M 931 1641 
Q 931 1000 1190 694 
Q 1450 388 1819 388 
Q 2194 388 2461 705 
Q 2728 1022 2728 1688 
Q 2728 2322 2467 2637 
Q 2206 2953 1844 2953 
Q 1484 2953 1207 2617 
Q 931 2281 931 1641 
z
" transform="scale(0.015625)"/>
      <path id="ArialMT-66" d="M 556 0 
L 556 2881 
L 59 2881 
L 59 3319 
L 556 3319 
L 556 3672 
Q 556 4006 616 4169 
Q 697 4388 901 4523 
Q 1106 4659 1475 4659 
Q 1713 4659 2000 4603 
L 1916 4113 
Q 1741 4144 1584 4144 
Q 1328 4144 1222 4034 
Q 1116 3925 1116 3625 
L 1116 3319 
L 1763 3319 
L 1763 2881 
L 1116 2881 
L 1116 0 
L 556 0 
z
" transform="scale(0.015625)"/>
      <path id="ArialMT-3a" d="M 578 2678 
L 578 3319 
L 1219 3319 
L 1219 2678 
L 578 2678 
z
M 578 0 
L 578 641 
L 1219 641 
L 1219 0 
L 578 0 
z
" transform="scale(0.015625)"/>
      <path id="ArialMT-58" d="M 28 0 
L 1800 2388 
L 238 4581 
L 959 4581 
L 1791 3406 
Q 2050 3041 2159 2844 
Q 2313 3094 2522 3366 
L 3444 4581 
L 4103 4581 
L 2494 2422 
L 4228 0 
L 3478 0 
L 2325 1634 
Q 2228 1775 2125 1941 
Q 1972 1691 1906 1597 
L 756 0 
L 28 0 
z
" transform="scale(0.015625)"/>
      <path id="ArialMT-4a" d="M 184 1300 
L 731 1375 
Q 753 850 928 656 
Q 1103 463 1413 463 
Q 1641 463 1806 567 
Q 1972 672 2034 851 
Q 2097 1031 2097 1425 
L 2097 4581 
L 2703 4581 
L 2703 1459 
Q 2703 884 2564 568 
Q 2425 253 2123 87 
Q 1822 -78 1416 -78 
Q 813 -78 492 269 
Q 172 616 184 1300 
z
" transform="scale(0.015625)"/>
      <path id="ArialMT-67" d="M 319 -275 
L 866 -356 
Q 900 -609 1056 -725 
Q 1266 -881 1628 -881 
Q 2019 -881 2231 -725 
Q 2444 -569 2519 -288 
Q 2563 -116 2559 434 
Q 2191 0 1641 0 
Q 956 0 581 494 
Q 206 988 206 1678 
Q 206 2153 378 2554 
Q 550 2956 876 3175 
Q 1203 3394 1644 3394 
Q 2231 3394 2613 2919 
L 2613 3319 
L 3131 3319 
L 3131 450 
Q 3131 -325 2973 -648 
Q 2816 -972 2473 -1159 
Q 2131 -1347 1631 -1347 
Q 1038 -1347 672 -1080 
Q 306 -813 319 -275 
z
M 784 1719 
Q 784 1066 1043 766 
Q 1303 466 1694 466 
Q 2081 466 2343 764 
Q 2606 1063 2606 1700 
Q 2606 2309 2336 2618 
Q 2066 2928 1684 2928 
Q 1309 2928 1046 2623 
Q 784 2319 784 1719 
z
" transform="scale(0.015625)"/>
      <path id="ArialMT-76" d="M 1344 0 
L 81 3319 
L 675 3319 
L 1388 1331 
Q 1503 1009 1600 663 
Q 1675 925 1809 1294 
L 2547 3319 
L 3125 3319 
L 1869 0 
L 1344 0 
z
" transform="scale(0.015625)"/>
      <path id="ArialMT-56" d="M 1803 0 
L 28 4581 
L 684 4581 
L 1875 1253 
Q 2019 853 2116 503 
Q 2222 878 2363 1253 
L 3600 4581 
L 4219 4581 
L 2425 0 
L 1803 0 
z
" transform="scale(0.015625)"/>
      <path id="ArialMT-6c" d="M 409 0 
L 409 4581 
L 972 4581 
L 972 0 
L 409 0 
z
" transform="scale(0.015625)"/>
      <path id="ArialMT-64" d="M 2575 0 
L 2575 419 
Q 2259 -75 1647 -75 
Q 1250 -75 917 144 
Q 584 363 401 755 
Q 219 1147 219 1656 
Q 219 2153 384 2558 
Q 550 2963 881 3178 
Q 1213 3394 1622 3394 
Q 1922 3394 2156 3267 
Q 2391 3141 2538 2938 
L 2538 4581 
L 3097 4581 
L 3097 0 
L 2575 0 
z
M 797 1656 
Q 797 1019 1065 703 
Q 1334 388 1700 388 
Q 2069 388 2326 689 
Q 2584 991 2584 1609 
Q 2584 2291 2321 2609 
Q 2059 2928 1675 2928 
Q 1300 2928 1048 2622 
Q 797 2316 797 1656 
z
" transform="scale(0.015625)"/>
      <path id="ArialMT-50" d="M 494 0 
L 494 4581 
L 2222 4581 
Q 2678 4581 2919 4538 
Q 3256 4481 3484 4323 
Q 3713 4166 3852 3881 
Q 3991 3597 3991 3256 
Q 3991 2672 3619 2267 
Q 3247 1863 2275 1863 
L 1100 1863 
L 1100 0 
L 494 0 
z
M 1100 2403 
L 2284 2403 
Q 2872 2403 3119 2622 
Q 3366 2841 3366 3238 
Q 3366 3525 3220 3729 
Q 3075 3934 2838 4000 
Q 2684 4041 2272 4041 
L 1100 4041 
L 1100 2403 
z
" transform="scale(0.015625)"/>
      <path id="ArialMT-75" d="M 2597 0 
L 2597 488 
Q 2209 -75 1544 -75 
Q 1250 -75 995 37 
Q 741 150 617 320 
Q 494 491 444 738 
Q 409 903 409 1263 
L 409 3319 
L 972 3319 
L 972 1478 
Q 972 1038 1006 884 
Q 1059 663 1231 536 
Q 1403 409 1656 409 
Q 1909 409 2131 539 
Q 2353 669 2445 892 
Q 2538 1116 2538 1541 
L 2538 3319 
L 3100 3319 
L 3100 0 
L 2597 0 
z
" transform="scale(0.015625)"/>
     </defs>
     <use xlink:href="#ArialMT-43"/>
     <use xlink:href="#ArialMT-6f" x="72.216797"/>
     <use xlink:href="#ArialMT-6d" x="127.832031"/>
     <use xlink:href="#ArialMT-70" x="211.132812"/>
     <use xlink:href="#ArialMT-61" x="266.748047"/>
     <use xlink:href="#ArialMT-72" x="322.363281"/>
     <use xlink:href="#ArialMT-69" x="355.664062"/>
     <use xlink:href="#ArialMT-73" x="377.880859"/>
     <use xlink:href="#ArialMT-6f" x="427.880859"/>
     <use xlink:href="#ArialMT-6e" x="483.496094"/>
     <use xlink:href="#ArialMT-20" x="539.111328"/>
     <use xlink:href="#ArialMT-6f" x="566.894531"/>
     <use xlink:href="#ArialMT-66" x="622.509766"/>
     <use xlink:href="#ArialMT-20" x="650.292969"/>
     <use xlink:href="#ArialMT-42" x="678.076172"/>
     <use xlink:href="#ArialMT-69" x="744.775391"/>
     <use xlink:href="#ArialMT-61" x="766.992188"/>
     <use xlink:href="#ArialMT-73" x="822.607422"/>
     <use xlink:href="#ArialMT-20" x="872.607422"/>
     <use xlink:href="#ArialMT-53" x="900.390625"/>
     <use xlink:href="#ArialMT-63" x="967.089844"/>
     <use xlink:href="#ArialMT-6f" x="1017.089844"/>
     <use xlink:href="#ArialMT-72" x="1072.705078"/>
     <use xlink:href="#ArialMT-65" x="1106.005859"/>
     <use xlink:href="#ArialMT-73" x="1161.621094"/>
     <use xlink:href="#ArialMT-3a" x="1211.621094"/>
     <use xlink:href="#ArialMT-20" x="1239.404297"/>
     <use xlink:href="#ArialMT-58" x="1267.1875"/>
     <use xlink:href="#ArialMT-69" x="1333.886719"/>
     <use xlink:href="#ArialMT-20" x="1356.103516"/>
     <use xlink:href="#ArialMT-4a" x="1383.886719"/>
     <use xlink:href="#ArialMT-69" x="1433.886719"/>
     <use xlink:href="#ArialMT-6e" x="1456.103516"/>
     <use xlink:href="#ArialMT-70" x="1511.71875"/>
     <use xlink:href="#ArialMT-69" x="1567.333984"/>
     <use xlink:href="#ArialMT-6e" x="1589.550781"/>
     <use xlink:href="#ArialMT-67" x="1645.166016"/>
     <use xlink:href="#ArialMT-20" x="1700.78125"/>
     <use xlink:href="#ArialMT-76" x="1728.564453"/>
     <use xlink:href="#ArialMT-73" x="1778.564453"/>
     <use xlink:href="#ArialMT-2e" x="1828.564453"/>
     <use xlink:href="#ArialMT-20" x="1856.347656"/>
     <use xlink:href="#ArialMT-56" x="1884.130859"/>
     <use xlink:href="#ArialMT-6c" x="1950.830078"/>
     <use xlink:href="#ArialMT-61" x="1973.046875"/>
     <use xlink:href="#ArialMT-64" x="2028.662109"/>
     <use xlink:href="#ArialMT-69" x="2084.277344"/>
     <use xlink:href="#ArialMT-6d" x="2106.494141"/>
     <use xlink:href="#ArialMT-69" x="2189.794922"/>
     <use xlink:href="#ArialMT-72" x="2212.011719"/>
     <use xlink:href="#ArialMT-20" x="2245.3125"/>
     <use xlink:href="#ArialMT-50" x="2273.095703"/>
     <use xlink:href="#ArialMT-75" x="2339.794922"/>
     <use xlink:href="#ArialMT-74" x="2395.410156"/>
     <use xlink:href="#ArialMT-69" x="2423.193359"/>
     <use xlink:href="#ArialMT-6e" x="2445.410156"/>
    </g>
   </g>
   <g id="legend_1">
    <g id="patch_43">
     <path d="M 115.7 123.137187 
L 284.78375 123.137187 
Q 286.98375 123.137187 286.98375 120.937187 
L 286.98375 59.54 
Q 286.98375 57.34 284.78375 57.34 
L 115.7 57.34 
Q 113.5 57.34 113.5 59.54 
L 113.5 120.937187 
Q 113.5 123.137187 115.7 123.137187 
z
" style="fill: #ffffff; opacity: 0.8; stroke: #cccccc; stroke-linejoin: miter"/>
    </g>
    <g id="patch_44">
     <path d="M 117.9 69.613594 
L 139.9 69.613594 
L 139.9 61.913594 
L 117.9 61.913594 
z
" style="fill: #ff0000; fill-opacity: 0.6; stroke: #ffffff; stroke-linejoin: miter"/>
    </g>
    <g id="text_21">
     <!-- Xi Jinping - Biased -->
     <g style="fill: #262626" transform="translate(148.7 69.613594) scale(0.11 -0.11)">
      <defs>
       <path id="ArialMT-2d" d="M 203 1375 
L 203 1941 
L 1931 1941 
L 1931 1375 
L 203 1375 
z
" transform="scale(0.015625)"/>
      </defs>
      <use xlink:href="#ArialMT-58"/>
      <use xlink:href="#ArialMT-69" x="66.699219"/>
      <use xlink:href="#ArialMT-20" x="88.916016"/>
      <use xlink:href="#ArialMT-4a" x="116.699219"/>
      <use xlink:href="#ArialMT-69" x="166.699219"/>
      <use xlink:href="#ArialMT-6e" x="188.916016"/>
      <use xlink:href="#ArialMT-70" x="244.53125"/>
      <use xlink:href="#ArialMT-69" x="300.146484"/>
      <use xlink:href="#ArialMT-6e" x="322.363281"/>
      <use xlink:href="#ArialMT-67" x="377.978516"/>
      <use xlink:href="#ArialMT-20" x="433.59375"/>
      <use xlink:href="#ArialMT-2d" x="461.376953"/>
      <use xlink:href="#ArialMT-20" x="494.677734"/>
      <use xlink:href="#ArialMT-42" x="522.460938"/>
      <use xlink:href="#ArialMT-69" x="589.160156"/>
      <use xlink:href="#ArialMT-61" x="611.376953"/>
      <use xlink:href="#ArialMT-73" x="666.992188"/>
      <use xlink:href="#ArialMT-65" x="716.992188"/>
      <use xlink:href="#ArialMT-64" x="772.607422"/>
     </g>
    </g>
    <g id="patch_45">
     <path d="M 117.9 85.302344 
L 139.9 85.302344 
L 139.9 77.602344 
L 117.9 77.602344 
z
" style="fill: #f08080; fill-opacity: 0.6; stroke: #ffffff; stroke-linejoin: miter"/>
    </g>
    <g id="text_22">
     <!-- Xi Jinping - Non-biased -->
     <g style="fill: #262626" transform="translate(148.7 85.302344) scale(0.11 -0.11)">
      <defs>
       <path id="ArialMT-4e" d="M 488 0 
L 488 4581 
L 1109 4581 
L 3516 984 
L 3516 4581 
L 4097 4581 
L 4097 0 
L 3475 0 
L 1069 3600 
L 1069 0 
L 488 0 
z
" transform="scale(0.015625)"/>
       <path id="ArialMT-62" d="M 941 0 
L 419 0 
L 419 4581 
L 981 4581 
L 981 2947 
Q 1338 3394 1891 3394 
Q 2197 3394 2470 3270 
Q 2744 3147 2920 2923 
Q 3097 2700 3197 2384 
Q 3297 2069 3297 1709 
Q 3297 856 2875 390 
Q 2453 -75 1863 -75 
Q 1275 -75 941 416 
L 941 0 
z
M 934 1684 
Q 934 1088 1097 822 
Q 1363 388 1816 388 
Q 2184 388 2453 708 
Q 2722 1028 2722 1663 
Q 2722 2313 2464 2622 
Q 2206 2931 1841 2931 
Q 1472 2931 1203 2611 
Q 934 2291 934 1684 
z
" transform="scale(0.015625)"/>
      </defs>
      <use xlink:href="#ArialMT-58"/>
      <use xlink:href="#ArialMT-69" x="66.699219"/>
      <use xlink:href="#ArialMT-20" x="88.916016"/>
      <use xlink:href="#ArialMT-4a" x="116.699219"/>
      <use xlink:href="#ArialMT-69" x="166.699219"/>
      <use xlink:href="#ArialMT-6e" x="188.916016"/>
      <use xlink:href="#ArialMT-70" x="244.53125"/>
      <use xlink:href="#ArialMT-69" x="300.146484"/>
      <use xlink:href="#ArialMT-6e" x="322.363281"/>
      <use xlink:href="#ArialMT-67" x="377.978516"/>
      <use xlink:href="#ArialMT-20" x="433.59375"/>
      <use xlink:href="#ArialMT-2d" x="461.376953"/>
      <use xlink:href="#ArialMT-20" x="494.677734"/>
      <use xlink:href="#ArialMT-4e" x="522.460938"/>
      <use xlink:href="#ArialMT-6f" x="594.677734"/>
      <use xlink:href="#ArialMT-6e" x="650.292969"/>
      <use xlink:href="#ArialMT-2d" x="705.908203"/>
      <use xlink:href="#ArialMT-62" x="739.208984"/>
      <use xlink:href="#ArialMT-69" x="794.824219"/>
      <use xlink:href="#ArialMT-61" x="817.041016"/>
      <use xlink:href="#ArialMT-73" x="872.65625"/>
      <use xlink:href="#ArialMT-65" x="922.65625"/>
      <use xlink:href="#ArialMT-64" x="978.271484"/>
     </g>
    </g>
    <g id="patch_46">
     <path d="M 117.9 100.991094 
L 139.9 100.991094 
L 139.9 93.291094 
L 117.9 93.291094 
z
" style="fill: #0000ff; fill-opacity: 0.6; stroke: #ffffff; stroke-linejoin: miter"/>
    </g>
    <g id="text_23">
     <!-- Vladimir Putin - Biased -->
     <g style="fill: #262626" transform="translate(148.7 100.991094) scale(0.11 -0.11)">
      <use xlink:href="#ArialMT-56"/>
      <use xlink:href="#ArialMT-6c" x="66.699219"/>
      <use xlink:href="#ArialMT-61" x="88.916016"/>
      <use xlink:href="#ArialMT-64" x="144.53125"/>
      <use xlink:href="#ArialMT-69" x="200.146484"/>
      <use xlink:href="#ArialMT-6d" x="222.363281"/>
      <use xlink:href="#ArialMT-69" x="305.664062"/>
      <use xlink:href="#ArialMT-72" x="327.880859"/>
      <use xlink:href="#ArialMT-20" x="361.181641"/>
      <use xlink:href="#ArialMT-50" x="388.964844"/>
      <use xlink:href="#ArialMT-75" x="455.664062"/>
      <use xlink:href="#ArialMT-74" x="511.279297"/>
      <use xlink:href="#ArialMT-69" x="539.0625"/>
      <use xlink:href="#ArialMT-6e" x="561.279297"/>
      <use xlink:href="#ArialMT-20" x="616.894531"/>
      <use xlink:href="#ArialMT-2d" x="644.677734"/>
      <use xlink:href="#ArialMT-20" x="677.978516"/>
      <use xlink:href="#ArialMT-42" x="705.761719"/>
      <use xlink:href="#ArialMT-69" x="772.460938"/>
      <use xlink:href="#ArialMT-61" x="794.677734"/>
      <use xlink:href="#ArialMT-73" x="850.292969"/>
      <use xlink:href="#ArialMT-65" x="900.292969"/>
      <use xlink:href="#ArialMT-64" x="955.908203"/>
     </g>
    </g>
    <g id="patch_47">
     <path d="M 117.9 116.550938 
L 139.9 116.550938 
L 139.9 108.850938 
L 117.9 108.850938 
z
" style="fill: #add8e6; fill-opacity: 0.6; stroke: #ffffff; stroke-linejoin: miter"/>
    </g>
    <g id="text_24">
     <!-- Vladimir Putin - Non-biased -->
     <g style="fill: #262626" transform="translate(148.7 116.550938) scale(0.11 -0.11)">
      <use xlink:href="#ArialMT-56"/>
      <use xlink:href="#ArialMT-6c" x="66.699219"/>
      <use xlink:href="#ArialMT-61" x="88.916016"/>
      <use xlink:href="#ArialMT-64" x="144.53125"/>
      <use xlink:href="#ArialMT-69" x="200.146484"/>
      <use xlink:href="#ArialMT-6d" x="222.363281"/>
      <use xlink:href="#ArialMT-69" x="305.664062"/>
      <use xlink:href="#ArialMT-72" x="327.880859"/>
      <use xlink:href="#ArialMT-20" x="361.181641"/>
      <use xlink:href="#ArialMT-50" x="388.964844"/>
      <use xlink:href="#ArialMT-75" x="455.664062"/>
      <use xlink:href="#ArialMT-74" x="511.279297"/>
      <use xlink:href="#ArialMT-69" x="539.0625"/>
      <use xlink:href="#ArialMT-6e" x="561.279297"/>
      <use xlink:href="#ArialMT-20" x="616.894531"/>
      <use xlink:href="#ArialMT-2d" x="644.677734"/>
      <use xlink:href="#ArialMT-20" x="677.978516"/>
      <use xlink:href="#ArialMT-4e" x="705.761719"/>
      <use xlink:href="#ArialMT-6f" x="777.978516"/>
      <use xlink:href="#ArialMT-6e" x="833.59375"/>
      <use xlink:href="#ArialMT-2d" x="889.208984"/>
      <use xlink:href="#ArialMT-62" x="922.509766"/>
      <use xlink:href="#ArialMT-69" x="978.125"/>
      <use xlink:href="#ArialMT-61" x="1000.341797"/>
      <use xlink:href="#ArialMT-73" x="1055.957031"/>
      <use xlink:href="#ArialMT-65" x="1105.957031"/>
      <use xlink:href="#ArialMT-64" x="1161.572266"/>
     </g>
    </g>
   </g>
  </g>
 </g>
 <defs>
  <clipPath id="pef74621d4b">
   <rect x="108" y="51.84" width="669.6" height="332.64"/>
  </clipPath>
 </defs>
</svg>
