<?xml version="1.0" encoding="utf-8" standalone="no"?>
<!DOCTYPE svg PUBLIC "-//W3C//DTD SVG 1.1//EN"
  "http://www.w3.org/Graphics/SVG/1.1/DTD/svg11.dtd">
<svg xmlns:xlink="http://www.w3.org/1999/xlink" width="1080pt" height="432pt" viewBox="0 0 1080 432" xmlns="http://www.w3.org/2000/svg" version="1.1">
 <metadata>
  <rdf:RDF xmlns:dc="http://purl.org/dc/elements/1.1/" xmlns:cc="http://creativecommons.org/ns#" xmlns:rdf="http://www.w3.org/1999/02/22-rdf-syntax-ns#">
   <cc:Work>
    <dc:type rdf:resource="http://purl.org/dc/dcmitype/StillImage"/>
    <dc:date>2024-10-26T18:00:08.093864</dc:date>
    <dc:format>image/svg+xml</dc:format>
    <dc:creator>
     <cc:Agent>
      <dc:title>Matplotlib v3.9.2, https://matplotlib.org/</dc:title>
     </cc:Agent>
    </dc:creator>
   </cc:Work>
  </rdf:RDF>
 </metadata>
 <defs>
  <style type="text/css">*{stroke-linejoin: round; stroke-linecap: butt}</style>
 </defs>
 <g id="figure_1">
  <g id="patch_1">
   <path d="M 0 432 
L 1080 432 
L 1080 0 
L 0 0 
z
" style="fill: #ffffff"/>
  </g>
  <g id="axes_1">
   <g id="patch_2">
    <path d="M 53.93 390.04 
L 536.767283 390.04 
L 536.767283 26.88 
L 53.93 26.88 
z
" style="fill: #ffffff"/>
   </g>
   <g id="PolyCollection_1"/>
   <g id="PolyCollection_2"/>
   <g id="PolyCollection_3"/>
   <g id="matplotlib.axis_1">
    <g id="xtick_1">
     <g id="line2d_1">
      <defs>
       <path id="m5ef0710ad0" d="M 0 0 
L 0 3.5 
" style="stroke: #000000; stroke-width: 0.8"/>
      </defs>
      <g>
       <use xlink:href="#m5ef0710ad0" x="72.523026" y="390.04" style="stroke: #000000; stroke-width: 0.8"/>
      </g>
     </g>
     <g id="text_1">
      <!-- 2014 -->
      <g transform="translate(59.798026 404.638438) scale(0.1 -0.1)">
       <defs>
        <path id="DejaVuSans-32" d="M 1228 531 
L 3431 531 
L 3431 0 
L 469 0 
L 469 531 
Q 828 903 1448 1529 
Q 2069 2156 2228 2338 
Q 2531 2678 2651 2914 
Q 2772 3150 2772 3378 
Q 2772 3750 2511 3984 
Q 2250 4219 1831 4219 
Q 1534 4219 1204 4116 
Q 875 4013 500 3803 
L 500 4441 
Q 881 4594 1212 4672 
Q 1544 4750 1819 4750 
Q 2544 4750 2975 4387 
Q 3406 4025 3406 3419 
Q 3406 3131 3298 2873 
Q 3191 2616 2906 2266 
Q 2828 2175 2409 1742 
Q 1991 1309 1228 531 
z
" transform="scale(0.015625)"/>
        <path id="DejaVuSans-30" d="M 2034 4250 
Q 1547 4250 1301 3770 
Q 1056 3291 1056 2328 
Q 1056 1369 1301 889 
Q 1547 409 2034 409 
Q 2525 409 2770 889 
Q 3016 1369 3016 2328 
Q 3016 3291 2770 3770 
Q 2525 4250 2034 4250 
z
M 2034 4750 
Q 2819 4750 3233 4129 
Q 3647 3509 3647 2328 
Q 3647 1150 3233 529 
Q 2819 -91 2034 -91 
Q 1250 -91 836 529 
Q 422 1150 422 2328 
Q 422 3509 836 4129 
Q 1250 4750 2034 4750 
z
" transform="scale(0.015625)"/>
        <path id="DejaVuSans-31" d="M 794 531 
L 1825 531 
L 1825 4091 
L 703 3866 
L 703 4441 
L 1819 4666 
L 2450 4666 
L 2450 531 
L 3481 531 
L 3481 0 
L 794 0 
L 794 531 
z
" transform="scale(0.015625)"/>
        <path id="DejaVuSans-34" d="M 2419 4116 
L 825 1625 
L 2419 1625 
L 2419 4116 
z
M 2253 4666 
L 3047 4666 
L 3047 1625 
L 3713 1625 
L 3713 1100 
L 3047 1100 
L 3047 0 
L 2419 0 
L 2419 1100 
L 313 1100 
L 313 1709 
L 2253 4666 
z
" transform="scale(0.015625)"/>
       </defs>
       <use xlink:href="#DejaVuSans-32"/>
       <use xlink:href="#DejaVuSans-30" x="63.623047"/>
       <use xlink:href="#DejaVuSans-31" x="127.246094"/>
       <use xlink:href="#DejaVuSans-34" x="190.869141"/>
      </g>
     </g>
    </g>
    <g id="xtick_2">
     <g id="line2d_2">
      <g>
       <use xlink:href="#m5ef0710ad0" x="154.140035" y="390.04" style="stroke: #000000; stroke-width: 0.8"/>
      </g>
     </g>
     <g id="text_2">
      <!-- 2016 -->
      <g transform="translate(141.415035 404.638438) scale(0.1 -0.1)">
       <defs>
        <path id="DejaVuSans-36" d="M 2113 2584 
Q 1688 2584 1439 2293 
Q 1191 2003 1191 1497 
Q 1191 994 1439 701 
Q 1688 409 2113 409 
Q 2538 409 2786 701 
Q 3034 994 3034 1497 
Q 3034 2003 2786 2293 
Q 2538 2584 2113 2584 
z
M 3366 4563 
L 3366 3988 
Q 3128 4100 2886 4159 
Q 2644 4219 2406 4219 
Q 1781 4219 1451 3797 
Q 1122 3375 1075 2522 
Q 1259 2794 1537 2939 
Q 1816 3084 2150 3084 
Q 2853 3084 3261 2657 
Q 3669 2231 3669 1497 
Q 3669 778 3244 343 
Q 2819 -91 2113 -91 
Q 1303 -91 875 529 
Q 447 1150 447 2328 
Q 447 3434 972 4092 
Q 1497 4750 2381 4750 
Q 2619 4750 2861 4703 
Q 3103 4656 3366 4563 
z
" transform="scale(0.015625)"/>
       </defs>
       <use xlink:href="#DejaVuSans-32"/>
       <use xlink:href="#DejaVuSans-30" x="63.623047"/>
       <use xlink:href="#DejaVuSans-31" x="127.246094"/>
       <use xlink:href="#DejaVuSans-36" x="190.869141"/>
      </g>
     </g>
    </g>
    <g id="xtick_3">
     <g id="line2d_3">
      <g>
       <use xlink:href="#m5ef0710ad0" x="235.868849" y="390.04" style="stroke: #000000; stroke-width: 0.8"/>
      </g>
     </g>
     <g id="text_3">
      <!-- 2018 -->
      <g transform="translate(223.143849 404.638438) scale(0.1 -0.1)">
       <defs>
        <path id="DejaVuSans-38" d="M 2034 2216 
Q 1584 2216 1326 1975 
Q 1069 1734 1069 1313 
Q 1069 891 1326 650 
Q 1584 409 2034 409 
Q 2484 409 2743 651 
Q 3003 894 3003 1313 
Q 3003 1734 2745 1975 
Q 2488 2216 2034 2216 
z
M 1403 2484 
Q 997 2584 770 2862 
Q 544 3141 544 3541 
Q 544 4100 942 4425 
Q 1341 4750 2034 4750 
Q 2731 4750 3128 4425 
Q 3525 4100 3525 3541 
Q 3525 3141 3298 2862 
Q 3072 2584 2669 2484 
Q 3125 2378 3379 2068 
Q 3634 1759 3634 1313 
Q 3634 634 3220 271 
Q 2806 -91 2034 -91 
Q 1263 -91 848 271 
Q 434 634 434 1313 
Q 434 1759 690 2068 
Q 947 2378 1403 2484 
z
M 1172 3481 
Q 1172 3119 1398 2916 
Q 1625 2713 2034 2713 
Q 2441 2713 2670 2916 
Q 2900 3119 2900 3481 
Q 2900 3844 2670 4047 
Q 2441 4250 2034 4250 
Q 1625 4250 1398 4047 
Q 1172 3844 1172 3481 
z
" transform="scale(0.015625)"/>
       </defs>
       <use xlink:href="#DejaVuSans-32"/>
       <use xlink:href="#DejaVuSans-30" x="63.623047"/>
       <use xlink:href="#DejaVuSans-31" x="127.246094"/>
       <use xlink:href="#DejaVuSans-38" x="190.869141"/>
      </g>
     </g>
    </g>
    <g id="xtick_4">
     <g id="line2d_4">
      <g>
       <use xlink:href="#m5ef0710ad0" x="317.485858" y="390.04" style="stroke: #000000; stroke-width: 0.8"/>
      </g>
     </g>
     <g id="text_4">
      <!-- 2020 -->
      <g transform="translate(304.760858 404.638438) scale(0.1 -0.1)">
       <use xlink:href="#DejaVuSans-32"/>
       <use xlink:href="#DejaVuSans-30" x="63.623047"/>
       <use xlink:href="#DejaVuSans-32" x="127.246094"/>
       <use xlink:href="#DejaVuSans-30" x="190.869141"/>
      </g>
     </g>
    </g>
    <g id="xtick_5">
     <g id="line2d_5">
      <g>
       <use xlink:href="#m5ef0710ad0" x="399.214672" y="390.04" style="stroke: #000000; stroke-width: 0.8"/>
      </g>
     </g>
     <g id="text_5">
      <!-- 2022 -->
      <g transform="translate(386.489672 404.638438) scale(0.1 -0.1)">
       <use xlink:href="#DejaVuSans-32"/>
       <use xlink:href="#DejaVuSans-30" x="63.623047"/>
       <use xlink:href="#DejaVuSans-32" x="127.246094"/>
       <use xlink:href="#DejaVuSans-32" x="190.869141"/>
      </g>
     </g>
    </g>
    <g id="xtick_6">
     <g id="line2d_6">
      <g>
       <use xlink:href="#m5ef0710ad0" x="480.831681" y="390.04" style="stroke: #000000; stroke-width: 0.8"/>
      </g>
     </g>
     <g id="text_6">
      <!-- 2024 -->
      <g transform="translate(468.106681 404.638438) scale(0.1 -0.1)">
       <use xlink:href="#DejaVuSans-32"/>
       <use xlink:href="#DejaVuSans-30" x="63.623047"/>
       <use xlink:href="#DejaVuSans-32" x="127.246094"/>
       <use xlink:href="#DejaVuSans-34" x="190.869141"/>
      </g>
     </g>
    </g>
    <g id="text_7">
     <!-- Date -->
     <g transform="translate(283.39786 418.316562) scale(0.1 -0.1)">
      <defs>
       <path id="DejaVuSans-44" d="M 1259 4147 
L 1259 519 
L 2022 519 
Q 2988 519 3436 956 
Q 3884 1394 3884 2338 
Q 3884 3275 3436 3711 
Q 2988 4147 2022 4147 
L 1259 4147 
z
M 628 4666 
L 1925 4666 
Q 3281 4666 3915 4102 
Q 4550 3538 4550 2338 
Q 4550 1131 3912 565 
Q 3275 0 1925 0 
L 628 0 
L 628 4666 
z
" transform="scale(0.015625)"/>
       <path id="DejaVuSans-61" d="M 2194 1759 
Q 1497 1759 1228 1600 
Q 959 1441 959 1056 
Q 959 750 1161 570 
Q 1363 391 1709 391 
Q 2188 391 2477 730 
Q 2766 1069 2766 1631 
L 2766 1759 
L 2194 1759 
z
M 3341 1997 
L 3341 0 
L 2766 0 
L 2766 531 
Q 2569 213 2275 61 
Q 1981 -91 1556 -91 
Q 1019 -91 701 211 
Q 384 513 384 1019 
Q 384 1609 779 1909 
Q 1175 2209 1959 2209 
L 2766 2209 
L 2766 2266 
Q 2766 2663 2505 2880 
Q 2244 3097 1772 3097 
Q 1472 3097 1187 3025 
Q 903 2953 641 2809 
L 641 3341 
Q 956 3463 1253 3523 
Q 1550 3584 1831 3584 
Q 2591 3584 2966 3190 
Q 3341 2797 3341 1997 
z
" transform="scale(0.015625)"/>
       <path id="DejaVuSans-74" d="M 1172 4494 
L 1172 3500 
L 2356 3500 
L 2356 3053 
L 1172 3053 
L 1172 1153 
Q 1172 725 1289 603 
Q 1406 481 1766 481 
L 2356 481 
L 2356 0 
L 1766 0 
Q 1100 0 847 248 
Q 594 497 594 1153 
L 594 3053 
L 172 3053 
L 172 3500 
L 594 3500 
L 594 4494 
L 1172 4494 
z
" transform="scale(0.015625)"/>
       <path id="DejaVuSans-65" d="M 3597 1894 
L 3597 1613 
L 953 1613 
Q 991 1019 1311 708 
Q 1631 397 2203 397 
Q 2534 397 2845 478 
Q 3156 559 3463 722 
L 3463 178 
Q 3153 47 2828 -22 
Q 2503 -91 2169 -91 
Q 1331 -91 842 396 
Q 353 884 353 1716 
Q 353 2575 817 3079 
Q 1281 3584 2069 3584 
Q 2775 3584 3186 3129 
Q 3597 2675 3597 1894 
z
M 3022 2063 
Q 3016 2534 2758 2815 
Q 2500 3097 2075 3097 
Q 1594 3097 1305 2825 
Q 1016 2553 972 2059 
L 3022 2063 
z
" transform="scale(0.015625)"/>
      </defs>
      <use xlink:href="#DejaVuSans-44"/>
      <use xlink:href="#DejaVuSans-61" x="77.001953"/>
      <use xlink:href="#DejaVuSans-74" x="138.28125"/>
      <use xlink:href="#DejaVuSans-65" x="177.490234"/>
     </g>
    </g>
   </g>
   <g id="matplotlib.axis_2">
    <g id="ytick_1">
     <g id="line2d_7">
      <defs>
       <path id="m27adba465a" d="M 0 0 
L -3.5 0 
" style="stroke: #000000; stroke-width: 0.8"/>
      </defs>
      <g>
       <use xlink:href="#m27adba465a" x="53.93" y="361.15887" style="stroke: #000000; stroke-width: 0.8"/>
      </g>
     </g>
     <g id="text_8">
      <!-- 0.25 -->
      <g transform="translate(24.664375 364.958089) scale(0.1 -0.1)">
       <defs>
        <path id="DejaVuSans-2e" d="M 684 794 
L 1344 794 
L 1344 0 
L 684 0 
L 684 794 
z
" transform="scale(0.015625)"/>
        <path id="DejaVuSans-35" d="M 691 4666 
L 3169 4666 
L 3169 4134 
L 1269 4134 
L 1269 2991 
Q 1406 3038 1543 3061 
Q 1681 3084 1819 3084 
Q 2600 3084 3056 2656 
Q 3513 2228 3513 1497 
Q 3513 744 3044 326 
Q 2575 -91 1722 -91 
Q 1428 -91 1123 -41 
Q 819 9 494 109 
L 494 744 
Q 775 591 1075 516 
Q 1375 441 1709 441 
Q 2250 441 2565 725 
Q 2881 1009 2881 1497 
Q 2881 1984 2565 2268 
Q 2250 2553 1709 2553 
Q 1456 2553 1204 2497 
Q 953 2441 691 2322 
L 691 4666 
z
" transform="scale(0.015625)"/>
       </defs>
       <use xlink:href="#DejaVuSans-30"/>
       <use xlink:href="#DejaVuSans-2e" x="63.623047"/>
       <use xlink:href="#DejaVuSans-32" x="95.410156"/>
       <use xlink:href="#DejaVuSans-35" x="159.033203"/>
      </g>
     </g>
    </g>
    <g id="ytick_2">
     <g id="line2d_8">
      <g>
       <use xlink:href="#m27adba465a" x="53.93" y="294.217128" style="stroke: #000000; stroke-width: 0.8"/>
      </g>
     </g>
     <g id="text_9">
      <!-- 0.30 -->
      <g transform="translate(24.664375 298.016346) scale(0.1 -0.1)">
       <defs>
        <path id="DejaVuSans-33" d="M 2597 2516 
Q 3050 2419 3304 2112 
Q 3559 1806 3559 1356 
Q 3559 666 3084 287 
Q 2609 -91 1734 -91 
Q 1441 -91 1130 -33 
Q 819 25 488 141 
L 488 750 
Q 750 597 1062 519 
Q 1375 441 1716 441 
Q 2309 441 2620 675 
Q 2931 909 2931 1356 
Q 2931 1769 2642 2001 
Q 2353 2234 1838 2234 
L 1294 2234 
L 1294 2753 
L 1863 2753 
Q 2328 2753 2575 2939 
Q 2822 3125 2822 3475 
Q 2822 3834 2567 4026 
Q 2313 4219 1838 4219 
Q 1578 4219 1281 4162 
Q 984 4106 628 3988 
L 628 4550 
Q 988 4650 1302 4700 
Q 1616 4750 1894 4750 
Q 2613 4750 3031 4423 
Q 3450 4097 3450 3541 
Q 3450 3153 3228 2886 
Q 3006 2619 2597 2516 
z
" transform="scale(0.015625)"/>
       </defs>
       <use xlink:href="#DejaVuSans-30"/>
       <use xlink:href="#DejaVuSans-2e" x="63.623047"/>
       <use xlink:href="#DejaVuSans-33" x="95.410156"/>
       <use xlink:href="#DejaVuSans-30" x="159.033203"/>
      </g>
     </g>
    </g>
    <g id="ytick_3">
     <g id="line2d_9">
      <g>
       <use xlink:href="#m27adba465a" x="53.93" y="227.275385" style="stroke: #000000; stroke-width: 0.8"/>
      </g>
     </g>
     <g id="text_10">
      <!-- 0.35 -->
      <g transform="translate(24.664375 231.074604) scale(0.1 -0.1)">
       <use xlink:href="#DejaVuSans-30"/>
       <use xlink:href="#DejaVuSans-2e" x="63.623047"/>
       <use xlink:href="#DejaVuSans-33" x="95.410156"/>
       <use xlink:href="#DejaVuSans-35" x="159.033203"/>
      </g>
     </g>
    </g>
    <g id="ytick_4">
     <g id="line2d_10">
      <g>
       <use xlink:href="#m27adba465a" x="53.93" y="160.333642" style="stroke: #000000; stroke-width: 0.8"/>
      </g>
     </g>
     <g id="text_11">
      <!-- 0.40 -->
      <g transform="translate(24.664375 164.132861) scale(0.1 -0.1)">
       <use xlink:href="#DejaVuSans-30"/>
       <use xlink:href="#DejaVuSans-2e" x="63.623047"/>
       <use xlink:href="#DejaVuSans-34" x="95.410156"/>
       <use xlink:href="#DejaVuSans-30" x="159.033203"/>
      </g>
     </g>
    </g>
    <g id="ytick_5">
     <g id="line2d_11">
      <g>
       <use xlink:href="#m27adba465a" x="53.93" y="93.391899" style="stroke: #000000; stroke-width: 0.8"/>
      </g>
     </g>
     <g id="text_12">
      <!-- 0.45 -->
      <g transform="translate(24.664375 97.191118) scale(0.1 -0.1)">
       <use xlink:href="#DejaVuSans-30"/>
       <use xlink:href="#DejaVuSans-2e" x="63.623047"/>
       <use xlink:href="#DejaVuSans-34" x="95.410156"/>
       <use xlink:href="#DejaVuSans-35" x="159.033203"/>
      </g>
     </g>
    </g>
    <g id="text_13">
     <!-- Lean Score -->
     <g transform="translate(18.584687 236.059219) rotate(-90) scale(0.1 -0.1)">
      <defs>
       <path id="DejaVuSans-4c" d="M 628 4666 
L 1259 4666 
L 1259 531 
L 3531 531 
L 3531 0 
L 628 0 
L 628 4666 
z
" transform="scale(0.015625)"/>
       <path id="DejaVuSans-6e" d="M 3513 2113 
L 3513 0 
L 2938 0 
L 2938 2094 
Q 2938 2591 2744 2837 
Q 2550 3084 2163 3084 
Q 1697 3084 1428 2787 
Q 1159 2491 1159 1978 
L 1159 0 
L 581 0 
L 581 3500 
L 1159 3500 
L 1159 2956 
Q 1366 3272 1645 3428 
Q 1925 3584 2291 3584 
Q 2894 3584 3203 3211 
Q 3513 2838 3513 2113 
z
" transform="scale(0.015625)"/>
       <path id="DejaVuSans-20" transform="scale(0.015625)"/>
       <path id="DejaVuSans-53" d="M 3425 4513 
L 3425 3897 
Q 3066 4069 2747 4153 
Q 2428 4238 2131 4238 
Q 1616 4238 1336 4038 
Q 1056 3838 1056 3469 
Q 1056 3159 1242 3001 
Q 1428 2844 1947 2747 
L 2328 2669 
Q 3034 2534 3370 2195 
Q 3706 1856 3706 1288 
Q 3706 609 3251 259 
Q 2797 -91 1919 -91 
Q 1588 -91 1214 -16 
Q 841 59 441 206 
L 441 856 
Q 825 641 1194 531 
Q 1563 422 1919 422 
Q 2459 422 2753 634 
Q 3047 847 3047 1241 
Q 3047 1584 2836 1778 
Q 2625 1972 2144 2069 
L 1759 2144 
Q 1053 2284 737 2584 
Q 422 2884 422 3419 
Q 422 4038 858 4394 
Q 1294 4750 2059 4750 
Q 2388 4750 2728 4690 
Q 3069 4631 3425 4513 
z
" transform="scale(0.015625)"/>
       <path id="DejaVuSans-63" d="M 3122 3366 
L 3122 2828 
Q 2878 2963 2633 3030 
Q 2388 3097 2138 3097 
Q 1578 3097 1268 2742 
Q 959 2388 959 1747 
Q 959 1106 1268 751 
Q 1578 397 2138 397 
Q 2388 397 2633 464 
Q 2878 531 3122 666 
L 3122 134 
Q 2881 22 2623 -34 
Q 2366 -91 2075 -91 
Q 1284 -91 818 406 
Q 353 903 353 1747 
Q 353 2603 823 3093 
Q 1294 3584 2113 3584 
Q 2378 3584 2631 3529 
Q 2884 3475 3122 3366 
z
" transform="scale(0.015625)"/>
       <path id="DejaVuSans-6f" d="M 1959 3097 
Q 1497 3097 1228 2736 
Q 959 2375 959 1747 
Q 959 1119 1226 758 
Q 1494 397 1959 397 
Q 2419 397 2687 759 
Q 2956 1122 2956 1747 
Q 2956 2369 2687 2733 
Q 2419 3097 1959 3097 
z
M 1959 3584 
Q 2709 3584 3137 3096 
Q 3566 2609 3566 1747 
Q 3566 888 3137 398 
Q 2709 -91 1959 -91 
Q 1206 -91 779 398 
Q 353 888 353 1747 
Q 353 2609 779 3096 
Q 1206 3584 1959 3584 
z
" transform="scale(0.015625)"/>
       <path id="DejaVuSans-72" d="M 2631 2963 
Q 2534 3019 2420 3045 
Q 2306 3072 2169 3072 
Q 1681 3072 1420 2755 
Q 1159 2438 1159 1844 
L 1159 0 
L 581 0 
L 581 3500 
L 1159 3500 
L 1159 2956 
Q 1341 3275 1631 3429 
Q 1922 3584 2338 3584 
Q 2397 3584 2469 3576 
Q 2541 3569 2628 3553 
L 2631 2963 
z
" transform="scale(0.015625)"/>
      </defs>
      <use xlink:href="#DejaVuSans-4c"/>
      <use xlink:href="#DejaVuSans-65" x="53.962891"/>
      <use xlink:href="#DejaVuSans-61" x="115.486328"/>
      <use xlink:href="#DejaVuSans-6e" x="176.765625"/>
      <use xlink:href="#DejaVuSans-20" x="240.144531"/>
      <use xlink:href="#DejaVuSans-53" x="271.931641"/>
      <use xlink:href="#DejaVuSans-63" x="335.408203"/>
      <use xlink:href="#DejaVuSans-6f" x="390.388672"/>
      <use xlink:href="#DejaVuSans-72" x="451.570312"/>
      <use xlink:href="#DejaVuSans-65" x="490.433594"/>
     </g>
    </g>
   </g>
   <g id="line2d_12">
    <path d="M 75.877149 343.037202 
L 85.827716 339.309561 
L 96.113695 338.544959 
L 106.399675 357.023405 
L 116.685654 356.759386 
L 126.636221 368.836694 
L 136.9222 371.145863 
L 147.208179 373.532727 
L 157.494159 338.692337 
L 167.55653 265.65657 
L 177.842509 239.042217 
L 188.128488 239.042217 
L 198.414468 239.042217 
L 208.365034 239.042217 
L 218.651014 241.253952 
L 228.936993 232.651066 
L 239.222972 206.598353 
L 249.173539 212.529533 
L 259.459518 215.495123 
L 269.745498 224.485411 
L 280.031477 242.354042 
L 289.982044 242.298069 
L 300.268023 242.298069 
L 310.554002 216.283441 
L 320.839982 197.188426 
L 330.902353 189.009937 
L 341.188332 189.880111 
L 351.474311 184.739205 
L 361.76029 184.739205 
L 371.710857 177.857113 
L 381.996837 164.092929 
L 392.282816 167.787838 
L 402.568795 170.470155 
L 412.519362 174.262939 
L 422.805341 181.161796 
L 433.091321 164.836832 
L 443.3773 109.152163 
L 453.327867 118.139466 
L 463.613846 176.472224 
L 473.899825 176.472224 
L 484.185805 176.472224 
L 494.248176 176.472224 
L 504.534155 176.472224 
L 514.820134 153.124193 
" clip-path="url(#p79e0a101b1)" style="fill: none; stroke: #008000; stroke-width: 1.5; stroke-linecap: square"/>
   </g>
   <g id="line2d_13">
    <path d="M 75.877149 145.773863 
L 85.827716 144.484548 
L 96.113695 185.369648 
L 106.399675 209.15815 
L 116.685654 95.665646 
L 126.636221 88.825555 
L 136.9222 91.150651 
L 147.208179 76.338835 
L 157.494159 43.387273 
L 167.55653 151.856544 
L 177.842509 206.923163 
L 188.128488 206.923163 
L 198.414468 206.923163 
L 208.365034 206.923163 
L 218.651014 202.772957 
L 228.936993 210.450164 
L 239.222972 242.405401 
L 249.173539 251.581133 
L 259.459518 256.168999 
L 269.745498 247.183259 
L 280.031477 245.320909 
L 289.982044 253.375474 
L 300.268023 253.375474 
L 310.554002 260.157476 
L 320.839982 257.731977 
L 330.902353 279.554072 
L 341.188332 279.311178 
L 351.474311 272.922295 
L 361.76029 272.922295 
L 371.710857 277.928836 
L 381.996837 287.941918 
L 392.282816 274.382436 
L 402.568795 266.828441 
L 412.519362 270.067442 
L 422.805341 290.456021 
L 433.091321 287.902224 
L 443.3773 322.423361 
L 453.327867 329.16124 
L 463.613846 358.199898 
L 473.899825 358.199898 
L 484.185805 358.199898 
L 494.248176 358.199898 
L 504.534155 358.199898 
L 514.820134 355.926852 
" clip-path="url(#p79e0a101b1)" style="fill: none; stroke: #0000ff; stroke-width: 1.5; stroke-linecap: square"/>
   </g>
   <g id="line2d_14">
    <path d="M 75.877149 259.956823 
L 85.827716 264.973818 
L 96.113695 224.853308 
L 106.399675 182.586386 
L 116.685654 296.342905 
L 126.636221 291.105666 
L 136.9222 286.471389 
L 147.208179 298.896323 
L 157.494159 366.688293 
L 167.55653 331.254773 
L 177.842509 302.802488 
L 188.128488 302.802488 
L 198.414468 302.802488 
L 208.365034 302.802488 
L 218.651014 304.740955 
L 228.936993 305.666644 
L 239.222972 299.764153 
L 249.173539 284.657288 
L 259.459518 277.103855 
L 269.745498 277.09928 
L 280.031477 261.09296 
L 289.982044 253.094375 
L 300.268023 253.094375 
L 310.554002 272.326981 
L 320.839982 293.847481 
L 330.902353 280.203883 
L 341.188332 279.576582 
L 351.474311 291.106358 
L 361.76029 291.106358 
L 371.710857 292.981922 
L 381.996837 296.733051 
L 392.282816 306.59761 
L 402.568795 311.469258 
L 412.519362 304.437437 
L 422.805341 277.15008 
L 433.091321 296.028855 
L 443.3773 317.192387 
L 453.327867 301.467225 
L 463.613846 214.095816 
L 473.899825 214.095816 
L 484.185805 214.095816 
L 494.248176 214.095816 
L 504.534155 214.095816 
L 514.820134 239.716873 
" clip-path="url(#p79e0a101b1)" style="fill: none; stroke: #ff0000; stroke-width: 1.5; stroke-linecap: square"/>
   </g>
   <g id="patch_3">
    <path d="M 53.93 390.04 
L 53.93 26.88 
" style="fill: none; stroke: #000000; stroke-width: 0.8; stroke-linejoin: miter; stroke-linecap: square"/>
   </g>
   <g id="patch_4">
    <path d="M 536.767283 390.04 
L 536.767283 26.88 
" style="fill: none; stroke: #000000; stroke-width: 0.8; stroke-linejoin: miter; stroke-linecap: square"/>
   </g>
   <g id="patch_5">
    <path d="M 53.93 390.04 
L 536.767283 390.04 
" style="fill: none; stroke: #000000; stroke-width: 0.8; stroke-linejoin: miter; stroke-linecap: square"/>
   </g>
   <g id="patch_6">
    <path d="M 53.93 26.88 
L 536.767283 26.88 
" style="fill: none; stroke: #000000; stroke-width: 0.8; stroke-linejoin: miter; stroke-linecap: square"/>
   </g>
   <g id="text_14">
    <!-- Xi Jinping - LEADERSHIP TENURES Section - Political Lean Over Time -->
    <g transform="translate(91.330829 20.88) scale(0.12 -0.12)">
     <defs>
      <path id="DejaVuSans-58" d="M 403 4666 
L 1081 4666 
L 2241 2931 
L 3406 4666 
L 4084 4666 
L 2584 2425 
L 4184 0 
L 3506 0 
L 2194 1984 
L 872 0 
L 191 0 
L 1856 2491 
L 403 4666 
z
" transform="scale(0.015625)"/>
      <path id="DejaVuSans-69" d="M 603 3500 
L 1178 3500 
L 1178 0 
L 603 0 
L 603 3500 
z
M 603 4863 
L 1178 4863 
L 1178 4134 
L 603 4134 
L 603 4863 
z
" transform="scale(0.015625)"/>
      <path id="DejaVuSans-4a" d="M 628 4666 
L 1259 4666 
L 1259 325 
Q 1259 -519 939 -900 
Q 619 -1281 -91 -1281 
L -331 -1281 
L -331 -750 
L -134 -750 
Q 284 -750 456 -515 
Q 628 -281 628 325 
L 628 4666 
z
" transform="scale(0.015625)"/>
      <path id="DejaVuSans-70" d="M 1159 525 
L 1159 -1331 
L 581 -1331 
L 581 3500 
L 1159 3500 
L 1159 2969 
Q 1341 3281 1617 3432 
Q 1894 3584 2278 3584 
Q 2916 3584 3314 3078 
Q 3713 2572 3713 1747 
Q 3713 922 3314 415 
Q 2916 -91 2278 -91 
Q 1894 -91 1617 61 
Q 1341 213 1159 525 
z
M 3116 1747 
Q 3116 2381 2855 2742 
Q 2594 3103 2138 3103 
Q 1681 3103 1420 2742 
Q 1159 2381 1159 1747 
Q 1159 1113 1420 752 
Q 1681 391 2138 391 
Q 2594 391 2855 752 
Q 3116 1113 3116 1747 
z
" transform="scale(0.015625)"/>
      <path id="DejaVuSans-67" d="M 2906 1791 
Q 2906 2416 2648 2759 
Q 2391 3103 1925 3103 
Q 1463 3103 1205 2759 
Q 947 2416 947 1791 
Q 947 1169 1205 825 
Q 1463 481 1925 481 
Q 2391 481 2648 825 
Q 2906 1169 2906 1791 
z
M 3481 434 
Q 3481 -459 3084 -895 
Q 2688 -1331 1869 -1331 
Q 1566 -1331 1297 -1286 
Q 1028 -1241 775 -1147 
L 775 -588 
Q 1028 -725 1275 -790 
Q 1522 -856 1778 -856 
Q 2344 -856 2625 -561 
Q 2906 -266 2906 331 
L 2906 616 
Q 2728 306 2450 153 
Q 2172 0 1784 0 
Q 1141 0 747 490 
Q 353 981 353 1791 
Q 353 2603 747 3093 
Q 1141 3584 1784 3584 
Q 2172 3584 2450 3431 
Q 2728 3278 2906 2969 
L 2906 3500 
L 3481 3500 
L 3481 434 
z
" transform="scale(0.015625)"/>
      <path id="DejaVuSans-2d" d="M 313 2009 
L 1997 2009 
L 1997 1497 
L 313 1497 
L 313 2009 
z
" transform="scale(0.015625)"/>
      <path id="DejaVuSans-45" d="M 628 4666 
L 3578 4666 
L 3578 4134 
L 1259 4134 
L 1259 2753 
L 3481 2753 
L 3481 2222 
L 1259 2222 
L 1259 531 
L 3634 531 
L 3634 0 
L 628 0 
L 628 4666 
z
" transform="scale(0.015625)"/>
      <path id="DejaVuSans-41" d="M 2188 4044 
L 1331 1722 
L 3047 1722 
L 2188 4044 
z
M 1831 4666 
L 2547 4666 
L 4325 0 
L 3669 0 
L 3244 1197 
L 1141 1197 
L 716 0 
L 50 0 
L 1831 4666 
z
" transform="scale(0.015625)"/>
      <path id="DejaVuSans-52" d="M 2841 2188 
Q 3044 2119 3236 1894 
Q 3428 1669 3622 1275 
L 4263 0 
L 3584 0 
L 2988 1197 
Q 2756 1666 2539 1819 
Q 2322 1972 1947 1972 
L 1259 1972 
L 1259 0 
L 628 0 
L 628 4666 
L 2053 4666 
Q 2853 4666 3247 4331 
Q 3641 3997 3641 3322 
Q 3641 2881 3436 2590 
Q 3231 2300 2841 2188 
z
M 1259 4147 
L 1259 2491 
L 2053 2491 
Q 2509 2491 2742 2702 
Q 2975 2913 2975 3322 
Q 2975 3731 2742 3939 
Q 2509 4147 2053 4147 
L 1259 4147 
z
" transform="scale(0.015625)"/>
      <path id="DejaVuSans-48" d="M 628 4666 
L 1259 4666 
L 1259 2753 
L 3553 2753 
L 3553 4666 
L 4184 4666 
L 4184 0 
L 3553 0 
L 3553 2222 
L 1259 2222 
L 1259 0 
L 628 0 
L 628 4666 
z
" transform="scale(0.015625)"/>
      <path id="DejaVuSans-49" d="M 628 4666 
L 1259 4666 
L 1259 0 
L 628 0 
L 628 4666 
z
" transform="scale(0.015625)"/>
      <path id="DejaVuSans-50" d="M 1259 4147 
L 1259 2394 
L 2053 2394 
Q 2494 2394 2734 2622 
Q 2975 2850 2975 3272 
Q 2975 3691 2734 3919 
Q 2494 4147 2053 4147 
L 1259 4147 
z
M 628 4666 
L 2053 4666 
Q 2838 4666 3239 4311 
Q 3641 3956 3641 3272 
Q 3641 2581 3239 2228 
Q 2838 1875 2053 1875 
L 1259 1875 
L 1259 0 
L 628 0 
L 628 4666 
z
" transform="scale(0.015625)"/>
      <path id="DejaVuSans-54" d="M -19 4666 
L 3928 4666 
L 3928 4134 
L 2272 4134 
L 2272 0 
L 1638 0 
L 1638 4134 
L -19 4134 
L -19 4666 
z
" transform="scale(0.015625)"/>
      <path id="DejaVuSans-4e" d="M 628 4666 
L 1478 4666 
L 3547 763 
L 3547 4666 
L 4159 4666 
L 4159 0 
L 3309 0 
L 1241 3903 
L 1241 0 
L 628 0 
L 628 4666 
z
" transform="scale(0.015625)"/>
      <path id="DejaVuSans-55" d="M 556 4666 
L 1191 4666 
L 1191 1831 
Q 1191 1081 1462 751 
Q 1734 422 2344 422 
Q 2950 422 3222 751 
Q 3494 1081 3494 1831 
L 3494 4666 
L 4128 4666 
L 4128 1753 
Q 4128 841 3676 375 
Q 3225 -91 2344 -91 
Q 1459 -91 1007 375 
Q 556 841 556 1753 
L 556 4666 
z
" transform="scale(0.015625)"/>
      <path id="DejaVuSans-6c" d="M 603 4863 
L 1178 4863 
L 1178 0 
L 603 0 
L 603 4863 
z
" transform="scale(0.015625)"/>
      <path id="DejaVuSans-4f" d="M 2522 4238 
Q 1834 4238 1429 3725 
Q 1025 3213 1025 2328 
Q 1025 1447 1429 934 
Q 1834 422 2522 422 
Q 3209 422 3611 934 
Q 4013 1447 4013 2328 
Q 4013 3213 3611 3725 
Q 3209 4238 2522 4238 
z
M 2522 4750 
Q 3503 4750 4090 4092 
Q 4678 3434 4678 2328 
Q 4678 1225 4090 567 
Q 3503 -91 2522 -91 
Q 1538 -91 948 565 
Q 359 1222 359 2328 
Q 359 3434 948 4092 
Q 1538 4750 2522 4750 
z
" transform="scale(0.015625)"/>
      <path id="DejaVuSans-76" d="M 191 3500 
L 800 3500 
L 1894 563 
L 2988 3500 
L 3597 3500 
L 2284 0 
L 1503 0 
L 191 3500 
z
" transform="scale(0.015625)"/>
      <path id="DejaVuSans-6d" d="M 3328 2828 
Q 3544 3216 3844 3400 
Q 4144 3584 4550 3584 
Q 5097 3584 5394 3201 
Q 5691 2819 5691 2113 
L 5691 0 
L 5113 0 
L 5113 2094 
Q 5113 2597 4934 2840 
Q 4756 3084 4391 3084 
Q 3944 3084 3684 2787 
Q 3425 2491 3425 1978 
L 3425 0 
L 2847 0 
L 2847 2094 
Q 2847 2600 2669 2842 
Q 2491 3084 2119 3084 
Q 1678 3084 1418 2786 
Q 1159 2488 1159 1978 
L 1159 0 
L 581 0 
L 581 3500 
L 1159 3500 
L 1159 2956 
Q 1356 3278 1631 3431 
Q 1906 3584 2284 3584 
Q 2666 3584 2933 3390 
Q 3200 3197 3328 2828 
z
" transform="scale(0.015625)"/>
     </defs>
     <use xlink:href="#DejaVuSans-58"/>
     <use xlink:href="#DejaVuSans-69" x="68.505859"/>
     <use xlink:href="#DejaVuSans-20" x="96.289062"/>
     <use xlink:href="#DejaVuSans-4a" x="128.076172"/>
     <use xlink:href="#DejaVuSans-69" x="157.568359"/>
     <use xlink:href="#DejaVuSans-6e" x="185.351562"/>
     <use xlink:href="#DejaVuSans-70" x="248.730469"/>
     <use xlink:href="#DejaVuSans-69" x="312.207031"/>
     <use xlink:href="#DejaVuSans-6e" x="339.990234"/>
     <use xlink:href="#DejaVuSans-67" x="403.369141"/>
     <use xlink:href="#DejaVuSans-20" x="466.845703"/>
     <use xlink:href="#DejaVuSans-2d" x="498.632812"/>
     <use xlink:href="#DejaVuSans-20" x="534.716797"/>
     <use xlink:href="#DejaVuSans-4c" x="566.503906"/>
     <use xlink:href="#DejaVuSans-45" x="622.216797"/>
     <use xlink:href="#DejaVuSans-41" x="685.400391"/>
     <use xlink:href="#DejaVuSans-44" x="753.808594"/>
     <use xlink:href="#DejaVuSans-45" x="830.810547"/>
     <use xlink:href="#DejaVuSans-52" x="893.994141"/>
     <use xlink:href="#DejaVuSans-53" x="963.476562"/>
     <use xlink:href="#DejaVuSans-48" x="1026.953125"/>
     <use xlink:href="#DejaVuSans-49" x="1102.148438"/>
     <use xlink:href="#DejaVuSans-50" x="1131.640625"/>
     <use xlink:href="#DejaVuSans-20" x="1191.943359"/>
     <use xlink:href="#DejaVuSans-54" x="1223.730469"/>
     <use xlink:href="#DejaVuSans-45" x="1284.814453"/>
     <use xlink:href="#DejaVuSans-4e" x="1347.998047"/>
     <use xlink:href="#DejaVuSans-55" x="1422.802734"/>
     <use xlink:href="#DejaVuSans-52" x="1495.996094"/>
     <use xlink:href="#DejaVuSans-45" x="1565.478516"/>
     <use xlink:href="#DejaVuSans-53" x="1628.662109"/>
     <use xlink:href="#DejaVuSans-20" x="1692.138672"/>
     <use xlink:href="#DejaVuSans-53" x="1723.925781"/>
     <use xlink:href="#DejaVuSans-65" x="1787.402344"/>
     <use xlink:href="#DejaVuSans-63" x="1848.925781"/>
     <use xlink:href="#DejaVuSans-74" x="1903.90625"/>
     <use xlink:href="#DejaVuSans-69" x="1943.115234"/>
     <use xlink:href="#DejaVuSans-6f" x="1970.898438"/>
     <use xlink:href="#DejaVuSans-6e" x="2032.080078"/>
     <use xlink:href="#DejaVuSans-20" x="2095.458984"/>
     <use xlink:href="#DejaVuSans-2d" x="2127.246094"/>
     <use xlink:href="#DejaVuSans-20" x="2163.330078"/>
     <use xlink:href="#DejaVuSans-50" x="2195.117188"/>
     <use xlink:href="#DejaVuSans-6f" x="2251.794922"/>
     <use xlink:href="#DejaVuSans-6c" x="2312.976562"/>
     <use xlink:href="#DejaVuSans-69" x="2340.759766"/>
     <use xlink:href="#DejaVuSans-74" x="2368.542969"/>
     <use xlink:href="#DejaVuSans-69" x="2407.751953"/>
     <use xlink:href="#DejaVuSans-63" x="2435.535156"/>
     <use xlink:href="#DejaVuSans-61" x="2490.515625"/>
     <use xlink:href="#DejaVuSans-6c" x="2551.794922"/>
     <use xlink:href="#DejaVuSans-20" x="2579.578125"/>
     <use xlink:href="#DejaVuSans-4c" x="2611.365234"/>
     <use xlink:href="#DejaVuSans-65" x="2665.328125"/>
     <use xlink:href="#DejaVuSans-61" x="2726.851562"/>
     <use xlink:href="#DejaVuSans-6e" x="2788.130859"/>
     <use xlink:href="#DejaVuSans-20" x="2851.509766"/>
     <use xlink:href="#DejaVuSans-4f" x="2883.296875"/>
     <use xlink:href="#DejaVuSans-76" x="2962.007812"/>
     <use xlink:href="#DejaVuSans-65" x="3021.1875"/>
     <use xlink:href="#DejaVuSans-72" x="3082.710938"/>
     <use xlink:href="#DejaVuSans-20" x="3123.824219"/>
     <use xlink:href="#DejaVuSans-54" x="3155.611328"/>
     <use xlink:href="#DejaVuSans-69" x="3213.570312"/>
     <use xlink:href="#DejaVuSans-6d" x="3241.353516"/>
     <use xlink:href="#DejaVuSans-65" x="3338.765625"/>
    </g>
   </g>
   <g id="legend_1">
    <g id="patch_7">
     <path d="M 436.915721 78.914375 
L 529.767283 78.914375 
Q 531.767283 78.914375 531.767283 76.914375 
L 531.767283 33.88 
Q 531.767283 31.88 529.767283 31.88 
L 436.915721 31.88 
Q 434.915721 31.88 434.915721 33.88 
L 434.915721 76.914375 
Q 434.915721 78.914375 436.915721 78.914375 
z
" style="fill: #ffffff; opacity: 0.8; stroke: #cccccc; stroke-linejoin: miter"/>
    </g>
    <g id="line2d_15">
     <path d="M 438.915721 39.978437 
L 448.915721 39.978437 
L 458.915721 39.978437 
" style="fill: none; stroke: #008000; stroke-width: 1.5; stroke-linecap: square"/>
    </g>
    <g id="text_15">
     <!-- Left Lean -->
     <g transform="translate(466.915721 43.478437) scale(0.1 -0.1)">
      <defs>
       <path id="DejaVuSans-66" d="M 2375 4863 
L 2375 4384 
L 1825 4384 
Q 1516 4384 1395 4259 
Q 1275 4134 1275 3809 
L 1275 3500 
L 2222 3500 
L 2222 3053 
L 1275 3053 
L 1275 0 
L 697 0 
L 697 3053 
L 147 3053 
L 147 3500 
L 697 3500 
L 697 3744 
Q 697 4328 969 4595 
Q 1241 4863 1831 4863 
L 2375 4863 
z
" transform="scale(0.015625)"/>
      </defs>
      <use xlink:href="#DejaVuSans-4c"/>
      <use xlink:href="#DejaVuSans-65" x="53.962891"/>
      <use xlink:href="#DejaVuSans-66" x="115.486328"/>
      <use xlink:href="#DejaVuSans-74" x="148.941406"/>
      <use xlink:href="#DejaVuSans-20" x="188.150391"/>
      <use xlink:href="#DejaVuSans-4c" x="219.9375"/>
      <use xlink:href="#DejaVuSans-65" x="273.900391"/>
      <use xlink:href="#DejaVuSans-61" x="335.423828"/>
      <use xlink:href="#DejaVuSans-6e" x="396.703125"/>
     </g>
    </g>
    <g id="line2d_16">
     <path d="M 438.915721 54.656563 
L 448.915721 54.656563 
L 458.915721 54.656563 
" style="fill: none; stroke: #0000ff; stroke-width: 1.5; stroke-linecap: square"/>
    </g>
    <g id="text_16">
     <!-- Center Lean -->
     <g transform="translate(466.915721 58.156563) scale(0.1 -0.1)">
      <defs>
       <path id="DejaVuSans-43" d="M 4122 4306 
L 4122 3641 
Q 3803 3938 3442 4084 
Q 3081 4231 2675 4231 
Q 1875 4231 1450 3742 
Q 1025 3253 1025 2328 
Q 1025 1406 1450 917 
Q 1875 428 2675 428 
Q 3081 428 3442 575 
Q 3803 722 4122 1019 
L 4122 359 
Q 3791 134 3420 21 
Q 3050 -91 2638 -91 
Q 1578 -91 968 557 
Q 359 1206 359 2328 
Q 359 3453 968 4101 
Q 1578 4750 2638 4750 
Q 3056 4750 3426 4639 
Q 3797 4528 4122 4306 
z
" transform="scale(0.015625)"/>
      </defs>
      <use xlink:href="#DejaVuSans-43"/>
      <use xlink:href="#DejaVuSans-65" x="69.824219"/>
      <use xlink:href="#DejaVuSans-6e" x="131.347656"/>
      <use xlink:href="#DejaVuSans-74" x="194.726562"/>
      <use xlink:href="#DejaVuSans-65" x="233.935547"/>
      <use xlink:href="#DejaVuSans-72" x="295.458984"/>
      <use xlink:href="#DejaVuSans-20" x="336.572266"/>
      <use xlink:href="#DejaVuSans-4c" x="368.359375"/>
      <use xlink:href="#DejaVuSans-65" x="422.322266"/>
      <use xlink:href="#DejaVuSans-61" x="483.845703"/>
      <use xlink:href="#DejaVuSans-6e" x="545.125"/>
     </g>
    </g>
    <g id="line2d_17">
     <path d="M 438.915721 69.334687 
L 448.915721 69.334687 
L 458.915721 69.334687 
" style="fill: none; stroke: #ff0000; stroke-width: 1.5; stroke-linecap: square"/>
    </g>
    <g id="text_17">
     <!-- Right Lean -->
     <g transform="translate(466.915721 72.834687) scale(0.1 -0.1)">
      <defs>
       <path id="DejaVuSans-68" d="M 3513 2113 
L 3513 0 
L 2938 0 
L 2938 2094 
Q 2938 2591 2744 2837 
Q 2550 3084 2163 3084 
Q 1697 3084 1428 2787 
Q 1159 2491 1159 1978 
L 1159 0 
L 581 0 
L 581 4863 
L 1159 4863 
L 1159 2956 
Q 1366 3272 1645 3428 
Q 1925 3584 2291 3584 
Q 2894 3584 3203 3211 
Q 3513 2838 3513 2113 
z
" transform="scale(0.015625)"/>
      </defs>
      <use xlink:href="#DejaVuSans-52"/>
      <use xlink:href="#DejaVuSans-69" x="69.482422"/>
      <use xlink:href="#DejaVuSans-67" x="97.265625"/>
      <use xlink:href="#DejaVuSans-68" x="160.742188"/>
      <use xlink:href="#DejaVuSans-74" x="224.121094"/>
      <use xlink:href="#DejaVuSans-20" x="263.330078"/>
      <use xlink:href="#DejaVuSans-4c" x="295.117188"/>
      <use xlink:href="#DejaVuSans-65" x="349.080078"/>
      <use xlink:href="#DejaVuSans-61" x="410.603516"/>
      <use xlink:href="#DejaVuSans-6e" x="471.882812"/>
     </g>
    </g>
   </g>
  </g>
  <g id="axes_2">
   <g id="patch_8">
    <path d="M 584.487283 390.04 
L 1067.324567 390.04 
L 1067.324567 26.88 
L 584.487283 26.88 
z
" style="fill: #ffffff"/>
   </g>
   <g id="PolyCollection_4"/>
   <g id="PolyCollection_5"/>
   <g id="PolyCollection_6"/>
   <g id="matplotlib.axis_3">
    <g id="xtick_7">
     <g id="line2d_18">
      <g>
       <use xlink:href="#m5ef0710ad0" x="614.713856" y="390.04" style="stroke: #000000; stroke-width: 0.8"/>
      </g>
     </g>
     <g id="text_18">
      <!-- 2005 -->
      <g transform="translate(601.988856 404.638438) scale(0.1 -0.1)">
       <use xlink:href="#DejaVuSans-32"/>
       <use xlink:href="#DejaVuSans-30" x="63.623047"/>
       <use xlink:href="#DejaVuSans-30" x="127.246094"/>
       <use xlink:href="#DejaVuSans-35" x="190.869141"/>
      </g>
     </g>
    </g>
    <g id="xtick_8">
     <g id="line2d_19">
      <g>
       <use xlink:href="#m5ef0710ad0" x="663.455624" y="390.04" style="stroke: #000000; stroke-width: 0.8"/>
      </g>
     </g>
     <g id="text_19">
      <!-- 2006 -->
      <g transform="translate(650.730624 404.638438) scale(0.1 -0.1)">
       <use xlink:href="#DejaVuSans-32"/>
       <use xlink:href="#DejaVuSans-30" x="63.623047"/>
       <use xlink:href="#DejaVuSans-30" x="127.246094"/>
       <use xlink:href="#DejaVuSans-36" x="190.869141"/>
      </g>
     </g>
    </g>
    <g id="xtick_9">
     <g id="line2d_20">
      <g>
       <use xlink:href="#m5ef0710ad0" x="712.197391" y="390.04" style="stroke: #000000; stroke-width: 0.8"/>
      </g>
     </g>
     <g id="text_20">
      <!-- 2007 -->
      <g transform="translate(699.472391 404.638438) scale(0.1 -0.1)">
       <defs>
        <path id="DejaVuSans-37" d="M 525 4666 
L 3525 4666 
L 3525 4397 
L 1831 0 
L 1172 0 
L 2766 4134 
L 525 4134 
L 525 4666 
z
" transform="scale(0.015625)"/>
       </defs>
       <use xlink:href="#DejaVuSans-32"/>
       <use xlink:href="#DejaVuSans-30" x="63.623047"/>
       <use xlink:href="#DejaVuSans-30" x="127.246094"/>
       <use xlink:href="#DejaVuSans-37" x="190.869141"/>
      </g>
     </g>
    </g>
    <g id="xtick_10">
     <g id="line2d_21">
      <g>
       <use xlink:href="#m5ef0710ad0" x="760.939158" y="390.04" style="stroke: #000000; stroke-width: 0.8"/>
      </g>
     </g>
     <g id="text_21">
      <!-- 2008 -->
      <g transform="translate(748.214158 404.638438) scale(0.1 -0.1)">
       <use xlink:href="#DejaVuSans-32"/>
       <use xlink:href="#DejaVuSans-30" x="63.623047"/>
       <use xlink:href="#DejaVuSans-30" x="127.246094"/>
       <use xlink:href="#DejaVuSans-38" x="190.869141"/>
      </g>
     </g>
    </g>
    <g id="xtick_11">
     <g id="line2d_22">
      <g>
       <use xlink:href="#m5ef0710ad0" x="809.814465" y="390.04" style="stroke: #000000; stroke-width: 0.8"/>
      </g>
     </g>
     <g id="text_22">
      <!-- 2009 -->
      <g transform="translate(797.089465 404.638438) scale(0.1 -0.1)">
       <defs>
        <path id="DejaVuSans-39" d="M 703 97 
L 703 672 
Q 941 559 1184 500 
Q 1428 441 1663 441 
Q 2288 441 2617 861 
Q 2947 1281 2994 2138 
Q 2813 1869 2534 1725 
Q 2256 1581 1919 1581 
Q 1219 1581 811 2004 
Q 403 2428 403 3163 
Q 403 3881 828 4315 
Q 1253 4750 1959 4750 
Q 2769 4750 3195 4129 
Q 3622 3509 3622 2328 
Q 3622 1225 3098 567 
Q 2575 -91 1691 -91 
Q 1453 -91 1209 -44 
Q 966 3 703 97 
z
M 1959 2075 
Q 2384 2075 2632 2365 
Q 2881 2656 2881 3163 
Q 2881 3666 2632 3958 
Q 2384 4250 1959 4250 
Q 1534 4250 1286 3958 
Q 1038 3666 1038 3163 
Q 1038 2656 1286 2365 
Q 1534 2075 1959 2075 
z
" transform="scale(0.015625)"/>
       </defs>
       <use xlink:href="#DejaVuSans-32"/>
       <use xlink:href="#DejaVuSans-30" x="63.623047"/>
       <use xlink:href="#DejaVuSans-30" x="127.246094"/>
       <use xlink:href="#DejaVuSans-39" x="190.869141"/>
      </g>
     </g>
    </g>
    <g id="xtick_12">
     <g id="line2d_23">
      <g>
       <use xlink:href="#m5ef0710ad0" x="858.556232" y="390.04" style="stroke: #000000; stroke-width: 0.8"/>
      </g>
     </g>
     <g id="text_23">
      <!-- 2010 -->
      <g transform="translate(845.831232 404.638438) scale(0.1 -0.1)">
       <use xlink:href="#DejaVuSans-32"/>
       <use xlink:href="#DejaVuSans-30" x="63.623047"/>
       <use xlink:href="#DejaVuSans-31" x="127.246094"/>
       <use xlink:href="#DejaVuSans-30" x="190.869141"/>
      </g>
     </g>
    </g>
    <g id="xtick_13">
     <g id="line2d_24">
      <g>
       <use xlink:href="#m5ef0710ad0" x="907.298" y="390.04" style="stroke: #000000; stroke-width: 0.8"/>
      </g>
     </g>
     <g id="text_24">
      <!-- 2011 -->
      <g transform="translate(894.573 404.638438) scale(0.1 -0.1)">
       <use xlink:href="#DejaVuSans-32"/>
       <use xlink:href="#DejaVuSans-30" x="63.623047"/>
       <use xlink:href="#DejaVuSans-31" x="127.246094"/>
       <use xlink:href="#DejaVuSans-31" x="190.869141"/>
      </g>
     </g>
    </g>
    <g id="xtick_14">
     <g id="line2d_25">
      <g>
       <use xlink:href="#m5ef0710ad0" x="956.039767" y="390.04" style="stroke: #000000; stroke-width: 0.8"/>
      </g>
     </g>
     <g id="text_25">
      <!-- 2012 -->
      <g transform="translate(943.314767 404.638438) scale(0.1 -0.1)">
       <use xlink:href="#DejaVuSans-32"/>
       <use xlink:href="#DejaVuSans-30" x="63.623047"/>
       <use xlink:href="#DejaVuSans-31" x="127.246094"/>
       <use xlink:href="#DejaVuSans-32" x="190.869141"/>
      </g>
     </g>
    </g>
    <g id="xtick_15">
     <g id="line2d_26">
      <g>
       <use xlink:href="#m5ef0710ad0" x="1004.915074" y="390.04" style="stroke: #000000; stroke-width: 0.8"/>
      </g>
     </g>
     <g id="text_26">
      <!-- 2013 -->
      <g transform="translate(992.190074 404.638438) scale(0.1 -0.1)">
       <use xlink:href="#DejaVuSans-32"/>
       <use xlink:href="#DejaVuSans-30" x="63.623047"/>
       <use xlink:href="#DejaVuSans-31" x="127.246094"/>
       <use xlink:href="#DejaVuSans-33" x="190.869141"/>
      </g>
     </g>
    </g>
    <g id="xtick_16">
     <g id="line2d_27">
      <g>
       <use xlink:href="#m5ef0710ad0" x="1053.656841" y="390.04" style="stroke: #000000; stroke-width: 0.8"/>
      </g>
     </g>
     <g id="text_27">
      <!-- 2014 -->
      <g transform="translate(1040.931841 404.638438) scale(0.1 -0.1)">
       <use xlink:href="#DejaVuSans-32"/>
       <use xlink:href="#DejaVuSans-30" x="63.623047"/>
       <use xlink:href="#DejaVuSans-31" x="127.246094"/>
       <use xlink:href="#DejaVuSans-34" x="190.869141"/>
      </g>
     </g>
    </g>
    <g id="text_28">
     <!-- Date -->
     <g transform="translate(813.955144 418.316562) scale(0.1 -0.1)">
      <use xlink:href="#DejaVuSans-44"/>
      <use xlink:href="#DejaVuSans-61" x="77.001953"/>
      <use xlink:href="#DejaVuSans-74" x="138.28125"/>
      <use xlink:href="#DejaVuSans-65" x="177.490234"/>
     </g>
    </g>
   </g>
   <g id="matplotlib.axis_4">
    <g id="ytick_6">
     <g id="line2d_28">
      <g>
       <use xlink:href="#m27adba465a" x="584.487283" y="335.943179" style="stroke: #000000; stroke-width: 0.8"/>
      </g>
     </g>
     <g id="text_29">
      <!-- 0.2 -->
      <g transform="translate(561.584158 339.742398) scale(0.1 -0.1)">
       <use xlink:href="#DejaVuSans-30"/>
       <use xlink:href="#DejaVuSans-2e" x="63.623047"/>
       <use xlink:href="#DejaVuSans-32" x="95.410156"/>
      </g>
     </g>
    </g>
    <g id="ytick_7">
     <g id="line2d_29">
      <g>
       <use xlink:href="#m27adba465a" x="584.487283" y="268.270465" style="stroke: #000000; stroke-width: 0.8"/>
      </g>
     </g>
     <g id="text_30">
      <!-- 0.3 -->
      <g transform="translate(561.584158 272.069683) scale(0.1 -0.1)">
       <use xlink:href="#DejaVuSans-30"/>
       <use xlink:href="#DejaVuSans-2e" x="63.623047"/>
       <use xlink:href="#DejaVuSans-33" x="95.410156"/>
      </g>
     </g>
    </g>
    <g id="ytick_8">
     <g id="line2d_30">
      <g>
       <use xlink:href="#m27adba465a" x="584.487283" y="200.59775" style="stroke: #000000; stroke-width: 0.8"/>
      </g>
     </g>
     <g id="text_31">
      <!-- 0.4 -->
      <g transform="translate(561.584158 204.396969) scale(0.1 -0.1)">
       <use xlink:href="#DejaVuSans-30"/>
       <use xlink:href="#DejaVuSans-2e" x="63.623047"/>
       <use xlink:href="#DejaVuSans-34" x="95.410156"/>
      </g>
     </g>
    </g>
    <g id="ytick_9">
     <g id="line2d_31">
      <g>
       <use xlink:href="#m27adba465a" x="584.487283" y="132.925036" style="stroke: #000000; stroke-width: 0.8"/>
      </g>
     </g>
     <g id="text_32">
      <!-- 0.5 -->
      <g transform="translate(561.584158 136.724255) scale(0.1 -0.1)">
       <use xlink:href="#DejaVuSans-30"/>
       <use xlink:href="#DejaVuSans-2e" x="63.623047"/>
       <use xlink:href="#DejaVuSans-35" x="95.410156"/>
      </g>
     </g>
    </g>
    <g id="ytick_10">
     <g id="line2d_32">
      <g>
       <use xlink:href="#m27adba465a" x="584.487283" y="65.252322" style="stroke: #000000; stroke-width: 0.8"/>
      </g>
     </g>
     <g id="text_33">
      <!-- 0.6 -->
      <g transform="translate(561.584158 69.051541) scale(0.1 -0.1)">
       <use xlink:href="#DejaVuSans-30"/>
       <use xlink:href="#DejaVuSans-2e" x="63.623047"/>
       <use xlink:href="#DejaVuSans-36" x="95.410156"/>
      </g>
     </g>
    </g>
    <g id="text_34">
     <!-- Lean Score -->
     <g transform="translate(555.504471 236.059219) rotate(-90) scale(0.1 -0.1)">
      <use xlink:href="#DejaVuSans-4c"/>
      <use xlink:href="#DejaVuSans-65" x="53.962891"/>
      <use xlink:href="#DejaVuSans-61" x="115.486328"/>
      <use xlink:href="#DejaVuSans-6e" x="176.765625"/>
      <use xlink:href="#DejaVuSans-20" x="240.144531"/>
      <use xlink:href="#DejaVuSans-53" x="271.931641"/>
      <use xlink:href="#DejaVuSans-63" x="335.408203"/>
      <use xlink:href="#DejaVuSans-6f" x="390.388672"/>
      <use xlink:href="#DejaVuSans-72" x="451.570312"/>
      <use xlink:href="#DejaVuSans-65" x="490.433594"/>
     </g>
    </g>
   </g>
   <g id="line2d_33">
    <path d="M 606.434433 146.751458 
L 618.720029 235.135754 
L 630.605008 189.307642 
L 642.890604 86.733413 
L 655.1762 98.708739 
L 667.461796 43.387273 
L 679.346775 112.97939 
L 691.632371 159.840429 
L 703.917967 161.151728 
L 716.203564 127.637564 
L 728.088543 117.988276 
L 740.374139 218.132533 
L 752.659735 203.719085 
L 764.945331 182.035414 
L 776.963849 185.212238 
L 789.249445 146.810593 
L 801.535041 153.802021 
L 813.820638 233.351522 
L 825.705616 254.362667 
L 837.991213 255.840312 
L 850.276809 255.37644 
L 862.562405 268.947837 
L 874.447384 228.967514 
L 886.73298 220.534342 
L 899.018576 198.81708 
L 911.304172 203.085172 
L 923.189151 198.807934 
L 935.474747 198.931933 
L 947.760344 198.993933 
L 960.04594 210.422783 
L 972.064458 179.66568 
L 984.350054 139.62036 
L 996.63565 124.324377 
L 1008.921246 123.487327 
L 1020.806225 131.216807 
L 1033.091821 146.020658 
L 1045.377418 145.195488 
" clip-path="url(#p1f02ea5a08)" style="fill: none; stroke: #008000; stroke-width: 1.5; stroke-linecap: square"/>
   </g>
   <g id="line2d_34">
    <path d="M 606.434433 316.273418 
L 618.720029 149.985659 
L 630.605008 193.43823 
L 642.890604 283.269887 
L 655.1762 279.25938 
L 667.461796 347.277461 
L 679.346775 280.004819 
L 691.632371 203.765525 
L 703.917967 202.876027 
L 716.203564 332.46399 
L 728.088543 356.446496 
L 740.374139 346.825909 
L 752.659735 343.761555 
L 764.945331 345.494581 
L 776.963849 344.776809 
L 789.249445 334.312473 
L 801.535041 326.868222 
L 813.820638 335.97119 
L 825.705616 330.884965 
L 837.991213 338.221102 
L 850.276809 338.814396 
L 862.562405 334.348102 
L 874.447384 329.850173 
L 886.73298 316.239334 
L 899.018576 319.192702 
L 911.304172 322.172674 
L 923.189151 336.332043 
L 935.474747 336.393726 
L 947.760344 336.424568 
L 960.04594 333.10103 
L 972.064458 346.169219 
L 984.350054 359.733745 
L 996.63565 365.964968 
L 1008.921246 366.307762 
L 1020.806225 362.70926 
L 1033.091821 357.319889 
L 1045.377418 357.855495 
" clip-path="url(#p1f02ea5a08)" style="fill: none; stroke: #0000ff; stroke-width: 1.5; stroke-linecap: square"/>
   </g>
   <g id="line2d_35">
    <path d="M 606.434433 274.113839 
L 618.720029 352.01725 
L 630.605008 354.392809 
L 642.890604 367.135356 
L 655.1762 359.170536 
L 667.461796 346.473948 
L 679.346775 344.154471 
L 691.632371 373.532727 
L 703.917967 373.110914 
L 716.203564 277.037137 
L 728.088543 262.703926 
L 740.374139 172.180211 
L 752.659735 189.658051 
L 764.945331 209.608695 
L 776.963849 207.149632 
L 789.249445 256.015604 
L 801.535041 256.468423 
L 813.820638 167.815968 
L 825.705616 151.891075 
L 837.991213 143.077267 
L 850.276809 142.947833 
L 862.562405 133.842731 
L 874.447384 178.320992 
L 886.73298 200.365 
L 899.018576 219.128902 
L 911.304172 211.880853 
L 923.189151 201.998709 
L 935.474747 201.813029 
L 947.760344 201.720189 
L 960.04594 193.614875 
L 972.064458 211.303778 
L 984.350054 237.784574 
L 996.63565 246.849341 
L 1008.921246 247.343599 
L 1020.806225 243.212615 
L 1033.091821 233.798136 
L 1045.377418 234.087686 
" clip-path="url(#p1f02ea5a08)" style="fill: none; stroke: #ff0000; stroke-width: 1.5; stroke-linecap: square"/>
   </g>
   <g id="patch_9">
    <path d="M 584.487283 390.04 
L 584.487283 26.88 
" style="fill: none; stroke: #000000; stroke-width: 0.8; stroke-linejoin: miter; stroke-linecap: square"/>
   </g>
   <g id="patch_10">
    <path d="M 1067.324567 390.04 
L 1067.324567 26.88 
" style="fill: none; stroke: #000000; stroke-width: 0.8; stroke-linejoin: miter; stroke-linecap: square"/>
   </g>
   <g id="patch_11">
    <path d="M 584.487283 390.04 
L 1067.324567 390.04 
" style="fill: none; stroke: #000000; stroke-width: 0.8; stroke-linejoin: miter; stroke-linecap: square"/>
   </g>
   <g id="patch_12">
    <path d="M 584.487283 26.88 
L 1067.324567 26.88 
" style="fill: none; stroke: #000000; stroke-width: 0.8; stroke-linejoin: miter; stroke-linecap: square"/>
   </g>
   <g id="text_35">
    <!-- Vladimir Putin - LEADERSHIP TENURES Section - Political Lean Over Time -->
    <g transform="translate(607.953113 20.88) scale(0.12 -0.12)">
     <defs>
      <path id="DejaVuSans-56" d="M 1831 0 
L 50 4666 
L 709 4666 
L 2188 738 
L 3669 4666 
L 4325 4666 
L 2547 0 
L 1831 0 
z
" transform="scale(0.015625)"/>
      <path id="DejaVuSans-64" d="M 2906 2969 
L 2906 4863 
L 3481 4863 
L 3481 0 
L 2906 0 
L 2906 525 
Q 2725 213 2448 61 
Q 2172 -91 1784 -91 
Q 1150 -91 751 415 
Q 353 922 353 1747 
Q 353 2572 751 3078 
Q 1150 3584 1784 3584 
Q 2172 3584 2448 3432 
Q 2725 3281 2906 2969 
z
M 947 1747 
Q 947 1113 1208 752 
Q 1469 391 1925 391 
Q 2381 391 2643 752 
Q 2906 1113 2906 1747 
Q 2906 2381 2643 2742 
Q 2381 3103 1925 3103 
Q 1469 3103 1208 2742 
Q 947 2381 947 1747 
z
" transform="scale(0.015625)"/>
      <path id="DejaVuSans-75" d="M 544 1381 
L 544 3500 
L 1119 3500 
L 1119 1403 
Q 1119 906 1312 657 
Q 1506 409 1894 409 
Q 2359 409 2629 706 
Q 2900 1003 2900 1516 
L 2900 3500 
L 3475 3500 
L 3475 0 
L 2900 0 
L 2900 538 
Q 2691 219 2414 64 
Q 2138 -91 1772 -91 
Q 1169 -91 856 284 
Q 544 659 544 1381 
z
M 1991 3584 
L 1991 3584 
z
" transform="scale(0.015625)"/>
     </defs>
     <use xlink:href="#DejaVuSans-56"/>
     <use xlink:href="#DejaVuSans-6c" x="68.408203"/>
     <use xlink:href="#DejaVuSans-61" x="96.191406"/>
     <use xlink:href="#DejaVuSans-64" x="157.470703"/>
     <use xlink:href="#DejaVuSans-69" x="220.947266"/>
     <use xlink:href="#DejaVuSans-6d" x="248.730469"/>
     <use xlink:href="#DejaVuSans-69" x="346.142578"/>
     <use xlink:href="#DejaVuSans-72" x="373.925781"/>
     <use xlink:href="#DejaVuSans-20" x="415.039062"/>
     <use xlink:href="#DejaVuSans-50" x="446.826172"/>
     <use xlink:href="#DejaVuSans-75" x="505.378906"/>
     <use xlink:href="#DejaVuSans-74" x="568.757812"/>
     <use xlink:href="#DejaVuSans-69" x="607.966797"/>
     <use xlink:href="#DejaVuSans-6e" x="635.75"/>
     <use xlink:href="#DejaVuSans-20" x="699.128906"/>
     <use xlink:href="#DejaVuSans-2d" x="730.916016"/>
     <use xlink:href="#DejaVuSans-20" x="767"/>
     <use xlink:href="#DejaVuSans-4c" x="798.787109"/>
     <use xlink:href="#DejaVuSans-45" x="854.5"/>
     <use xlink:href="#DejaVuSans-41" x="917.683594"/>
     <use xlink:href="#DejaVuSans-44" x="986.091797"/>
     <use xlink:href="#DejaVuSans-45" x="1063.09375"/>
     <use xlink:href="#DejaVuSans-52" x="1126.277344"/>
     <use xlink:href="#DejaVuSans-53" x="1195.759766"/>
     <use xlink:href="#DejaVuSans-48" x="1259.236328"/>
     <use xlink:href="#DejaVuSans-49" x="1334.431641"/>
     <use xlink:href="#DejaVuSans-50" x="1363.923828"/>
     <use xlink:href="#DejaVuSans-20" x="1424.226562"/>
     <use xlink:href="#DejaVuSans-54" x="1456.013672"/>
     <use xlink:href="#DejaVuSans-45" x="1517.097656"/>
     <use xlink:href="#DejaVuSans-4e" x="1580.28125"/>
     <use xlink:href="#DejaVuSans-55" x="1655.085938"/>
     <use xlink:href="#DejaVuSans-52" x="1728.279297"/>
     <use xlink:href="#DejaVuSans-45" x="1797.761719"/>
     <use xlink:href="#DejaVuSans-53" x="1860.945312"/>
     <use xlink:href="#DejaVuSans-20" x="1924.421875"/>
     <use xlink:href="#DejaVuSans-53" x="1956.208984"/>
     <use xlink:href="#DejaVuSans-65" x="2019.685547"/>
     <use xlink:href="#DejaVuSans-63" x="2081.208984"/>
     <use xlink:href="#DejaVuSans-74" x="2136.189453"/>
     <use xlink:href="#DejaVuSans-69" x="2175.398438"/>
     <use xlink:href="#DejaVuSans-6f" x="2203.181641"/>
     <use xlink:href="#DejaVuSans-6e" x="2264.363281"/>
     <use xlink:href="#DejaVuSans-20" x="2327.742188"/>
     <use xlink:href="#DejaVuSans-2d" x="2359.529297"/>
     <use xlink:href="#DejaVuSans-20" x="2395.613281"/>
     <use xlink:href="#DejaVuSans-50" x="2427.400391"/>
     <use xlink:href="#DejaVuSans-6f" x="2484.078125"/>
     <use xlink:href="#DejaVuSans-6c" x="2545.259766"/>
     <use xlink:href="#DejaVuSans-69" x="2573.042969"/>
     <use xlink:href="#DejaVuSans-74" x="2600.826172"/>
     <use xlink:href="#DejaVuSans-69" x="2640.035156"/>
     <use xlink:href="#DejaVuSans-63" x="2667.818359"/>
     <use xlink:href="#DejaVuSans-61" x="2722.798828"/>
     <use xlink:href="#DejaVuSans-6c" x="2784.078125"/>
     <use xlink:href="#DejaVuSans-20" x="2811.861328"/>
     <use xlink:href="#DejaVuSans-4c" x="2843.648438"/>
     <use xlink:href="#DejaVuSans-65" x="2897.611328"/>
     <use xlink:href="#DejaVuSans-61" x="2959.134766"/>
     <use xlink:href="#DejaVuSans-6e" x="3020.414062"/>
     <use xlink:href="#DejaVuSans-20" x="3083.792969"/>
     <use xlink:href="#DejaVuSans-4f" x="3115.580078"/>
     <use xlink:href="#DejaVuSans-76" x="3194.291016"/>
     <use xlink:href="#DejaVuSans-65" x="3253.470703"/>
     <use xlink:href="#DejaVuSans-72" x="3314.994141"/>
     <use xlink:href="#DejaVuSans-20" x="3356.107422"/>
     <use xlink:href="#DejaVuSans-54" x="3387.894531"/>
     <use xlink:href="#DejaVuSans-69" x="3445.853516"/>
     <use xlink:href="#DejaVuSans-6d" x="3473.636719"/>
     <use xlink:href="#DejaVuSans-65" x="3571.048828"/>
    </g>
   </g>
   <g id="legend_2">
    <g id="patch_13">
     <path d="M 967.473004 78.914375 
L 1060.324567 78.914375 
Q 1062.324567 78.914375 1062.324567 76.914375 
L 1062.324567 33.88 
Q 1062.324567 31.88 1060.324567 31.88 
L 967.473004 31.88 
Q 965.473004 31.88 965.473004 33.88 
L 965.473004 76.914375 
Q 965.473004 78.914375 967.473004 78.914375 
z
" style="fill: #ffffff; opacity: 0.8; stroke: #cccccc; stroke-linejoin: miter"/>
    </g>
    <g id="line2d_36">
     <path d="M 969.473004 39.978437 
L 979.473004 39.978437 
L 989.473004 39.978437 
" style="fill: none; stroke: #008000; stroke-width: 1.5; stroke-linecap: square"/>
    </g>
    <g id="text_36">
     <!-- Left Lean -->
     <g transform="translate(997.473004 43.478437) scale(0.1 -0.1)">
      <use xlink:href="#DejaVuSans-4c"/>
      <use xlink:href="#DejaVuSans-65" x="53.962891"/>
      <use xlink:href="#DejaVuSans-66" x="115.486328"/>
      <use xlink:href="#DejaVuSans-74" x="148.941406"/>
      <use xlink:href="#DejaVuSans-20" x="188.150391"/>
      <use xlink:href="#DejaVuSans-4c" x="219.9375"/>
      <use xlink:href="#DejaVuSans-65" x="273.900391"/>
      <use xlink:href="#DejaVuSans-61" x="335.423828"/>
      <use xlink:href="#DejaVuSans-6e" x="396.703125"/>
     </g>
    </g>
    <g id="line2d_37">
     <path d="M 969.473004 54.656563 
L 979.473004 54.656563 
L 989.473004 54.656563 
" style="fill: none; stroke: #0000ff; stroke-width: 1.5; stroke-linecap: square"/>
    </g>
    <g id="text_37">
     <!-- Center Lean -->
     <g transform="translate(997.473004 58.156563) scale(0.1 -0.1)">
      <use xlink:href="#DejaVuSans-43"/>
      <use xlink:href="#DejaVuSans-65" x="69.824219"/>
      <use xlink:href="#DejaVuSans-6e" x="131.347656"/>
      <use xlink:href="#DejaVuSans-74" x="194.726562"/>
      <use xlink:href="#DejaVuSans-65" x="233.935547"/>
      <use xlink:href="#DejaVuSans-72" x="295.458984"/>
      <use xlink:href="#DejaVuSans-20" x="336.572266"/>
      <use xlink:href="#DejaVuSans-4c" x="368.359375"/>
      <use xlink:href="#DejaVuSans-65" x="422.322266"/>
      <use xlink:href="#DejaVuSans-61" x="483.845703"/>
      <use xlink:href="#DejaVuSans-6e" x="545.125"/>
     </g>
    </g>
    <g id="line2d_38">
     <path d="M 969.473004 69.334687 
L 979.473004 69.334687 
L 989.473004 69.334687 
" style="fill: none; stroke: #ff0000; stroke-width: 1.5; stroke-linecap: square"/>
    </g>
    <g id="text_38">
     <!-- Right Lean -->
     <g transform="translate(997.473004 72.834687) scale(0.1 -0.1)">
      <use xlink:href="#DejaVuSans-52"/>
      <use xlink:href="#DejaVuSans-69" x="69.482422"/>
      <use xlink:href="#DejaVuSans-67" x="97.265625"/>
      <use xlink:href="#DejaVuSans-68" x="160.742188"/>
      <use xlink:href="#DejaVuSans-74" x="224.121094"/>
      <use xlink:href="#DejaVuSans-20" x="263.330078"/>
      <use xlink:href="#DejaVuSans-4c" x="295.117188"/>
      <use xlink:href="#DejaVuSans-65" x="349.080078"/>
      <use xlink:href="#DejaVuSans-61" x="410.603516"/>
      <use xlink:href="#DejaVuSans-6e" x="471.882812"/>
     </g>
    </g>
   </g>
  </g>
 </g>
 <defs>
  <clipPath id="p79e0a101b1">
   <rect x="53.93" y="26.88" width="482.837283" height="363.16"/>
  </clipPath>
  <clipPath id="p1f02ea5a08">
   <rect x="584.487283" y="26.88" width="482.837283" height="363.16"/>
  </clipPath>
 </defs>
</svg>
