<?xml version="1.0" encoding="utf-8" standalone="no"?>
<!DOCTYPE svg PUBLIC "-//W3C//DTD SVG 1.1//EN"
  "http://www.w3.org/Graphics/SVG/1.1/DTD/svg11.dtd">
<svg xmlns:xlink="http://www.w3.org/1999/xlink" width="1080pt" height="432pt" viewBox="0 0 1080 432" xmlns="http://www.w3.org/2000/svg" version="1.1">
 <metadata>
  <rdf:RDF xmlns:dc="http://purl.org/dc/elements/1.1/" xmlns:cc="http://creativecommons.org/ns#" xmlns:rdf="http://www.w3.org/1999/02/22-rdf-syntax-ns#">
   <cc:Work>
    <dc:type rdf:resource="http://purl.org/dc/dcmitype/StillImage"/>
    <dc:date>2024-10-26T18:00:27.048633</dc:date>
    <dc:format>image/svg+xml</dc:format>
    <dc:creator>
     <cc:Agent>
      <dc:title>Matplotlib v3.9.2, https://matplotlib.org/</dc:title>
     </cc:Agent>
    </dc:creator>
   </cc:Work>
  </rdf:RDF>
 </metadata>
 <defs>
  <style type="text/css">*{stroke-linejoin: round; stroke-linecap: butt}</style>
 </defs>
 <g id="figure_1">
  <g id="patch_1">
   <path d="M 0 432 
L 1080 432 
L 1080 0 
L 0 0 
z
" style="fill: #ffffff"/>
  </g>
  <g id="axes_1">
   <g id="patch_2">
    <path d="M 47.72 390.04 
L 534.6 390.04 
L 534.6 26.88 
L 47.72 26.88 
z
" style="fill: #ffffff"/>
   </g>
   <g id="PolyCollection_1"/>
   <g id="PolyCollection_2"/>
   <g id="PolyCollection_3"/>
   <g id="matplotlib.axis_1">
    <g id="xtick_1">
     <g id="line2d_1">
      <defs>
       <path id="m51506da207" d="M 0 0 
L 0 3.5 
" style="stroke: #000000; stroke-width: 0.8"/>
      </defs>
      <g>
       <use xlink:href="#m51506da207" x="117.953679" y="390.04" style="stroke: #000000; stroke-width: 0.8"/>
      </g>
     </g>
     <g id="text_1">
      <!-- 2016 -->
      <g transform="translate(105.228679 404.638438) scale(0.1 -0.1)">
       <defs>
        <path id="DejaVuSans-32" d="M 1228 531 
L 3431 531 
L 3431 0 
L 469 0 
L 469 531 
Q 828 903 1448 1529 
Q 2069 2156 2228 2338 
Q 2531 2678 2651 2914 
Q 2772 3150 2772 3378 
Q 2772 3750 2511 3984 
Q 2250 4219 1831 4219 
Q 1534 4219 1204 4116 
Q 875 4013 500 3803 
L 500 4441 
Q 881 4594 1212 4672 
Q 1544 4750 1819 4750 
Q 2544 4750 2975 4387 
Q 3406 4025 3406 3419 
Q 3406 3131 3298 2873 
Q 3191 2616 2906 2266 
Q 2828 2175 2409 1742 
Q 1991 1309 1228 531 
z
" transform="scale(0.015625)"/>
        <path id="DejaVuSans-30" d="M 2034 4250 
Q 1547 4250 1301 3770 
Q 1056 3291 1056 2328 
Q 1056 1369 1301 889 
Q 1547 409 2034 409 
Q 2525 409 2770 889 
Q 3016 1369 3016 2328 
Q 3016 3291 2770 3770 
Q 2525 4250 2034 4250 
z
M 2034 4750 
Q 2819 4750 3233 4129 
Q 3647 3509 3647 2328 
Q 3647 1150 3233 529 
Q 2819 -91 2034 -91 
Q 1250 -91 836 529 
Q 422 1150 422 2328 
Q 422 3509 836 4129 
Q 1250 4750 2034 4750 
z
" transform="scale(0.015625)"/>
        <path id="DejaVuSans-31" d="M 794 531 
L 1825 531 
L 1825 4091 
L 703 3866 
L 703 4441 
L 1819 4666 
L 2450 4666 
L 2450 531 
L 3481 531 
L 3481 0 
L 794 0 
L 794 531 
z
" transform="scale(0.015625)"/>
        <path id="DejaVuSans-36" d="M 2113 2584 
Q 1688 2584 1439 2293 
Q 1191 2003 1191 1497 
Q 1191 994 1439 701 
Q 1688 409 2113 409 
Q 2538 409 2786 701 
Q 3034 994 3034 1497 
Q 3034 2003 2786 2293 
Q 2538 2584 2113 2584 
z
M 3366 4563 
L 3366 3988 
Q 3128 4100 2886 4159 
Q 2644 4219 2406 4219 
Q 1781 4219 1451 3797 
Q 1122 3375 1075 2522 
Q 1259 2794 1537 2939 
Q 1816 3084 2150 3084 
Q 2853 3084 3261 2657 
Q 3669 2231 3669 1497 
Q 3669 778 3244 343 
Q 2819 -91 2113 -91 
Q 1303 -91 875 529 
Q 447 1150 447 2328 
Q 447 3434 972 4092 
Q 1497 4750 2381 4750 
Q 2619 4750 2861 4703 
Q 3103 4656 3366 4563 
z
" transform="scale(0.015625)"/>
       </defs>
       <use xlink:href="#DejaVuSans-32"/>
       <use xlink:href="#DejaVuSans-30" x="63.623047"/>
       <use xlink:href="#DejaVuSans-31" x="127.246094"/>
       <use xlink:href="#DejaVuSans-36" x="190.869141"/>
      </g>
     </g>
    </g>
    <g id="xtick_2">
     <g id="line2d_2">
      <g>
       <use xlink:href="#m51506da207" x="206.525782" y="390.04" style="stroke: #000000; stroke-width: 0.8"/>
      </g>
     </g>
     <g id="text_2">
      <!-- 2018 -->
      <g transform="translate(193.800782 404.638438) scale(0.1 -0.1)">
       <defs>
        <path id="DejaVuSans-38" d="M 2034 2216 
Q 1584 2216 1326 1975 
Q 1069 1734 1069 1313 
Q 1069 891 1326 650 
Q 1584 409 2034 409 
Q 2484 409 2743 651 
Q 3003 894 3003 1313 
Q 3003 1734 2745 1975 
Q 2488 2216 2034 2216 
z
M 1403 2484 
Q 997 2584 770 2862 
Q 544 3141 544 3541 
Q 544 4100 942 4425 
Q 1341 4750 2034 4750 
Q 2731 4750 3128 4425 
Q 3525 4100 3525 3541 
Q 3525 3141 3298 2862 
Q 3072 2584 2669 2484 
Q 3125 2378 3379 2068 
Q 3634 1759 3634 1313 
Q 3634 634 3220 271 
Q 2806 -91 2034 -91 
Q 1263 -91 848 271 
Q 434 634 434 1313 
Q 434 1759 690 2068 
Q 947 2378 1403 2484 
z
M 1172 3481 
Q 1172 3119 1398 2916 
Q 1625 2713 2034 2713 
Q 2441 2713 2670 2916 
Q 2900 3119 2900 3481 
Q 2900 3844 2670 4047 
Q 2441 4250 2034 4250 
Q 1625 4250 1398 4047 
Q 1172 3844 1172 3481 
z
" transform="scale(0.015625)"/>
       </defs>
       <use xlink:href="#DejaVuSans-32"/>
       <use xlink:href="#DejaVuSans-30" x="63.623047"/>
       <use xlink:href="#DejaVuSans-31" x="127.246094"/>
       <use xlink:href="#DejaVuSans-38" x="190.869141"/>
      </g>
     </g>
    </g>
    <g id="xtick_3">
     <g id="line2d_3">
      <g>
       <use xlink:href="#m51506da207" x="294.976719" y="390.04" style="stroke: #000000; stroke-width: 0.8"/>
      </g>
     </g>
     <g id="text_3">
      <!-- 2020 -->
      <g transform="translate(282.251719 404.638438) scale(0.1 -0.1)">
       <use xlink:href="#DejaVuSans-32"/>
       <use xlink:href="#DejaVuSans-30" x="63.623047"/>
       <use xlink:href="#DejaVuSans-32" x="127.246094"/>
       <use xlink:href="#DejaVuSans-30" x="190.869141"/>
      </g>
     </g>
    </g>
    <g id="xtick_4">
     <g id="line2d_4">
      <g>
       <use xlink:href="#m51506da207" x="383.548821" y="390.04" style="stroke: #000000; stroke-width: 0.8"/>
      </g>
     </g>
     <g id="text_4">
      <!-- 2022 -->
      <g transform="translate(370.823821 404.638438) scale(0.1 -0.1)">
       <use xlink:href="#DejaVuSans-32"/>
       <use xlink:href="#DejaVuSans-30" x="63.623047"/>
       <use xlink:href="#DejaVuSans-32" x="127.246094"/>
       <use xlink:href="#DejaVuSans-32" x="190.869141"/>
      </g>
     </g>
    </g>
    <g id="xtick_5">
     <g id="line2d_5">
      <g>
       <use xlink:href="#m51506da207" x="471.999758" y="390.04" style="stroke: #000000; stroke-width: 0.8"/>
      </g>
     </g>
     <g id="text_5">
      <!-- 2024 -->
      <g transform="translate(459.274758 404.638438) scale(0.1 -0.1)">
       <defs>
        <path id="DejaVuSans-34" d="M 2419 4116 
L 825 1625 
L 2419 1625 
L 2419 4116 
z
M 2253 4666 
L 3047 4666 
L 3047 1625 
L 3713 1625 
L 3713 1100 
L 3047 1100 
L 3047 0 
L 2419 0 
L 2419 1100 
L 313 1100 
L 313 1709 
L 2253 4666 
z
" transform="scale(0.015625)"/>
       </defs>
       <use xlink:href="#DejaVuSans-32"/>
       <use xlink:href="#DejaVuSans-30" x="63.623047"/>
       <use xlink:href="#DejaVuSans-32" x="127.246094"/>
       <use xlink:href="#DejaVuSans-34" x="190.869141"/>
      </g>
     </g>
    </g>
    <g id="text_6">
     <!-- Date -->
     <g transform="translate(279.209219 418.316562) scale(0.1 -0.1)">
      <defs>
       <path id="DejaVuSans-44" d="M 1259 4147 
L 1259 519 
L 2022 519 
Q 2988 519 3436 956 
Q 3884 1394 3884 2338 
Q 3884 3275 3436 3711 
Q 2988 4147 2022 4147 
L 1259 4147 
z
M 628 4666 
L 1925 4666 
Q 3281 4666 3915 4102 
Q 4550 3538 4550 2338 
Q 4550 1131 3912 565 
Q 3275 0 1925 0 
L 628 0 
L 628 4666 
z
" transform="scale(0.015625)"/>
       <path id="DejaVuSans-61" d="M 2194 1759 
Q 1497 1759 1228 1600 
Q 959 1441 959 1056 
Q 959 750 1161 570 
Q 1363 391 1709 391 
Q 2188 391 2477 730 
Q 2766 1069 2766 1631 
L 2766 1759 
L 2194 1759 
z
M 3341 1997 
L 3341 0 
L 2766 0 
L 2766 531 
Q 2569 213 2275 61 
Q 1981 -91 1556 -91 
Q 1019 -91 701 211 
Q 384 513 384 1019 
Q 384 1609 779 1909 
Q 1175 2209 1959 2209 
L 2766 2209 
L 2766 2266 
Q 2766 2663 2505 2880 
Q 2244 3097 1772 3097 
Q 1472 3097 1187 3025 
Q 903 2953 641 2809 
L 641 3341 
Q 956 3463 1253 3523 
Q 1550 3584 1831 3584 
Q 2591 3584 2966 3190 
Q 3341 2797 3341 1997 
z
" transform="scale(0.015625)"/>
       <path id="DejaVuSans-74" d="M 1172 4494 
L 1172 3500 
L 2356 3500 
L 2356 3053 
L 1172 3053 
L 1172 1153 
Q 1172 725 1289 603 
Q 1406 481 1766 481 
L 2356 481 
L 2356 0 
L 1766 0 
Q 1100 0 847 248 
Q 594 497 594 1153 
L 594 3053 
L 172 3053 
L 172 3500 
L 594 3500 
L 594 4494 
L 1172 4494 
z
" transform="scale(0.015625)"/>
       <path id="DejaVuSans-65" d="M 3597 1894 
L 3597 1613 
L 953 1613 
Q 991 1019 1311 708 
Q 1631 397 2203 397 
Q 2534 397 2845 478 
Q 3156 559 3463 722 
L 3463 178 
Q 3153 47 2828 -22 
Q 2503 -91 2169 -91 
Q 1331 -91 842 396 
Q 353 884 353 1716 
Q 353 2575 817 3079 
Q 1281 3584 2069 3584 
Q 2775 3584 3186 3129 
Q 3597 2675 3597 1894 
z
M 3022 2063 
Q 3016 2534 2758 2815 
Q 2500 3097 2075 3097 
Q 1594 3097 1305 2825 
Q 1016 2553 972 2059 
L 3022 2063 
z
" transform="scale(0.015625)"/>
      </defs>
      <use xlink:href="#DejaVuSans-44"/>
      <use xlink:href="#DejaVuSans-61" x="77.001953"/>
      <use xlink:href="#DejaVuSans-74" x="138.28125"/>
      <use xlink:href="#DejaVuSans-65" x="177.490234"/>
     </g>
    </g>
   </g>
   <g id="matplotlib.axis_2">
    <g id="ytick_1">
     <g id="line2d_6">
      <defs>
       <path id="m47d39a9707" d="M 0 0 
L -3.5 0 
" style="stroke: #000000; stroke-width: 0.8"/>
      </defs>
      <g>
       <use xlink:href="#m47d39a9707" x="47.72" y="382.641667" style="stroke: #000000; stroke-width: 0.8"/>
      </g>
     </g>
     <g id="text_7">
      <!-- 0.0 -->
      <g transform="translate(24.816875 386.440886) scale(0.1 -0.1)">
       <defs>
        <path id="DejaVuSans-2e" d="M 684 794 
L 1344 794 
L 1344 0 
L 684 0 
L 684 794 
z
" transform="scale(0.015625)"/>
       </defs>
       <use xlink:href="#DejaVuSans-30"/>
       <use xlink:href="#DejaVuSans-2e" x="63.623047"/>
       <use xlink:href="#DejaVuSans-30" x="95.410156"/>
      </g>
     </g>
    </g>
    <g id="ytick_2">
     <g id="line2d_7">
      <g>
       <use xlink:href="#m47d39a9707" x="47.72" y="305.542552" style="stroke: #000000; stroke-width: 0.8"/>
      </g>
     </g>
     <g id="text_8">
      <!-- 0.2 -->
      <g transform="translate(24.816875 309.341771) scale(0.1 -0.1)">
       <use xlink:href="#DejaVuSans-30"/>
       <use xlink:href="#DejaVuSans-2e" x="63.623047"/>
       <use xlink:href="#DejaVuSans-32" x="95.410156"/>
      </g>
     </g>
    </g>
    <g id="ytick_3">
     <g id="line2d_8">
      <g>
       <use xlink:href="#m47d39a9707" x="47.72" y="228.443437" style="stroke: #000000; stroke-width: 0.8"/>
      </g>
     </g>
     <g id="text_9">
      <!-- 0.4 -->
      <g transform="translate(24.816875 232.242656) scale(0.1 -0.1)">
       <use xlink:href="#DejaVuSans-30"/>
       <use xlink:href="#DejaVuSans-2e" x="63.623047"/>
       <use xlink:href="#DejaVuSans-34" x="95.410156"/>
      </g>
     </g>
    </g>
    <g id="ytick_4">
     <g id="line2d_9">
      <g>
       <use xlink:href="#m47d39a9707" x="47.72" y="151.344322" style="stroke: #000000; stroke-width: 0.8"/>
      </g>
     </g>
     <g id="text_10">
      <!-- 0.6 -->
      <g transform="translate(24.816875 155.143541) scale(0.1 -0.1)">
       <use xlink:href="#DejaVuSans-30"/>
       <use xlink:href="#DejaVuSans-2e" x="63.623047"/>
       <use xlink:href="#DejaVuSans-36" x="95.410156"/>
      </g>
     </g>
    </g>
    <g id="ytick_5">
     <g id="line2d_10">
      <g>
       <use xlink:href="#m47d39a9707" x="47.72" y="74.245207" style="stroke: #000000; stroke-width: 0.8"/>
      </g>
     </g>
     <g id="text_11">
      <!-- 0.8 -->
      <g transform="translate(24.816875 78.044426) scale(0.1 -0.1)">
       <use xlink:href="#DejaVuSans-30"/>
       <use xlink:href="#DejaVuSans-2e" x="63.623047"/>
       <use xlink:href="#DejaVuSans-38" x="95.410156"/>
      </g>
     </g>
    </g>
    <g id="text_12">
     <!-- Lean Score -->
     <g transform="translate(18.737187 236.059219) rotate(-90) scale(0.1 -0.1)">
      <defs>
       <path id="DejaVuSans-4c" d="M 628 4666 
L 1259 4666 
L 1259 531 
L 3531 531 
L 3531 0 
L 628 0 
L 628 4666 
z
" transform="scale(0.015625)"/>
       <path id="DejaVuSans-6e" d="M 3513 2113 
L 3513 0 
L 2938 0 
L 2938 2094 
Q 2938 2591 2744 2837 
Q 2550 3084 2163 3084 
Q 1697 3084 1428 2787 
Q 1159 2491 1159 1978 
L 1159 0 
L 581 0 
L 581 3500 
L 1159 3500 
L 1159 2956 
Q 1366 3272 1645 3428 
Q 1925 3584 2291 3584 
Q 2894 3584 3203 3211 
Q 3513 2838 3513 2113 
z
" transform="scale(0.015625)"/>
       <path id="DejaVuSans-20" transform="scale(0.015625)"/>
       <path id="DejaVuSans-53" d="M 3425 4513 
L 3425 3897 
Q 3066 4069 2747 4153 
Q 2428 4238 2131 4238 
Q 1616 4238 1336 4038 
Q 1056 3838 1056 3469 
Q 1056 3159 1242 3001 
Q 1428 2844 1947 2747 
L 2328 2669 
Q 3034 2534 3370 2195 
Q 3706 1856 3706 1288 
Q 3706 609 3251 259 
Q 2797 -91 1919 -91 
Q 1588 -91 1214 -16 
Q 841 59 441 206 
L 441 856 
Q 825 641 1194 531 
Q 1563 422 1919 422 
Q 2459 422 2753 634 
Q 3047 847 3047 1241 
Q 3047 1584 2836 1778 
Q 2625 1972 2144 2069 
L 1759 2144 
Q 1053 2284 737 2584 
Q 422 2884 422 3419 
Q 422 4038 858 4394 
Q 1294 4750 2059 4750 
Q 2388 4750 2728 4690 
Q 3069 4631 3425 4513 
z
" transform="scale(0.015625)"/>
       <path id="DejaVuSans-63" d="M 3122 3366 
L 3122 2828 
Q 2878 2963 2633 3030 
Q 2388 3097 2138 3097 
Q 1578 3097 1268 2742 
Q 959 2388 959 1747 
Q 959 1106 1268 751 
Q 1578 397 2138 397 
Q 2388 397 2633 464 
Q 2878 531 3122 666 
L 3122 134 
Q 2881 22 2623 -34 
Q 2366 -91 2075 -91 
Q 1284 -91 818 406 
Q 353 903 353 1747 
Q 353 2603 823 3093 
Q 1294 3584 2113 3584 
Q 2378 3584 2631 3529 
Q 2884 3475 3122 3366 
z
" transform="scale(0.015625)"/>
       <path id="DejaVuSans-6f" d="M 1959 3097 
Q 1497 3097 1228 2736 
Q 959 2375 959 1747 
Q 959 1119 1226 758 
Q 1494 397 1959 397 
Q 2419 397 2687 759 
Q 2956 1122 2956 1747 
Q 2956 2369 2687 2733 
Q 2419 3097 1959 3097 
z
M 1959 3584 
Q 2709 3584 3137 3096 
Q 3566 2609 3566 1747 
Q 3566 888 3137 398 
Q 2709 -91 1959 -91 
Q 1206 -91 779 398 
Q 353 888 353 1747 
Q 353 2609 779 3096 
Q 1206 3584 1959 3584 
z
" transform="scale(0.015625)"/>
       <path id="DejaVuSans-72" d="M 2631 2963 
Q 2534 3019 2420 3045 
Q 2306 3072 2169 3072 
Q 1681 3072 1420 2755 
Q 1159 2438 1159 1844 
L 1159 0 
L 581 0 
L 581 3500 
L 1159 3500 
L 1159 2956 
Q 1341 3275 1631 3429 
Q 1922 3584 2338 3584 
Q 2397 3584 2469 3576 
Q 2541 3569 2628 3553 
L 2631 2963 
z
" transform="scale(0.015625)"/>
      </defs>
      <use xlink:href="#DejaVuSans-4c"/>
      <use xlink:href="#DejaVuSans-65" x="53.962891"/>
      <use xlink:href="#DejaVuSans-61" x="115.486328"/>
      <use xlink:href="#DejaVuSans-6e" x="176.765625"/>
      <use xlink:href="#DejaVuSans-20" x="240.144531"/>
      <use xlink:href="#DejaVuSans-53" x="271.931641"/>
      <use xlink:href="#DejaVuSans-63" x="335.408203"/>
      <use xlink:href="#DejaVuSans-6f" x="390.388672"/>
      <use xlink:href="#DejaVuSans-72" x="451.570312"/>
      <use xlink:href="#DejaVuSans-65" x="490.433594"/>
     </g>
    </g>
   </g>
   <g id="line2d_11">
    <path d="M 69.850909 288.723366 
L 80.755819 288.723366 
L 91.90306 291.816417 
L 103.050302 298.002518 
L 114.076378 298.002518 
L 125.102453 295.000611 
L 136.249695 295.000611 
L 147.396936 282.307229 
L 158.423012 282.307229 
L 169.327922 282.307229 
L 180.475163 274.199924 
L 191.622404 277.018216 
L 202.64848 277.018216 
L 213.55339 277.018216 
L 224.700632 277.018216 
L 235.847873 277.018216 
L 246.873949 286.606135 
L 257.778859 291.861046 
L 268.9261 290.037694 
L 280.073341 286.390989 
L 291.099417 286.127776 
L 302.125493 285.60135 
L 313.272734 285.60135 
L 324.419976 284.054314 
L 335.446051 280.96024 
L 346.350961 280.96024 
L 357.498203 280.96024 
L 368.645444 280.96024 
L 379.67152 279.192721 
L 390.57643 279.192721 
L 401.723671 280.904383 
L 412.870913 268.002288 
L 423.896988 239.800346 
L 434.801898 239.800346 
L 445.94914 270.698201 
L 457.096381 332.49391 
L 468.122457 43.387273 
L 479.148532 43.387273 
L 490.295774 81.834728 
L 501.443015 102.1397 
L 512.469091 102.1397 
" clip-path="url(#p3e9c740b70)" style="fill: none; stroke: #008000; stroke-width: 1.5; stroke-linecap: square"/>
   </g>
   <g id="line2d_12">
    <path d="M 69.850909 305.755516 
L 80.755819 305.755516 
L 91.90306 307.693043 
L 103.050302 311.568096 
L 114.076378 311.568096 
L 125.102453 314.730437 
L 136.249695 314.730437 
L 147.396936 302.475353 
L 158.423012 302.475353 
L 169.327922 302.475353 
L 180.475163 307.113771 
L 191.622404 306.850058 
L 202.64848 306.850058 
L 213.55339 306.850058 
L 224.700632 306.850058 
L 235.847873 306.850058 
L 246.873949 293.898771 
L 257.778859 286.940837 
L 268.9261 284.882034 
L 280.073341 280.764428 
L 291.099417 280.711836 
L 302.125493 280.606654 
L 313.272734 280.606654 
L 324.419976 280.110872 
L 335.446051 279.119309 
L 346.350961 279.119309 
L 357.498203 279.119309 
L 368.645444 279.119309 
L 379.67152 281.902104 
L 390.57643 281.902104 
L 401.723671 287.6752 
L 412.870913 298.954578 
L 423.896988 315.579472 
L 434.801898 315.579472 
L 445.94914 309.694324 
L 457.096381 297.924027 
L 468.122457 345.509422 
L 479.148532 345.509422 
L 490.295774 316.462466 
L 501.443015 300.979949 
L 512.469091 300.979949 
" clip-path="url(#p3e9c740b70)" style="fill: none; stroke: #0000ff; stroke-width: 1.5; stroke-linecap: square"/>
   </g>
   <g id="line2d_13">
    <path d="M 69.850909 167.950555 
L 80.755819 167.950555 
L 91.90306 162.919976 
L 103.050302 152.858817 
L 114.076378 152.858817 
L 125.102453 152.69839 
L 136.249695 152.69839 
L 147.396936 177.646849 
L 158.423012 177.646849 
L 169.327922 177.646849 
L 180.475163 181.115752 
L 191.622404 178.561163 
L 202.64848 178.561163 
L 213.55339 178.561163 
L 224.700632 178.561163 
L 235.847873 178.561163 
L 246.873949 181.924515 
L 257.778859 183.627549 
L 268.9261 187.509695 
L 280.073341 195.273986 
L 291.099417 195.58979 
L 302.125493 196.221399 
L 313.272734 196.221399 
L 324.419976 198.264232 
L 335.446051 202.3499 
L 346.350961 202.3499 
L 357.498203 202.3499 
L 368.645444 202.3499 
L 379.67152 201.334612 
L 390.57643 201.334612 
L 401.723671 193.849844 
L 412.870913 195.47256 
L 423.896988 207.049579 
L 434.801898 207.049579 
L 445.94914 182.03689 
L 457.096381 132.011512 
L 468.122457 373.532727 
L 479.148532 373.532727 
L 490.295774 364.132245 
L 501.443015 359.309794 
L 512.469091 359.309794 
" clip-path="url(#p3e9c740b70)" style="fill: none; stroke: #ff0000; stroke-width: 1.5; stroke-linecap: square"/>
   </g>
   <g id="patch_3">
    <path d="M 47.72 390.04 
L 47.72 26.88 
" style="fill: none; stroke: #000000; stroke-width: 0.8; stroke-linejoin: miter; stroke-linecap: square"/>
   </g>
   <g id="patch_4">
    <path d="M 534.6 390.04 
L 534.6 26.88 
" style="fill: none; stroke: #000000; stroke-width: 0.8; stroke-linejoin: miter; stroke-linecap: square"/>
   </g>
   <g id="patch_5">
    <path d="M 47.72 390.04 
L 534.6 390.04 
" style="fill: none; stroke: #000000; stroke-width: 0.8; stroke-linejoin: miter; stroke-linecap: square"/>
   </g>
   <g id="patch_6">
    <path d="M 47.72 26.88 
L 534.6 26.88 
" style="fill: none; stroke: #000000; stroke-width: 0.8; stroke-linejoin: miter; stroke-linecap: square"/>
   </g>
   <g id="text_13">
    <!-- Xi Jinping - POLICY Section - Political Lean Over Time -->
    <g transform="translate(133.479062 20.88) scale(0.12 -0.12)">
     <defs>
      <path id="DejaVuSans-58" d="M 403 4666 
L 1081 4666 
L 2241 2931 
L 3406 4666 
L 4084 4666 
L 2584 2425 
L 4184 0 
L 3506 0 
L 2194 1984 
L 872 0 
L 191 0 
L 1856 2491 
L 403 4666 
z
" transform="scale(0.015625)"/>
      <path id="DejaVuSans-69" d="M 603 3500 
L 1178 3500 
L 1178 0 
L 603 0 
L 603 3500 
z
M 603 4863 
L 1178 4863 
L 1178 4134 
L 603 4134 
L 603 4863 
z
" transform="scale(0.015625)"/>
      <path id="DejaVuSans-4a" d="M 628 4666 
L 1259 4666 
L 1259 325 
Q 1259 -519 939 -900 
Q 619 -1281 -91 -1281 
L -331 -1281 
L -331 -750 
L -134 -750 
Q 284 -750 456 -515 
Q 628 -281 628 325 
L 628 4666 
z
" transform="scale(0.015625)"/>
      <path id="DejaVuSans-70" d="M 1159 525 
L 1159 -1331 
L 581 -1331 
L 581 3500 
L 1159 3500 
L 1159 2969 
Q 1341 3281 1617 3432 
Q 1894 3584 2278 3584 
Q 2916 3584 3314 3078 
Q 3713 2572 3713 1747 
Q 3713 922 3314 415 
Q 2916 -91 2278 -91 
Q 1894 -91 1617 61 
Q 1341 213 1159 525 
z
M 3116 1747 
Q 3116 2381 2855 2742 
Q 2594 3103 2138 3103 
Q 1681 3103 1420 2742 
Q 1159 2381 1159 1747 
Q 1159 1113 1420 752 
Q 1681 391 2138 391 
Q 2594 391 2855 752 
Q 3116 1113 3116 1747 
z
" transform="scale(0.015625)"/>
      <path id="DejaVuSans-67" d="M 2906 1791 
Q 2906 2416 2648 2759 
Q 2391 3103 1925 3103 
Q 1463 3103 1205 2759 
Q 947 2416 947 1791 
Q 947 1169 1205 825 
Q 1463 481 1925 481 
Q 2391 481 2648 825 
Q 2906 1169 2906 1791 
z
M 3481 434 
Q 3481 -459 3084 -895 
Q 2688 -1331 1869 -1331 
Q 1566 -1331 1297 -1286 
Q 1028 -1241 775 -1147 
L 775 -588 
Q 1028 -725 1275 -790 
Q 1522 -856 1778 -856 
Q 2344 -856 2625 -561 
Q 2906 -266 2906 331 
L 2906 616 
Q 2728 306 2450 153 
Q 2172 0 1784 0 
Q 1141 0 747 490 
Q 353 981 353 1791 
Q 353 2603 747 3093 
Q 1141 3584 1784 3584 
Q 2172 3584 2450 3431 
Q 2728 3278 2906 2969 
L 2906 3500 
L 3481 3500 
L 3481 434 
z
" transform="scale(0.015625)"/>
      <path id="DejaVuSans-2d" d="M 313 2009 
L 1997 2009 
L 1997 1497 
L 313 1497 
L 313 2009 
z
" transform="scale(0.015625)"/>
      <path id="DejaVuSans-50" d="M 1259 4147 
L 1259 2394 
L 2053 2394 
Q 2494 2394 2734 2622 
Q 2975 2850 2975 3272 
Q 2975 3691 2734 3919 
Q 2494 4147 2053 4147 
L 1259 4147 
z
M 628 4666 
L 2053 4666 
Q 2838 4666 3239 4311 
Q 3641 3956 3641 3272 
Q 3641 2581 3239 2228 
Q 2838 1875 2053 1875 
L 1259 1875 
L 1259 0 
L 628 0 
L 628 4666 
z
" transform="scale(0.015625)"/>
      <path id="DejaVuSans-4f" d="M 2522 4238 
Q 1834 4238 1429 3725 
Q 1025 3213 1025 2328 
Q 1025 1447 1429 934 
Q 1834 422 2522 422 
Q 3209 422 3611 934 
Q 4013 1447 4013 2328 
Q 4013 3213 3611 3725 
Q 3209 4238 2522 4238 
z
M 2522 4750 
Q 3503 4750 4090 4092 
Q 4678 3434 4678 2328 
Q 4678 1225 4090 567 
Q 3503 -91 2522 -91 
Q 1538 -91 948 565 
Q 359 1222 359 2328 
Q 359 3434 948 4092 
Q 1538 4750 2522 4750 
z
" transform="scale(0.015625)"/>
      <path id="DejaVuSans-49" d="M 628 4666 
L 1259 4666 
L 1259 0 
L 628 0 
L 628 4666 
z
" transform="scale(0.015625)"/>
      <path id="DejaVuSans-43" d="M 4122 4306 
L 4122 3641 
Q 3803 3938 3442 4084 
Q 3081 4231 2675 4231 
Q 1875 4231 1450 3742 
Q 1025 3253 1025 2328 
Q 1025 1406 1450 917 
Q 1875 428 2675 428 
Q 3081 428 3442 575 
Q 3803 722 4122 1019 
L 4122 359 
Q 3791 134 3420 21 
Q 3050 -91 2638 -91 
Q 1578 -91 968 557 
Q 359 1206 359 2328 
Q 359 3453 968 4101 
Q 1578 4750 2638 4750 
Q 3056 4750 3426 4639 
Q 3797 4528 4122 4306 
z
" transform="scale(0.015625)"/>
      <path id="DejaVuSans-59" d="M -13 4666 
L 666 4666 
L 1959 2747 
L 3244 4666 
L 3922 4666 
L 2272 2222 
L 2272 0 
L 1638 0 
L 1638 2222 
L -13 4666 
z
" transform="scale(0.015625)"/>
      <path id="DejaVuSans-6c" d="M 603 4863 
L 1178 4863 
L 1178 0 
L 603 0 
L 603 4863 
z
" transform="scale(0.015625)"/>
      <path id="DejaVuSans-76" d="M 191 3500 
L 800 3500 
L 1894 563 
L 2988 3500 
L 3597 3500 
L 2284 0 
L 1503 0 
L 191 3500 
z
" transform="scale(0.015625)"/>
      <path id="DejaVuSans-54" d="M -19 4666 
L 3928 4666 
L 3928 4134 
L 2272 4134 
L 2272 0 
L 1638 0 
L 1638 4134 
L -19 4134 
L -19 4666 
z
" transform="scale(0.015625)"/>
      <path id="DejaVuSans-6d" d="M 3328 2828 
Q 3544 3216 3844 3400 
Q 4144 3584 4550 3584 
Q 5097 3584 5394 3201 
Q 5691 2819 5691 2113 
L 5691 0 
L 5113 0 
L 5113 2094 
Q 5113 2597 4934 2840 
Q 4756 3084 4391 3084 
Q 3944 3084 3684 2787 
Q 3425 2491 3425 1978 
L 3425 0 
L 2847 0 
L 2847 2094 
Q 2847 2600 2669 2842 
Q 2491 3084 2119 3084 
Q 1678 3084 1418 2786 
Q 1159 2488 1159 1978 
L 1159 0 
L 581 0 
L 581 3500 
L 1159 3500 
L 1159 2956 
Q 1356 3278 1631 3431 
Q 1906 3584 2284 3584 
Q 2666 3584 2933 3390 
Q 3200 3197 3328 2828 
z
" transform="scale(0.015625)"/>
     </defs>
     <use xlink:href="#DejaVuSans-58"/>
     <use xlink:href="#DejaVuSans-69" x="68.505859"/>
     <use xlink:href="#DejaVuSans-20" x="96.289062"/>
     <use xlink:href="#DejaVuSans-4a" x="128.076172"/>
     <use xlink:href="#DejaVuSans-69" x="157.568359"/>
     <use xlink:href="#DejaVuSans-6e" x="185.351562"/>
     <use xlink:href="#DejaVuSans-70" x="248.730469"/>
     <use xlink:href="#DejaVuSans-69" x="312.207031"/>
     <use xlink:href="#DejaVuSans-6e" x="339.990234"/>
     <use xlink:href="#DejaVuSans-67" x="403.369141"/>
     <use xlink:href="#DejaVuSans-20" x="466.845703"/>
     <use xlink:href="#DejaVuSans-2d" x="498.632812"/>
     <use xlink:href="#DejaVuSans-20" x="534.716797"/>
     <use xlink:href="#DejaVuSans-50" x="566.503906"/>
     <use xlink:href="#DejaVuSans-4f" x="626.806641"/>
     <use xlink:href="#DejaVuSans-4c" x="705.517578"/>
     <use xlink:href="#DejaVuSans-49" x="761.230469"/>
     <use xlink:href="#DejaVuSans-43" x="790.722656"/>
     <use xlink:href="#DejaVuSans-59" x="858.796875"/>
     <use xlink:href="#DejaVuSans-20" x="919.880859"/>
     <use xlink:href="#DejaVuSans-53" x="951.667969"/>
     <use xlink:href="#DejaVuSans-65" x="1015.144531"/>
     <use xlink:href="#DejaVuSans-63" x="1076.667969"/>
     <use xlink:href="#DejaVuSans-74" x="1131.648438"/>
     <use xlink:href="#DejaVuSans-69" x="1170.857422"/>
     <use xlink:href="#DejaVuSans-6f" x="1198.640625"/>
     <use xlink:href="#DejaVuSans-6e" x="1259.822266"/>
     <use xlink:href="#DejaVuSans-20" x="1323.201172"/>
     <use xlink:href="#DejaVuSans-2d" x="1354.988281"/>
     <use xlink:href="#DejaVuSans-20" x="1391.072266"/>
     <use xlink:href="#DejaVuSans-50" x="1422.859375"/>
     <use xlink:href="#DejaVuSans-6f" x="1479.537109"/>
     <use xlink:href="#DejaVuSans-6c" x="1540.71875"/>
     <use xlink:href="#DejaVuSans-69" x="1568.501953"/>
     <use xlink:href="#DejaVuSans-74" x="1596.285156"/>
     <use xlink:href="#DejaVuSans-69" x="1635.494141"/>
     <use xlink:href="#DejaVuSans-63" x="1663.277344"/>
     <use xlink:href="#DejaVuSans-61" x="1718.257812"/>
     <use xlink:href="#DejaVuSans-6c" x="1779.537109"/>
     <use xlink:href="#DejaVuSans-20" x="1807.320312"/>
     <use xlink:href="#DejaVuSans-4c" x="1839.107422"/>
     <use xlink:href="#DejaVuSans-65" x="1893.070312"/>
     <use xlink:href="#DejaVuSans-61" x="1954.59375"/>
     <use xlink:href="#DejaVuSans-6e" x="2015.873047"/>
     <use xlink:href="#DejaVuSans-20" x="2079.251953"/>
     <use xlink:href="#DejaVuSans-4f" x="2111.039062"/>
     <use xlink:href="#DejaVuSans-76" x="2189.75"/>
     <use xlink:href="#DejaVuSans-65" x="2248.929688"/>
     <use xlink:href="#DejaVuSans-72" x="2310.453125"/>
     <use xlink:href="#DejaVuSans-20" x="2351.566406"/>
     <use xlink:href="#DejaVuSans-54" x="2383.353516"/>
     <use xlink:href="#DejaVuSans-69" x="2441.3125"/>
     <use xlink:href="#DejaVuSans-6d" x="2469.095703"/>
     <use xlink:href="#DejaVuSans-65" x="2566.507812"/>
    </g>
   </g>
   <g id="legend_1">
    <g id="patch_7">
     <path d="M 54.72 78.914375 
L 147.571562 78.914375 
Q 149.571562 78.914375 149.571562 76.914375 
L 149.571562 33.88 
Q 149.571562 31.88 147.571562 31.88 
L 54.72 31.88 
Q 52.72 31.88 52.72 33.88 
L 52.72 76.914375 
Q 52.72 78.914375 54.72 78.914375 
z
" style="fill: #ffffff; opacity: 0.8; stroke: #cccccc; stroke-linejoin: miter"/>
    </g>
    <g id="line2d_14">
     <path d="M 56.72 39.978437 
L 66.72 39.978437 
L 76.72 39.978437 
" style="fill: none; stroke: #008000; stroke-width: 1.5; stroke-linecap: square"/>
    </g>
    <g id="text_14">
     <!-- Left Lean -->
     <g transform="translate(84.72 43.478437) scale(0.1 -0.1)">
      <defs>
       <path id="DejaVuSans-66" d="M 2375 4863 
L 2375 4384 
L 1825 4384 
Q 1516 4384 1395 4259 
Q 1275 4134 1275 3809 
L 1275 3500 
L 2222 3500 
L 2222 3053 
L 1275 3053 
L 1275 0 
L 697 0 
L 697 3053 
L 147 3053 
L 147 3500 
L 697 3500 
L 697 3744 
Q 697 4328 969 4595 
Q 1241 4863 1831 4863 
L 2375 4863 
z
" transform="scale(0.015625)"/>
      </defs>
      <use xlink:href="#DejaVuSans-4c"/>
      <use xlink:href="#DejaVuSans-65" x="53.962891"/>
      <use xlink:href="#DejaVuSans-66" x="115.486328"/>
      <use xlink:href="#DejaVuSans-74" x="148.941406"/>
      <use xlink:href="#DejaVuSans-20" x="188.150391"/>
      <use xlink:href="#DejaVuSans-4c" x="219.9375"/>
      <use xlink:href="#DejaVuSans-65" x="273.900391"/>
      <use xlink:href="#DejaVuSans-61" x="335.423828"/>
      <use xlink:href="#DejaVuSans-6e" x="396.703125"/>
     </g>
    </g>
    <g id="line2d_15">
     <path d="M 56.72 54.656563 
L 66.72 54.656563 
L 76.72 54.656563 
" style="fill: none; stroke: #0000ff; stroke-width: 1.5; stroke-linecap: square"/>
    </g>
    <g id="text_15">
     <!-- Center Lean -->
     <g transform="translate(84.72 58.156563) scale(0.1 -0.1)">
      <use xlink:href="#DejaVuSans-43"/>
      <use xlink:href="#DejaVuSans-65" x="69.824219"/>
      <use xlink:href="#DejaVuSans-6e" x="131.347656"/>
      <use xlink:href="#DejaVuSans-74" x="194.726562"/>
      <use xlink:href="#DejaVuSans-65" x="233.935547"/>
      <use xlink:href="#DejaVuSans-72" x="295.458984"/>
      <use xlink:href="#DejaVuSans-20" x="336.572266"/>
      <use xlink:href="#DejaVuSans-4c" x="368.359375"/>
      <use xlink:href="#DejaVuSans-65" x="422.322266"/>
      <use xlink:href="#DejaVuSans-61" x="483.845703"/>
      <use xlink:href="#DejaVuSans-6e" x="545.125"/>
     </g>
    </g>
    <g id="line2d_16">
     <path d="M 56.72 69.334687 
L 66.72 69.334687 
L 76.72 69.334687 
" style="fill: none; stroke: #ff0000; stroke-width: 1.5; stroke-linecap: square"/>
    </g>
    <g id="text_16">
     <!-- Right Lean -->
     <g transform="translate(84.72 72.834687) scale(0.1 -0.1)">
      <defs>
       <path id="DejaVuSans-52" d="M 2841 2188 
Q 3044 2119 3236 1894 
Q 3428 1669 3622 1275 
L 4263 0 
L 3584 0 
L 2988 1197 
Q 2756 1666 2539 1819 
Q 2322 1972 1947 1972 
L 1259 1972 
L 1259 0 
L 628 0 
L 628 4666 
L 2053 4666 
Q 2853 4666 3247 4331 
Q 3641 3997 3641 3322 
Q 3641 2881 3436 2590 
Q 3231 2300 2841 2188 
z
M 1259 4147 
L 1259 2491 
L 2053 2491 
Q 2509 2491 2742 2702 
Q 2975 2913 2975 3322 
Q 2975 3731 2742 3939 
Q 2509 4147 2053 4147 
L 1259 4147 
z
" transform="scale(0.015625)"/>
       <path id="DejaVuSans-68" d="M 3513 2113 
L 3513 0 
L 2938 0 
L 2938 2094 
Q 2938 2591 2744 2837 
Q 2550 3084 2163 3084 
Q 1697 3084 1428 2787 
Q 1159 2491 1159 1978 
L 1159 0 
L 581 0 
L 581 4863 
L 1159 4863 
L 1159 2956 
Q 1366 3272 1645 3428 
Q 1925 3584 2291 3584 
Q 2894 3584 3203 3211 
Q 3513 2838 3513 2113 
z
" transform="scale(0.015625)"/>
      </defs>
      <use xlink:href="#DejaVuSans-52"/>
      <use xlink:href="#DejaVuSans-69" x="69.482422"/>
      <use xlink:href="#DejaVuSans-67" x="97.265625"/>
      <use xlink:href="#DejaVuSans-68" x="160.742188"/>
      <use xlink:href="#DejaVuSans-74" x="224.121094"/>
      <use xlink:href="#DejaVuSans-20" x="263.330078"/>
      <use xlink:href="#DejaVuSans-4c" x="295.117188"/>
      <use xlink:href="#DejaVuSans-65" x="349.080078"/>
      <use xlink:href="#DejaVuSans-61" x="410.603516"/>
      <use xlink:href="#DejaVuSans-6e" x="471.882812"/>
     </g>
    </g>
   </g>
  </g>
  <g id="axes_2">
   <g id="patch_8">
    <path d="M 582.32 390.04 
L 1069.2 390.04 
L 1069.2 26.88 
L 582.32 26.88 
z
" style="fill: #ffffff"/>
   </g>
   <g id="PolyCollection_4"/>
   <g id="PolyCollection_5"/>
   <g id="PolyCollection_6"/>
   <g id="matplotlib.axis_3">
    <g id="xtick_6">
     <g id="line2d_17">
      <g>
       <use xlink:href="#m51506da207" x="663.172541" y="390.04" style="stroke: #000000; stroke-width: 0.8"/>
      </g>
     </g>
     <g id="text_17">
      <!-- 2008 -->
      <g transform="translate(650.447541 404.638438) scale(0.1 -0.1)">
       <use xlink:href="#DejaVuSans-32"/>
       <use xlink:href="#DejaVuSans-30" x="63.623047"/>
       <use xlink:href="#DejaVuSans-30" x="127.246094"/>
       <use xlink:href="#DejaVuSans-38" x="190.869141"/>
      </g>
     </g>
    </g>
    <g id="xtick_7">
     <g id="line2d_18">
      <g>
       <use xlink:href="#m51506da207" x="753.958047" y="390.04" style="stroke: #000000; stroke-width: 0.8"/>
      </g>
     </g>
     <g id="text_18">
      <!-- 2012 -->
      <g transform="translate(741.233047 404.638438) scale(0.1 -0.1)">
       <use xlink:href="#DejaVuSans-32"/>
       <use xlink:href="#DejaVuSans-30" x="63.623047"/>
       <use xlink:href="#DejaVuSans-31" x="127.246094"/>
       <use xlink:href="#DejaVuSans-32" x="190.869141"/>
      </g>
     </g>
    </g>
    <g id="xtick_8">
     <g id="line2d_19">
      <g>
       <use xlink:href="#m51506da207" x="844.743554" y="390.04" style="stroke: #000000; stroke-width: 0.8"/>
      </g>
     </g>
     <g id="text_19">
      <!-- 2016 -->
      <g transform="translate(832.018554 404.638438) scale(0.1 -0.1)">
       <use xlink:href="#DejaVuSans-32"/>
       <use xlink:href="#DejaVuSans-30" x="63.623047"/>
       <use xlink:href="#DejaVuSans-31" x="127.246094"/>
       <use xlink:href="#DejaVuSans-36" x="190.869141"/>
      </g>
     </g>
    </g>
    <g id="xtick_9">
     <g id="line2d_20">
      <g>
       <use xlink:href="#m51506da207" x="935.529061" y="390.04" style="stroke: #000000; stroke-width: 0.8"/>
      </g>
     </g>
     <g id="text_20">
      <!-- 2020 -->
      <g transform="translate(922.804061 404.638438) scale(0.1 -0.1)">
       <use xlink:href="#DejaVuSans-32"/>
       <use xlink:href="#DejaVuSans-30" x="63.623047"/>
       <use xlink:href="#DejaVuSans-32" x="127.246094"/>
       <use xlink:href="#DejaVuSans-30" x="190.869141"/>
      </g>
     </g>
    </g>
    <g id="xtick_10">
     <g id="line2d_21">
      <g>
       <use xlink:href="#m51506da207" x="1026.314567" y="390.04" style="stroke: #000000; stroke-width: 0.8"/>
      </g>
     </g>
     <g id="text_21">
      <!-- 2024 -->
      <g transform="translate(1013.589567 404.638438) scale(0.1 -0.1)">
       <use xlink:href="#DejaVuSans-32"/>
       <use xlink:href="#DejaVuSans-30" x="63.623047"/>
       <use xlink:href="#DejaVuSans-32" x="127.246094"/>
       <use xlink:href="#DejaVuSans-34" x="190.869141"/>
      </g>
     </g>
    </g>
    <g id="text_22">
     <!-- Date -->
     <g transform="translate(813.809219 418.316562) scale(0.1 -0.1)">
      <use xlink:href="#DejaVuSans-44"/>
      <use xlink:href="#DejaVuSans-61" x="77.001953"/>
      <use xlink:href="#DejaVuSans-74" x="138.28125"/>
      <use xlink:href="#DejaVuSans-65" x="177.490234"/>
     </g>
    </g>
   </g>
   <g id="matplotlib.axis_4">
    <g id="ytick_6">
     <g id="line2d_22">
      <g>
       <use xlink:href="#m47d39a9707" x="582.32" y="311.712125" style="stroke: #000000; stroke-width: 0.8"/>
      </g>
     </g>
     <g id="text_23">
      <!-- 0.2 -->
      <g transform="translate(559.416875 315.511343) scale(0.1 -0.1)">
       <use xlink:href="#DejaVuSans-30"/>
       <use xlink:href="#DejaVuSans-2e" x="63.623047"/>
       <use xlink:href="#DejaVuSans-32" x="95.410156"/>
      </g>
     </g>
    </g>
    <g id="ytick_7">
     <g id="line2d_23">
      <g>
       <use xlink:href="#m47d39a9707" x="582.32" y="232.841899" style="stroke: #000000; stroke-width: 0.8"/>
      </g>
     </g>
     <g id="text_24">
      <!-- 0.4 -->
      <g transform="translate(559.416875 236.641118) scale(0.1 -0.1)">
       <use xlink:href="#DejaVuSans-30"/>
       <use xlink:href="#DejaVuSans-2e" x="63.623047"/>
       <use xlink:href="#DejaVuSans-34" x="95.410156"/>
      </g>
     </g>
    </g>
    <g id="ytick_8">
     <g id="line2d_24">
      <g>
       <use xlink:href="#m47d39a9707" x="582.32" y="153.971674" style="stroke: #000000; stroke-width: 0.8"/>
      </g>
     </g>
     <g id="text_25">
      <!-- 0.6 -->
      <g transform="translate(559.416875 157.770893) scale(0.1 -0.1)">
       <use xlink:href="#DejaVuSans-30"/>
       <use xlink:href="#DejaVuSans-2e" x="63.623047"/>
       <use xlink:href="#DejaVuSans-36" x="95.410156"/>
      </g>
     </g>
    </g>
    <g id="ytick_9">
     <g id="line2d_25">
      <g>
       <use xlink:href="#m47d39a9707" x="582.32" y="75.101448" style="stroke: #000000; stroke-width: 0.8"/>
      </g>
     </g>
     <g id="text_26">
      <!-- 0.8 -->
      <g transform="translate(559.416875 78.900667) scale(0.1 -0.1)">
       <use xlink:href="#DejaVuSans-30"/>
       <use xlink:href="#DejaVuSans-2e" x="63.623047"/>
       <use xlink:href="#DejaVuSans-38" x="95.410156"/>
      </g>
     </g>
    </g>
    <g id="text_27">
     <!-- Lean Score -->
     <g transform="translate(553.337188 236.059219) rotate(-90) scale(0.1 -0.1)">
      <use xlink:href="#DejaVuSans-4c"/>
      <use xlink:href="#DejaVuSans-65" x="53.962891"/>
      <use xlink:href="#DejaVuSans-61" x="115.486328"/>
      <use xlink:href="#DejaVuSans-6e" x="176.765625"/>
      <use xlink:href="#DejaVuSans-20" x="240.144531"/>
      <use xlink:href="#DejaVuSans-53" x="271.931641"/>
      <use xlink:href="#DejaVuSans-63" x="335.408203"/>
      <use xlink:href="#DejaVuSans-6f" x="390.388672"/>
      <use xlink:href="#DejaVuSans-72" x="451.570312"/>
      <use xlink:href="#DejaVuSans-65" x="490.433594"/>
     </g>
    </g>
   </g>
   <g id="line2d_26">
    <path d="M 604.450909 236.502767 
L 610.167724 237.241256 
L 615.8224 236.540434 
L 621.414936 238.645505 
L 627.131751 240.291877 
L 632.848566 282.215357 
L 638.503241 283.312178 
L 644.095778 232.998856 
L 649.812593 192.053689 
L 757.624266 43.387273 
L 763.34108 204.023998 
L 769.057895 282.469602 
L 774.712571 302.295673 
L 780.305107 298.597334 
L 786.021922 298.958018 
L 791.738737 292.732895 
L 797.393413 205.789927 
L 802.985949 119.357168 
L 808.702764 121.249921 
L 814.419579 121.249921 
L 820.074255 132.201061 
L 825.666791 121.249921 
L 831.383606 121.249921 
L 837.100421 121.249921 
L 842.755097 143.321861 
L 848.409772 148.367463 
L 854.126587 147.882865 
L 859.843402 147.882865 
L 865.498078 165.953662 
L 871.090614 174.989061 
L 876.807429 174.989061 
L 882.524244 174.989061 
L 888.17892 255.061357 
L 893.771456 297.25621 
L 899.488271 268.720653 
L 905.205086 267.639533 
L 910.859761 266.576763 
L 916.452298 267.290505 
L 922.169113 268.710146 
L 927.885928 268.710146 
L 933.540603 269.637746 
L 939.195279 269.089194 
L 944.912094 264.281692 
L 950.628909 264.281692 
L 956.283584 266.894267 
L 961.876121 272.198888 
L 967.592936 272.198888 
L 973.30975 272.198888 
L 978.964426 272.198888 
L 984.556962 251.977846 
L 990.273777 252.846797 
L 995.990592 214.574812 
L 1001.645268 197.265033 
L 1007.237804 197.240948 
L 1012.954619 197.240948 
L 1018.671434 197.240948 
L 1024.32611 197.240948 
L 1029.980785 169.97266 
L 1035.6976 169.97266 
L 1041.414415 171.396047 
L 1047.069091 174.242819 
" clip-path="url(#p3b1d7498f5)" style="fill: none; stroke: #008000; stroke-width: 1.5; stroke-linecap: square"/>
   </g>
   <g id="line2d_27">
    <path d="M 604.450909 277.437953 
L 610.167724 278.069027 
L 615.8224 276.577221 
L 621.414936 278.635548 
L 627.131751 272.848186 
L 632.848566 322.038995 
L 638.503241 322.334022 
L 644.095778 243.860485 
L 649.812593 260.203676 
L 757.624266 373.532727 
L 763.34108 301.909027 
L 769.057895 320.355708 
L 774.712571 327.180347 
L 780.305107 320.462517 
L 786.021922 322.667447 
L 791.738737 309.686895 
L 797.393413 315.83712 
L 802.985949 322.288628 
L 808.702764 325.507278 
L 814.419579 325.507278 
L 820.074255 317.515843 
L 825.666791 325.507278 
L 831.383606 325.507278 
L 837.100421 325.507278 
L 842.755097 312.294546 
L 848.409772 311.900359 
L 854.126587 310.669152 
L 859.843402 310.669152 
L 865.498078 304.290769 
L 871.090614 301.101577 
L 876.807429 301.101577 
L 882.524244 301.101577 
L 888.17892 297.273852 
L 893.771456 294.031508 
L 899.488271 291.36664 
L 905.205086 294.917241 
L 910.859761 303.926651 
L 916.452298 320.065626 
L 922.169113 319.125703 
L 927.885928 319.125703 
L 933.540603 318.787836 
L 939.195279 317.080682 
L 944.912094 315.017842 
L 950.628909 315.017842 
L 956.283584 315.729241 
L 961.876121 320.360529 
L 967.592936 320.360529 
L 973.30975 320.360529 
L 978.964426 320.360529 
L 984.556962 323.396197 
L 990.273777 318.872627 
L 995.990592 282.683575 
L 1001.645268 269.810074 
L 1007.237804 270.315361 
L 1012.954619 270.315361 
L 1018.671434 270.315361 
L 1024.32611 270.315361 
L 1029.980785 295.30819 
L 1035.6976 295.30819 
L 1041.414415 294.88316 
L 1047.069091 294.0331 
" clip-path="url(#p3b1d7498f5)" style="fill: none; stroke: #0000ff; stroke-width: 1.5; stroke-linecap: square"/>
   </g>
   <g id="line2d_28">
    <path d="M 604.450909 263.455227 
L 610.167724 262.08564 
L 615.8224 264.278288 
L 621.414936 260.11489 
L 627.131751 264.255868 
L 632.848566 173.141563 
L 638.503241 171.749713 
L 644.095778 300.536588 
L 649.812593 325.138552 
L 757.624266 360.475926 
L 763.34108 271.462895 
L 769.057895 174.57062 
L 774.712571 147.919907 
L 780.305107 158.336077 
L 786.021922 155.770473 
L 791.738737 174.976147 
L 797.393413 255.768882 
L 802.985949 335.750129 
L 808.702764 330.638748 
L 814.419579 330.638748 
L 820.074255 327.679037 
L 825.666791 330.638748 
L 831.383606 330.638748 
L 837.100421 330.638748 
L 842.755097 321.779536 
L 848.409772 317.128104 
L 854.126587 318.843888 
L 859.843402 318.843888 
L 865.498078 307.151486 
L 871.090614 301.305285 
L 876.807429 301.305285 
L 882.524244 301.305285 
L 888.17892 225.060704 
L 893.771456 186.108176 
L 899.488271 217.30863 
L 905.205086 214.839155 
L 910.859761 206.892511 
L 916.452298 190.03979 
L 922.169113 189.560073 
L 927.885928 189.560073 
L 933.540603 188.970344 
L 939.195279 191.226048 
L 944.912094 198.096371 
L 950.628909 198.096371 
L 956.283584 194.772428 
L 961.876121 184.8365 
L 967.592936 184.8365 
L 973.30975 184.8365 
L 978.964426 184.8365 
L 984.556962 202.02187 
L 990.273777 205.676507 
L 995.990592 280.137532 
L 1001.645268 310.3208 
L 1007.237804 309.839591 
L 1012.954619 309.839591 
L 1018.671434 309.839591 
L 1024.32611 309.839591 
L 1029.980785 312.115096 
L 1035.6976 312.115096 
L 1041.414415 311.11673 
L 1047.069091 309.119998 
" clip-path="url(#p3b1d7498f5)" style="fill: none; stroke: #ff0000; stroke-width: 1.5; stroke-linecap: square"/>
   </g>
   <g id="patch_9">
    <path d="M 582.32 390.04 
L 582.32 26.88 
" style="fill: none; stroke: #000000; stroke-width: 0.8; stroke-linejoin: miter; stroke-linecap: square"/>
   </g>
   <g id="patch_10">
    <path d="M 1069.2 390.04 
L 1069.2 26.88 
" style="fill: none; stroke: #000000; stroke-width: 0.8; stroke-linejoin: miter; stroke-linecap: square"/>
   </g>
   <g id="patch_11">
    <path d="M 582.32 390.04 
L 1069.2 390.04 
" style="fill: none; stroke: #000000; stroke-width: 0.8; stroke-linejoin: miter; stroke-linecap: square"/>
   </g>
   <g id="patch_12">
    <path d="M 582.32 26.88 
L 1069.2 26.88 
" style="fill: none; stroke: #000000; stroke-width: 0.8; stroke-linejoin: miter; stroke-linecap: square"/>
   </g>
   <g id="text_28">
    <!-- Vladimir Putin - POLICY Section - Political Lean Over Time -->
    <g transform="translate(654.144063 20.88) scale(0.12 -0.12)">
     <defs>
      <path id="DejaVuSans-56" d="M 1831 0 
L 50 4666 
L 709 4666 
L 2188 738 
L 3669 4666 
L 4325 4666 
L 2547 0 
L 1831 0 
z
" transform="scale(0.015625)"/>
      <path id="DejaVuSans-64" d="M 2906 2969 
L 2906 4863 
L 3481 4863 
L 3481 0 
L 2906 0 
L 2906 525 
Q 2725 213 2448 61 
Q 2172 -91 1784 -91 
Q 1150 -91 751 415 
Q 353 922 353 1747 
Q 353 2572 751 3078 
Q 1150 3584 1784 3584 
Q 2172 3584 2448 3432 
Q 2725 3281 2906 2969 
z
M 947 1747 
Q 947 1113 1208 752 
Q 1469 391 1925 391 
Q 2381 391 2643 752 
Q 2906 1113 2906 1747 
Q 2906 2381 2643 2742 
Q 2381 3103 1925 3103 
Q 1469 3103 1208 2742 
Q 947 2381 947 1747 
z
" transform="scale(0.015625)"/>
      <path id="DejaVuSans-75" d="M 544 1381 
L 544 3500 
L 1119 3500 
L 1119 1403 
Q 1119 906 1312 657 
Q 1506 409 1894 409 
Q 2359 409 2629 706 
Q 2900 1003 2900 1516 
L 2900 3500 
L 3475 3500 
L 3475 0 
L 2900 0 
L 2900 538 
Q 2691 219 2414 64 
Q 2138 -91 1772 -91 
Q 1169 -91 856 284 
Q 544 659 544 1381 
z
M 1991 3584 
L 1991 3584 
z
" transform="scale(0.015625)"/>
     </defs>
     <use xlink:href="#DejaVuSans-56"/>
     <use xlink:href="#DejaVuSans-6c" x="68.408203"/>
     <use xlink:href="#DejaVuSans-61" x="96.191406"/>
     <use xlink:href="#DejaVuSans-64" x="157.470703"/>
     <use xlink:href="#DejaVuSans-69" x="220.947266"/>
     <use xlink:href="#DejaVuSans-6d" x="248.730469"/>
     <use xlink:href="#DejaVuSans-69" x="346.142578"/>
     <use xlink:href="#DejaVuSans-72" x="373.925781"/>
     <use xlink:href="#DejaVuSans-20" x="415.039062"/>
     <use xlink:href="#DejaVuSans-50" x="446.826172"/>
     <use xlink:href="#DejaVuSans-75" x="505.378906"/>
     <use xlink:href="#DejaVuSans-74" x="568.757812"/>
     <use xlink:href="#DejaVuSans-69" x="607.966797"/>
     <use xlink:href="#DejaVuSans-6e" x="635.75"/>
     <use xlink:href="#DejaVuSans-20" x="699.128906"/>
     <use xlink:href="#DejaVuSans-2d" x="730.916016"/>
     <use xlink:href="#DejaVuSans-20" x="767"/>
     <use xlink:href="#DejaVuSans-50" x="798.787109"/>
     <use xlink:href="#DejaVuSans-4f" x="859.089844"/>
     <use xlink:href="#DejaVuSans-4c" x="937.800781"/>
     <use xlink:href="#DejaVuSans-49" x="993.513672"/>
     <use xlink:href="#DejaVuSans-43" x="1023.005859"/>
     <use xlink:href="#DejaVuSans-59" x="1091.080078"/>
     <use xlink:href="#DejaVuSans-20" x="1152.164062"/>
     <use xlink:href="#DejaVuSans-53" x="1183.951172"/>
     <use xlink:href="#DejaVuSans-65" x="1247.427734"/>
     <use xlink:href="#DejaVuSans-63" x="1308.951172"/>
     <use xlink:href="#DejaVuSans-74" x="1363.931641"/>
     <use xlink:href="#DejaVuSans-69" x="1403.140625"/>
     <use xlink:href="#DejaVuSans-6f" x="1430.923828"/>
     <use xlink:href="#DejaVuSans-6e" x="1492.105469"/>
     <use xlink:href="#DejaVuSans-20" x="1555.484375"/>
     <use xlink:href="#DejaVuSans-2d" x="1587.271484"/>
     <use xlink:href="#DejaVuSans-20" x="1623.355469"/>
     <use xlink:href="#DejaVuSans-50" x="1655.142578"/>
     <use xlink:href="#DejaVuSans-6f" x="1711.820312"/>
     <use xlink:href="#DejaVuSans-6c" x="1773.001953"/>
     <use xlink:href="#DejaVuSans-69" x="1800.785156"/>
     <use xlink:href="#DejaVuSans-74" x="1828.568359"/>
     <use xlink:href="#DejaVuSans-69" x="1867.777344"/>
     <use xlink:href="#DejaVuSans-63" x="1895.560547"/>
     <use xlink:href="#DejaVuSans-61" x="1950.541016"/>
     <use xlink:href="#DejaVuSans-6c" x="2011.820312"/>
     <use xlink:href="#DejaVuSans-20" x="2039.603516"/>
     <use xlink:href="#DejaVuSans-4c" x="2071.390625"/>
     <use xlink:href="#DejaVuSans-65" x="2125.353516"/>
     <use xlink:href="#DejaVuSans-61" x="2186.876953"/>
     <use xlink:href="#DejaVuSans-6e" x="2248.15625"/>
     <use xlink:href="#DejaVuSans-20" x="2311.535156"/>
     <use xlink:href="#DejaVuSans-4f" x="2343.322266"/>
     <use xlink:href="#DejaVuSans-76" x="2422.033203"/>
     <use xlink:href="#DejaVuSans-65" x="2481.212891"/>
     <use xlink:href="#DejaVuSans-72" x="2542.736328"/>
     <use xlink:href="#DejaVuSans-20" x="2583.849609"/>
     <use xlink:href="#DejaVuSans-54" x="2615.636719"/>
     <use xlink:href="#DejaVuSans-69" x="2673.595703"/>
     <use xlink:href="#DejaVuSans-6d" x="2701.378906"/>
     <use xlink:href="#DejaVuSans-65" x="2798.791016"/>
    </g>
   </g>
   <g id="legend_2">
    <g id="patch_13">
     <path d="M 969.348437 78.914375 
L 1062.2 78.914375 
Q 1064.2 78.914375 1064.2 76.914375 
L 1064.2 33.88 
Q 1064.2 31.88 1062.2 31.88 
L 969.348437 31.88 
Q 967.348437 31.88 967.348437 33.88 
L 967.348437 76.914375 
Q 967.348437 78.914375 969.348437 78.914375 
z
" style="fill: #ffffff; opacity: 0.8; stroke: #cccccc; stroke-linejoin: miter"/>
    </g>
    <g id="line2d_29">
     <path d="M 971.348437 39.978437 
L 981.348437 39.978437 
L 991.348437 39.978437 
" style="fill: none; stroke: #008000; stroke-width: 1.5; stroke-linecap: square"/>
    </g>
    <g id="text_29">
     <!-- Left Lean -->
     <g transform="translate(999.348437 43.478437) scale(0.1 -0.1)">
      <use xlink:href="#DejaVuSans-4c"/>
      <use xlink:href="#DejaVuSans-65" x="53.962891"/>
      <use xlink:href="#DejaVuSans-66" x="115.486328"/>
      <use xlink:href="#DejaVuSans-74" x="148.941406"/>
      <use xlink:href="#DejaVuSans-20" x="188.150391"/>
      <use xlink:href="#DejaVuSans-4c" x="219.9375"/>
      <use xlink:href="#DejaVuSans-65" x="273.900391"/>
      <use xlink:href="#DejaVuSans-61" x="335.423828"/>
      <use xlink:href="#DejaVuSans-6e" x="396.703125"/>
     </g>
    </g>
    <g id="line2d_30">
     <path d="M 971.348437 54.656563 
L 981.348437 54.656563 
L 991.348437 54.656563 
" style="fill: none; stroke: #0000ff; stroke-width: 1.5; stroke-linecap: square"/>
    </g>
    <g id="text_30">
     <!-- Center Lean -->
     <g transform="translate(999.348437 58.156563) scale(0.1 -0.1)">
      <use xlink:href="#DejaVuSans-43"/>
      <use xlink:href="#DejaVuSans-65" x="69.824219"/>
      <use xlink:href="#DejaVuSans-6e" x="131.347656"/>
      <use xlink:href="#DejaVuSans-74" x="194.726562"/>
      <use xlink:href="#DejaVuSans-65" x="233.935547"/>
      <use xlink:href="#DejaVuSans-72" x="295.458984"/>
      <use xlink:href="#DejaVuSans-20" x="336.572266"/>
      <use xlink:href="#DejaVuSans-4c" x="368.359375"/>
      <use xlink:href="#DejaVuSans-65" x="422.322266"/>
      <use xlink:href="#DejaVuSans-61" x="483.845703"/>
      <use xlink:href="#DejaVuSans-6e" x="545.125"/>
     </g>
    </g>
    <g id="line2d_31">
     <path d="M 971.348437 69.334687 
L 981.348437 69.334687 
L 991.348437 69.334687 
" style="fill: none; stroke: #ff0000; stroke-width: 1.5; stroke-linecap: square"/>
    </g>
    <g id="text_31">
     <!-- Right Lean -->
     <g transform="translate(999.348437 72.834687) scale(0.1 -0.1)">
      <use xlink:href="#DejaVuSans-52"/>
      <use xlink:href="#DejaVuSans-69" x="69.482422"/>
      <use xlink:href="#DejaVuSans-67" x="97.265625"/>
      <use xlink:href="#DejaVuSans-68" x="160.742188"/>
      <use xlink:href="#DejaVuSans-74" x="224.121094"/>
      <use xlink:href="#DejaVuSans-20" x="263.330078"/>
      <use xlink:href="#DejaVuSans-4c" x="295.117188"/>
      <use xlink:href="#DejaVuSans-65" x="349.080078"/>
      <use xlink:href="#DejaVuSans-61" x="410.603516"/>
      <use xlink:href="#DejaVuSans-6e" x="471.882812"/>
     </g>
    </g>
   </g>
  </g>
 </g>
 <defs>
  <clipPath id="p3e9c740b70">
   <rect x="47.72" y="26.88" width="486.88" height="363.16"/>
  </clipPath>
  <clipPath id="p3b1d7498f5">
   <rect x="582.32" y="26.88" width="486.88" height="363.16"/>
  </clipPath>
 </defs>
</svg>
