<?xml version="1.0" encoding="utf-8" standalone="no"?>
<!DOCTYPE svg PUBLIC "-//W3C//DTD SVG 1.1//EN"
  "http://www.w3.org/Graphics/SVG/1.1/DTD/svg11.dtd">
<svg xmlns:xlink="http://www.w3.org/1999/xlink" width="1008pt" height="864pt" viewBox="0 0 1008 864" xmlns="http://www.w3.org/2000/svg" version="1.1">
 <metadata>
  <rdf:RDF xmlns:dc="http://purl.org/dc/elements/1.1/" xmlns:cc="http://creativecommons.org/ns#" xmlns:rdf="http://www.w3.org/1999/02/22-rdf-syntax-ns#">
   <cc:Work>
    <dc:type rdf:resource="http://purl.org/dc/dcmitype/StillImage"/>
    <dc:date>2024-10-26T19:03:52.038506</dc:date>
    <dc:format>image/svg+xml</dc:format>
    <dc:creator>
     <cc:Agent>
      <dc:title>Matplotlib v3.9.2, https://matplotlib.org/</dc:title>
     </cc:Agent>
    </dc:creator>
   </cc:Work>
  </rdf:RDF>
 </metadata>
 <defs>
  <style type="text/css">*{stroke-linejoin: round; stroke-linecap: butt}</style>
 </defs>
 <g id="figure_1">
  <g id="patch_1">
   <path d="M 0 864 
L 1008 864 
L 1008 0 
L 0 0 
z
" style="fill: #ffffff"/>
  </g>
  <g id="axes_1">
   <g id="patch_2">
    <path d="M 50.87 395.44 
L 997.2 395.44 
L 997.2 26.88 
L 50.87 26.88 
z
" style="fill: #ffffff"/>
   </g>
   <g id="patch_3">
    <path d="M 55.376333 395.44 
L 67.393222 395.44 
L 67.393222 383.336223 
L 55.376333 383.336223 
z
" clip-path="url(#pe794bf9042)" style="fill: #2020df"/>
   </g>
   <g id="patch_4">
    <path d="M 100.439667 395.44 
L 112.456556 395.44 
L 112.456556 359.12867 
L 100.439667 359.12867 
z
" clip-path="url(#pe794bf9042)" style="fill: #2020df"/>
   </g>
   <g id="patch_5">
    <path d="M 145.503 395.44 
L 157.519889 395.44 
L 157.519889 316.765452 
L 145.503 316.765452 
z
" clip-path="url(#pe794bf9042)" style="fill: #2020df"/>
   </g>
   <g id="patch_6">
    <path d="M 190.566333 395.44 
L 202.583222 395.44 
L 202.583222 304.661675 
L 190.566333 304.661675 
z
" clip-path="url(#pe794bf9042)" style="fill: #2020df"/>
   </g>
   <g id="patch_7">
    <path d="M 235.629667 395.44 
L 247.646556 395.44 
L 247.646556 325.843284 
L 235.629667 325.843284 
z
" clip-path="url(#pe794bf9042)" style="fill: #2020df"/>
   </g>
   <g id="patch_8">
    <path d="M 280.693 395.44 
L 292.709889 395.44 
L 292.709889 334.921117 
L 280.693 334.921117 
z
" clip-path="url(#pe794bf9042)" style="fill: #2020df"/>
   </g>
   <g id="patch_9">
    <path d="M 325.756333 395.44 
L 337.773222 395.44 
L 337.773222 356.102726 
L 325.756333 356.102726 
z
" clip-path="url(#pe794bf9042)" style="fill: #2020df"/>
   </g>
   <g id="patch_10">
    <path d="M 370.819667 395.44 
L 382.836556 395.44 
L 382.836556 389.388112 
L 370.819667 389.388112 
z
" clip-path="url(#pe794bf9042)" style="fill: #2020df"/>
   </g>
   <g id="patch_11">
    <path d="M 415.883 395.44 
L 427.899889 395.44 
L 427.899889 383.336223 
L 415.883 383.336223 
z
" clip-path="url(#pe794bf9042)" style="fill: #2020df"/>
   </g>
   <g id="patch_12">
    <path d="M 460.946333 395.44 
L 472.963222 395.44 
L 472.963222 383.336223 
L 460.946333 383.336223 
z
" clip-path="url(#pe794bf9042)" style="fill: #2020df"/>
   </g>
   <g id="patch_13">
    <path d="M 506.009667 395.44 
L 518.026556 395.44 
L 518.026556 340.973005 
L 506.009667 340.973005 
z
" clip-path="url(#pe794bf9042)" style="fill: #2020df"/>
   </g>
   <g id="patch_14">
    <path d="M 551.073 395.44 
L 563.089889 395.44 
L 563.089889 356.102726 
L 551.073 356.102726 
z
" clip-path="url(#pe794bf9042)" style="fill: #2020df"/>
   </g>
   <g id="patch_15">
    <path d="M 596.136333 395.44 
L 608.153222 395.44 
L 608.153222 383.336223 
L 596.136333 383.336223 
z
" clip-path="url(#pe794bf9042)" style="fill: #2020df"/>
   </g>
   <g id="patch_16">
    <path d="M 686.263 395.44 
L 698.279889 395.44 
L 698.279889 392.414056 
L 686.263 392.414056 
z
" clip-path="url(#pe794bf9042)" style="fill: #2020df"/>
   </g>
   <g id="patch_17">
    <path d="M 731.326333 395.44 
L 743.343222 395.44 
L 743.343222 386.362167 
L 731.326333 386.362167 
z
" clip-path="url(#pe794bf9042)" style="fill: #2020df"/>
   </g>
   <g id="patch_18">
    <path d="M 866.516333 395.44 
L 878.533222 395.44 
L 878.533222 392.414056 
L 866.516333 392.414056 
z
" clip-path="url(#pe794bf9042)" style="fill: #2020df"/>
   </g>
   <g id="patch_19">
    <path d="M 911.579667 395.44 
L 923.596556 395.44 
L 923.596556 362.154614 
L 911.579667 362.154614 
z
" clip-path="url(#pe794bf9042)" style="fill: #2020df"/>
   </g>
   <g id="patch_20">
    <path d="M 956.643 395.44 
L 968.659889 395.44 
L 968.659889 371.232447 
L 956.643 371.232447 
z
" clip-path="url(#pe794bf9042)" style="fill: #2020df"/>
   </g>
   <g id="patch_21">
    <path d="M 67.393222 395.44 
L 79.410111 395.44 
L 79.410111 374.258391 
L 67.393222 374.258391 
z
" clip-path="url(#pe794bf9042)" style="fill: #107010"/>
   </g>
   <g id="patch_22">
    <path d="M 112.456556 395.44 
L 124.473444 395.44 
L 124.473444 198.753629 
L 112.456556 198.753629 
z
" clip-path="url(#pe794bf9042)" style="fill: #107010"/>
   </g>
   <g id="patch_23">
    <path d="M 157.519889 395.44 
L 169.536778 395.44 
L 169.536778 216.909294 
L 157.519889 216.909294 
z
" clip-path="url(#pe794bf9042)" style="fill: #107010"/>
   </g>
   <g id="patch_24">
    <path d="M 202.583222 395.44 
L 214.600111 395.44 
L 214.600111 259.272512 
L 202.583222 259.272512 
z
" clip-path="url(#pe794bf9042)" style="fill: #107010"/>
   </g>
   <g id="patch_25">
    <path d="M 247.646556 395.44 
L 259.663444 395.44 
L 259.663444 295.583842 
L 247.646556 295.583842 
z
" clip-path="url(#pe794bf9042)" style="fill: #107010"/>
   </g>
   <g id="patch_26">
    <path d="M 292.709889 395.44 
L 304.726778 395.44 
L 304.726778 183.623908 
L 292.709889 183.623908 
z
" clip-path="url(#pe794bf9042)" style="fill: #107010"/>
   </g>
   <g id="patch_27">
    <path d="M 337.773222 395.44 
L 349.790111 395.44 
L 349.790111 104.94936 
L 337.773222 104.94936 
z
" clip-path="url(#pe794bf9042)" style="fill: #107010"/>
   </g>
   <g id="patch_28">
    <path d="M 382.836556 395.44 
L 394.853444 395.44 
L 394.853444 44.430476 
L 382.836556 44.430476 
z
" clip-path="url(#pe794bf9042)" style="fill: #107010"/>
   </g>
   <g id="patch_29">
    <path d="M 427.899889 395.44 
L 439.916778 395.44 
L 439.916778 44.430476 
L 427.899889 44.430476 
z
" clip-path="url(#pe794bf9042)" style="fill: #107010"/>
   </g>
   <g id="patch_30">
    <path d="M 472.963222 395.44 
L 484.980111 395.44 
L 484.980111 98.897471 
L 472.963222 98.897471 
z
" clip-path="url(#pe794bf9042)" style="fill: #107010"/>
   </g>
   <g id="patch_31">
    <path d="M 518.026556 395.44 
L 530.043444 395.44 
L 530.043444 216.909294 
L 518.026556 216.909294 
z
" clip-path="url(#pe794bf9042)" style="fill: #107010"/>
   </g>
   <g id="patch_32">
    <path d="M 563.089889 395.44 
L 575.106778 395.44 
L 575.106778 232.039015 
L 563.089889 232.039015 
z
" clip-path="url(#pe794bf9042)" style="fill: #107010"/>
   </g>
   <g id="patch_33">
    <path d="M 608.153222 395.44 
L 620.170111 395.44 
L 620.170111 177.57202 
L 608.153222 177.57202 
z
" clip-path="url(#pe794bf9042)" style="fill: #107010"/>
   </g>
   <g id="patch_34">
    <path d="M 653.216556 395.44 
L 665.233444 395.44 
L 665.233444 189.675796 
L 653.216556 189.675796 
z
" clip-path="url(#pe794bf9042)" style="fill: #107010"/>
   </g>
   <g id="patch_35">
    <path d="M 698.279889 395.44 
L 710.296778 395.44 
L 710.296778 238.090903 
L 698.279889 238.090903 
z
" clip-path="url(#pe794bf9042)" style="fill: #107010"/>
   </g>
   <g id="patch_36">
    <path d="M 743.343222 395.44 
L 755.360111 395.44 
L 755.360111 247.168736 
L 743.343222 247.168736 
z
" clip-path="url(#pe794bf9042)" style="fill: #107010"/>
   </g>
   <g id="patch_37">
    <path d="M 788.406556 395.44 
L 800.423444 395.44 
L 800.423444 280.454122 
L 788.406556 280.454122 
z
" clip-path="url(#pe794bf9042)" style="fill: #107010"/>
   </g>
   <g id="patch_38">
    <path d="M 833.469889 395.44 
L 845.486778 395.44 
L 845.486778 304.661675 
L 833.469889 304.661675 
z
" clip-path="url(#pe794bf9042)" style="fill: #107010"/>
   </g>
   <g id="patch_39">
    <path d="M 878.533222 395.44 
L 890.550111 395.44 
L 890.550111 195.727685 
L 878.533222 195.727685 
z
" clip-path="url(#pe794bf9042)" style="fill: #107010"/>
   </g>
   <g id="patch_40">
    <path d="M 923.596556 395.44 
L 935.613444 395.44 
L 935.613444 156.390411 
L 923.596556 156.390411 
z
" clip-path="url(#pe794bf9042)" style="fill: #107010"/>
   </g>
   <g id="patch_41">
    <path d="M 968.659889 395.44 
L 980.676778 395.44 
L 980.676778 207.831461 
L 968.659889 207.831461 
z
" clip-path="url(#pe794bf9042)" style="fill: #107010"/>
   </g>
   <g id="patch_42">
    <path d="M 124.473444 395.44 
L 136.490333 395.44 
L 136.490333 383.336223 
L 124.473444 383.336223 
z
" clip-path="url(#pe794bf9042)" style="fill: #df2020"/>
   </g>
   <g id="patch_43">
    <path d="M 169.536778 395.44 
L 181.553667 395.44 
L 181.553667 319.791396 
L 169.536778 319.791396 
z
" clip-path="url(#pe794bf9042)" style="fill: #df2020"/>
   </g>
   <g id="patch_44">
    <path d="M 214.600111 395.44 
L 226.617 395.44 
L 226.617 295.583842 
L 214.600111 295.583842 
z
" clip-path="url(#pe794bf9042)" style="fill: #df2020"/>
   </g>
   <g id="patch_45">
    <path d="M 259.663444 395.44 
L 271.680333 395.44 
L 271.680333 222.961182 
L 259.663444 222.961182 
z
" clip-path="url(#pe794bf9042)" style="fill: #df2020"/>
   </g>
   <g id="patch_46">
    <path d="M 304.726778 395.44 
L 316.743667 395.44 
L 316.743667 232.039015 
L 304.726778 232.039015 
z
" clip-path="url(#pe794bf9042)" style="fill: #df2020"/>
   </g>
   <g id="patch_47">
    <path d="M 349.790111 395.44 
L 361.807 395.44 
L 361.807 268.350345 
L 349.790111 268.350345 
z
" clip-path="url(#pe794bf9042)" style="fill: #df2020"/>
   </g>
   <g id="patch_48">
    <path d="M 394.853444 395.44 
L 406.870333 395.44 
L 406.870333 322.81734 
L 394.853444 322.81734 
z
" clip-path="url(#pe794bf9042)" style="fill: #df2020"/>
   </g>
   <g id="patch_49">
    <path d="M 439.916778 395.44 
L 451.933667 395.44 
L 451.933667 280.454122 
L 439.916778 280.454122 
z
" clip-path="url(#pe794bf9042)" style="fill: #df2020"/>
   </g>
   <g id="patch_50">
    <path d="M 484.980111 395.44 
L 496.997 395.44 
L 496.997 241.116847 
L 484.980111 241.116847 
z
" clip-path="url(#pe794bf9042)" style="fill: #df2020"/>
   </g>
   <g id="patch_51">
    <path d="M 530.043444 395.44 
L 542.060333 395.44 
L 542.060333 301.635731 
L 530.043444 301.635731 
z
" clip-path="url(#pe794bf9042)" style="fill: #df2020"/>
   </g>
   <g id="patch_52">
    <path d="M 575.106778 395.44 
L 587.123667 395.44 
L 587.123667 271.376289 
L 575.106778 271.376289 
z
" clip-path="url(#pe794bf9042)" style="fill: #df2020"/>
   </g>
   <g id="patch_53">
    <path d="M 620.170111 395.44 
L 632.187 395.44 
L 632.187 289.531954 
L 620.170111 289.531954 
z
" clip-path="url(#pe794bf9042)" style="fill: #df2020"/>
   </g>
   <g id="patch_54">
    <path d="M 665.233444 395.44 
L 677.250333 395.44 
L 677.250333 238.090903 
L 665.233444 238.090903 
z
" clip-path="url(#pe794bf9042)" style="fill: #df2020"/>
   </g>
   <g id="patch_55">
    <path d="M 710.296778 395.44 
L 722.313667 395.44 
L 722.313667 186.649852 
L 710.296778 186.649852 
z
" clip-path="url(#pe794bf9042)" style="fill: #df2020"/>
   </g>
   <g id="patch_56">
    <path d="M 755.360111 395.44 
L 767.377 395.44 
L 767.377 225.987126 
L 755.360111 225.987126 
z
" clip-path="url(#pe794bf9042)" style="fill: #df2020"/>
   </g>
   <g id="patch_57">
    <path d="M 800.423444 395.44 
L 812.440333 395.44 
L 812.440333 183.623908 
L 800.423444 183.623908 
z
" clip-path="url(#pe794bf9042)" style="fill: #df2020"/>
   </g>
   <g id="patch_58">
    <path d="M 845.486778 395.44 
L 857.503667 395.44 
L 857.503667 159.416355 
L 845.486778 159.416355 
z
" clip-path="url(#pe794bf9042)" style="fill: #df2020"/>
   </g>
   <g id="patch_59">
    <path d="M 890.550111 395.44 
L 902.567 395.44 
L 902.567 241.116847 
L 890.550111 241.116847 
z
" clip-path="url(#pe794bf9042)" style="fill: #df2020"/>
   </g>
   <g id="patch_60">
    <path d="M 935.613444 395.44 
L 947.630333 395.44 
L 947.630333 271.376289 
L 935.613444 271.376289 
z
" clip-path="url(#pe794bf9042)" style="fill: #df2020"/>
   </g>
   <g id="patch_61">
    <path d="M 980.676778 395.44 
L 992.693667 395.44 
L 992.693667 274.402233 
L 980.676778 274.402233 
z
" clip-path="url(#pe794bf9042)" style="fill: #df2020"/>
   </g>
   <g id="patch_62">
    <path d="M 73.401667 395.44 
L 73.401667 395.44 
L 73.401667 395.44 
L 73.401667 395.44 
z
" clip-path="url(#pe794bf9042)" style="fill: #2020df"/>
   </g>
   <g id="patch_63">
    <path d="M 73.401667 395.44 
L 73.401667 395.44 
L 73.401667 395.44 
L 73.401667 395.44 
z
" clip-path="url(#pe794bf9042)" style="fill: #107010"/>
   </g>
   <g id="patch_64">
    <path d="M 73.401667 395.44 
L 73.401667 395.44 
L 73.401667 395.44 
L 73.401667 395.44 
z
" clip-path="url(#pe794bf9042)" style="fill: #df2020"/>
   </g>
   <g id="matplotlib.axis_1">
    <g id="xtick_1">
     <g id="line2d_1">
      <defs>
       <path id="m6c2a89f5df" d="M 0 0 
L 0 3.5 
" style="stroke: #000000; stroke-width: 0.8"/>
      </defs>
      <g>
       <use xlink:href="#m6c2a89f5df" x="73.401667" y="395.44" style="stroke: #000000; stroke-width: 0.8"/>
      </g>
     </g>
     <g id="text_1">
      <!-- 2004 -->
      <g transform="translate(60.676667 410.038438) scale(0.1 -0.1)">
       <defs>
        <path id="DejaVuSans-32" d="M 1228 531 
L 3431 531 
L 3431 0 
L 469 0 
L 469 531 
Q 828 903 1448 1529 
Q 2069 2156 2228 2338 
Q 2531 2678 2651 2914 
Q 2772 3150 2772 3378 
Q 2772 3750 2511 3984 
Q 2250 4219 1831 4219 
Q 1534 4219 1204 4116 
Q 875 4013 500 3803 
L 500 4441 
Q 881 4594 1212 4672 
Q 1544 4750 1819 4750 
Q 2544 4750 2975 4387 
Q 3406 4025 3406 3419 
Q 3406 3131 3298 2873 
Q 3191 2616 2906 2266 
Q 2828 2175 2409 1742 
Q 1991 1309 1228 531 
z
" transform="scale(0.015625)"/>
        <path id="DejaVuSans-30" d="M 2034 4250 
Q 1547 4250 1301 3770 
Q 1056 3291 1056 2328 
Q 1056 1369 1301 889 
Q 1547 409 2034 409 
Q 2525 409 2770 889 
Q 3016 1369 3016 2328 
Q 3016 3291 2770 3770 
Q 2525 4250 2034 4250 
z
M 2034 4750 
Q 2819 4750 3233 4129 
Q 3647 3509 3647 2328 
Q 3647 1150 3233 529 
Q 2819 -91 2034 -91 
Q 1250 -91 836 529 
Q 422 1150 422 2328 
Q 422 3509 836 4129 
Q 1250 4750 2034 4750 
z
" transform="scale(0.015625)"/>
        <path id="DejaVuSans-34" d="M 2419 4116 
L 825 1625 
L 2419 1625 
L 2419 4116 
z
M 2253 4666 
L 3047 4666 
L 3047 1625 
L 3713 1625 
L 3713 1100 
L 3047 1100 
L 3047 0 
L 2419 0 
L 2419 1100 
L 313 1100 
L 313 1709 
L 2253 4666 
z
" transform="scale(0.015625)"/>
       </defs>
       <use xlink:href="#DejaVuSans-32"/>
       <use xlink:href="#DejaVuSans-30" x="63.623047"/>
       <use xlink:href="#DejaVuSans-30" x="127.246094"/>
       <use xlink:href="#DejaVuSans-34" x="190.869141"/>
      </g>
     </g>
    </g>
    <g id="xtick_2">
     <g id="line2d_2">
      <g>
       <use xlink:href="#m6c2a89f5df" x="118.465" y="395.44" style="stroke: #000000; stroke-width: 0.8"/>
      </g>
     </g>
     <g id="text_2">
      <!-- 2005 -->
      <g transform="translate(105.74 410.038438) scale(0.1 -0.1)">
       <defs>
        <path id="DejaVuSans-35" d="M 691 4666 
L 3169 4666 
L 3169 4134 
L 1269 4134 
L 1269 2991 
Q 1406 3038 1543 3061 
Q 1681 3084 1819 3084 
Q 2600 3084 3056 2656 
Q 3513 2228 3513 1497 
Q 3513 744 3044 326 
Q 2575 -91 1722 -91 
Q 1428 -91 1123 -41 
Q 819 9 494 109 
L 494 744 
Q 775 591 1075 516 
Q 1375 441 1709 441 
Q 2250 441 2565 725 
Q 2881 1009 2881 1497 
Q 2881 1984 2565 2268 
Q 2250 2553 1709 2553 
Q 1456 2553 1204 2497 
Q 953 2441 691 2322 
L 691 4666 
z
" transform="scale(0.015625)"/>
       </defs>
       <use xlink:href="#DejaVuSans-32"/>
       <use xlink:href="#DejaVuSans-30" x="63.623047"/>
       <use xlink:href="#DejaVuSans-30" x="127.246094"/>
       <use xlink:href="#DejaVuSans-35" x="190.869141"/>
      </g>
     </g>
    </g>
    <g id="xtick_3">
     <g id="line2d_3">
      <g>
       <use xlink:href="#m6c2a89f5df" x="163.528333" y="395.44" style="stroke: #000000; stroke-width: 0.8"/>
      </g>
     </g>
     <g id="text_3">
      <!-- 2006 -->
      <g transform="translate(150.803333 410.038438) scale(0.1 -0.1)">
       <defs>
        <path id="DejaVuSans-36" d="M 2113 2584 
Q 1688 2584 1439 2293 
Q 1191 2003 1191 1497 
Q 1191 994 1439 701 
Q 1688 409 2113 409 
Q 2538 409 2786 701 
Q 3034 994 3034 1497 
Q 3034 2003 2786 2293 
Q 2538 2584 2113 2584 
z
M 3366 4563 
L 3366 3988 
Q 3128 4100 2886 4159 
Q 2644 4219 2406 4219 
Q 1781 4219 1451 3797 
Q 1122 3375 1075 2522 
Q 1259 2794 1537 2939 
Q 1816 3084 2150 3084 
Q 2853 3084 3261 2657 
Q 3669 2231 3669 1497 
Q 3669 778 3244 343 
Q 2819 -91 2113 -91 
Q 1303 -91 875 529 
Q 447 1150 447 2328 
Q 447 3434 972 4092 
Q 1497 4750 2381 4750 
Q 2619 4750 2861 4703 
Q 3103 4656 3366 4563 
z
" transform="scale(0.015625)"/>
       </defs>
       <use xlink:href="#DejaVuSans-32"/>
       <use xlink:href="#DejaVuSans-30" x="63.623047"/>
       <use xlink:href="#DejaVuSans-30" x="127.246094"/>
       <use xlink:href="#DejaVuSans-36" x="190.869141"/>
      </g>
     </g>
    </g>
    <g id="xtick_4">
     <g id="line2d_4">
      <g>
       <use xlink:href="#m6c2a89f5df" x="208.591667" y="395.44" style="stroke: #000000; stroke-width: 0.8"/>
      </g>
     </g>
     <g id="text_4">
      <!-- 2007 -->
      <g transform="translate(195.866667 410.038438) scale(0.1 -0.1)">
       <defs>
        <path id="DejaVuSans-37" d="M 525 4666 
L 3525 4666 
L 3525 4397 
L 1831 0 
L 1172 0 
L 2766 4134 
L 525 4134 
L 525 4666 
z
" transform="scale(0.015625)"/>
       </defs>
       <use xlink:href="#DejaVuSans-32"/>
       <use xlink:href="#DejaVuSans-30" x="63.623047"/>
       <use xlink:href="#DejaVuSans-30" x="127.246094"/>
       <use xlink:href="#DejaVuSans-37" x="190.869141"/>
      </g>
     </g>
    </g>
    <g id="xtick_5">
     <g id="line2d_5">
      <g>
       <use xlink:href="#m6c2a89f5df" x="253.655" y="395.44" style="stroke: #000000; stroke-width: 0.8"/>
      </g>
     </g>
     <g id="text_5">
      <!-- 2008 -->
      <g transform="translate(240.93 410.038438) scale(0.1 -0.1)">
       <defs>
        <path id="DejaVuSans-38" d="M 2034 2216 
Q 1584 2216 1326 1975 
Q 1069 1734 1069 1313 
Q 1069 891 1326 650 
Q 1584 409 2034 409 
Q 2484 409 2743 651 
Q 3003 894 3003 1313 
Q 3003 1734 2745 1975 
Q 2488 2216 2034 2216 
z
M 1403 2484 
Q 997 2584 770 2862 
Q 544 3141 544 3541 
Q 544 4100 942 4425 
Q 1341 4750 2034 4750 
Q 2731 4750 3128 4425 
Q 3525 4100 3525 3541 
Q 3525 3141 3298 2862 
Q 3072 2584 2669 2484 
Q 3125 2378 3379 2068 
Q 3634 1759 3634 1313 
Q 3634 634 3220 271 
Q 2806 -91 2034 -91 
Q 1263 -91 848 271 
Q 434 634 434 1313 
Q 434 1759 690 2068 
Q 947 2378 1403 2484 
z
M 1172 3481 
Q 1172 3119 1398 2916 
Q 1625 2713 2034 2713 
Q 2441 2713 2670 2916 
Q 2900 3119 2900 3481 
Q 2900 3844 2670 4047 
Q 2441 4250 2034 4250 
Q 1625 4250 1398 4047 
Q 1172 3844 1172 3481 
z
" transform="scale(0.015625)"/>
       </defs>
       <use xlink:href="#DejaVuSans-32"/>
       <use xlink:href="#DejaVuSans-30" x="63.623047"/>
       <use xlink:href="#DejaVuSans-30" x="127.246094"/>
       <use xlink:href="#DejaVuSans-38" x="190.869141"/>
      </g>
     </g>
    </g>
    <g id="xtick_6">
     <g id="line2d_6">
      <g>
       <use xlink:href="#m6c2a89f5df" x="298.718333" y="395.44" style="stroke: #000000; stroke-width: 0.8"/>
      </g>
     </g>
     <g id="text_6">
      <!-- 2009 -->
      <g transform="translate(285.993333 410.038438) scale(0.1 -0.1)">
       <defs>
        <path id="DejaVuSans-39" d="M 703 97 
L 703 672 
Q 941 559 1184 500 
Q 1428 441 1663 441 
Q 2288 441 2617 861 
Q 2947 1281 2994 2138 
Q 2813 1869 2534 1725 
Q 2256 1581 1919 1581 
Q 1219 1581 811 2004 
Q 403 2428 403 3163 
Q 403 3881 828 4315 
Q 1253 4750 1959 4750 
Q 2769 4750 3195 4129 
Q 3622 3509 3622 2328 
Q 3622 1225 3098 567 
Q 2575 -91 1691 -91 
Q 1453 -91 1209 -44 
Q 966 3 703 97 
z
M 1959 2075 
Q 2384 2075 2632 2365 
Q 2881 2656 2881 3163 
Q 2881 3666 2632 3958 
Q 2384 4250 1959 4250 
Q 1534 4250 1286 3958 
Q 1038 3666 1038 3163 
Q 1038 2656 1286 2365 
Q 1534 2075 1959 2075 
z
" transform="scale(0.015625)"/>
       </defs>
       <use xlink:href="#DejaVuSans-32"/>
       <use xlink:href="#DejaVuSans-30" x="63.623047"/>
       <use xlink:href="#DejaVuSans-30" x="127.246094"/>
       <use xlink:href="#DejaVuSans-39" x="190.869141"/>
      </g>
     </g>
    </g>
    <g id="xtick_7">
     <g id="line2d_7">
      <g>
       <use xlink:href="#m6c2a89f5df" x="343.781667" y="395.44" style="stroke: #000000; stroke-width: 0.8"/>
      </g>
     </g>
     <g id="text_7">
      <!-- 2010 -->
      <g transform="translate(331.056667 410.038438) scale(0.1 -0.1)">
       <defs>
        <path id="DejaVuSans-31" d="M 794 531 
L 1825 531 
L 1825 4091 
L 703 3866 
L 703 4441 
L 1819 4666 
L 2450 4666 
L 2450 531 
L 3481 531 
L 3481 0 
L 794 0 
L 794 531 
z
" transform="scale(0.015625)"/>
       </defs>
       <use xlink:href="#DejaVuSans-32"/>
       <use xlink:href="#DejaVuSans-30" x="63.623047"/>
       <use xlink:href="#DejaVuSans-31" x="127.246094"/>
       <use xlink:href="#DejaVuSans-30" x="190.869141"/>
      </g>
     </g>
    </g>
    <g id="xtick_8">
     <g id="line2d_8">
      <g>
       <use xlink:href="#m6c2a89f5df" x="388.845" y="395.44" style="stroke: #000000; stroke-width: 0.8"/>
      </g>
     </g>
     <g id="text_8">
      <!-- 2011 -->
      <g transform="translate(376.12 410.038438) scale(0.1 -0.1)">
       <use xlink:href="#DejaVuSans-32"/>
       <use xlink:href="#DejaVuSans-30" x="63.623047"/>
       <use xlink:href="#DejaVuSans-31" x="127.246094"/>
       <use xlink:href="#DejaVuSans-31" x="190.869141"/>
      </g>
     </g>
    </g>
    <g id="xtick_9">
     <g id="line2d_9">
      <g>
       <use xlink:href="#m6c2a89f5df" x="433.908333" y="395.44" style="stroke: #000000; stroke-width: 0.8"/>
      </g>
     </g>
     <g id="text_9">
      <!-- 2012 -->
      <g transform="translate(421.183333 410.038438) scale(0.1 -0.1)">
       <use xlink:href="#DejaVuSans-32"/>
       <use xlink:href="#DejaVuSans-30" x="63.623047"/>
       <use xlink:href="#DejaVuSans-31" x="127.246094"/>
       <use xlink:href="#DejaVuSans-32" x="190.869141"/>
      </g>
     </g>
    </g>
    <g id="xtick_10">
     <g id="line2d_10">
      <g>
       <use xlink:href="#m6c2a89f5df" x="478.971667" y="395.44" style="stroke: #000000; stroke-width: 0.8"/>
      </g>
     </g>
     <g id="text_10">
      <!-- 2013 -->
      <g transform="translate(466.246667 410.038438) scale(0.1 -0.1)">
       <defs>
        <path id="DejaVuSans-33" d="M 2597 2516 
Q 3050 2419 3304 2112 
Q 3559 1806 3559 1356 
Q 3559 666 3084 287 
Q 2609 -91 1734 -91 
Q 1441 -91 1130 -33 
Q 819 25 488 141 
L 488 750 
Q 750 597 1062 519 
Q 1375 441 1716 441 
Q 2309 441 2620 675 
Q 2931 909 2931 1356 
Q 2931 1769 2642 2001 
Q 2353 2234 1838 2234 
L 1294 2234 
L 1294 2753 
L 1863 2753 
Q 2328 2753 2575 2939 
Q 2822 3125 2822 3475 
Q 2822 3834 2567 4026 
Q 2313 4219 1838 4219 
Q 1578 4219 1281 4162 
Q 984 4106 628 3988 
L 628 4550 
Q 988 4650 1302 4700 
Q 1616 4750 1894 4750 
Q 2613 4750 3031 4423 
Q 3450 4097 3450 3541 
Q 3450 3153 3228 2886 
Q 3006 2619 2597 2516 
z
" transform="scale(0.015625)"/>
       </defs>
       <use xlink:href="#DejaVuSans-32"/>
       <use xlink:href="#DejaVuSans-30" x="63.623047"/>
       <use xlink:href="#DejaVuSans-31" x="127.246094"/>
       <use xlink:href="#DejaVuSans-33" x="190.869141"/>
      </g>
     </g>
    </g>
    <g id="xtick_11">
     <g id="line2d_11">
      <g>
       <use xlink:href="#m6c2a89f5df" x="524.035" y="395.44" style="stroke: #000000; stroke-width: 0.8"/>
      </g>
     </g>
     <g id="text_11">
      <!-- 2014 -->
      <g transform="translate(511.31 410.038438) scale(0.1 -0.1)">
       <use xlink:href="#DejaVuSans-32"/>
       <use xlink:href="#DejaVuSans-30" x="63.623047"/>
       <use xlink:href="#DejaVuSans-31" x="127.246094"/>
       <use xlink:href="#DejaVuSans-34" x="190.869141"/>
      </g>
     </g>
    </g>
    <g id="xtick_12">
     <g id="line2d_12">
      <g>
       <use xlink:href="#m6c2a89f5df" x="569.098333" y="395.44" style="stroke: #000000; stroke-width: 0.8"/>
      </g>
     </g>
     <g id="text_12">
      <!-- 2015 -->
      <g transform="translate(556.373333 410.038438) scale(0.1 -0.1)">
       <use xlink:href="#DejaVuSans-32"/>
       <use xlink:href="#DejaVuSans-30" x="63.623047"/>
       <use xlink:href="#DejaVuSans-31" x="127.246094"/>
       <use xlink:href="#DejaVuSans-35" x="190.869141"/>
      </g>
     </g>
    </g>
    <g id="xtick_13">
     <g id="line2d_13">
      <g>
       <use xlink:href="#m6c2a89f5df" x="614.161667" y="395.44" style="stroke: #000000; stroke-width: 0.8"/>
      </g>
     </g>
     <g id="text_13">
      <!-- 2016 -->
      <g transform="translate(601.436667 410.038438) scale(0.1 -0.1)">
       <use xlink:href="#DejaVuSans-32"/>
       <use xlink:href="#DejaVuSans-30" x="63.623047"/>
       <use xlink:href="#DejaVuSans-31" x="127.246094"/>
       <use xlink:href="#DejaVuSans-36" x="190.869141"/>
      </g>
     </g>
    </g>
    <g id="xtick_14">
     <g id="line2d_14">
      <g>
       <use xlink:href="#m6c2a89f5df" x="659.225" y="395.44" style="stroke: #000000; stroke-width: 0.8"/>
      </g>
     </g>
     <g id="text_14">
      <!-- 2017 -->
      <g transform="translate(646.5 410.038438) scale(0.1 -0.1)">
       <use xlink:href="#DejaVuSans-32"/>
       <use xlink:href="#DejaVuSans-30" x="63.623047"/>
       <use xlink:href="#DejaVuSans-31" x="127.246094"/>
       <use xlink:href="#DejaVuSans-37" x="190.869141"/>
      </g>
     </g>
    </g>
    <g id="xtick_15">
     <g id="line2d_15">
      <g>
       <use xlink:href="#m6c2a89f5df" x="704.288333" y="395.44" style="stroke: #000000; stroke-width: 0.8"/>
      </g>
     </g>
     <g id="text_15">
      <!-- 2018 -->
      <g transform="translate(691.563333 410.038438) scale(0.1 -0.1)">
       <use xlink:href="#DejaVuSans-32"/>
       <use xlink:href="#DejaVuSans-30" x="63.623047"/>
       <use xlink:href="#DejaVuSans-31" x="127.246094"/>
       <use xlink:href="#DejaVuSans-38" x="190.869141"/>
      </g>
     </g>
    </g>
    <g id="xtick_16">
     <g id="line2d_16">
      <g>
       <use xlink:href="#m6c2a89f5df" x="749.351667" y="395.44" style="stroke: #000000; stroke-width: 0.8"/>
      </g>
     </g>
     <g id="text_16">
      <!-- 2019 -->
      <g transform="translate(736.626667 410.038438) scale(0.1 -0.1)">
       <use xlink:href="#DejaVuSans-32"/>
       <use xlink:href="#DejaVuSans-30" x="63.623047"/>
       <use xlink:href="#DejaVuSans-31" x="127.246094"/>
       <use xlink:href="#DejaVuSans-39" x="190.869141"/>
      </g>
     </g>
    </g>
    <g id="xtick_17">
     <g id="line2d_17">
      <g>
       <use xlink:href="#m6c2a89f5df" x="794.415" y="395.44" style="stroke: #000000; stroke-width: 0.8"/>
      </g>
     </g>
     <g id="text_17">
      <!-- 2020 -->
      <g transform="translate(781.69 410.038438) scale(0.1 -0.1)">
       <use xlink:href="#DejaVuSans-32"/>
       <use xlink:href="#DejaVuSans-30" x="63.623047"/>
       <use xlink:href="#DejaVuSans-32" x="127.246094"/>
       <use xlink:href="#DejaVuSans-30" x="190.869141"/>
      </g>
     </g>
    </g>
    <g id="xtick_18">
     <g id="line2d_18">
      <g>
       <use xlink:href="#m6c2a89f5df" x="839.478333" y="395.44" style="stroke: #000000; stroke-width: 0.8"/>
      </g>
     </g>
     <g id="text_18">
      <!-- 2021 -->
      <g transform="translate(826.753333 410.038438) scale(0.1 -0.1)">
       <use xlink:href="#DejaVuSans-32"/>
       <use xlink:href="#DejaVuSans-30" x="63.623047"/>
       <use xlink:href="#DejaVuSans-32" x="127.246094"/>
       <use xlink:href="#DejaVuSans-31" x="190.869141"/>
      </g>
     </g>
    </g>
    <g id="xtick_19">
     <g id="line2d_19">
      <g>
       <use xlink:href="#m6c2a89f5df" x="884.541667" y="395.44" style="stroke: #000000; stroke-width: 0.8"/>
      </g>
     </g>
     <g id="text_19">
      <!-- 2022 -->
      <g transform="translate(871.816667 410.038438) scale(0.1 -0.1)">
       <use xlink:href="#DejaVuSans-32"/>
       <use xlink:href="#DejaVuSans-30" x="63.623047"/>
       <use xlink:href="#DejaVuSans-32" x="127.246094"/>
       <use xlink:href="#DejaVuSans-32" x="190.869141"/>
      </g>
     </g>
    </g>
    <g id="xtick_20">
     <g id="line2d_20">
      <g>
       <use xlink:href="#m6c2a89f5df" x="929.605" y="395.44" style="stroke: #000000; stroke-width: 0.8"/>
      </g>
     </g>
     <g id="text_20">
      <!-- 2023 -->
      <g transform="translate(916.88 410.038438) scale(0.1 -0.1)">
       <use xlink:href="#DejaVuSans-32"/>
       <use xlink:href="#DejaVuSans-30" x="63.623047"/>
       <use xlink:href="#DejaVuSans-32" x="127.246094"/>
       <use xlink:href="#DejaVuSans-33" x="190.869141"/>
      </g>
     </g>
    </g>
    <g id="xtick_21">
     <g id="line2d_21">
      <g>
       <use xlink:href="#m6c2a89f5df" x="974.668333" y="395.44" style="stroke: #000000; stroke-width: 0.8"/>
      </g>
     </g>
     <g id="text_21">
      <!-- 2024 -->
      <g transform="translate(961.943333 410.038438) scale(0.1 -0.1)">
       <use xlink:href="#DejaVuSans-32"/>
       <use xlink:href="#DejaVuSans-30" x="63.623047"/>
       <use xlink:href="#DejaVuSans-32" x="127.246094"/>
       <use xlink:href="#DejaVuSans-34" x="190.869141"/>
      </g>
     </g>
    </g>
    <g id="text_22">
     <!-- Year -->
     <g transform="translate(513.4475 423.716563) scale(0.1 -0.1)">
      <defs>
       <path id="DejaVuSans-59" d="M -13 4666 
L 666 4666 
L 1959 2747 
L 3244 4666 
L 3922 4666 
L 2272 2222 
L 2272 0 
L 1638 0 
L 1638 2222 
L -13 4666 
z
" transform="scale(0.015625)"/>
       <path id="DejaVuSans-65" d="M 3597 1894 
L 3597 1613 
L 953 1613 
Q 991 1019 1311 708 
Q 1631 397 2203 397 
Q 2534 397 2845 478 
Q 3156 559 3463 722 
L 3463 178 
Q 3153 47 2828 -22 
Q 2503 -91 2169 -91 
Q 1331 -91 842 396 
Q 353 884 353 1716 
Q 353 2575 817 3079 
Q 1281 3584 2069 3584 
Q 2775 3584 3186 3129 
Q 3597 2675 3597 1894 
z
M 3022 2063 
Q 3016 2534 2758 2815 
Q 2500 3097 2075 3097 
Q 1594 3097 1305 2825 
Q 1016 2553 972 2059 
L 3022 2063 
z
" transform="scale(0.015625)"/>
       <path id="DejaVuSans-61" d="M 2194 1759 
Q 1497 1759 1228 1600 
Q 959 1441 959 1056 
Q 959 750 1161 570 
Q 1363 391 1709 391 
Q 2188 391 2477 730 
Q 2766 1069 2766 1631 
L 2766 1759 
L 2194 1759 
z
M 3341 1997 
L 3341 0 
L 2766 0 
L 2766 531 
Q 2569 213 2275 61 
Q 1981 -91 1556 -91 
Q 1019 -91 701 211 
Q 384 513 384 1019 
Q 384 1609 779 1909 
Q 1175 2209 1959 2209 
L 2766 2209 
L 2766 2266 
Q 2766 2663 2505 2880 
Q 2244 3097 1772 3097 
Q 1472 3097 1187 3025 
Q 903 2953 641 2809 
L 641 3341 
Q 956 3463 1253 3523 
Q 1550 3584 1831 3584 
Q 2591 3584 2966 3190 
Q 3341 2797 3341 1997 
z
" transform="scale(0.015625)"/>
       <path id="DejaVuSans-72" d="M 2631 2963 
Q 2534 3019 2420 3045 
Q 2306 3072 2169 3072 
Q 1681 3072 1420 2755 
Q 1159 2438 1159 1844 
L 1159 0 
L 581 0 
L 581 3500 
L 1159 3500 
L 1159 2956 
Q 1341 3275 1631 3429 
Q 1922 3584 2338 3584 
Q 2397 3584 2469 3576 
Q 2541 3569 2628 3553 
L 2631 2963 
z
" transform="scale(0.015625)"/>
      </defs>
      <use xlink:href="#DejaVuSans-59"/>
      <use xlink:href="#DejaVuSans-65" x="47.833984"/>
      <use xlink:href="#DejaVuSans-61" x="109.357422"/>
      <use xlink:href="#DejaVuSans-72" x="170.636719"/>
     </g>
    </g>
   </g>
   <g id="matplotlib.axis_2">
    <g id="ytick_1">
     <g id="line2d_22">
      <defs>
       <path id="m365068c3b6" d="M 0 0 
L -3.5 0 
" style="stroke: #000000; stroke-width: 0.8"/>
      </defs>
      <g>
       <use xlink:href="#m365068c3b6" x="50.87" y="395.44" style="stroke: #000000; stroke-width: 0.8"/>
      </g>
     </g>
     <g id="text_23">
      <!-- 0 -->
      <g transform="translate(37.5075 399.239219) scale(0.1 -0.1)">
       <use xlink:href="#DejaVuSans-30"/>
      </g>
     </g>
    </g>
    <g id="ytick_2">
     <g id="line2d_23">
      <g>
       <use xlink:href="#m365068c3b6" x="50.87" y="334.921117" style="stroke: #000000; stroke-width: 0.8"/>
      </g>
     </g>
     <g id="text_24">
      <!-- 20 -->
      <g transform="translate(31.145 338.720335) scale(0.1 -0.1)">
       <use xlink:href="#DejaVuSans-32"/>
       <use xlink:href="#DejaVuSans-30" x="63.623047"/>
      </g>
     </g>
    </g>
    <g id="ytick_3">
     <g id="line2d_24">
      <g>
       <use xlink:href="#m365068c3b6" x="50.87" y="274.402233" style="stroke: #000000; stroke-width: 0.8"/>
      </g>
     </g>
     <g id="text_25">
      <!-- 40 -->
      <g transform="translate(31.145 278.201452) scale(0.1 -0.1)">
       <use xlink:href="#DejaVuSans-34"/>
       <use xlink:href="#DejaVuSans-30" x="63.623047"/>
      </g>
     </g>
    </g>
    <g id="ytick_4">
     <g id="line2d_25">
      <g>
       <use xlink:href="#m365068c3b6" x="50.87" y="213.88335" style="stroke: #000000; stroke-width: 0.8"/>
      </g>
     </g>
     <g id="text_26">
      <!-- 60 -->
      <g transform="translate(31.145 217.682569) scale(0.1 -0.1)">
       <use xlink:href="#DejaVuSans-36"/>
       <use xlink:href="#DejaVuSans-30" x="63.623047"/>
      </g>
     </g>
    </g>
    <g id="ytick_5">
     <g id="line2d_26">
      <g>
       <use xlink:href="#m365068c3b6" x="50.87" y="153.364466" style="stroke: #000000; stroke-width: 0.8"/>
      </g>
     </g>
     <g id="text_27">
      <!-- 80 -->
      <g transform="translate(31.145 157.163685) scale(0.1 -0.1)">
       <use xlink:href="#DejaVuSans-38"/>
       <use xlink:href="#DejaVuSans-30" x="63.623047"/>
      </g>
     </g>
    </g>
    <g id="ytick_6">
     <g id="line2d_27">
      <g>
       <use xlink:href="#m365068c3b6" x="50.87" y="92.845583" style="stroke: #000000; stroke-width: 0.8"/>
      </g>
     </g>
     <g id="text_28">
      <!-- 100 -->
      <g transform="translate(24.7825 96.644802) scale(0.1 -0.1)">
       <use xlink:href="#DejaVuSans-31"/>
       <use xlink:href="#DejaVuSans-30" x="63.623047"/>
       <use xlink:href="#DejaVuSans-30" x="127.246094"/>
      </g>
     </g>
    </g>
    <g id="ytick_7">
     <g id="line2d_28">
      <g>
       <use xlink:href="#m365068c3b6" x="50.87" y="32.3267" style="stroke: #000000; stroke-width: 0.8"/>
      </g>
     </g>
     <g id="text_29">
      <!-- 120 -->
      <g transform="translate(24.7825 36.125918) scale(0.1 -0.1)">
       <use xlink:href="#DejaVuSans-31"/>
       <use xlink:href="#DejaVuSans-32" x="63.623047"/>
       <use xlink:href="#DejaVuSans-30" x="127.246094"/>
      </g>
     </g>
    </g>
    <g id="text_30">
     <!-- Number of Articles -->
     <g transform="translate(18.702812 257.888125) rotate(-90) scale(0.1 -0.1)">
      <defs>
       <path id="DejaVuSans-4e" d="M 628 4666 
L 1478 4666 
L 3547 763 
L 3547 4666 
L 4159 4666 
L 4159 0 
L 3309 0 
L 1241 3903 
L 1241 0 
L 628 0 
L 628 4666 
z
" transform="scale(0.015625)"/>
       <path id="DejaVuSans-75" d="M 544 1381 
L 544 3500 
L 1119 3500 
L 1119 1403 
Q 1119 906 1312 657 
Q 1506 409 1894 409 
Q 2359 409 2629 706 
Q 2900 1003 2900 1516 
L 2900 3500 
L 3475 3500 
L 3475 0 
L 2900 0 
L 2900 538 
Q 2691 219 2414 64 
Q 2138 -91 1772 -91 
Q 1169 -91 856 284 
Q 544 659 544 1381 
z
M 1991 3584 
L 1991 3584 
z
" transform="scale(0.015625)"/>
       <path id="DejaVuSans-6d" d="M 3328 2828 
Q 3544 3216 3844 3400 
Q 4144 3584 4550 3584 
Q 5097 3584 5394 3201 
Q 5691 2819 5691 2113 
L 5691 0 
L 5113 0 
L 5113 2094 
Q 5113 2597 4934 2840 
Q 4756 3084 4391 3084 
Q 3944 3084 3684 2787 
Q 3425 2491 3425 1978 
L 3425 0 
L 2847 0 
L 2847 2094 
Q 2847 2600 2669 2842 
Q 2491 3084 2119 3084 
Q 1678 3084 1418 2786 
Q 1159 2488 1159 1978 
L 1159 0 
L 581 0 
L 581 3500 
L 1159 3500 
L 1159 2956 
Q 1356 3278 1631 3431 
Q 1906 3584 2284 3584 
Q 2666 3584 2933 3390 
Q 3200 3197 3328 2828 
z
" transform="scale(0.015625)"/>
       <path id="DejaVuSans-62" d="M 3116 1747 
Q 3116 2381 2855 2742 
Q 2594 3103 2138 3103 
Q 1681 3103 1420 2742 
Q 1159 2381 1159 1747 
Q 1159 1113 1420 752 
Q 1681 391 2138 391 
Q 2594 391 2855 752 
Q 3116 1113 3116 1747 
z
M 1159 2969 
Q 1341 3281 1617 3432 
Q 1894 3584 2278 3584 
Q 2916 3584 3314 3078 
Q 3713 2572 3713 1747 
Q 3713 922 3314 415 
Q 2916 -91 2278 -91 
Q 1894 -91 1617 61 
Q 1341 213 1159 525 
L 1159 0 
L 581 0 
L 581 4863 
L 1159 4863 
L 1159 2969 
z
" transform="scale(0.015625)"/>
       <path id="DejaVuSans-20" transform="scale(0.015625)"/>
       <path id="DejaVuSans-6f" d="M 1959 3097 
Q 1497 3097 1228 2736 
Q 959 2375 959 1747 
Q 959 1119 1226 758 
Q 1494 397 1959 397 
Q 2419 397 2687 759 
Q 2956 1122 2956 1747 
Q 2956 2369 2687 2733 
Q 2419 3097 1959 3097 
z
M 1959 3584 
Q 2709 3584 3137 3096 
Q 3566 2609 3566 1747 
Q 3566 888 3137 398 
Q 2709 -91 1959 -91 
Q 1206 -91 779 398 
Q 353 888 353 1747 
Q 353 2609 779 3096 
Q 1206 3584 1959 3584 
z
" transform="scale(0.015625)"/>
       <path id="DejaVuSans-66" d="M 2375 4863 
L 2375 4384 
L 1825 4384 
Q 1516 4384 1395 4259 
Q 1275 4134 1275 3809 
L 1275 3500 
L 2222 3500 
L 2222 3053 
L 1275 3053 
L 1275 0 
L 697 0 
L 697 3053 
L 147 3053 
L 147 3500 
L 697 3500 
L 697 3744 
Q 697 4328 969 4595 
Q 1241 4863 1831 4863 
L 2375 4863 
z
" transform="scale(0.015625)"/>
       <path id="DejaVuSans-41" d="M 2188 4044 
L 1331 1722 
L 3047 1722 
L 2188 4044 
z
M 1831 4666 
L 2547 4666 
L 4325 0 
L 3669 0 
L 3244 1197 
L 1141 1197 
L 716 0 
L 50 0 
L 1831 4666 
z
" transform="scale(0.015625)"/>
       <path id="DejaVuSans-74" d="M 1172 4494 
L 1172 3500 
L 2356 3500 
L 2356 3053 
L 1172 3053 
L 1172 1153 
Q 1172 725 1289 603 
Q 1406 481 1766 481 
L 2356 481 
L 2356 0 
L 1766 0 
Q 1100 0 847 248 
Q 594 497 594 1153 
L 594 3053 
L 172 3053 
L 172 3500 
L 594 3500 
L 594 4494 
L 1172 4494 
z
" transform="scale(0.015625)"/>
       <path id="DejaVuSans-69" d="M 603 3500 
L 1178 3500 
L 1178 0 
L 603 0 
L 603 3500 
z
M 603 4863 
L 1178 4863 
L 1178 4134 
L 603 4134 
L 603 4863 
z
" transform="scale(0.015625)"/>
       <path id="DejaVuSans-63" d="M 3122 3366 
L 3122 2828 
Q 2878 2963 2633 3030 
Q 2388 3097 2138 3097 
Q 1578 3097 1268 2742 
Q 959 2388 959 1747 
Q 959 1106 1268 751 
Q 1578 397 2138 397 
Q 2388 397 2633 464 
Q 2878 531 3122 666 
L 3122 134 
Q 2881 22 2623 -34 
Q 2366 -91 2075 -91 
Q 1284 -91 818 406 
Q 353 903 353 1747 
Q 353 2603 823 3093 
Q 1294 3584 2113 3584 
Q 2378 3584 2631 3529 
Q 2884 3475 3122 3366 
z
" transform="scale(0.015625)"/>
       <path id="DejaVuSans-6c" d="M 603 4863 
L 1178 4863 
L 1178 0 
L 603 0 
L 603 4863 
z
" transform="scale(0.015625)"/>
       <path id="DejaVuSans-73" d="M 2834 3397 
L 2834 2853 
Q 2591 2978 2328 3040 
Q 2066 3103 1784 3103 
Q 1356 3103 1142 2972 
Q 928 2841 928 2578 
Q 928 2378 1081 2264 
Q 1234 2150 1697 2047 
L 1894 2003 
Q 2506 1872 2764 1633 
Q 3022 1394 3022 966 
Q 3022 478 2636 193 
Q 2250 -91 1575 -91 
Q 1294 -91 989 -36 
Q 684 19 347 128 
L 347 722 
Q 666 556 975 473 
Q 1284 391 1588 391 
Q 1994 391 2212 530 
Q 2431 669 2431 922 
Q 2431 1156 2273 1281 
Q 2116 1406 1581 1522 
L 1381 1569 
Q 847 1681 609 1914 
Q 372 2147 372 2553 
Q 372 3047 722 3315 
Q 1072 3584 1716 3584 
Q 2034 3584 2315 3537 
Q 2597 3491 2834 3397 
z
" transform="scale(0.015625)"/>
      </defs>
      <use xlink:href="#DejaVuSans-4e"/>
      <use xlink:href="#DejaVuSans-75" x="74.804688"/>
      <use xlink:href="#DejaVuSans-6d" x="138.183594"/>
      <use xlink:href="#DejaVuSans-62" x="235.595703"/>
      <use xlink:href="#DejaVuSans-65" x="299.072266"/>
      <use xlink:href="#DejaVuSans-72" x="360.595703"/>
      <use xlink:href="#DejaVuSans-20" x="401.708984"/>
      <use xlink:href="#DejaVuSans-6f" x="433.496094"/>
      <use xlink:href="#DejaVuSans-66" x="494.677734"/>
      <use xlink:href="#DejaVuSans-20" x="529.882812"/>
      <use xlink:href="#DejaVuSans-41" x="561.669922"/>
      <use xlink:href="#DejaVuSans-72" x="630.078125"/>
      <use xlink:href="#DejaVuSans-74" x="671.191406"/>
      <use xlink:href="#DejaVuSans-69" x="710.400391"/>
      <use xlink:href="#DejaVuSans-63" x="738.183594"/>
      <use xlink:href="#DejaVuSans-6c" x="793.164062"/>
      <use xlink:href="#DejaVuSans-65" x="820.947266"/>
      <use xlink:href="#DejaVuSans-73" x="882.470703"/>
     </g>
    </g>
   </g>
   <g id="patch_65">
    <path d="M 50.87 395.44 
L 50.87 26.88 
" style="fill: none; stroke: #000000; stroke-width: 0.8; stroke-linejoin: miter; stroke-linecap: square"/>
   </g>
   <g id="patch_66">
    <path d="M 997.2 395.44 
L 997.2 26.88 
" style="fill: none; stroke: #000000; stroke-width: 0.8; stroke-linejoin: miter; stroke-linecap: square"/>
   </g>
   <g id="patch_67">
    <path d="M 50.87 395.44 
L 997.2 395.44 
" style="fill: none; stroke: #000000; stroke-width: 0.8; stroke-linejoin: miter; stroke-linecap: square"/>
   </g>
   <g id="patch_68">
    <path d="M 50.87 26.88 
L 997.2 26.88 
" style="fill: none; stroke: #000000; stroke-width: 0.8; stroke-linejoin: miter; stroke-linecap: square"/>
   </g>
   <g id="text_31">
    <!-- Number of Articles by Maximum Political Lean Category: Vladimir Putin -->
    <g transform="translate(311.179375 20.88) scale(0.12 -0.12)">
     <defs>
      <path id="DejaVuSans-79" d="M 2059 -325 
Q 1816 -950 1584 -1140 
Q 1353 -1331 966 -1331 
L 506 -1331 
L 506 -850 
L 844 -850 
Q 1081 -850 1212 -737 
Q 1344 -625 1503 -206 
L 1606 56 
L 191 3500 
L 800 3500 
L 1894 763 
L 2988 3500 
L 3597 3500 
L 2059 -325 
z
" transform="scale(0.015625)"/>
      <path id="DejaVuSans-4d" d="M 628 4666 
L 1569 4666 
L 2759 1491 
L 3956 4666 
L 4897 4666 
L 4897 0 
L 4281 0 
L 4281 4097 
L 3078 897 
L 2444 897 
L 1241 4097 
L 1241 0 
L 628 0 
L 628 4666 
z
" transform="scale(0.015625)"/>
      <path id="DejaVuSans-78" d="M 3513 3500 
L 2247 1797 
L 3578 0 
L 2900 0 
L 1881 1375 
L 863 0 
L 184 0 
L 1544 1831 
L 300 3500 
L 978 3500 
L 1906 2253 
L 2834 3500 
L 3513 3500 
z
" transform="scale(0.015625)"/>
      <path id="DejaVuSans-50" d="M 1259 4147 
L 1259 2394 
L 2053 2394 
Q 2494 2394 2734 2622 
Q 2975 2850 2975 3272 
Q 2975 3691 2734 3919 
Q 2494 4147 2053 4147 
L 1259 4147 
z
M 628 4666 
L 2053 4666 
Q 2838 4666 3239 4311 
Q 3641 3956 3641 3272 
Q 3641 2581 3239 2228 
Q 2838 1875 2053 1875 
L 1259 1875 
L 1259 0 
L 628 0 
L 628 4666 
z
" transform="scale(0.015625)"/>
      <path id="DejaVuSans-4c" d="M 628 4666 
L 1259 4666 
L 1259 531 
L 3531 531 
L 3531 0 
L 628 0 
L 628 4666 
z
" transform="scale(0.015625)"/>
      <path id="DejaVuSans-6e" d="M 3513 2113 
L 3513 0 
L 2938 0 
L 2938 2094 
Q 2938 2591 2744 2837 
Q 2550 3084 2163 3084 
Q 1697 3084 1428 2787 
Q 1159 2491 1159 1978 
L 1159 0 
L 581 0 
L 581 3500 
L 1159 3500 
L 1159 2956 
Q 1366 3272 1645 3428 
Q 1925 3584 2291 3584 
Q 2894 3584 3203 3211 
Q 3513 2838 3513 2113 
z
" transform="scale(0.015625)"/>
      <path id="DejaVuSans-43" d="M 4122 4306 
L 4122 3641 
Q 3803 3938 3442 4084 
Q 3081 4231 2675 4231 
Q 1875 4231 1450 3742 
Q 1025 3253 1025 2328 
Q 1025 1406 1450 917 
Q 1875 428 2675 428 
Q 3081 428 3442 575 
Q 3803 722 4122 1019 
L 4122 359 
Q 3791 134 3420 21 
Q 3050 -91 2638 -91 
Q 1578 -91 968 557 
Q 359 1206 359 2328 
Q 359 3453 968 4101 
Q 1578 4750 2638 4750 
Q 3056 4750 3426 4639 
Q 3797 4528 4122 4306 
z
" transform="scale(0.015625)"/>
      <path id="DejaVuSans-67" d="M 2906 1791 
Q 2906 2416 2648 2759 
Q 2391 3103 1925 3103 
Q 1463 3103 1205 2759 
Q 947 2416 947 1791 
Q 947 1169 1205 825 
Q 1463 481 1925 481 
Q 2391 481 2648 825 
Q 2906 1169 2906 1791 
z
M 3481 434 
Q 3481 -459 3084 -895 
Q 2688 -1331 1869 -1331 
Q 1566 -1331 1297 -1286 
Q 1028 -1241 775 -1147 
L 775 -588 
Q 1028 -725 1275 -790 
Q 1522 -856 1778 -856 
Q 2344 -856 2625 -561 
Q 2906 -266 2906 331 
L 2906 616 
Q 2728 306 2450 153 
Q 2172 0 1784 0 
Q 1141 0 747 490 
Q 353 981 353 1791 
Q 353 2603 747 3093 
Q 1141 3584 1784 3584 
Q 2172 3584 2450 3431 
Q 2728 3278 2906 2969 
L 2906 3500 
L 3481 3500 
L 3481 434 
z
" transform="scale(0.015625)"/>
      <path id="DejaVuSans-3a" d="M 750 794 
L 1409 794 
L 1409 0 
L 750 0 
L 750 794 
z
M 750 3309 
L 1409 3309 
L 1409 2516 
L 750 2516 
L 750 3309 
z
" transform="scale(0.015625)"/>
      <path id="DejaVuSans-56" d="M 1831 0 
L 50 4666 
L 709 4666 
L 2188 738 
L 3669 4666 
L 4325 4666 
L 2547 0 
L 1831 0 
z
" transform="scale(0.015625)"/>
      <path id="DejaVuSans-64" d="M 2906 2969 
L 2906 4863 
L 3481 4863 
L 3481 0 
L 2906 0 
L 2906 525 
Q 2725 213 2448 61 
Q 2172 -91 1784 -91 
Q 1150 -91 751 415 
Q 353 922 353 1747 
Q 353 2572 751 3078 
Q 1150 3584 1784 3584 
Q 2172 3584 2448 3432 
Q 2725 3281 2906 2969 
z
M 947 1747 
Q 947 1113 1208 752 
Q 1469 391 1925 391 
Q 2381 391 2643 752 
Q 2906 1113 2906 1747 
Q 2906 2381 2643 2742 
Q 2381 3103 1925 3103 
Q 1469 3103 1208 2742 
Q 947 2381 947 1747 
z
" transform="scale(0.015625)"/>
     </defs>
     <use xlink:href="#DejaVuSans-4e"/>
     <use xlink:href="#DejaVuSans-75" x="74.804688"/>
     <use xlink:href="#DejaVuSans-6d" x="138.183594"/>
     <use xlink:href="#DejaVuSans-62" x="235.595703"/>
     <use xlink:href="#DejaVuSans-65" x="299.072266"/>
     <use xlink:href="#DejaVuSans-72" x="360.595703"/>
     <use xlink:href="#DejaVuSans-20" x="401.708984"/>
     <use xlink:href="#DejaVuSans-6f" x="433.496094"/>
     <use xlink:href="#DejaVuSans-66" x="494.677734"/>
     <use xlink:href="#DejaVuSans-20" x="529.882812"/>
     <use xlink:href="#DejaVuSans-41" x="561.669922"/>
     <use xlink:href="#DejaVuSans-72" x="630.078125"/>
     <use xlink:href="#DejaVuSans-74" x="671.191406"/>
     <use xlink:href="#DejaVuSans-69" x="710.400391"/>
     <use xlink:href="#DejaVuSans-63" x="738.183594"/>
     <use xlink:href="#DejaVuSans-6c" x="793.164062"/>
     <use xlink:href="#DejaVuSans-65" x="820.947266"/>
     <use xlink:href="#DejaVuSans-73" x="882.470703"/>
     <use xlink:href="#DejaVuSans-20" x="934.570312"/>
     <use xlink:href="#DejaVuSans-62" x="966.357422"/>
     <use xlink:href="#DejaVuSans-79" x="1029.833984"/>
     <use xlink:href="#DejaVuSans-20" x="1089.013672"/>
     <use xlink:href="#DejaVuSans-4d" x="1120.800781"/>
     <use xlink:href="#DejaVuSans-61" x="1207.080078"/>
     <use xlink:href="#DejaVuSans-78" x="1268.359375"/>
     <use xlink:href="#DejaVuSans-69" x="1327.539062"/>
     <use xlink:href="#DejaVuSans-6d" x="1355.322266"/>
     <use xlink:href="#DejaVuSans-75" x="1452.734375"/>
     <use xlink:href="#DejaVuSans-6d" x="1516.113281"/>
     <use xlink:href="#DejaVuSans-20" x="1613.525391"/>
     <use xlink:href="#DejaVuSans-50" x="1645.3125"/>
     <use xlink:href="#DejaVuSans-6f" x="1701.990234"/>
     <use xlink:href="#DejaVuSans-6c" x="1763.171875"/>
     <use xlink:href="#DejaVuSans-69" x="1790.955078"/>
     <use xlink:href="#DejaVuSans-74" x="1818.738281"/>
     <use xlink:href="#DejaVuSans-69" x="1857.947266"/>
     <use xlink:href="#DejaVuSans-63" x="1885.730469"/>
     <use xlink:href="#DejaVuSans-61" x="1940.710938"/>
     <use xlink:href="#DejaVuSans-6c" x="2001.990234"/>
     <use xlink:href="#DejaVuSans-20" x="2029.773438"/>
     <use xlink:href="#DejaVuSans-4c" x="2061.560547"/>
     <use xlink:href="#DejaVuSans-65" x="2115.523438"/>
     <use xlink:href="#DejaVuSans-61" x="2177.046875"/>
     <use xlink:href="#DejaVuSans-6e" x="2238.326172"/>
     <use xlink:href="#DejaVuSans-20" x="2301.705078"/>
     <use xlink:href="#DejaVuSans-43" x="2333.492188"/>
     <use xlink:href="#DejaVuSans-61" x="2403.316406"/>
     <use xlink:href="#DejaVuSans-74" x="2464.595703"/>
     <use xlink:href="#DejaVuSans-65" x="2503.804688"/>
     <use xlink:href="#DejaVuSans-67" x="2565.328125"/>
     <use xlink:href="#DejaVuSans-6f" x="2628.804688"/>
     <use xlink:href="#DejaVuSans-72" x="2689.986328"/>
     <use xlink:href="#DejaVuSans-79" x="2731.099609"/>
     <use xlink:href="#DejaVuSans-3a" x="2783.029297"/>
     <use xlink:href="#DejaVuSans-20" x="2816.720703"/>
     <use xlink:href="#DejaVuSans-56" x="2848.507812"/>
     <use xlink:href="#DejaVuSans-6c" x="2916.916016"/>
     <use xlink:href="#DejaVuSans-61" x="2944.699219"/>
     <use xlink:href="#DejaVuSans-64" x="3005.978516"/>
     <use xlink:href="#DejaVuSans-69" x="3069.455078"/>
     <use xlink:href="#DejaVuSans-6d" x="3097.238281"/>
     <use xlink:href="#DejaVuSans-69" x="3194.650391"/>
     <use xlink:href="#DejaVuSans-72" x="3222.433594"/>
     <use xlink:href="#DejaVuSans-20" x="3263.546875"/>
     <use xlink:href="#DejaVuSans-50" x="3295.333984"/>
     <use xlink:href="#DejaVuSans-75" x="3353.886719"/>
     <use xlink:href="#DejaVuSans-74" x="3417.265625"/>
     <use xlink:href="#DejaVuSans-69" x="3456.474609"/>
     <use xlink:href="#DejaVuSans-6e" x="3484.257812"/>
    </g>
   </g>
   <g id="legend_1">
    <g id="patch_69">
     <path d="M 913.325 93.5925 
L 990.2 93.5925 
Q 992.2 93.5925 992.2 91.5925 
L 992.2 33.88 
Q 992.2 31.88 990.2 31.88 
L 913.325 31.88 
Q 911.325 31.88 911.325 33.88 
L 911.325 91.5925 
Q 911.325 93.5925 913.325 93.5925 
z
" style="fill: #ffffff; opacity: 0.8; stroke: #cccccc; stroke-linejoin: miter"/>
    </g>
    <g id="text_32">
     <!-- Lean Category -->
     <g transform="translate(915.325 43.478438) scale(0.1 -0.1)">
      <use xlink:href="#DejaVuSans-4c"/>
      <use xlink:href="#DejaVuSans-65" x="53.962891"/>
      <use xlink:href="#DejaVuSans-61" x="115.486328"/>
      <use xlink:href="#DejaVuSans-6e" x="176.765625"/>
      <use xlink:href="#DejaVuSans-20" x="240.144531"/>
      <use xlink:href="#DejaVuSans-43" x="271.931641"/>
      <use xlink:href="#DejaVuSans-61" x="341.755859"/>
      <use xlink:href="#DejaVuSans-74" x="403.035156"/>
      <use xlink:href="#DejaVuSans-65" x="442.244141"/>
      <use xlink:href="#DejaVuSans-67" x="503.767578"/>
      <use xlink:href="#DejaVuSans-6f" x="567.244141"/>
      <use xlink:href="#DejaVuSans-72" x="628.425781"/>
      <use xlink:href="#DejaVuSans-79" x="669.539062"/>
     </g>
    </g>
    <g id="patch_70">
     <path d="M 920.933594 58.156563 
L 940.933594 58.156563 
L 940.933594 51.156563 
L 920.933594 51.156563 
z
" style="fill: #2020df"/>
    </g>
    <g id="text_33">
     <!-- Center -->
     <g transform="translate(948.933594 58.156563) scale(0.1 -0.1)">
      <use xlink:href="#DejaVuSans-43"/>
      <use xlink:href="#DejaVuSans-65" x="69.824219"/>
      <use xlink:href="#DejaVuSans-6e" x="131.347656"/>
      <use xlink:href="#DejaVuSans-74" x="194.726562"/>
      <use xlink:href="#DejaVuSans-65" x="233.935547"/>
      <use xlink:href="#DejaVuSans-72" x="295.458984"/>
     </g>
    </g>
    <g id="patch_71">
     <path d="M 920.933594 72.834688 
L 940.933594 72.834688 
L 940.933594 65.834688 
L 920.933594 65.834688 
z
" style="fill: #107010"/>
    </g>
    <g id="text_34">
     <!-- Left -->
     <g transform="translate(948.933594 72.834688) scale(0.1 -0.1)">
      <use xlink:href="#DejaVuSans-4c"/>
      <use xlink:href="#DejaVuSans-65" x="53.962891"/>
      <use xlink:href="#DejaVuSans-66" x="115.486328"/>
      <use xlink:href="#DejaVuSans-74" x="148.941406"/>
     </g>
    </g>
    <g id="patch_72">
     <path d="M 920.933594 87.512813 
L 940.933594 87.512813 
L 940.933594 80.512813 
L 920.933594 80.512813 
z
" style="fill: #df2020"/>
    </g>
    <g id="text_35">
     <!-- Right -->
     <g transform="translate(948.933594 87.512813) scale(0.1 -0.1)">
      <defs>
       <path id="DejaVuSans-52" d="M 2841 2188 
Q 3044 2119 3236 1894 
Q 3428 1669 3622 1275 
L 4263 0 
L 3584 0 
L 2988 1197 
Q 2756 1666 2539 1819 
Q 2322 1972 1947 1972 
L 1259 1972 
L 1259 0 
L 628 0 
L 628 4666 
L 2053 4666 
Q 2853 4666 3247 4331 
Q 3641 3997 3641 3322 
Q 3641 2881 3436 2590 
Q 3231 2300 2841 2188 
z
M 1259 4147 
L 1259 2491 
L 2053 2491 
Q 2509 2491 2742 2702 
Q 2975 2913 2975 3322 
Q 2975 3731 2742 3939 
Q 2509 4147 2053 4147 
L 1259 4147 
z
" transform="scale(0.015625)"/>
       <path id="DejaVuSans-68" d="M 3513 2113 
L 3513 0 
L 2938 0 
L 2938 2094 
Q 2938 2591 2744 2837 
Q 2550 3084 2163 3084 
Q 1697 3084 1428 2787 
Q 1159 2491 1159 1978 
L 1159 0 
L 581 0 
L 581 4863 
L 1159 4863 
L 1159 2956 
Q 1366 3272 1645 3428 
Q 1925 3584 2291 3584 
Q 2894 3584 3203 3211 
Q 3513 2838 3513 2113 
z
" transform="scale(0.015625)"/>
      </defs>
      <use xlink:href="#DejaVuSans-52"/>
      <use xlink:href="#DejaVuSans-69" x="69.482422"/>
      <use xlink:href="#DejaVuSans-67" x="97.265625"/>
      <use xlink:href="#DejaVuSans-68" x="160.742188"/>
      <use xlink:href="#DejaVuSans-74" x="224.121094"/>
     </g>
    </g>
   </g>
  </g>
  <g id="axes_2">
   <g id="patch_73">
    <path d="M 50.87 822.04 
L 997.2 822.04 
L 997.2 453.48 
L 50.87 453.48 
z
" style="fill: #ffffff"/>
   </g>
   <g id="patch_74">
    <path d="M 55.850684 822.04 
L 69.132509 822.04 
L 69.132509 816.189841 
L 55.850684 816.189841 
z
" clip-path="url(#p3f443b5e67)" style="fill: #2020df"/>
   </g>
   <g id="patch_75">
    <path d="M 105.657526 822.04 
L 118.939351 822.04 
L 118.939351 763.538413 
L 105.657526 763.538413 
z
" clip-path="url(#p3f443b5e67)" style="fill: #2020df"/>
   </g>
   <g id="patch_76">
    <path d="M 155.464368 822.04 
L 168.746193 822.04 
L 168.746193 745.987937 
L 155.464368 745.987937 
z
" clip-path="url(#p3f443b5e67)" style="fill: #2020df"/>
   </g>
   <g id="patch_77">
    <path d="M 205.271211 822.04 
L 218.553035 822.04 
L 218.553035 781.088889 
L 205.271211 781.088889 
z
" clip-path="url(#p3f443b5e67)" style="fill: #2020df"/>
   </g>
   <g id="patch_78">
    <path d="M 255.078053 822.04 
L 268.359877 822.04 
L 268.359877 781.088889 
L 255.078053 781.088889 
z
" clip-path="url(#p3f443b5e67)" style="fill: #2020df"/>
   </g>
   <g id="patch_79">
    <path d="M 304.884895 822.04 
L 318.166719 822.04 
L 318.166719 786.939048 
L 304.884895 786.939048 
z
" clip-path="url(#p3f443b5e67)" style="fill: #2020df"/>
   </g>
   <g id="patch_80">
    <path d="M 354.691737 822.04 
L 367.973561 822.04 
L 367.973561 769.388571 
L 354.691737 769.388571 
z
" clip-path="url(#p3f443b5e67)" style="fill: #2020df"/>
   </g>
   <g id="patch_81">
    <path d="M 404.498579 822.04 
L 417.780404 822.04 
L 417.780404 751.838095 
L 404.498579 751.838095 
z
" clip-path="url(#p3f443b5e67)" style="fill: #2020df"/>
   </g>
   <g id="patch_82">
    <path d="M 454.305421 822.04 
L 467.587246 822.04 
L 467.587246 681.63619 
L 454.305421 681.63619 
z
" clip-path="url(#p3f443b5e67)" style="fill: #2020df"/>
   </g>
   <g id="patch_83">
    <path d="M 504.112263 822.04 
L 517.394088 822.04 
L 517.394088 611.434286 
L 504.112263 611.434286 
z
" clip-path="url(#p3f443b5e67)" style="fill: #2020df"/>
   </g>
   <g id="patch_84">
    <path d="M 553.919105 822.04 
L 567.20093 822.04 
L 567.20093 582.183492 
L 553.919105 582.183492 
z
" clip-path="url(#p3f443b5e67)" style="fill: #2020df"/>
   </g>
   <g id="patch_85">
    <path d="M 603.725947 822.04 
L 617.007772 822.04 
L 617.007772 511.981587 
L 603.725947 511.981587 
z
" clip-path="url(#p3f443b5e67)" style="fill: #2020df"/>
   </g>
   <g id="patch_86">
    <path d="M 653.532789 822.04 
L 666.814614 822.04 
L 666.814614 634.834921 
L 653.532789 634.834921 
z
" clip-path="url(#p3f443b5e67)" style="fill: #2020df"/>
   </g>
   <g id="patch_87">
    <path d="M 703.339632 822.04 
L 716.621456 822.04 
L 716.621456 722.587302 
L 703.339632 722.587302 
z
" clip-path="url(#p3f443b5e67)" style="fill: #2020df"/>
   </g>
   <g id="patch_88">
    <path d="M 802.953316 822.04 
L 816.23514 822.04 
L 816.23514 775.23873 
L 802.953316 775.23873 
z
" clip-path="url(#p3f443b5e67)" style="fill: #2020df"/>
   </g>
   <g id="patch_89">
    <path d="M 852.760158 822.04 
L 866.041982 822.04 
L 866.041982 716.737143 
L 852.760158 716.737143 
z
" clip-path="url(#p3f443b5e67)" style="fill: #2020df"/>
   </g>
   <g id="patch_90">
    <path d="M 902.567 822.04 
L 915.848825 822.04 
L 915.848825 617.284444 
L 902.567 617.284444 
z
" clip-path="url(#p3f443b5e67)" style="fill: #2020df"/>
   </g>
   <g id="patch_91">
    <path d="M 952.373842 822.04 
L 965.655667 822.04 
L 965.655667 646.535238 
L 952.373842 646.535238 
z
" clip-path="url(#p3f443b5e67)" style="fill: #2020df"/>
   </g>
   <g id="patch_92">
    <path d="M 69.132509 822.04 
L 82.414333 822.04 
L 82.414333 810.339683 
L 69.132509 810.339683 
z
" clip-path="url(#p3f443b5e67)" style="fill: #107010"/>
   </g>
   <g id="patch_93">
    <path d="M 118.939351 822.04 
L 132.221175 822.04 
L 132.221175 740.137778 
L 118.939351 740.137778 
z
" clip-path="url(#p3f443b5e67)" style="fill: #107010"/>
   </g>
   <g id="patch_94">
    <path d="M 168.746193 822.04 
L 182.028018 822.04 
L 182.028018 634.834921 
L 168.746193 634.834921 
z
" clip-path="url(#p3f443b5e67)" style="fill: #107010"/>
   </g>
   <g id="patch_95">
    <path d="M 218.553035 822.04 
L 231.83486 822.04 
L 231.83486 605.584127 
L 218.553035 605.584127 
z
" clip-path="url(#p3f443b5e67)" style="fill: #107010"/>
   </g>
   <g id="patch_96">
    <path d="M 268.359877 822.04 
L 281.641702 822.04 
L 281.641702 640.685079 
L 268.359877 640.685079 
z
" clip-path="url(#p3f443b5e67)" style="fill: #107010"/>
   </g>
   <g id="patch_97">
    <path d="M 318.166719 822.04 
L 331.448544 822.04 
L 331.448544 716.737143 
L 318.166719 716.737143 
z
" clip-path="url(#p3f443b5e67)" style="fill: #107010"/>
   </g>
   <g id="patch_98">
    <path d="M 367.973561 822.04 
L 381.255386 822.04 
L 381.255386 734.287619 
L 367.973561 734.287619 
z
" clip-path="url(#p3f443b5e67)" style="fill: #107010"/>
   </g>
   <g id="patch_99">
    <path d="M 417.780404 822.04 
L 431.062228 822.04 
L 431.062228 751.838095 
L 417.780404 751.838095 
z
" clip-path="url(#p3f443b5e67)" style="fill: #107010"/>
   </g>
   <g id="patch_100">
    <path d="M 467.587246 822.04 
L 480.86907 822.04 
L 480.86907 681.63619 
L 467.587246 681.63619 
z
" clip-path="url(#p3f443b5e67)" style="fill: #107010"/>
   </g>
   <g id="patch_101">
    <path d="M 517.394088 822.04 
L 530.675912 822.04 
L 530.675912 681.63619 
L 517.394088 681.63619 
z
" clip-path="url(#p3f443b5e67)" style="fill: #107010"/>
   </g>
   <g id="patch_102">
    <path d="M 567.20093 822.04 
L 580.482754 822.04 
L 580.482754 693.336508 
L 567.20093 693.336508 
z
" clip-path="url(#p3f443b5e67)" style="fill: #107010"/>
   </g>
   <g id="patch_103">
    <path d="M 617.007772 822.04 
L 630.289596 822.04 
L 630.289596 710.886984 
L 617.007772 710.886984 
z
" clip-path="url(#p3f443b5e67)" style="fill: #107010"/>
   </g>
   <g id="patch_104">
    <path d="M 666.814614 822.04 
L 680.096439 822.04 
L 680.096439 664.085714 
L 666.814614 664.085714 
z
" clip-path="url(#p3f443b5e67)" style="fill: #107010"/>
   </g>
   <g id="patch_105">
    <path d="M 716.621456 822.04 
L 729.903281 822.04 
L 729.903281 599.733968 
L 716.621456 599.733968 
z
" clip-path="url(#p3f443b5e67)" style="fill: #107010"/>
   </g>
   <g id="patch_106">
    <path d="M 766.428298 822.04 
L 779.710123 822.04 
L 779.710123 471.030476 
L 766.428298 471.030476 
z
" clip-path="url(#p3f443b5e67)" style="fill: #107010"/>
   </g>
   <g id="patch_107">
    <path d="M 816.23514 822.04 
L 829.516965 822.04 
L 829.516965 517.831746 
L 816.23514 517.831746 
z
" clip-path="url(#p3f443b5e67)" style="fill: #107010"/>
   </g>
   <g id="patch_108">
    <path d="M 866.041982 822.04 
L 879.323807 822.04 
L 879.323807 547.08254 
L 866.041982 547.08254 
z
" clip-path="url(#p3f443b5e67)" style="fill: #107010"/>
   </g>
   <g id="patch_109">
    <path d="M 915.848825 822.04 
L 929.130649 822.04 
L 929.130649 511.981587 
L 915.848825 511.981587 
z
" clip-path="url(#p3f443b5e67)" style="fill: #107010"/>
   </g>
   <g id="patch_110">
    <path d="M 965.655667 822.04 
L 978.937491 822.04 
L 978.937491 529.532063 
L 965.655667 529.532063 
z
" clip-path="url(#p3f443b5e67)" style="fill: #107010"/>
   </g>
   <g id="patch_111">
    <path d="M 480.86907 822.04 
L 494.150895 822.04 
L 494.150895 716.737143 
L 480.86907 716.737143 
z
" clip-path="url(#p3f443b5e67)" style="fill: #df2020"/>
   </g>
   <g id="patch_112">
    <path d="M 530.675912 822.04 
L 543.957737 822.04 
L 543.957737 716.737143 
L 530.675912 716.737143 
z
" clip-path="url(#p3f443b5e67)" style="fill: #df2020"/>
   </g>
   <g id="patch_113">
    <path d="M 580.482754 822.04 
L 593.764579 822.04 
L 593.764579 675.786032 
L 580.482754 675.786032 
z
" clip-path="url(#p3f443b5e67)" style="fill: #df2020"/>
   </g>
   <g id="patch_114">
    <path d="M 630.289596 822.04 
L 643.571421 822.04 
L 643.571421 693.336508 
L 630.289596 693.336508 
z
" clip-path="url(#p3f443b5e67)" style="fill: #df2020"/>
   </g>
   <g id="patch_115">
    <path d="M 680.096439 822.04 
L 693.378263 822.04 
L 693.378263 675.786032 
L 680.096439 675.786032 
z
" clip-path="url(#p3f443b5e67)" style="fill: #df2020"/>
   </g>
   <g id="patch_116">
    <path d="M 729.903281 822.04 
L 743.185105 822.04 
L 743.185105 652.385397 
L 729.903281 652.385397 
z
" clip-path="url(#p3f443b5e67)" style="fill: #df2020"/>
   </g>
   <g id="patch_117">
    <path d="M 779.710123 822.04 
L 792.991947 822.04 
L 792.991947 681.63619 
L 779.710123 681.63619 
z
" clip-path="url(#p3f443b5e67)" style="fill: #df2020"/>
   </g>
   <g id="patch_118">
    <path d="M 829.516965 822.04 
L 842.798789 822.04 
L 842.798789 681.63619 
L 829.516965 681.63619 
z
" clip-path="url(#p3f443b5e67)" style="fill: #df2020"/>
   </g>
   <g id="patch_119">
    <path d="M 879.323807 822.04 
L 892.605632 822.04 
L 892.605632 699.186667 
L 879.323807 699.186667 
z
" clip-path="url(#p3f443b5e67)" style="fill: #df2020"/>
   </g>
   <g id="patch_120">
    <path d="M 929.130649 822.04 
L 942.412474 822.04 
L 942.412474 775.23873 
L 929.130649 775.23873 
z
" clip-path="url(#p3f443b5e67)" style="fill: #df2020"/>
   </g>
   <g id="patch_121">
    <path d="M 75.773421 822.04 
L 75.773421 822.04 
L 75.773421 822.04 
L 75.773421 822.04 
z
" clip-path="url(#p3f443b5e67)" style="fill: #2020df"/>
   </g>
   <g id="patch_122">
    <path d="M 75.773421 822.04 
L 75.773421 822.04 
L 75.773421 822.04 
L 75.773421 822.04 
z
" clip-path="url(#p3f443b5e67)" style="fill: #107010"/>
   </g>
   <g id="patch_123">
    <path d="M 75.773421 822.04 
L 75.773421 822.04 
L 75.773421 822.04 
L 75.773421 822.04 
z
" clip-path="url(#p3f443b5e67)" style="fill: #df2020"/>
   </g>
   <g id="matplotlib.axis_3">
    <g id="xtick_22">
     <g id="line2d_29">
      <g>
       <use xlink:href="#m6c2a89f5df" x="75.773421" y="822.04" style="stroke: #000000; stroke-width: 0.8"/>
      </g>
     </g>
     <g id="text_36">
      <!-- 2006 -->
      <g transform="translate(63.048421 836.638437) scale(0.1 -0.1)">
       <use xlink:href="#DejaVuSans-32"/>
       <use xlink:href="#DejaVuSans-30" x="63.623047"/>
       <use xlink:href="#DejaVuSans-30" x="127.246094"/>
       <use xlink:href="#DejaVuSans-36" x="190.869141"/>
      </g>
     </g>
    </g>
    <g id="xtick_23">
     <g id="line2d_30">
      <g>
       <use xlink:href="#m6c2a89f5df" x="125.580263" y="822.04" style="stroke: #000000; stroke-width: 0.8"/>
      </g>
     </g>
     <g id="text_37">
      <!-- 2007 -->
      <g transform="translate(112.855263 836.638437) scale(0.1 -0.1)">
       <use xlink:href="#DejaVuSans-32"/>
       <use xlink:href="#DejaVuSans-30" x="63.623047"/>
       <use xlink:href="#DejaVuSans-30" x="127.246094"/>
       <use xlink:href="#DejaVuSans-37" x="190.869141"/>
      </g>
     </g>
    </g>
    <g id="xtick_24">
     <g id="line2d_31">
      <g>
       <use xlink:href="#m6c2a89f5df" x="175.387105" y="822.04" style="stroke: #000000; stroke-width: 0.8"/>
      </g>
     </g>
     <g id="text_38">
      <!-- 2008 -->
      <g transform="translate(162.662105 836.638437) scale(0.1 -0.1)">
       <use xlink:href="#DejaVuSans-32"/>
       <use xlink:href="#DejaVuSans-30" x="63.623047"/>
       <use xlink:href="#DejaVuSans-30" x="127.246094"/>
       <use xlink:href="#DejaVuSans-38" x="190.869141"/>
      </g>
     </g>
    </g>
    <g id="xtick_25">
     <g id="line2d_32">
      <g>
       <use xlink:href="#m6c2a89f5df" x="225.193947" y="822.04" style="stroke: #000000; stroke-width: 0.8"/>
      </g>
     </g>
     <g id="text_39">
      <!-- 2009 -->
      <g transform="translate(212.468947 836.638437) scale(0.1 -0.1)">
       <use xlink:href="#DejaVuSans-32"/>
       <use xlink:href="#DejaVuSans-30" x="63.623047"/>
       <use xlink:href="#DejaVuSans-30" x="127.246094"/>
       <use xlink:href="#DejaVuSans-39" x="190.869141"/>
      </g>
     </g>
    </g>
    <g id="xtick_26">
     <g id="line2d_33">
      <g>
       <use xlink:href="#m6c2a89f5df" x="275.000789" y="822.04" style="stroke: #000000; stroke-width: 0.8"/>
      </g>
     </g>
     <g id="text_40">
      <!-- 2010 -->
      <g transform="translate(262.275789 836.638437) scale(0.1 -0.1)">
       <use xlink:href="#DejaVuSans-32"/>
       <use xlink:href="#DejaVuSans-30" x="63.623047"/>
       <use xlink:href="#DejaVuSans-31" x="127.246094"/>
       <use xlink:href="#DejaVuSans-30" x="190.869141"/>
      </g>
     </g>
    </g>
    <g id="xtick_27">
     <g id="line2d_34">
      <g>
       <use xlink:href="#m6c2a89f5df" x="324.807632" y="822.04" style="stroke: #000000; stroke-width: 0.8"/>
      </g>
     </g>
     <g id="text_41">
      <!-- 2011 -->
      <g transform="translate(312.082632 836.638437) scale(0.1 -0.1)">
       <use xlink:href="#DejaVuSans-32"/>
       <use xlink:href="#DejaVuSans-30" x="63.623047"/>
       <use xlink:href="#DejaVuSans-31" x="127.246094"/>
       <use xlink:href="#DejaVuSans-31" x="190.869141"/>
      </g>
     </g>
    </g>
    <g id="xtick_28">
     <g id="line2d_35">
      <g>
       <use xlink:href="#m6c2a89f5df" x="374.614474" y="822.04" style="stroke: #000000; stroke-width: 0.8"/>
      </g>
     </g>
     <g id="text_42">
      <!-- 2012 -->
      <g transform="translate(361.889474 836.638437) scale(0.1 -0.1)">
       <use xlink:href="#DejaVuSans-32"/>
       <use xlink:href="#DejaVuSans-30" x="63.623047"/>
       <use xlink:href="#DejaVuSans-31" x="127.246094"/>
       <use xlink:href="#DejaVuSans-32" x="190.869141"/>
      </g>
     </g>
    </g>
    <g id="xtick_29">
     <g id="line2d_36">
      <g>
       <use xlink:href="#m6c2a89f5df" x="424.421316" y="822.04" style="stroke: #000000; stroke-width: 0.8"/>
      </g>
     </g>
     <g id="text_43">
      <!-- 2013 -->
      <g transform="translate(411.696316 836.638437) scale(0.1 -0.1)">
       <use xlink:href="#DejaVuSans-32"/>
       <use xlink:href="#DejaVuSans-30" x="63.623047"/>
       <use xlink:href="#DejaVuSans-31" x="127.246094"/>
       <use xlink:href="#DejaVuSans-33" x="190.869141"/>
      </g>
     </g>
    </g>
    <g id="xtick_30">
     <g id="line2d_37">
      <g>
       <use xlink:href="#m6c2a89f5df" x="474.228158" y="822.04" style="stroke: #000000; stroke-width: 0.8"/>
      </g>
     </g>
     <g id="text_44">
      <!-- 2014 -->
      <g transform="translate(461.503158 836.638437) scale(0.1 -0.1)">
       <use xlink:href="#DejaVuSans-32"/>
       <use xlink:href="#DejaVuSans-30" x="63.623047"/>
       <use xlink:href="#DejaVuSans-31" x="127.246094"/>
       <use xlink:href="#DejaVuSans-34" x="190.869141"/>
      </g>
     </g>
    </g>
    <g id="xtick_31">
     <g id="line2d_38">
      <g>
       <use xlink:href="#m6c2a89f5df" x="524.035" y="822.04" style="stroke: #000000; stroke-width: 0.8"/>
      </g>
     </g>
     <g id="text_45">
      <!-- 2015 -->
      <g transform="translate(511.31 836.638437) scale(0.1 -0.1)">
       <use xlink:href="#DejaVuSans-32"/>
       <use xlink:href="#DejaVuSans-30" x="63.623047"/>
       <use xlink:href="#DejaVuSans-31" x="127.246094"/>
       <use xlink:href="#DejaVuSans-35" x="190.869141"/>
      </g>
     </g>
    </g>
    <g id="xtick_32">
     <g id="line2d_39">
      <g>
       <use xlink:href="#m6c2a89f5df" x="573.841842" y="822.04" style="stroke: #000000; stroke-width: 0.8"/>
      </g>
     </g>
     <g id="text_46">
      <!-- 2016 -->
      <g transform="translate(561.116842 836.638437) scale(0.1 -0.1)">
       <use xlink:href="#DejaVuSans-32"/>
       <use xlink:href="#DejaVuSans-30" x="63.623047"/>
       <use xlink:href="#DejaVuSans-31" x="127.246094"/>
       <use xlink:href="#DejaVuSans-36" x="190.869141"/>
      </g>
     </g>
    </g>
    <g id="xtick_33">
     <g id="line2d_40">
      <g>
       <use xlink:href="#m6c2a89f5df" x="623.648684" y="822.04" style="stroke: #000000; stroke-width: 0.8"/>
      </g>
     </g>
     <g id="text_47">
      <!-- 2017 -->
      <g transform="translate(610.923684 836.638437) scale(0.1 -0.1)">
       <use xlink:href="#DejaVuSans-32"/>
       <use xlink:href="#DejaVuSans-30" x="63.623047"/>
       <use xlink:href="#DejaVuSans-31" x="127.246094"/>
       <use xlink:href="#DejaVuSans-37" x="190.869141"/>
      </g>
     </g>
    </g>
    <g id="xtick_34">
     <g id="line2d_41">
      <g>
       <use xlink:href="#m6c2a89f5df" x="673.455526" y="822.04" style="stroke: #000000; stroke-width: 0.8"/>
      </g>
     </g>
     <g id="text_48">
      <!-- 2018 -->
      <g transform="translate(660.730526 836.638437) scale(0.1 -0.1)">
       <use xlink:href="#DejaVuSans-32"/>
       <use xlink:href="#DejaVuSans-30" x="63.623047"/>
       <use xlink:href="#DejaVuSans-31" x="127.246094"/>
       <use xlink:href="#DejaVuSans-38" x="190.869141"/>
      </g>
     </g>
    </g>
    <g id="xtick_35">
     <g id="line2d_42">
      <g>
       <use xlink:href="#m6c2a89f5df" x="723.262368" y="822.04" style="stroke: #000000; stroke-width: 0.8"/>
      </g>
     </g>
     <g id="text_49">
      <!-- 2019 -->
      <g transform="translate(710.537368 836.638437) scale(0.1 -0.1)">
       <use xlink:href="#DejaVuSans-32"/>
       <use xlink:href="#DejaVuSans-30" x="63.623047"/>
       <use xlink:href="#DejaVuSans-31" x="127.246094"/>
       <use xlink:href="#DejaVuSans-39" x="190.869141"/>
      </g>
     </g>
    </g>
    <g id="xtick_36">
     <g id="line2d_43">
      <g>
       <use xlink:href="#m6c2a89f5df" x="773.069211" y="822.04" style="stroke: #000000; stroke-width: 0.8"/>
      </g>
     </g>
     <g id="text_50">
      <!-- 2020 -->
      <g transform="translate(760.344211 836.638437) scale(0.1 -0.1)">
       <use xlink:href="#DejaVuSans-32"/>
       <use xlink:href="#DejaVuSans-30" x="63.623047"/>
       <use xlink:href="#DejaVuSans-32" x="127.246094"/>
       <use xlink:href="#DejaVuSans-30" x="190.869141"/>
      </g>
     </g>
    </g>
    <g id="xtick_37">
     <g id="line2d_44">
      <g>
       <use xlink:href="#m6c2a89f5df" x="822.876053" y="822.04" style="stroke: #000000; stroke-width: 0.8"/>
      </g>
     </g>
     <g id="text_51">
      <!-- 2021 -->
      <g transform="translate(810.151053 836.638437) scale(0.1 -0.1)">
       <use xlink:href="#DejaVuSans-32"/>
       <use xlink:href="#DejaVuSans-30" x="63.623047"/>
       <use xlink:href="#DejaVuSans-32" x="127.246094"/>
       <use xlink:href="#DejaVuSans-31" x="190.869141"/>
      </g>
     </g>
    </g>
    <g id="xtick_38">
     <g id="line2d_45">
      <g>
       <use xlink:href="#m6c2a89f5df" x="872.682895" y="822.04" style="stroke: #000000; stroke-width: 0.8"/>
      </g>
     </g>
     <g id="text_52">
      <!-- 2022 -->
      <g transform="translate(859.957895 836.638437) scale(0.1 -0.1)">
       <use xlink:href="#DejaVuSans-32"/>
       <use xlink:href="#DejaVuSans-30" x="63.623047"/>
       <use xlink:href="#DejaVuSans-32" x="127.246094"/>
       <use xlink:href="#DejaVuSans-32" x="190.869141"/>
      </g>
     </g>
    </g>
    <g id="xtick_39">
     <g id="line2d_46">
      <g>
       <use xlink:href="#m6c2a89f5df" x="922.489737" y="822.04" style="stroke: #000000; stroke-width: 0.8"/>
      </g>
     </g>
     <g id="text_53">
      <!-- 2023 -->
      <g transform="translate(909.764737 836.638437) scale(0.1 -0.1)">
       <use xlink:href="#DejaVuSans-32"/>
       <use xlink:href="#DejaVuSans-30" x="63.623047"/>
       <use xlink:href="#DejaVuSans-32" x="127.246094"/>
       <use xlink:href="#DejaVuSans-33" x="190.869141"/>
      </g>
     </g>
    </g>
    <g id="xtick_40">
     <g id="line2d_47">
      <g>
       <use xlink:href="#m6c2a89f5df" x="972.296579" y="822.04" style="stroke: #000000; stroke-width: 0.8"/>
      </g>
     </g>
     <g id="text_54">
      <!-- 2024 -->
      <g transform="translate(959.571579 836.638437) scale(0.1 -0.1)">
       <use xlink:href="#DejaVuSans-32"/>
       <use xlink:href="#DejaVuSans-30" x="63.623047"/>
       <use xlink:href="#DejaVuSans-32" x="127.246094"/>
       <use xlink:href="#DejaVuSans-34" x="190.869141"/>
      </g>
     </g>
    </g>
    <g id="text_55">
     <!-- Year -->
     <g transform="translate(513.4475 850.316562) scale(0.1 -0.1)">
      <use xlink:href="#DejaVuSans-59"/>
      <use xlink:href="#DejaVuSans-65" x="47.833984"/>
      <use xlink:href="#DejaVuSans-61" x="109.357422"/>
      <use xlink:href="#DejaVuSans-72" x="170.636719"/>
     </g>
    </g>
   </g>
   <g id="matplotlib.axis_4">
    <g id="ytick_8">
     <g id="line2d_48">
      <g>
       <use xlink:href="#m365068c3b6" x="50.87" y="822.04" style="stroke: #000000; stroke-width: 0.8"/>
      </g>
     </g>
     <g id="text_56">
      <!-- 0 -->
      <g transform="translate(37.5075 825.839219) scale(0.1 -0.1)">
       <use xlink:href="#DejaVuSans-30"/>
      </g>
     </g>
    </g>
    <g id="ytick_9">
     <g id="line2d_49">
      <g>
       <use xlink:href="#m365068c3b6" x="50.87" y="763.538413" style="stroke: #000000; stroke-width: 0.8"/>
      </g>
     </g>
     <g id="text_57">
      <!-- 10 -->
      <g transform="translate(31.145 767.337631) scale(0.1 -0.1)">
       <use xlink:href="#DejaVuSans-31"/>
       <use xlink:href="#DejaVuSans-30" x="63.623047"/>
      </g>
     </g>
    </g>
    <g id="ytick_10">
     <g id="line2d_50">
      <g>
       <use xlink:href="#m365068c3b6" x="50.87" y="705.036825" style="stroke: #000000; stroke-width: 0.8"/>
      </g>
     </g>
     <g id="text_58">
      <!-- 20 -->
      <g transform="translate(31.145 708.836044) scale(0.1 -0.1)">
       <use xlink:href="#DejaVuSans-32"/>
       <use xlink:href="#DejaVuSans-30" x="63.623047"/>
      </g>
     </g>
    </g>
    <g id="ytick_11">
     <g id="line2d_51">
      <g>
       <use xlink:href="#m365068c3b6" x="50.87" y="646.535238" style="stroke: #000000; stroke-width: 0.8"/>
      </g>
     </g>
     <g id="text_59">
      <!-- 30 -->
      <g transform="translate(31.145 650.334457) scale(0.1 -0.1)">
       <use xlink:href="#DejaVuSans-33"/>
       <use xlink:href="#DejaVuSans-30" x="63.623047"/>
      </g>
     </g>
    </g>
    <g id="ytick_12">
     <g id="line2d_52">
      <g>
       <use xlink:href="#m365068c3b6" x="50.87" y="588.033651" style="stroke: #000000; stroke-width: 0.8"/>
      </g>
     </g>
     <g id="text_60">
      <!-- 40 -->
      <g transform="translate(31.145 591.83287) scale(0.1 -0.1)">
       <use xlink:href="#DejaVuSans-34"/>
       <use xlink:href="#DejaVuSans-30" x="63.623047"/>
      </g>
     </g>
    </g>
    <g id="ytick_13">
     <g id="line2d_53">
      <g>
       <use xlink:href="#m365068c3b6" x="50.87" y="529.532063" style="stroke: #000000; stroke-width: 0.8"/>
      </g>
     </g>
     <g id="text_61">
      <!-- 50 -->
      <g transform="translate(31.145 533.331282) scale(0.1 -0.1)">
       <use xlink:href="#DejaVuSans-35"/>
       <use xlink:href="#DejaVuSans-30" x="63.623047"/>
      </g>
     </g>
    </g>
    <g id="ytick_14">
     <g id="line2d_54">
      <g>
       <use xlink:href="#m365068c3b6" x="50.87" y="471.030476" style="stroke: #000000; stroke-width: 0.8"/>
      </g>
     </g>
     <g id="text_62">
      <!-- 60 -->
      <g transform="translate(31.145 474.829695) scale(0.1 -0.1)">
       <use xlink:href="#DejaVuSans-36"/>
       <use xlink:href="#DejaVuSans-30" x="63.623047"/>
      </g>
     </g>
    </g>
    <g id="text_63">
     <!-- Number of Articles -->
     <g transform="translate(25.065312 684.488125) rotate(-90) scale(0.1 -0.1)">
      <use xlink:href="#DejaVuSans-4e"/>
      <use xlink:href="#DejaVuSans-75" x="74.804688"/>
      <use xlink:href="#DejaVuSans-6d" x="138.183594"/>
      <use xlink:href="#DejaVuSans-62" x="235.595703"/>
      <use xlink:href="#DejaVuSans-65" x="299.072266"/>
      <use xlink:href="#DejaVuSans-72" x="360.595703"/>
      <use xlink:href="#DejaVuSans-20" x="401.708984"/>
      <use xlink:href="#DejaVuSans-6f" x="433.496094"/>
      <use xlink:href="#DejaVuSans-66" x="494.677734"/>
      <use xlink:href="#DejaVuSans-20" x="529.882812"/>
      <use xlink:href="#DejaVuSans-41" x="561.669922"/>
      <use xlink:href="#DejaVuSans-72" x="630.078125"/>
      <use xlink:href="#DejaVuSans-74" x="671.191406"/>
      <use xlink:href="#DejaVuSans-69" x="710.400391"/>
      <use xlink:href="#DejaVuSans-63" x="738.183594"/>
      <use xlink:href="#DejaVuSans-6c" x="793.164062"/>
      <use xlink:href="#DejaVuSans-65" x="820.947266"/>
      <use xlink:href="#DejaVuSans-73" x="882.470703"/>
     </g>
    </g>
   </g>
   <g id="patch_124">
    <path d="M 50.87 822.04 
L 50.87 453.48 
" style="fill: none; stroke: #000000; stroke-width: 0.8; stroke-linejoin: miter; stroke-linecap: square"/>
   </g>
   <g id="patch_125">
    <path d="M 997.2 822.04 
L 997.2 453.48 
" style="fill: none; stroke: #000000; stroke-width: 0.8; stroke-linejoin: miter; stroke-linecap: square"/>
   </g>
   <g id="patch_126">
    <path d="M 50.87 822.04 
L 997.2 822.04 
" style="fill: none; stroke: #000000; stroke-width: 0.8; stroke-linejoin: miter; stroke-linecap: square"/>
   </g>
   <g id="patch_127">
    <path d="M 50.87 453.48 
L 997.2 453.48 
" style="fill: none; stroke: #000000; stroke-width: 0.8; stroke-linejoin: miter; stroke-linecap: square"/>
   </g>
   <g id="text_64">
    <!-- Number of Articles by Maximum Political Lean Category: Xi Jinping -->
    <g transform="translate(325.114375 447.48) scale(0.12 -0.12)">
     <defs>
      <path id="DejaVuSans-58" d="M 403 4666 
L 1081 4666 
L 2241 2931 
L 3406 4666 
L 4084 4666 
L 2584 2425 
L 4184 0 
L 3506 0 
L 2194 1984 
L 872 0 
L 191 0 
L 1856 2491 
L 403 4666 
z
" transform="scale(0.015625)"/>
      <path id="DejaVuSans-4a" d="M 628 4666 
L 1259 4666 
L 1259 325 
Q 1259 -519 939 -900 
Q 619 -1281 -91 -1281 
L -331 -1281 
L -331 -750 
L -134 -750 
Q 284 -750 456 -515 
Q 628 -281 628 325 
L 628 4666 
z
" transform="scale(0.015625)"/>
      <path id="DejaVuSans-70" d="M 1159 525 
L 1159 -1331 
L 581 -1331 
L 581 3500 
L 1159 3500 
L 1159 2969 
Q 1341 3281 1617 3432 
Q 1894 3584 2278 3584 
Q 2916 3584 3314 3078 
Q 3713 2572 3713 1747 
Q 3713 922 3314 415 
Q 2916 -91 2278 -91 
Q 1894 -91 1617 61 
Q 1341 213 1159 525 
z
M 3116 1747 
Q 3116 2381 2855 2742 
Q 2594 3103 2138 3103 
Q 1681 3103 1420 2742 
Q 1159 2381 1159 1747 
Q 1159 1113 1420 752 
Q 1681 391 2138 391 
Q 2594 391 2855 752 
Q 3116 1113 3116 1747 
z
" transform="scale(0.015625)"/>
     </defs>
     <use xlink:href="#DejaVuSans-4e"/>
     <use xlink:href="#DejaVuSans-75" x="74.804688"/>
     <use xlink:href="#DejaVuSans-6d" x="138.183594"/>
     <use xlink:href="#DejaVuSans-62" x="235.595703"/>
     <use xlink:href="#DejaVuSans-65" x="299.072266"/>
     <use xlink:href="#DejaVuSans-72" x="360.595703"/>
     <use xlink:href="#DejaVuSans-20" x="401.708984"/>
     <use xlink:href="#DejaVuSans-6f" x="433.496094"/>
     <use xlink:href="#DejaVuSans-66" x="494.677734"/>
     <use xlink:href="#DejaVuSans-20" x="529.882812"/>
     <use xlink:href="#DejaVuSans-41" x="561.669922"/>
     <use xlink:href="#DejaVuSans-72" x="630.078125"/>
     <use xlink:href="#DejaVuSans-74" x="671.191406"/>
     <use xlink:href="#DejaVuSans-69" x="710.400391"/>
     <use xlink:href="#DejaVuSans-63" x="738.183594"/>
     <use xlink:href="#DejaVuSans-6c" x="793.164062"/>
     <use xlink:href="#DejaVuSans-65" x="820.947266"/>
     <use xlink:href="#DejaVuSans-73" x="882.470703"/>
     <use xlink:href="#DejaVuSans-20" x="934.570312"/>
     <use xlink:href="#DejaVuSans-62" x="966.357422"/>
     <use xlink:href="#DejaVuSans-79" x="1029.833984"/>
     <use xlink:href="#DejaVuSans-20" x="1089.013672"/>
     <use xlink:href="#DejaVuSans-4d" x="1120.800781"/>
     <use xlink:href="#DejaVuSans-61" x="1207.080078"/>
     <use xlink:href="#DejaVuSans-78" x="1268.359375"/>
     <use xlink:href="#DejaVuSans-69" x="1327.539062"/>
     <use xlink:href="#DejaVuSans-6d" x="1355.322266"/>
     <use xlink:href="#DejaVuSans-75" x="1452.734375"/>
     <use xlink:href="#DejaVuSans-6d" x="1516.113281"/>
     <use xlink:href="#DejaVuSans-20" x="1613.525391"/>
     <use xlink:href="#DejaVuSans-50" x="1645.3125"/>
     <use xlink:href="#DejaVuSans-6f" x="1701.990234"/>
     <use xlink:href="#DejaVuSans-6c" x="1763.171875"/>
     <use xlink:href="#DejaVuSans-69" x="1790.955078"/>
     <use xlink:href="#DejaVuSans-74" x="1818.738281"/>
     <use xlink:href="#DejaVuSans-69" x="1857.947266"/>
     <use xlink:href="#DejaVuSans-63" x="1885.730469"/>
     <use xlink:href="#DejaVuSans-61" x="1940.710938"/>
     <use xlink:href="#DejaVuSans-6c" x="2001.990234"/>
     <use xlink:href="#DejaVuSans-20" x="2029.773438"/>
     <use xlink:href="#DejaVuSans-4c" x="2061.560547"/>
     <use xlink:href="#DejaVuSans-65" x="2115.523438"/>
     <use xlink:href="#DejaVuSans-61" x="2177.046875"/>
     <use xlink:href="#DejaVuSans-6e" x="2238.326172"/>
     <use xlink:href="#DejaVuSans-20" x="2301.705078"/>
     <use xlink:href="#DejaVuSans-43" x="2333.492188"/>
     <use xlink:href="#DejaVuSans-61" x="2403.316406"/>
     <use xlink:href="#DejaVuSans-74" x="2464.595703"/>
     <use xlink:href="#DejaVuSans-65" x="2503.804688"/>
     <use xlink:href="#DejaVuSans-67" x="2565.328125"/>
     <use xlink:href="#DejaVuSans-6f" x="2628.804688"/>
     <use xlink:href="#DejaVuSans-72" x="2689.986328"/>
     <use xlink:href="#DejaVuSans-79" x="2731.099609"/>
     <use xlink:href="#DejaVuSans-3a" x="2783.029297"/>
     <use xlink:href="#DejaVuSans-20" x="2816.720703"/>
     <use xlink:href="#DejaVuSans-58" x="2848.507812"/>
     <use xlink:href="#DejaVuSans-69" x="2917.013672"/>
     <use xlink:href="#DejaVuSans-20" x="2944.796875"/>
     <use xlink:href="#DejaVuSans-4a" x="2976.583984"/>
     <use xlink:href="#DejaVuSans-69" x="3006.076172"/>
     <use xlink:href="#DejaVuSans-6e" x="3033.859375"/>
     <use xlink:href="#DejaVuSans-70" x="3097.238281"/>
     <use xlink:href="#DejaVuSans-69" x="3160.714844"/>
     <use xlink:href="#DejaVuSans-6e" x="3188.498047"/>
     <use xlink:href="#DejaVuSans-67" x="3251.876953"/>
    </g>
   </g>
   <g id="legend_2">
    <g id="patch_128">
     <path d="M 57.87 520.1925 
L 134.745 520.1925 
Q 136.745 520.1925 136.745 518.1925 
L 136.745 460.48 
Q 136.745 458.48 134.745 458.48 
L 57.87 458.48 
Q 55.87 458.48 55.87 460.48 
L 55.87 518.1925 
Q 55.87 520.1925 57.87 520.1925 
z
" style="fill: #ffffff; opacity: 0.8; stroke: #cccccc; stroke-linejoin: miter"/>
    </g>
    <g id="text_65">
     <!-- Lean Category -->
     <g transform="translate(59.87 470.078438) scale(0.1 -0.1)">
      <use xlink:href="#DejaVuSans-4c"/>
      <use xlink:href="#DejaVuSans-65" x="53.962891"/>
      <use xlink:href="#DejaVuSans-61" x="115.486328"/>
      <use xlink:href="#DejaVuSans-6e" x="176.765625"/>
      <use xlink:href="#DejaVuSans-20" x="240.144531"/>
      <use xlink:href="#DejaVuSans-43" x="271.931641"/>
      <use xlink:href="#DejaVuSans-61" x="341.755859"/>
      <use xlink:href="#DejaVuSans-74" x="403.035156"/>
      <use xlink:href="#DejaVuSans-65" x="442.244141"/>
      <use xlink:href="#DejaVuSans-67" x="503.767578"/>
      <use xlink:href="#DejaVuSans-6f" x="567.244141"/>
      <use xlink:href="#DejaVuSans-72" x="628.425781"/>
      <use xlink:href="#DejaVuSans-79" x="669.539062"/>
     </g>
    </g>
    <g id="patch_129">
     <path d="M 65.478594 484.756563 
L 85.478594 484.756563 
L 85.478594 477.756563 
L 65.478594 477.756563 
z
" style="fill: #2020df"/>
    </g>
    <g id="text_66">
     <!-- Center -->
     <g transform="translate(93.478594 484.756563) scale(0.1 -0.1)">
      <use xlink:href="#DejaVuSans-43"/>
      <use xlink:href="#DejaVuSans-65" x="69.824219"/>
      <use xlink:href="#DejaVuSans-6e" x="131.347656"/>
      <use xlink:href="#DejaVuSans-74" x="194.726562"/>
      <use xlink:href="#DejaVuSans-65" x="233.935547"/>
      <use xlink:href="#DejaVuSans-72" x="295.458984"/>
     </g>
    </g>
    <g id="patch_130">
     <path d="M 65.478594 499.434688 
L 85.478594 499.434688 
L 85.478594 492.434688 
L 65.478594 492.434688 
z
" style="fill: #107010"/>
    </g>
    <g id="text_67">
     <!-- Left -->
     <g transform="translate(93.478594 499.434688) scale(0.1 -0.1)">
      <use xlink:href="#DejaVuSans-4c"/>
      <use xlink:href="#DejaVuSans-65" x="53.962891"/>
      <use xlink:href="#DejaVuSans-66" x="115.486328"/>
      <use xlink:href="#DejaVuSans-74" x="148.941406"/>
     </g>
    </g>
    <g id="patch_131">
     <path d="M 65.478594 514.112813 
L 85.478594 514.112813 
L 85.478594 507.112813 
L 65.478594 507.112813 
z
" style="fill: #df2020"/>
    </g>
    <g id="text_68">
     <!-- Right -->
     <g transform="translate(93.478594 514.112813) scale(0.1 -0.1)">
      <use xlink:href="#DejaVuSans-52"/>
      <use xlink:href="#DejaVuSans-69" x="69.482422"/>
      <use xlink:href="#DejaVuSans-67" x="97.265625"/>
      <use xlink:href="#DejaVuSans-68" x="160.742188"/>
      <use xlink:href="#DejaVuSans-74" x="224.121094"/>
     </g>
    </g>
   </g>
  </g>
 </g>
 <defs>
  <clipPath id="pe794bf9042">
   <rect x="50.87" y="26.88" width="946.33" height="368.56"/>
  </clipPath>
  <clipPath id="p3f443b5e67">
   <rect x="50.87" y="453.48" width="946.33" height="368.56"/>
  </clipPath>
 </defs>
</svg>
