<?xml version="1.0" encoding="utf-8" standalone="no"?>
<!DOCTYPE svg PUBLIC "-//W3C//DTD SVG 1.1//EN"
  "http://www.w3.org/Graphics/SVG/1.1/DTD/svg11.dtd">
<svg xmlns:xlink="http://www.w3.org/1999/xlink" width="1080pt" height="432pt" viewBox="0 0 1080 432" xmlns="http://www.w3.org/2000/svg" version="1.1">
 <metadata>
  <rdf:RDF xmlns:dc="http://purl.org/dc/elements/1.1/" xmlns:cc="http://creativecommons.org/ns#" xmlns:rdf="http://www.w3.org/1999/02/22-rdf-syntax-ns#">
   <cc:Work>
    <dc:type rdf:resource="http://purl.org/dc/dcmitype/StillImage"/>
    <dc:date>2024-10-26T18:00:38.878327</dc:date>
    <dc:format>image/svg+xml</dc:format>
    <dc:creator>
     <cc:Agent>
      <dc:title>Matplotlib v3.9.2, https://matplotlib.org/</dc:title>
     </cc:Agent>
    </dc:creator>
   </cc:Work>
  </rdf:RDF>
 </metadata>
 <defs>
  <style type="text/css">*{stroke-linejoin: round; stroke-linecap: butt}</style>
 </defs>
 <g id="figure_1">
  <g id="patch_1">
   <path d="M 0 432 
L 1080 432 
L 1080 0 
L 0 0 
z
" style="fill: #ffffff"/>
  </g>
  <g id="axes_1">
   <g id="patch_2">
    <path d="M 47.72 390.04 
L 534.6 390.04 
L 534.6 26.88 
L 47.72 26.88 
z
" style="fill: #ffffff"/>
   </g>
   <g id="PolyCollection_1"/>
   <g id="PolyCollection_2"/>
   <g id="PolyCollection_3"/>
   <g id="matplotlib.axis_1">
    <g id="xtick_1">
     <g id="line2d_1">
      <defs>
       <path id="mba65ad11e4" d="M 0 0 
L 0 3.5 
" style="stroke: #000000; stroke-width: 0.8"/>
      </defs>
      <g>
       <use xlink:href="#mba65ad11e4" x="74.269963" y="390.04" style="stroke: #000000; stroke-width: 0.8"/>
      </g>
     </g>
     <g id="text_1">
      <!-- 2008 -->
      <g transform="translate(61.544963 404.638438) scale(0.1 -0.1)">
       <defs>
        <path id="DejaVuSans-32" d="M 1228 531 
L 3431 531 
L 3431 0 
L 469 0 
L 469 531 
Q 828 903 1448 1529 
Q 2069 2156 2228 2338 
Q 2531 2678 2651 2914 
Q 2772 3150 2772 3378 
Q 2772 3750 2511 3984 
Q 2250 4219 1831 4219 
Q 1534 4219 1204 4116 
Q 875 4013 500 3803 
L 500 4441 
Q 881 4594 1212 4672 
Q 1544 4750 1819 4750 
Q 2544 4750 2975 4387 
Q 3406 4025 3406 3419 
Q 3406 3131 3298 2873 
Q 3191 2616 2906 2266 
Q 2828 2175 2409 1742 
Q 1991 1309 1228 531 
z
" transform="scale(0.015625)"/>
        <path id="DejaVuSans-30" d="M 2034 4250 
Q 1547 4250 1301 3770 
Q 1056 3291 1056 2328 
Q 1056 1369 1301 889 
Q 1547 409 2034 409 
Q 2525 409 2770 889 
Q 3016 1369 3016 2328 
Q 3016 3291 2770 3770 
Q 2525 4250 2034 4250 
z
M 2034 4750 
Q 2819 4750 3233 4129 
Q 3647 3509 3647 2328 
Q 3647 1150 3233 529 
Q 2819 -91 2034 -91 
Q 1250 -91 836 529 
Q 422 1150 422 2328 
Q 422 3509 836 4129 
Q 1250 4750 2034 4750 
z
" transform="scale(0.015625)"/>
        <path id="DejaVuSans-38" d="M 2034 2216 
Q 1584 2216 1326 1975 
Q 1069 1734 1069 1313 
Q 1069 891 1326 650 
Q 1584 409 2034 409 
Q 2484 409 2743 651 
Q 3003 894 3003 1313 
Q 3003 1734 2745 1975 
Q 2488 2216 2034 2216 
z
M 1403 2484 
Q 997 2584 770 2862 
Q 544 3141 544 3541 
Q 544 4100 942 4425 
Q 1341 4750 2034 4750 
Q 2731 4750 3128 4425 
Q 3525 4100 3525 3541 
Q 3525 3141 3298 2862 
Q 3072 2584 2669 2484 
Q 3125 2378 3379 2068 
Q 3634 1759 3634 1313 
Q 3634 634 3220 271 
Q 2806 -91 2034 -91 
Q 1263 -91 848 271 
Q 434 634 434 1313 
Q 434 1759 690 2068 
Q 947 2378 1403 2484 
z
M 1172 3481 
Q 1172 3119 1398 2916 
Q 1625 2713 2034 2713 
Q 2441 2713 2670 2916 
Q 2900 3119 2900 3481 
Q 2900 3844 2670 4047 
Q 2441 4250 2034 4250 
Q 1625 4250 1398 4047 
Q 1172 3844 1172 3481 
z
" transform="scale(0.015625)"/>
       </defs>
       <use xlink:href="#DejaVuSans-32"/>
       <use xlink:href="#DejaVuSans-30" x="63.623047"/>
       <use xlink:href="#DejaVuSans-30" x="127.246094"/>
       <use xlink:href="#DejaVuSans-38" x="190.869141"/>
      </g>
     </g>
    </g>
    <g id="xtick_2">
     <g id="line2d_2">
      <g>
       <use xlink:href="#mba65ad11e4" x="126.372039" y="390.04" style="stroke: #000000; stroke-width: 0.8"/>
      </g>
     </g>
     <g id="text_2">
      <!-- 2010 -->
      <g transform="translate(113.647039 404.638438) scale(0.1 -0.1)">
       <defs>
        <path id="DejaVuSans-31" d="M 794 531 
L 1825 531 
L 1825 4091 
L 703 3866 
L 703 4441 
L 1819 4666 
L 2450 4666 
L 2450 531 
L 3481 531 
L 3481 0 
L 794 0 
L 794 531 
z
" transform="scale(0.015625)"/>
       </defs>
       <use xlink:href="#DejaVuSans-32"/>
       <use xlink:href="#DejaVuSans-30" x="63.623047"/>
       <use xlink:href="#DejaVuSans-31" x="127.246094"/>
       <use xlink:href="#DejaVuSans-30" x="190.869141"/>
      </g>
     </g>
    </g>
    <g id="xtick_3">
     <g id="line2d_3">
      <g>
       <use xlink:href="#mba65ad11e4" x="178.40284" y="390.04" style="stroke: #000000; stroke-width: 0.8"/>
      </g>
     </g>
     <g id="text_3">
      <!-- 2012 -->
      <g transform="translate(165.67784 404.638438) scale(0.1 -0.1)">
       <use xlink:href="#DejaVuSans-32"/>
       <use xlink:href="#DejaVuSans-30" x="63.623047"/>
       <use xlink:href="#DejaVuSans-31" x="127.246094"/>
       <use xlink:href="#DejaVuSans-32" x="190.869141"/>
      </g>
     </g>
    </g>
    <g id="xtick_4">
     <g id="line2d_4">
      <g>
       <use xlink:href="#mba65ad11e4" x="230.504916" y="390.04" style="stroke: #000000; stroke-width: 0.8"/>
      </g>
     </g>
     <g id="text_4">
      <!-- 2014 -->
      <g transform="translate(217.779916 404.638438) scale(0.1 -0.1)">
       <defs>
        <path id="DejaVuSans-34" d="M 2419 4116 
L 825 1625 
L 2419 1625 
L 2419 4116 
z
M 2253 4666 
L 3047 4666 
L 3047 1625 
L 3713 1625 
L 3713 1100 
L 3047 1100 
L 3047 0 
L 2419 0 
L 2419 1100 
L 313 1100 
L 313 1709 
L 2253 4666 
z
" transform="scale(0.015625)"/>
       </defs>
       <use xlink:href="#DejaVuSans-32"/>
       <use xlink:href="#DejaVuSans-30" x="63.623047"/>
       <use xlink:href="#DejaVuSans-31" x="127.246094"/>
       <use xlink:href="#DejaVuSans-34" x="190.869141"/>
      </g>
     </g>
    </g>
    <g id="xtick_5">
     <g id="line2d_5">
      <g>
       <use xlink:href="#mba65ad11e4" x="282.535717" y="390.04" style="stroke: #000000; stroke-width: 0.8"/>
      </g>
     </g>
     <g id="text_5">
      <!-- 2016 -->
      <g transform="translate(269.810717 404.638438) scale(0.1 -0.1)">
       <defs>
        <path id="DejaVuSans-36" d="M 2113 2584 
Q 1688 2584 1439 2293 
Q 1191 2003 1191 1497 
Q 1191 994 1439 701 
Q 1688 409 2113 409 
Q 2538 409 2786 701 
Q 3034 994 3034 1497 
Q 3034 2003 2786 2293 
Q 2538 2584 2113 2584 
z
M 3366 4563 
L 3366 3988 
Q 3128 4100 2886 4159 
Q 2644 4219 2406 4219 
Q 1781 4219 1451 3797 
Q 1122 3375 1075 2522 
Q 1259 2794 1537 2939 
Q 1816 3084 2150 3084 
Q 2853 3084 3261 2657 
Q 3669 2231 3669 1497 
Q 3669 778 3244 343 
Q 2819 -91 2113 -91 
Q 1303 -91 875 529 
Q 447 1150 447 2328 
Q 447 3434 972 4092 
Q 1497 4750 2381 4750 
Q 2619 4750 2861 4703 
Q 3103 4656 3366 4563 
z
" transform="scale(0.015625)"/>
       </defs>
       <use xlink:href="#DejaVuSans-32"/>
       <use xlink:href="#DejaVuSans-30" x="63.623047"/>
       <use xlink:href="#DejaVuSans-31" x="127.246094"/>
       <use xlink:href="#DejaVuSans-36" x="190.869141"/>
      </g>
     </g>
    </g>
    <g id="xtick_6">
     <g id="line2d_6">
      <g>
       <use xlink:href="#mba65ad11e4" x="334.637792" y="390.04" style="stroke: #000000; stroke-width: 0.8"/>
      </g>
     </g>
     <g id="text_6">
      <!-- 2018 -->
      <g transform="translate(321.912792 404.638438) scale(0.1 -0.1)">
       <use xlink:href="#DejaVuSans-32"/>
       <use xlink:href="#DejaVuSans-30" x="63.623047"/>
       <use xlink:href="#DejaVuSans-31" x="127.246094"/>
       <use xlink:href="#DejaVuSans-38" x="190.869141"/>
      </g>
     </g>
    </g>
    <g id="xtick_7">
     <g id="line2d_7">
      <g>
       <use xlink:href="#mba65ad11e4" x="386.668593" y="390.04" style="stroke: #000000; stroke-width: 0.8"/>
      </g>
     </g>
     <g id="text_7">
      <!-- 2020 -->
      <g transform="translate(373.943593 404.638438) scale(0.1 -0.1)">
       <use xlink:href="#DejaVuSans-32"/>
       <use xlink:href="#DejaVuSans-30" x="63.623047"/>
       <use xlink:href="#DejaVuSans-32" x="127.246094"/>
       <use xlink:href="#DejaVuSans-30" x="190.869141"/>
      </g>
     </g>
    </g>
    <g id="xtick_8">
     <g id="line2d_8">
      <g>
       <use xlink:href="#mba65ad11e4" x="438.770669" y="390.04" style="stroke: #000000; stroke-width: 0.8"/>
      </g>
     </g>
     <g id="text_8">
      <!-- 2022 -->
      <g transform="translate(426.045669 404.638438) scale(0.1 -0.1)">
       <use xlink:href="#DejaVuSans-32"/>
       <use xlink:href="#DejaVuSans-30" x="63.623047"/>
       <use xlink:href="#DejaVuSans-32" x="127.246094"/>
       <use xlink:href="#DejaVuSans-32" x="190.869141"/>
      </g>
     </g>
    </g>
    <g id="xtick_9">
     <g id="line2d_9">
      <g>
       <use xlink:href="#mba65ad11e4" x="490.80147" y="390.04" style="stroke: #000000; stroke-width: 0.8"/>
      </g>
     </g>
     <g id="text_9">
      <!-- 2024 -->
      <g transform="translate(478.07647 404.638438) scale(0.1 -0.1)">
       <use xlink:href="#DejaVuSans-32"/>
       <use xlink:href="#DejaVuSans-30" x="63.623047"/>
       <use xlink:href="#DejaVuSans-32" x="127.246094"/>
       <use xlink:href="#DejaVuSans-34" x="190.869141"/>
      </g>
     </g>
    </g>
    <g id="text_10">
     <!-- Date -->
     <g transform="translate(279.209219 418.316562) scale(0.1 -0.1)">
      <defs>
       <path id="DejaVuSans-44" d="M 1259 4147 
L 1259 519 
L 2022 519 
Q 2988 519 3436 956 
Q 3884 1394 3884 2338 
Q 3884 3275 3436 3711 
Q 2988 4147 2022 4147 
L 1259 4147 
z
M 628 4666 
L 1925 4666 
Q 3281 4666 3915 4102 
Q 4550 3538 4550 2338 
Q 4550 1131 3912 565 
Q 3275 0 1925 0 
L 628 0 
L 628 4666 
z
" transform="scale(0.015625)"/>
       <path id="DejaVuSans-61" d="M 2194 1759 
Q 1497 1759 1228 1600 
Q 959 1441 959 1056 
Q 959 750 1161 570 
Q 1363 391 1709 391 
Q 2188 391 2477 730 
Q 2766 1069 2766 1631 
L 2766 1759 
L 2194 1759 
z
M 3341 1997 
L 3341 0 
L 2766 0 
L 2766 531 
Q 2569 213 2275 61 
Q 1981 -91 1556 -91 
Q 1019 -91 701 211 
Q 384 513 384 1019 
Q 384 1609 779 1909 
Q 1175 2209 1959 2209 
L 2766 2209 
L 2766 2266 
Q 2766 2663 2505 2880 
Q 2244 3097 1772 3097 
Q 1472 3097 1187 3025 
Q 903 2953 641 2809 
L 641 3341 
Q 956 3463 1253 3523 
Q 1550 3584 1831 3584 
Q 2591 3584 2966 3190 
Q 3341 2797 3341 1997 
z
" transform="scale(0.015625)"/>
       <path id="DejaVuSans-74" d="M 1172 4494 
L 1172 3500 
L 2356 3500 
L 2356 3053 
L 1172 3053 
L 1172 1153 
Q 1172 725 1289 603 
Q 1406 481 1766 481 
L 2356 481 
L 2356 0 
L 1766 0 
Q 1100 0 847 248 
Q 594 497 594 1153 
L 594 3053 
L 172 3053 
L 172 3500 
L 594 3500 
L 594 4494 
L 1172 4494 
z
" transform="scale(0.015625)"/>
       <path id="DejaVuSans-65" d="M 3597 1894 
L 3597 1613 
L 953 1613 
Q 991 1019 1311 708 
Q 1631 397 2203 397 
Q 2534 397 2845 478 
Q 3156 559 3463 722 
L 3463 178 
Q 3153 47 2828 -22 
Q 2503 -91 2169 -91 
Q 1331 -91 842 396 
Q 353 884 353 1716 
Q 353 2575 817 3079 
Q 1281 3584 2069 3584 
Q 2775 3584 3186 3129 
Q 3597 2675 3597 1894 
z
M 3022 2063 
Q 3016 2534 2758 2815 
Q 2500 3097 2075 3097 
Q 1594 3097 1305 2825 
Q 1016 2553 972 2059 
L 3022 2063 
z
" transform="scale(0.015625)"/>
      </defs>
      <use xlink:href="#DejaVuSans-44"/>
      <use xlink:href="#DejaVuSans-61" x="77.001953"/>
      <use xlink:href="#DejaVuSans-74" x="138.28125"/>
      <use xlink:href="#DejaVuSans-65" x="177.490234"/>
     </g>
    </g>
   </g>
   <g id="matplotlib.axis_2">
    <g id="ytick_1">
     <g id="line2d_10">
      <defs>
       <path id="mafefef39d3" d="M 0 0 
L -3.5 0 
" style="stroke: #000000; stroke-width: 0.8"/>
      </defs>
      <g>
       <use xlink:href="#mafefef39d3" x="47.72" y="376.441979" style="stroke: #000000; stroke-width: 0.8"/>
      </g>
     </g>
     <g id="text_11">
      <!-- 0.0 -->
      <g transform="translate(24.816875 380.241198) scale(0.1 -0.1)">
       <defs>
        <path id="DejaVuSans-2e" d="M 684 794 
L 1344 794 
L 1344 0 
L 684 0 
L 684 794 
z
" transform="scale(0.015625)"/>
       </defs>
       <use xlink:href="#DejaVuSans-30"/>
       <use xlink:href="#DejaVuSans-2e" x="63.623047"/>
       <use xlink:href="#DejaVuSans-30" x="95.410156"/>
      </g>
     </g>
    </g>
    <g id="ytick_2">
     <g id="line2d_11">
      <g>
       <use xlink:href="#mafefef39d3" x="47.72" y="300.559799" style="stroke: #000000; stroke-width: 0.8"/>
      </g>
     </g>
     <g id="text_12">
      <!-- 0.2 -->
      <g transform="translate(24.816875 304.359018) scale(0.1 -0.1)">
       <use xlink:href="#DejaVuSans-30"/>
       <use xlink:href="#DejaVuSans-2e" x="63.623047"/>
       <use xlink:href="#DejaVuSans-32" x="95.410156"/>
      </g>
     </g>
    </g>
    <g id="ytick_3">
     <g id="line2d_12">
      <g>
       <use xlink:href="#mafefef39d3" x="47.72" y="224.67762" style="stroke: #000000; stroke-width: 0.8"/>
      </g>
     </g>
     <g id="text_13">
      <!-- 0.4 -->
      <g transform="translate(24.816875 228.476839) scale(0.1 -0.1)">
       <use xlink:href="#DejaVuSans-30"/>
       <use xlink:href="#DejaVuSans-2e" x="63.623047"/>
       <use xlink:href="#DejaVuSans-34" x="95.410156"/>
      </g>
     </g>
    </g>
    <g id="ytick_4">
     <g id="line2d_13">
      <g>
       <use xlink:href="#mafefef39d3" x="47.72" y="148.79544" style="stroke: #000000; stroke-width: 0.8"/>
      </g>
     </g>
     <g id="text_14">
      <!-- 0.6 -->
      <g transform="translate(24.816875 152.594659) scale(0.1 -0.1)">
       <use xlink:href="#DejaVuSans-30"/>
       <use xlink:href="#DejaVuSans-2e" x="63.623047"/>
       <use xlink:href="#DejaVuSans-36" x="95.410156"/>
      </g>
     </g>
    </g>
    <g id="ytick_5">
     <g id="line2d_14">
      <g>
       <use xlink:href="#mafefef39d3" x="47.72" y="72.913261" style="stroke: #000000; stroke-width: 0.8"/>
      </g>
     </g>
     <g id="text_15">
      <!-- 0.8 -->
      <g transform="translate(24.816875 76.712479) scale(0.1 -0.1)">
       <use xlink:href="#DejaVuSans-30"/>
       <use xlink:href="#DejaVuSans-2e" x="63.623047"/>
       <use xlink:href="#DejaVuSans-38" x="95.410156"/>
      </g>
     </g>
    </g>
    <g id="text_16">
     <!-- Lean Score -->
     <g transform="translate(18.737187 236.059219) rotate(-90) scale(0.1 -0.1)">
      <defs>
       <path id="DejaVuSans-4c" d="M 628 4666 
L 1259 4666 
L 1259 531 
L 3531 531 
L 3531 0 
L 628 0 
L 628 4666 
z
" transform="scale(0.015625)"/>
       <path id="DejaVuSans-6e" d="M 3513 2113 
L 3513 0 
L 2938 0 
L 2938 2094 
Q 2938 2591 2744 2837 
Q 2550 3084 2163 3084 
Q 1697 3084 1428 2787 
Q 1159 2491 1159 1978 
L 1159 0 
L 581 0 
L 581 3500 
L 1159 3500 
L 1159 2956 
Q 1366 3272 1645 3428 
Q 1925 3584 2291 3584 
Q 2894 3584 3203 3211 
Q 3513 2838 3513 2113 
z
" transform="scale(0.015625)"/>
       <path id="DejaVuSans-20" transform="scale(0.015625)"/>
       <path id="DejaVuSans-53" d="M 3425 4513 
L 3425 3897 
Q 3066 4069 2747 4153 
Q 2428 4238 2131 4238 
Q 1616 4238 1336 4038 
Q 1056 3838 1056 3469 
Q 1056 3159 1242 3001 
Q 1428 2844 1947 2747 
L 2328 2669 
Q 3034 2534 3370 2195 
Q 3706 1856 3706 1288 
Q 3706 609 3251 259 
Q 2797 -91 1919 -91 
Q 1588 -91 1214 -16 
Q 841 59 441 206 
L 441 856 
Q 825 641 1194 531 
Q 1563 422 1919 422 
Q 2459 422 2753 634 
Q 3047 847 3047 1241 
Q 3047 1584 2836 1778 
Q 2625 1972 2144 2069 
L 1759 2144 
Q 1053 2284 737 2584 
Q 422 2884 422 3419 
Q 422 4038 858 4394 
Q 1294 4750 2059 4750 
Q 2388 4750 2728 4690 
Q 3069 4631 3425 4513 
z
" transform="scale(0.015625)"/>
       <path id="DejaVuSans-63" d="M 3122 3366 
L 3122 2828 
Q 2878 2963 2633 3030 
Q 2388 3097 2138 3097 
Q 1578 3097 1268 2742 
Q 959 2388 959 1747 
Q 959 1106 1268 751 
Q 1578 397 2138 397 
Q 2388 397 2633 464 
Q 2878 531 3122 666 
L 3122 134 
Q 2881 22 2623 -34 
Q 2366 -91 2075 -91 
Q 1284 -91 818 406 
Q 353 903 353 1747 
Q 353 2603 823 3093 
Q 1294 3584 2113 3584 
Q 2378 3584 2631 3529 
Q 2884 3475 3122 3366 
z
" transform="scale(0.015625)"/>
       <path id="DejaVuSans-6f" d="M 1959 3097 
Q 1497 3097 1228 2736 
Q 959 2375 959 1747 
Q 959 1119 1226 758 
Q 1494 397 1959 397 
Q 2419 397 2687 759 
Q 2956 1122 2956 1747 
Q 2956 2369 2687 2733 
Q 2419 3097 1959 3097 
z
M 1959 3584 
Q 2709 3584 3137 3096 
Q 3566 2609 3566 1747 
Q 3566 888 3137 398 
Q 2709 -91 1959 -91 
Q 1206 -91 779 398 
Q 353 888 353 1747 
Q 353 2609 779 3096 
Q 1206 3584 1959 3584 
z
" transform="scale(0.015625)"/>
       <path id="DejaVuSans-72" d="M 2631 2963 
Q 2534 3019 2420 3045 
Q 2306 3072 2169 3072 
Q 1681 3072 1420 2755 
Q 1159 2438 1159 1844 
L 1159 0 
L 581 0 
L 581 3500 
L 1159 3500 
L 1159 2956 
Q 1341 3275 1631 3429 
Q 1922 3584 2338 3584 
Q 2397 3584 2469 3576 
Q 2541 3569 2628 3553 
L 2631 2963 
z
" transform="scale(0.015625)"/>
      </defs>
      <use xlink:href="#DejaVuSans-4c"/>
      <use xlink:href="#DejaVuSans-65" x="53.962891"/>
      <use xlink:href="#DejaVuSans-61" x="115.486328"/>
      <use xlink:href="#DejaVuSans-6e" x="176.765625"/>
      <use xlink:href="#DejaVuSans-20" x="240.144531"/>
      <use xlink:href="#DejaVuSans-53" x="271.931641"/>
      <use xlink:href="#DejaVuSans-63" x="335.408203"/>
      <use xlink:href="#DejaVuSans-6f" x="390.388672"/>
      <use xlink:href="#DejaVuSans-72" x="451.570312"/>
      <use xlink:href="#DejaVuSans-65" x="490.433594"/>
     </g>
    </g>
   </g>
   <g id="line2d_15">
    <path d="M 69.850909 43.387273 
L 76.408215 117.981982 
L 82.822972 188.598551 
L 89.380278 248.354799 
L 95.937585 329.529487 
L 102.494891 230.661177 
L 108.838372 336.560118 
L 115.395679 321.772682 
L 121.952985 141.743531 
L 128.510291 123.7281 
L 134.853773 135.909246 
L 141.411079 219.275084 
L 147.968385 286.878914 
L 154.525692 254.961909 
L 160.869173 239.935148 
L 167.426479 164.701192 
L 173.983786 78.212796 
L 180.541092 313.578762 
L 186.955848 246.28871 
L 193.513155 330.21935 
L 232.643168 279.083483 
L 238.986649 287.198843 
L 245.543955 296.497072 
L 252.101262 269.711244 
L 258.658568 318.77938 
L 265.002049 344.948217 
L 271.559356 331.833728 
L 278.116662 338.0276 
L 284.673969 314.683732 
L 291.088725 304.011906 
L 297.646031 336.001816 
L 304.203338 312.478299 
L 310.760644 283.758628 
L 317.104125 289.460805 
L 323.661432 304.684346 
L 330.218738 255.040671 
L 336.776045 341.287961 
L 343.119526 277.90642 
L 349.676832 227.788263 
L 356.234138 196.908578 
L 362.791445 199.072687 
L 369.134926 185.781159 
L 375.692232 182.474226 
L 382.249539 130.39349 
L 388.806845 151.87168 
L 395.221602 71.622133 
L 401.778908 158.160566 
L 408.336214 131.498306 
L 414.893521 122.490181 
L 421.237002 128.378253 
L 427.794308 175.048803 
L 434.351615 141.584388 
L 440.908921 130.572326 
L 447.252402 169.670078 
L 453.809709 193.664872 
L 460.367015 267.730595 
L 466.924321 286.755787 
L 473.267803 288.832043 
L 479.825109 199.962349 
L 486.382415 309.840061 
L 492.939722 279.723487 
L 499.354478 322.189732 
L 505.911785 321.118466 
L 512.469091 291.62554 
" clip-path="url(#p3bf8f49c4a)" style="fill: none; stroke: #008000; stroke-width: 1.5; stroke-linecap: square"/>
   </g>
   <g id="line2d_16">
    <path d="M 69.850909 332.995018 
L 76.408215 259.62583 
L 82.822972 189.954659 
L 89.380278 131.206505 
L 95.937585 52.155712 
L 102.494891 165.168156 
L 108.838372 52.00944 
L 115.395679 73.427265 
L 121.952985 243.579827 
L 128.510291 262.517045 
L 134.853773 258.562536 
L 141.411079 164.076236 
L 147.968385 104.460507 
L 154.525692 139.959655 
L 160.869173 150.191554 
L 167.426479 222.688148 
L 173.983786 312.580558 
L 180.541092 75.393872 
L 186.955848 142.593193 
L 193.513155 59.566089 
L 232.643168 171.217225 
L 238.986649 144.44389 
L 245.543955 153.157526 
L 252.101262 157.564285 
L 258.658568 103.124659 
L 265.002049 58.913098 
L 271.559356 79.591416 
L 278.116662 74.823161 
L 284.673969 103.846112 
L 291.088725 122.776724 
L 297.646031 66.240931 
L 304.203338 157.822569 
L 310.760644 186.956981 
L 317.104125 185.199461 
L 323.661432 170.822965 
L 330.218738 211.774653 
L 336.776045 77.457881 
L 343.119526 130.686847 
L 349.676832 194.814205 
L 356.234138 209.307196 
L 362.791445 211.676386 
L 369.134926 220.989537 
L 375.692232 223.443917 
L 382.249539 264.608723 
L 388.806845 251.805675 
L 395.221602 324.481545 
L 401.778908 265.96296 
L 408.336214 280.874594 
L 414.893521 288.642636 
L 421.237002 284.447125 
L 427.794308 250.62187 
L 434.351615 274.895581 
L 440.908921 283.580135 
L 447.252402 252.194853 
L 453.809709 237.151641 
L 460.367015 116.027653 
L 466.924321 113.939811 
L 473.267803 96.32913 
L 479.825109 185.971899 
L 486.382415 93.022521 
L 492.939722 117.698566 
L 499.354478 90.441126 
L 505.911785 75.508574 
L 512.469091 101.477514 
" clip-path="url(#p3bf8f49c4a)" style="fill: none; stroke: #0000ff; stroke-width: 1.5; stroke-linecap: square"/>
   </g>
   <g id="line2d_17">
    <path d="M 69.850909 373.532727 
L 76.408215 372.30723 
L 82.822972 371.361839 
L 89.380278 370.353734 
L 95.937585 368.229845 
L 102.494891 354.085704 
L 108.838372 361.345475 
L 115.395679 354.71509 
L 121.952985 364.591673 
L 128.510291 363.669892 
L 134.853773 355.443252 
L 141.411079 366.563712 
L 147.968385 358.575621 
L 154.525692 354.993484 
L 160.869173 359.788336 
L 167.426479 362.525699 
L 173.983786 359.12169 
L 180.541092 360.942405 
L 186.955848 361.033144 
L 193.513155 360.129595 
L 232.643168 299.614308 
L 238.986649 318.272312 
L 245.543955 300.26045 
L 252.101262 322.639523 
L 258.658568 328.010995 
L 265.002049 346.053715 
L 271.559356 338.489887 
L 278.116662 337.064269 
L 284.673969 331.385184 
L 291.088725 323.126405 
L 297.646031 347.672267 
L 304.203338 279.614152 
L 310.760644 279.199422 
L 317.104125 275.254753 
L 323.661432 274.407725 
L 330.218738 283.099701 
L 336.776045 331.169196 
L 343.119526 341.321773 
L 349.676832 327.312573 
L 356.234138 343.699253 
L 362.791445 339.165981 
L 369.134926 343.144345 
L 375.692232 343.996895 
L 382.249539 354.912842 
L 388.806845 346.23769 
L 395.221602 353.811367 
L 401.778908 325.79151 
L 408.336214 337.542121 
L 414.893521 338.78222 
L 421.237002 337.089661 
L 427.794308 324.24437 
L 434.351615 333.435066 
L 440.908921 335.762568 
L 447.252402 328.050106 
L 453.809709 319.098529 
L 460.367015 366.156794 
L 466.924321 349.219445 
L 473.267803 364.753858 
L 479.825109 363.980811 
L 486.382415 347.052441 
L 492.939722 352.492989 
L 499.354478 337.284181 
L 505.911785 353.288009 
L 512.469091 356.81199 
" clip-path="url(#p3bf8f49c4a)" style="fill: none; stroke: #ff0000; stroke-width: 1.5; stroke-linecap: square"/>
   </g>
   <g id="patch_3">
    <path d="M 47.72 390.04 
L 47.72 26.88 
" style="fill: none; stroke: #000000; stroke-width: 0.8; stroke-linejoin: miter; stroke-linecap: square"/>
   </g>
   <g id="patch_4">
    <path d="M 534.6 390.04 
L 534.6 26.88 
" style="fill: none; stroke: #000000; stroke-width: 0.8; stroke-linejoin: miter; stroke-linecap: square"/>
   </g>
   <g id="patch_5">
    <path d="M 47.72 390.04 
L 534.6 390.04 
" style="fill: none; stroke: #000000; stroke-width: 0.8; stroke-linejoin: miter; stroke-linecap: square"/>
   </g>
   <g id="patch_6">
    <path d="M 47.72 26.88 
L 534.6 26.88 
" style="fill: none; stroke: #000000; stroke-width: 0.8; stroke-linejoin: miter; stroke-linecap: square"/>
   </g>
   <g id="text_17">
    <!-- Xi Jinping - ORIGINS Section - Political Lean Over Time -->
    <g transform="translate(129.303437 20.88) scale(0.12 -0.12)">
     <defs>
      <path id="DejaVuSans-58" d="M 403 4666 
L 1081 4666 
L 2241 2931 
L 3406 4666 
L 4084 4666 
L 2584 2425 
L 4184 0 
L 3506 0 
L 2194 1984 
L 872 0 
L 191 0 
L 1856 2491 
L 403 4666 
z
" transform="scale(0.015625)"/>
      <path id="DejaVuSans-69" d="M 603 3500 
L 1178 3500 
L 1178 0 
L 603 0 
L 603 3500 
z
M 603 4863 
L 1178 4863 
L 1178 4134 
L 603 4134 
L 603 4863 
z
" transform="scale(0.015625)"/>
      <path id="DejaVuSans-4a" d="M 628 4666 
L 1259 4666 
L 1259 325 
Q 1259 -519 939 -900 
Q 619 -1281 -91 -1281 
L -331 -1281 
L -331 -750 
L -134 -750 
Q 284 -750 456 -515 
Q 628 -281 628 325 
L 628 4666 
z
" transform="scale(0.015625)"/>
      <path id="DejaVuSans-70" d="M 1159 525 
L 1159 -1331 
L 581 -1331 
L 581 3500 
L 1159 3500 
L 1159 2969 
Q 1341 3281 1617 3432 
Q 1894 3584 2278 3584 
Q 2916 3584 3314 3078 
Q 3713 2572 3713 1747 
Q 3713 922 3314 415 
Q 2916 -91 2278 -91 
Q 1894 -91 1617 61 
Q 1341 213 1159 525 
z
M 3116 1747 
Q 3116 2381 2855 2742 
Q 2594 3103 2138 3103 
Q 1681 3103 1420 2742 
Q 1159 2381 1159 1747 
Q 1159 1113 1420 752 
Q 1681 391 2138 391 
Q 2594 391 2855 752 
Q 3116 1113 3116 1747 
z
" transform="scale(0.015625)"/>
      <path id="DejaVuSans-67" d="M 2906 1791 
Q 2906 2416 2648 2759 
Q 2391 3103 1925 3103 
Q 1463 3103 1205 2759 
Q 947 2416 947 1791 
Q 947 1169 1205 825 
Q 1463 481 1925 481 
Q 2391 481 2648 825 
Q 2906 1169 2906 1791 
z
M 3481 434 
Q 3481 -459 3084 -895 
Q 2688 -1331 1869 -1331 
Q 1566 -1331 1297 -1286 
Q 1028 -1241 775 -1147 
L 775 -588 
Q 1028 -725 1275 -790 
Q 1522 -856 1778 -856 
Q 2344 -856 2625 -561 
Q 2906 -266 2906 331 
L 2906 616 
Q 2728 306 2450 153 
Q 2172 0 1784 0 
Q 1141 0 747 490 
Q 353 981 353 1791 
Q 353 2603 747 3093 
Q 1141 3584 1784 3584 
Q 2172 3584 2450 3431 
Q 2728 3278 2906 2969 
L 2906 3500 
L 3481 3500 
L 3481 434 
z
" transform="scale(0.015625)"/>
      <path id="DejaVuSans-2d" d="M 313 2009 
L 1997 2009 
L 1997 1497 
L 313 1497 
L 313 2009 
z
" transform="scale(0.015625)"/>
      <path id="DejaVuSans-4f" d="M 2522 4238 
Q 1834 4238 1429 3725 
Q 1025 3213 1025 2328 
Q 1025 1447 1429 934 
Q 1834 422 2522 422 
Q 3209 422 3611 934 
Q 4013 1447 4013 2328 
Q 4013 3213 3611 3725 
Q 3209 4238 2522 4238 
z
M 2522 4750 
Q 3503 4750 4090 4092 
Q 4678 3434 4678 2328 
Q 4678 1225 4090 567 
Q 3503 -91 2522 -91 
Q 1538 -91 948 565 
Q 359 1222 359 2328 
Q 359 3434 948 4092 
Q 1538 4750 2522 4750 
z
" transform="scale(0.015625)"/>
      <path id="DejaVuSans-52" d="M 2841 2188 
Q 3044 2119 3236 1894 
Q 3428 1669 3622 1275 
L 4263 0 
L 3584 0 
L 2988 1197 
Q 2756 1666 2539 1819 
Q 2322 1972 1947 1972 
L 1259 1972 
L 1259 0 
L 628 0 
L 628 4666 
L 2053 4666 
Q 2853 4666 3247 4331 
Q 3641 3997 3641 3322 
Q 3641 2881 3436 2590 
Q 3231 2300 2841 2188 
z
M 1259 4147 
L 1259 2491 
L 2053 2491 
Q 2509 2491 2742 2702 
Q 2975 2913 2975 3322 
Q 2975 3731 2742 3939 
Q 2509 4147 2053 4147 
L 1259 4147 
z
" transform="scale(0.015625)"/>
      <path id="DejaVuSans-49" d="M 628 4666 
L 1259 4666 
L 1259 0 
L 628 0 
L 628 4666 
z
" transform="scale(0.015625)"/>
      <path id="DejaVuSans-47" d="M 3809 666 
L 3809 1919 
L 2778 1919 
L 2778 2438 
L 4434 2438 
L 4434 434 
Q 4069 175 3628 42 
Q 3188 -91 2688 -91 
Q 1594 -91 976 548 
Q 359 1188 359 2328 
Q 359 3472 976 4111 
Q 1594 4750 2688 4750 
Q 3144 4750 3555 4637 
Q 3966 4525 4313 4306 
L 4313 3634 
Q 3963 3931 3569 4081 
Q 3175 4231 2741 4231 
Q 1884 4231 1454 3753 
Q 1025 3275 1025 2328 
Q 1025 1384 1454 906 
Q 1884 428 2741 428 
Q 3075 428 3337 486 
Q 3600 544 3809 666 
z
" transform="scale(0.015625)"/>
      <path id="DejaVuSans-4e" d="M 628 4666 
L 1478 4666 
L 3547 763 
L 3547 4666 
L 4159 4666 
L 4159 0 
L 3309 0 
L 1241 3903 
L 1241 0 
L 628 0 
L 628 4666 
z
" transform="scale(0.015625)"/>
      <path id="DejaVuSans-50" d="M 1259 4147 
L 1259 2394 
L 2053 2394 
Q 2494 2394 2734 2622 
Q 2975 2850 2975 3272 
Q 2975 3691 2734 3919 
Q 2494 4147 2053 4147 
L 1259 4147 
z
M 628 4666 
L 2053 4666 
Q 2838 4666 3239 4311 
Q 3641 3956 3641 3272 
Q 3641 2581 3239 2228 
Q 2838 1875 2053 1875 
L 1259 1875 
L 1259 0 
L 628 0 
L 628 4666 
z
" transform="scale(0.015625)"/>
      <path id="DejaVuSans-6c" d="M 603 4863 
L 1178 4863 
L 1178 0 
L 603 0 
L 603 4863 
z
" transform="scale(0.015625)"/>
      <path id="DejaVuSans-76" d="M 191 3500 
L 800 3500 
L 1894 563 
L 2988 3500 
L 3597 3500 
L 2284 0 
L 1503 0 
L 191 3500 
z
" transform="scale(0.015625)"/>
      <path id="DejaVuSans-54" d="M -19 4666 
L 3928 4666 
L 3928 4134 
L 2272 4134 
L 2272 0 
L 1638 0 
L 1638 4134 
L -19 4134 
L -19 4666 
z
" transform="scale(0.015625)"/>
      <path id="DejaVuSans-6d" d="M 3328 2828 
Q 3544 3216 3844 3400 
Q 4144 3584 4550 3584 
Q 5097 3584 5394 3201 
Q 5691 2819 5691 2113 
L 5691 0 
L 5113 0 
L 5113 2094 
Q 5113 2597 4934 2840 
Q 4756 3084 4391 3084 
Q 3944 3084 3684 2787 
Q 3425 2491 3425 1978 
L 3425 0 
L 2847 0 
L 2847 2094 
Q 2847 2600 2669 2842 
Q 2491 3084 2119 3084 
Q 1678 3084 1418 2786 
Q 1159 2488 1159 1978 
L 1159 0 
L 581 0 
L 581 3500 
L 1159 3500 
L 1159 2956 
Q 1356 3278 1631 3431 
Q 1906 3584 2284 3584 
Q 2666 3584 2933 3390 
Q 3200 3197 3328 2828 
z
" transform="scale(0.015625)"/>
     </defs>
     <use xlink:href="#DejaVuSans-58"/>
     <use xlink:href="#DejaVuSans-69" x="68.505859"/>
     <use xlink:href="#DejaVuSans-20" x="96.289062"/>
     <use xlink:href="#DejaVuSans-4a" x="128.076172"/>
     <use xlink:href="#DejaVuSans-69" x="157.568359"/>
     <use xlink:href="#DejaVuSans-6e" x="185.351562"/>
     <use xlink:href="#DejaVuSans-70" x="248.730469"/>
     <use xlink:href="#DejaVuSans-69" x="312.207031"/>
     <use xlink:href="#DejaVuSans-6e" x="339.990234"/>
     <use xlink:href="#DejaVuSans-67" x="403.369141"/>
     <use xlink:href="#DejaVuSans-20" x="466.845703"/>
     <use xlink:href="#DejaVuSans-2d" x="498.632812"/>
     <use xlink:href="#DejaVuSans-20" x="534.716797"/>
     <use xlink:href="#DejaVuSans-4f" x="566.503906"/>
     <use xlink:href="#DejaVuSans-52" x="645.214844"/>
     <use xlink:href="#DejaVuSans-49" x="714.697266"/>
     <use xlink:href="#DejaVuSans-47" x="744.189453"/>
     <use xlink:href="#DejaVuSans-49" x="821.679688"/>
     <use xlink:href="#DejaVuSans-4e" x="851.171875"/>
     <use xlink:href="#DejaVuSans-53" x="925.976562"/>
     <use xlink:href="#DejaVuSans-20" x="989.453125"/>
     <use xlink:href="#DejaVuSans-53" x="1021.240234"/>
     <use xlink:href="#DejaVuSans-65" x="1084.716797"/>
     <use xlink:href="#DejaVuSans-63" x="1146.240234"/>
     <use xlink:href="#DejaVuSans-74" x="1201.220703"/>
     <use xlink:href="#DejaVuSans-69" x="1240.429688"/>
     <use xlink:href="#DejaVuSans-6f" x="1268.212891"/>
     <use xlink:href="#DejaVuSans-6e" x="1329.394531"/>
     <use xlink:href="#DejaVuSans-20" x="1392.773438"/>
     <use xlink:href="#DejaVuSans-2d" x="1424.560547"/>
     <use xlink:href="#DejaVuSans-20" x="1460.644531"/>
     <use xlink:href="#DejaVuSans-50" x="1492.431641"/>
     <use xlink:href="#DejaVuSans-6f" x="1549.109375"/>
     <use xlink:href="#DejaVuSans-6c" x="1610.291016"/>
     <use xlink:href="#DejaVuSans-69" x="1638.074219"/>
     <use xlink:href="#DejaVuSans-74" x="1665.857422"/>
     <use xlink:href="#DejaVuSans-69" x="1705.066406"/>
     <use xlink:href="#DejaVuSans-63" x="1732.849609"/>
     <use xlink:href="#DejaVuSans-61" x="1787.830078"/>
     <use xlink:href="#DejaVuSans-6c" x="1849.109375"/>
     <use xlink:href="#DejaVuSans-20" x="1876.892578"/>
     <use xlink:href="#DejaVuSans-4c" x="1908.679688"/>
     <use xlink:href="#DejaVuSans-65" x="1962.642578"/>
     <use xlink:href="#DejaVuSans-61" x="2024.166016"/>
     <use xlink:href="#DejaVuSans-6e" x="2085.445312"/>
     <use xlink:href="#DejaVuSans-20" x="2148.824219"/>
     <use xlink:href="#DejaVuSans-4f" x="2180.611328"/>
     <use xlink:href="#DejaVuSans-76" x="2259.322266"/>
     <use xlink:href="#DejaVuSans-65" x="2318.501953"/>
     <use xlink:href="#DejaVuSans-72" x="2380.025391"/>
     <use xlink:href="#DejaVuSans-20" x="2421.138672"/>
     <use xlink:href="#DejaVuSans-54" x="2452.925781"/>
     <use xlink:href="#DejaVuSans-69" x="2510.884766"/>
     <use xlink:href="#DejaVuSans-6d" x="2538.667969"/>
     <use xlink:href="#DejaVuSans-65" x="2636.080078"/>
    </g>
   </g>
   <g id="legend_1">
    <g id="patch_7">
     <path d="M 434.748437 78.914375 
L 527.6 78.914375 
Q 529.6 78.914375 529.6 76.914375 
L 529.6 33.88 
Q 529.6 31.88 527.6 31.88 
L 434.748437 31.88 
Q 432.748437 31.88 432.748437 33.88 
L 432.748437 76.914375 
Q 432.748437 78.914375 434.748437 78.914375 
z
" style="fill: #ffffff; opacity: 0.8; stroke: #cccccc; stroke-linejoin: miter"/>
    </g>
    <g id="line2d_18">
     <path d="M 436.748437 39.978437 
L 446.748437 39.978437 
L 456.748437 39.978437 
" style="fill: none; stroke: #008000; stroke-width: 1.5; stroke-linecap: square"/>
    </g>
    <g id="text_18">
     <!-- Left Lean -->
     <g transform="translate(464.748437 43.478437) scale(0.1 -0.1)">
      <defs>
       <path id="DejaVuSans-66" d="M 2375 4863 
L 2375 4384 
L 1825 4384 
Q 1516 4384 1395 4259 
Q 1275 4134 1275 3809 
L 1275 3500 
L 2222 3500 
L 2222 3053 
L 1275 3053 
L 1275 0 
L 697 0 
L 697 3053 
L 147 3053 
L 147 3500 
L 697 3500 
L 697 3744 
Q 697 4328 969 4595 
Q 1241 4863 1831 4863 
L 2375 4863 
z
" transform="scale(0.015625)"/>
      </defs>
      <use xlink:href="#DejaVuSans-4c"/>
      <use xlink:href="#DejaVuSans-65" x="53.962891"/>
      <use xlink:href="#DejaVuSans-66" x="115.486328"/>
      <use xlink:href="#DejaVuSans-74" x="148.941406"/>
      <use xlink:href="#DejaVuSans-20" x="188.150391"/>
      <use xlink:href="#DejaVuSans-4c" x="219.9375"/>
      <use xlink:href="#DejaVuSans-65" x="273.900391"/>
      <use xlink:href="#DejaVuSans-61" x="335.423828"/>
      <use xlink:href="#DejaVuSans-6e" x="396.703125"/>
     </g>
    </g>
    <g id="line2d_19">
     <path d="M 436.748437 54.656563 
L 446.748437 54.656563 
L 456.748437 54.656563 
" style="fill: none; stroke: #0000ff; stroke-width: 1.5; stroke-linecap: square"/>
    </g>
    <g id="text_19">
     <!-- Center Lean -->
     <g transform="translate(464.748437 58.156563) scale(0.1 -0.1)">
      <defs>
       <path id="DejaVuSans-43" d="M 4122 4306 
L 4122 3641 
Q 3803 3938 3442 4084 
Q 3081 4231 2675 4231 
Q 1875 4231 1450 3742 
Q 1025 3253 1025 2328 
Q 1025 1406 1450 917 
Q 1875 428 2675 428 
Q 3081 428 3442 575 
Q 3803 722 4122 1019 
L 4122 359 
Q 3791 134 3420 21 
Q 3050 -91 2638 -91 
Q 1578 -91 968 557 
Q 359 1206 359 2328 
Q 359 3453 968 4101 
Q 1578 4750 2638 4750 
Q 3056 4750 3426 4639 
Q 3797 4528 4122 4306 
z
" transform="scale(0.015625)"/>
      </defs>
      <use xlink:href="#DejaVuSans-43"/>
      <use xlink:href="#DejaVuSans-65" x="69.824219"/>
      <use xlink:href="#DejaVuSans-6e" x="131.347656"/>
      <use xlink:href="#DejaVuSans-74" x="194.726562"/>
      <use xlink:href="#DejaVuSans-65" x="233.935547"/>
      <use xlink:href="#DejaVuSans-72" x="295.458984"/>
      <use xlink:href="#DejaVuSans-20" x="336.572266"/>
      <use xlink:href="#DejaVuSans-4c" x="368.359375"/>
      <use xlink:href="#DejaVuSans-65" x="422.322266"/>
      <use xlink:href="#DejaVuSans-61" x="483.845703"/>
      <use xlink:href="#DejaVuSans-6e" x="545.125"/>
     </g>
    </g>
    <g id="line2d_20">
     <path d="M 436.748437 69.334687 
L 446.748437 69.334687 
L 456.748437 69.334687 
" style="fill: none; stroke: #ff0000; stroke-width: 1.5; stroke-linecap: square"/>
    </g>
    <g id="text_20">
     <!-- Right Lean -->
     <g transform="translate(464.748437 72.834687) scale(0.1 -0.1)">
      <defs>
       <path id="DejaVuSans-68" d="M 3513 2113 
L 3513 0 
L 2938 0 
L 2938 2094 
Q 2938 2591 2744 2837 
Q 2550 3084 2163 3084 
Q 1697 3084 1428 2787 
Q 1159 2491 1159 1978 
L 1159 0 
L 581 0 
L 581 4863 
L 1159 4863 
L 1159 2956 
Q 1366 3272 1645 3428 
Q 1925 3584 2291 3584 
Q 2894 3584 3203 3211 
Q 3513 2838 3513 2113 
z
" transform="scale(0.015625)"/>
      </defs>
      <use xlink:href="#DejaVuSans-52"/>
      <use xlink:href="#DejaVuSans-69" x="69.482422"/>
      <use xlink:href="#DejaVuSans-67" x="97.265625"/>
      <use xlink:href="#DejaVuSans-68" x="160.742188"/>
      <use xlink:href="#DejaVuSans-74" x="224.121094"/>
      <use xlink:href="#DejaVuSans-20" x="263.330078"/>
      <use xlink:href="#DejaVuSans-4c" x="295.117188"/>
      <use xlink:href="#DejaVuSans-65" x="349.080078"/>
      <use xlink:href="#DejaVuSans-61" x="410.603516"/>
      <use xlink:href="#DejaVuSans-6e" x="471.882812"/>
     </g>
    </g>
   </g>
  </g>
  <g id="axes_2">
   <g id="patch_8">
    <path d="M 582.32 390.04 
L 1069.2 390.04 
L 1069.2 26.88 
L 582.32 26.88 
z
" style="fill: #ffffff"/>
   </g>
   <g id="PolyCollection_4"/>
   <g id="PolyCollection_5"/>
   <g id="PolyCollection_6"/>
   <g id="matplotlib.axis_3">
    <g id="xtick_10">
     <g id="line2d_21">
      <g>
       <use xlink:href="#mba65ad11e4" x="586.031207" y="390.04" style="stroke: #000000; stroke-width: 0.8"/>
      </g>
     </g>
     <g id="text_21">
      <!-- 2004 -->
      <g transform="translate(573.306207 404.638438) scale(0.1 -0.1)">
       <use xlink:href="#DejaVuSans-32"/>
       <use xlink:href="#DejaVuSans-30" x="63.623047"/>
       <use xlink:href="#DejaVuSans-30" x="127.246094"/>
       <use xlink:href="#DejaVuSans-34" x="190.869141"/>
      </g>
     </g>
    </g>
    <g id="xtick_11">
     <g id="line2d_22">
      <g>
       <use xlink:href="#mba65ad11e4" x="674.554843" y="390.04" style="stroke: #000000; stroke-width: 0.8"/>
      </g>
     </g>
     <g id="text_22">
      <!-- 2008 -->
      <g transform="translate(661.829843 404.638438) scale(0.1 -0.1)">
       <use xlink:href="#DejaVuSans-32"/>
       <use xlink:href="#DejaVuSans-30" x="63.623047"/>
       <use xlink:href="#DejaVuSans-30" x="127.246094"/>
       <use xlink:href="#DejaVuSans-38" x="190.869141"/>
      </g>
     </g>
    </g>
    <g id="xtick_12">
     <g id="line2d_23">
      <g>
       <use xlink:href="#mba65ad11e4" x="763.078479" y="390.04" style="stroke: #000000; stroke-width: 0.8"/>
      </g>
     </g>
     <g id="text_23">
      <!-- 2012 -->
      <g transform="translate(750.353479 404.638438) scale(0.1 -0.1)">
       <use xlink:href="#DejaVuSans-32"/>
       <use xlink:href="#DejaVuSans-30" x="63.623047"/>
       <use xlink:href="#DejaVuSans-31" x="127.246094"/>
       <use xlink:href="#DejaVuSans-32" x="190.869141"/>
      </g>
     </g>
    </g>
    <g id="xtick_13">
     <g id="line2d_24">
      <g>
       <use xlink:href="#mba65ad11e4" x="851.602116" y="390.04" style="stroke: #000000; stroke-width: 0.8"/>
      </g>
     </g>
     <g id="text_24">
      <!-- 2016 -->
      <g transform="translate(838.877116 404.638438) scale(0.1 -0.1)">
       <use xlink:href="#DejaVuSans-32"/>
       <use xlink:href="#DejaVuSans-30" x="63.623047"/>
       <use xlink:href="#DejaVuSans-31" x="127.246094"/>
       <use xlink:href="#DejaVuSans-36" x="190.869141"/>
      </g>
     </g>
    </g>
    <g id="xtick_14">
     <g id="line2d_25">
      <g>
       <use xlink:href="#mba65ad11e4" x="940.125752" y="390.04" style="stroke: #000000; stroke-width: 0.8"/>
      </g>
     </g>
     <g id="text_25">
      <!-- 2020 -->
      <g transform="translate(927.400752 404.638438) scale(0.1 -0.1)">
       <use xlink:href="#DejaVuSans-32"/>
       <use xlink:href="#DejaVuSans-30" x="63.623047"/>
       <use xlink:href="#DejaVuSans-32" x="127.246094"/>
       <use xlink:href="#DejaVuSans-30" x="190.869141"/>
      </g>
     </g>
    </g>
    <g id="xtick_15">
     <g id="line2d_26">
      <g>
       <use xlink:href="#mba65ad11e4" x="1028.649388" y="390.04" style="stroke: #000000; stroke-width: 0.8"/>
      </g>
     </g>
     <g id="text_26">
      <!-- 2024 -->
      <g transform="translate(1015.924388 404.638438) scale(0.1 -0.1)">
       <use xlink:href="#DejaVuSans-32"/>
       <use xlink:href="#DejaVuSans-30" x="63.623047"/>
       <use xlink:href="#DejaVuSans-32" x="127.246094"/>
       <use xlink:href="#DejaVuSans-34" x="190.869141"/>
      </g>
     </g>
    </g>
    <g id="text_27">
     <!-- Date -->
     <g transform="translate(813.809219 418.316562) scale(0.1 -0.1)">
      <use xlink:href="#DejaVuSans-44"/>
      <use xlink:href="#DejaVuSans-61" x="77.001953"/>
      <use xlink:href="#DejaVuSans-74" x="138.28125"/>
      <use xlink:href="#DejaVuSans-65" x="177.490234"/>
     </g>
    </g>
   </g>
   <g id="matplotlib.axis_4">
    <g id="ytick_6">
     <g id="line2d_27">
      <g>
       <use xlink:href="#mafefef39d3" x="582.32" y="383.670248" style="stroke: #000000; stroke-width: 0.8"/>
      </g>
     </g>
     <g id="text_28">
      <!-- 0.0 -->
      <g transform="translate(559.416875 387.469467) scale(0.1 -0.1)">
       <use xlink:href="#DejaVuSans-30"/>
       <use xlink:href="#DejaVuSans-2e" x="63.623047"/>
       <use xlink:href="#DejaVuSans-30" x="95.410156"/>
      </g>
     </g>
    </g>
    <g id="ytick_7">
     <g id="line2d_28">
      <g>
       <use xlink:href="#mafefef39d3" x="582.32" y="310.487707" style="stroke: #000000; stroke-width: 0.8"/>
      </g>
     </g>
     <g id="text_29">
      <!-- 0.2 -->
      <g transform="translate(559.416875 314.286926) scale(0.1 -0.1)">
       <use xlink:href="#DejaVuSans-30"/>
       <use xlink:href="#DejaVuSans-2e" x="63.623047"/>
       <use xlink:href="#DejaVuSans-32" x="95.410156"/>
      </g>
     </g>
    </g>
    <g id="ytick_8">
     <g id="line2d_29">
      <g>
       <use xlink:href="#mafefef39d3" x="582.32" y="237.305167" style="stroke: #000000; stroke-width: 0.8"/>
      </g>
     </g>
     <g id="text_30">
      <!-- 0.4 -->
      <g transform="translate(559.416875 241.104385) scale(0.1 -0.1)">
       <use xlink:href="#DejaVuSans-30"/>
       <use xlink:href="#DejaVuSans-2e" x="63.623047"/>
       <use xlink:href="#DejaVuSans-34" x="95.410156"/>
      </g>
     </g>
    </g>
    <g id="ytick_9">
     <g id="line2d_30">
      <g>
       <use xlink:href="#mafefef39d3" x="582.32" y="164.122626" style="stroke: #000000; stroke-width: 0.8"/>
      </g>
     </g>
     <g id="text_31">
      <!-- 0.6 -->
      <g transform="translate(559.416875 167.921845) scale(0.1 -0.1)">
       <use xlink:href="#DejaVuSans-30"/>
       <use xlink:href="#DejaVuSans-2e" x="63.623047"/>
       <use xlink:href="#DejaVuSans-36" x="95.410156"/>
      </g>
     </g>
    </g>
    <g id="ytick_10">
     <g id="line2d_31">
      <g>
       <use xlink:href="#mafefef39d3" x="582.32" y="90.940085" style="stroke: #000000; stroke-width: 0.8"/>
      </g>
     </g>
     <g id="text_32">
      <!-- 0.8 -->
      <g transform="translate(559.416875 94.739304) scale(0.1 -0.1)">
       <use xlink:href="#DejaVuSans-30"/>
       <use xlink:href="#DejaVuSans-2e" x="63.623047"/>
       <use xlink:href="#DejaVuSans-38" x="95.410156"/>
      </g>
     </g>
    </g>
    <g id="text_33">
     <!-- Lean Score -->
     <g transform="translate(553.337188 236.059219) rotate(-90) scale(0.1 -0.1)">
      <use xlink:href="#DejaVuSans-4c"/>
      <use xlink:href="#DejaVuSans-65" x="53.962891"/>
      <use xlink:href="#DejaVuSans-61" x="115.486328"/>
      <use xlink:href="#DejaVuSans-6e" x="176.765625"/>
      <use xlink:href="#DejaVuSans-20" x="240.144531"/>
      <use xlink:href="#DejaVuSans-53" x="271.931641"/>
      <use xlink:href="#DejaVuSans-63" x="335.408203"/>
      <use xlink:href="#DejaVuSans-6f" x="390.388672"/>
      <use xlink:href="#DejaVuSans-72" x="451.570312"/>
      <use xlink:href="#DejaVuSans-65" x="490.433594"/>
     </g>
    </g>
   </g>
   <g id="line2d_32">
    <path d="M 604.450909 259.80602 
L 610.025293 208.742433 
L 615.417903 196.292684 
L 698.548929 250.23588 
L 703.941539 171.386383 
L 709.515923 95.340028 
L 715.090307 190.134109 
L 720.66469 165.148848 
L 726.057301 250.543035 
L 731.631684 193.009894 
L 737.206068 174.460131 
L 742.780452 231.322344 
L 748.173062 196.723906 
L 753.747446 222.955964 
L 759.321829 176.705196 
L 764.896213 194.070472 
L 770.349414 215.849591 
L 775.923798 206.344958 
L 781.498182 218.759447 
L 787.072565 221.138038 
L 792.465176 223.086028 
L 798.039559 243.372279 
L 803.613943 230.260667 
L 809.188327 139.946997 
L 814.580937 121.703986 
L 820.155321 173.396023 
L 825.729704 174.152296 
L 831.304088 109.593297 
L 836.696698 47.146883 
L 842.271082 44.867342 
L 847.845466 51.355126 
L 853.419849 108.519913 
L 858.873051 79.881402 
L 864.447435 192.632461 
L 870.021818 176.525723 
L 875.596202 161.969099 
L 880.988812 147.738684 
L 886.563196 148.06581 
L 892.137579 163.687106 
L 897.711963 170.23574 
L 903.104573 160.573315 
L 908.678957 242.598887 
L 914.253341 236.872705 
L 919.827724 174.366914 
L 925.220335 215.212594 
L 930.794718 179.637993 
L 936.369102 151.439973 
L 941.943486 156.769387 
L 947.396687 163.455795 
L 952.971071 168.446883 
L 958.545455 43.387273 
L 964.119838 73.83624 
L 969.512449 114.750403 
L 975.086832 107.622013 
L 980.661216 106.429873 
L 986.2356 124.564133 
L 991.62821 147.213402 
L 997.202593 152.386413 
L 1002.776977 149.02651 
L 1008.351361 153.045814 
L 1013.743971 150.212908 
L 1019.318355 169.92045 
L 1024.892738 135.670757 
L 1030.467122 134.880979 
L 1035.920324 132.137712 
L 1041.494707 194.746287 
L 1047.069091 225.657124 
" clip-path="url(#peebcf53120)" style="fill: none; stroke: #008000; stroke-width: 1.5; stroke-linecap: square"/>
   </g>
   <g id="line2d_33">
    <path d="M 604.450909 154.69601 
L 610.025293 240.889167 
L 615.417903 248.140235 
L 698.548929 193.111856 
L 703.941539 280.28818 
L 709.515923 331.715631 
L 715.090307 257.42299 
L 720.66469 290.715888 
L 726.057301 221.448882 
L 731.631684 254.675456 
L 737.206068 265.638814 
L 742.780452 205.223875 
L 748.173062 257.226118 
L 753.747446 245.369513 
L 759.321829 260.181171 
L 764.896213 257.444357 
L 770.349414 243.90446 
L 775.923798 255.786797 
L 781.498182 255.845586 
L 787.072565 246.880317 
L 792.465176 241.725395 
L 798.039559 236.542334 
L 803.613943 239.539031 
L 809.188327 303.528204 
L 814.580937 314.335623 
L 820.155321 267.300805 
L 825.729704 267.830234 
L 831.304088 325.23 
L 836.696698 367.225361 
L 842.271082 370.146959 
L 847.845466 364.972905 
L 853.419849 337.881268 
L 858.873051 339.470697 
L 864.447435 293.563245 
L 870.021818 312.116654 
L 875.596202 344.236206 
L 880.988812 351.039545 
L 886.563196 350.812901 
L 892.137579 342.179418 
L 897.711963 336.343912 
L 903.104573 343.682604 
L 908.678957 291.373669 
L 914.253341 297.533297 
L 919.827724 264.407049 
L 925.220335 224.75963 
L 930.794718 245.918502 
L 936.369102 270.66567 
L 941.943486 267.482759 
L 947.396687 258.765129 
L 952.971071 296.978425 
L 958.545455 368.178039 
L 964.119838 345.219676 
L 969.512449 324.682711 
L 975.086832 329.240496 
L 980.661216 330.155764 
L 986.2356 315.418384 
L 991.62821 308.39364 
L 997.202593 302.803269 
L 1002.776977 305.389973 
L 1008.351361 309.808488 
L 1013.743971 311.327385 
L 1019.318355 302.620714 
L 1024.892738 318.604755 
L 1030.467122 320.064107 
L 1035.920324 321.880503 
L 1041.494707 289.989104 
L 1047.069091 275.696676 
" clip-path="url(#peebcf53120)" style="fill: none; stroke: #0000ff; stroke-width: 1.5; stroke-linecap: square"/>
   </g>
   <g id="line2d_34">
    <path d="M 604.450909 370.59602 
L 610.025293 335.46643 
L 615.417903 340.665132 
L 698.548929 341.750323 
L 703.941539 333.423479 
L 709.515923 358.042377 
L 715.090307 337.540946 
L 720.66469 329.233324 
L 726.057301 313.106128 
L 731.631684 337.412699 
L 737.206068 344.999098 
L 742.780452 348.551833 
L 748.173062 331.148009 
L 753.747446 316.77258 
L 759.321829 348.21165 
L 764.896213 333.583215 
L 770.349414 325.343984 
L 775.923798 322.966284 
L 781.498182 310.493013 
L 787.072565 317.079699 
L 792.465176 320.286606 
L 798.039559 305.183412 
L 803.613943 315.298334 
L 809.188327 341.622815 
L 814.580937 349.058419 
L 820.155321 344.401195 
L 825.729704 343.115504 
L 831.304088 350.274748 
L 836.696698 370.725822 
L 842.271082 370.083747 
L 847.845466 368.770016 
L 853.419849 338.69687 
L 858.873051 365.745944 
L 864.447435 298.902335 
L 870.021818 296.455652 
L 875.596202 278.892724 
L 880.988812 286.319803 
L 886.563196 286.219324 
L 892.137579 279.231513 
L 897.711963 278.518375 
L 903.104573 280.842107 
L 908.678957 251.125475 
L 914.253341 250.692028 
L 919.827724 346.324069 
L 925.220335 345.125804 
L 930.794718 359.541538 
L 936.369102 362.992394 
L 941.943486 360.845901 
L 947.396687 362.877123 
L 952.971071 319.672721 
L 958.545455 373.532727 
L 964.119838 366.042114 
L 969.512449 345.664918 
L 975.086832 348.235531 
L 980.661216 348.512423 
L 986.2356 345.115531 
L 991.62821 329.491004 
L 997.202593 329.908357 
L 1002.776977 330.681552 
L 1008.351361 322.243741 
L 1013.743971 323.557737 
L 1019.318355 312.556866 
L 1024.892738 330.822529 
L 1030.467122 330.152968 
L 1035.920324 331.07982 
L 1041.494707 300.362645 
L 1047.069091 283.744244 
" clip-path="url(#peebcf53120)" style="fill: none; stroke: #ff0000; stroke-width: 1.5; stroke-linecap: square"/>
   </g>
   <g id="patch_9">
    <path d="M 582.32 390.04 
L 582.32 26.88 
" style="fill: none; stroke: #000000; stroke-width: 0.8; stroke-linejoin: miter; stroke-linecap: square"/>
   </g>
   <g id="patch_10">
    <path d="M 1069.2 390.04 
L 1069.2 26.88 
" style="fill: none; stroke: #000000; stroke-width: 0.8; stroke-linejoin: miter; stroke-linecap: square"/>
   </g>
   <g id="patch_11">
    <path d="M 582.32 390.04 
L 1069.2 390.04 
" style="fill: none; stroke: #000000; stroke-width: 0.8; stroke-linejoin: miter; stroke-linecap: square"/>
   </g>
   <g id="patch_12">
    <path d="M 582.32 26.88 
L 1069.2 26.88 
" style="fill: none; stroke: #000000; stroke-width: 0.8; stroke-linejoin: miter; stroke-linecap: square"/>
   </g>
   <g id="text_34">
    <!-- Vladimir Putin - ORIGINS Section - Political Lean Over Time -->
    <g transform="translate(649.968437 20.88) scale(0.12 -0.12)">
     <defs>
      <path id="DejaVuSans-56" d="M 1831 0 
L 50 4666 
L 709 4666 
L 2188 738 
L 3669 4666 
L 4325 4666 
L 2547 0 
L 1831 0 
z
" transform="scale(0.015625)"/>
      <path id="DejaVuSans-64" d="M 2906 2969 
L 2906 4863 
L 3481 4863 
L 3481 0 
L 2906 0 
L 2906 525 
Q 2725 213 2448 61 
Q 2172 -91 1784 -91 
Q 1150 -91 751 415 
Q 353 922 353 1747 
Q 353 2572 751 3078 
Q 1150 3584 1784 3584 
Q 2172 3584 2448 3432 
Q 2725 3281 2906 2969 
z
M 947 1747 
Q 947 1113 1208 752 
Q 1469 391 1925 391 
Q 2381 391 2643 752 
Q 2906 1113 2906 1747 
Q 2906 2381 2643 2742 
Q 2381 3103 1925 3103 
Q 1469 3103 1208 2742 
Q 947 2381 947 1747 
z
" transform="scale(0.015625)"/>
      <path id="DejaVuSans-75" d="M 544 1381 
L 544 3500 
L 1119 3500 
L 1119 1403 
Q 1119 906 1312 657 
Q 1506 409 1894 409 
Q 2359 409 2629 706 
Q 2900 1003 2900 1516 
L 2900 3500 
L 3475 3500 
L 3475 0 
L 2900 0 
L 2900 538 
Q 2691 219 2414 64 
Q 2138 -91 1772 -91 
Q 1169 -91 856 284 
Q 544 659 544 1381 
z
M 1991 3584 
L 1991 3584 
z
" transform="scale(0.015625)"/>
     </defs>
     <use xlink:href="#DejaVuSans-56"/>
     <use xlink:href="#DejaVuSans-6c" x="68.408203"/>
     <use xlink:href="#DejaVuSans-61" x="96.191406"/>
     <use xlink:href="#DejaVuSans-64" x="157.470703"/>
     <use xlink:href="#DejaVuSans-69" x="220.947266"/>
     <use xlink:href="#DejaVuSans-6d" x="248.730469"/>
     <use xlink:href="#DejaVuSans-69" x="346.142578"/>
     <use xlink:href="#DejaVuSans-72" x="373.925781"/>
     <use xlink:href="#DejaVuSans-20" x="415.039062"/>
     <use xlink:href="#DejaVuSans-50" x="446.826172"/>
     <use xlink:href="#DejaVuSans-75" x="505.378906"/>
     <use xlink:href="#DejaVuSans-74" x="568.757812"/>
     <use xlink:href="#DejaVuSans-69" x="607.966797"/>
     <use xlink:href="#DejaVuSans-6e" x="635.75"/>
     <use xlink:href="#DejaVuSans-20" x="699.128906"/>
     <use xlink:href="#DejaVuSans-2d" x="730.916016"/>
     <use xlink:href="#DejaVuSans-20" x="767"/>
     <use xlink:href="#DejaVuSans-4f" x="798.787109"/>
     <use xlink:href="#DejaVuSans-52" x="877.498047"/>
     <use xlink:href="#DejaVuSans-49" x="946.980469"/>
     <use xlink:href="#DejaVuSans-47" x="976.472656"/>
     <use xlink:href="#DejaVuSans-49" x="1053.962891"/>
     <use xlink:href="#DejaVuSans-4e" x="1083.455078"/>
     <use xlink:href="#DejaVuSans-53" x="1158.259766"/>
     <use xlink:href="#DejaVuSans-20" x="1221.736328"/>
     <use xlink:href="#DejaVuSans-53" x="1253.523438"/>
     <use xlink:href="#DejaVuSans-65" x="1317"/>
     <use xlink:href="#DejaVuSans-63" x="1378.523438"/>
     <use xlink:href="#DejaVuSans-74" x="1433.503906"/>
     <use xlink:href="#DejaVuSans-69" x="1472.712891"/>
     <use xlink:href="#DejaVuSans-6f" x="1500.496094"/>
     <use xlink:href="#DejaVuSans-6e" x="1561.677734"/>
     <use xlink:href="#DejaVuSans-20" x="1625.056641"/>
     <use xlink:href="#DejaVuSans-2d" x="1656.84375"/>
     <use xlink:href="#DejaVuSans-20" x="1692.927734"/>
     <use xlink:href="#DejaVuSans-50" x="1724.714844"/>
     <use xlink:href="#DejaVuSans-6f" x="1781.392578"/>
     <use xlink:href="#DejaVuSans-6c" x="1842.574219"/>
     <use xlink:href="#DejaVuSans-69" x="1870.357422"/>
     <use xlink:href="#DejaVuSans-74" x="1898.140625"/>
     <use xlink:href="#DejaVuSans-69" x="1937.349609"/>
     <use xlink:href="#DejaVuSans-63" x="1965.132812"/>
     <use xlink:href="#DejaVuSans-61" x="2020.113281"/>
     <use xlink:href="#DejaVuSans-6c" x="2081.392578"/>
     <use xlink:href="#DejaVuSans-20" x="2109.175781"/>
     <use xlink:href="#DejaVuSans-4c" x="2140.962891"/>
     <use xlink:href="#DejaVuSans-65" x="2194.925781"/>
     <use xlink:href="#DejaVuSans-61" x="2256.449219"/>
     <use xlink:href="#DejaVuSans-6e" x="2317.728516"/>
     <use xlink:href="#DejaVuSans-20" x="2381.107422"/>
     <use xlink:href="#DejaVuSans-4f" x="2412.894531"/>
     <use xlink:href="#DejaVuSans-76" x="2491.605469"/>
     <use xlink:href="#DejaVuSans-65" x="2550.785156"/>
     <use xlink:href="#DejaVuSans-72" x="2612.308594"/>
     <use xlink:href="#DejaVuSans-20" x="2653.421875"/>
     <use xlink:href="#DejaVuSans-54" x="2685.208984"/>
     <use xlink:href="#DejaVuSans-69" x="2743.167969"/>
     <use xlink:href="#DejaVuSans-6d" x="2770.951172"/>
     <use xlink:href="#DejaVuSans-65" x="2868.363281"/>
    </g>
   </g>
   <g id="legend_2">
    <g id="patch_13">
     <path d="M 969.348437 78.914375 
L 1062.2 78.914375 
Q 1064.2 78.914375 1064.2 76.914375 
L 1064.2 33.88 
Q 1064.2 31.88 1062.2 31.88 
L 969.348437 31.88 
Q 967.348437 31.88 967.348437 33.88 
L 967.348437 76.914375 
Q 967.348437 78.914375 969.348437 78.914375 
z
" style="fill: #ffffff; opacity: 0.8; stroke: #cccccc; stroke-linejoin: miter"/>
    </g>
    <g id="line2d_35">
     <path d="M 971.348437 39.978437 
L 981.348437 39.978437 
L 991.348437 39.978437 
" style="fill: none; stroke: #008000; stroke-width: 1.5; stroke-linecap: square"/>
    </g>
    <g id="text_35">
     <!-- Left Lean -->
     <g transform="translate(999.348437 43.478437) scale(0.1 -0.1)">
      <use xlink:href="#DejaVuSans-4c"/>
      <use xlink:href="#DejaVuSans-65" x="53.962891"/>
      <use xlink:href="#DejaVuSans-66" x="115.486328"/>
      <use xlink:href="#DejaVuSans-74" x="148.941406"/>
      <use xlink:href="#DejaVuSans-20" x="188.150391"/>
      <use xlink:href="#DejaVuSans-4c" x="219.9375"/>
      <use xlink:href="#DejaVuSans-65" x="273.900391"/>
      <use xlink:href="#DejaVuSans-61" x="335.423828"/>
      <use xlink:href="#DejaVuSans-6e" x="396.703125"/>
     </g>
    </g>
    <g id="line2d_36">
     <path d="M 971.348437 54.656563 
L 981.348437 54.656563 
L 991.348437 54.656563 
" style="fill: none; stroke: #0000ff; stroke-width: 1.5; stroke-linecap: square"/>
    </g>
    <g id="text_36">
     <!-- Center Lean -->
     <g transform="translate(999.348437 58.156563) scale(0.1 -0.1)">
      <use xlink:href="#DejaVuSans-43"/>
      <use xlink:href="#DejaVuSans-65" x="69.824219"/>
      <use xlink:href="#DejaVuSans-6e" x="131.347656"/>
      <use xlink:href="#DejaVuSans-74" x="194.726562"/>
      <use xlink:href="#DejaVuSans-65" x="233.935547"/>
      <use xlink:href="#DejaVuSans-72" x="295.458984"/>
      <use xlink:href="#DejaVuSans-20" x="336.572266"/>
      <use xlink:href="#DejaVuSans-4c" x="368.359375"/>
      <use xlink:href="#DejaVuSans-65" x="422.322266"/>
      <use xlink:href="#DejaVuSans-61" x="483.845703"/>
      <use xlink:href="#DejaVuSans-6e" x="545.125"/>
     </g>
    </g>
    <g id="line2d_37">
     <path d="M 971.348437 69.334687 
L 981.348437 69.334687 
L 991.348437 69.334687 
" style="fill: none; stroke: #ff0000; stroke-width: 1.5; stroke-linecap: square"/>
    </g>
    <g id="text_37">
     <!-- Right Lean -->
     <g transform="translate(999.348437 72.834687) scale(0.1 -0.1)">
      <use xlink:href="#DejaVuSans-52"/>
      <use xlink:href="#DejaVuSans-69" x="69.482422"/>
      <use xlink:href="#DejaVuSans-67" x="97.265625"/>
      <use xlink:href="#DejaVuSans-68" x="160.742188"/>
      <use xlink:href="#DejaVuSans-74" x="224.121094"/>
      <use xlink:href="#DejaVuSans-20" x="263.330078"/>
      <use xlink:href="#DejaVuSans-4c" x="295.117188"/>
      <use xlink:href="#DejaVuSans-65" x="349.080078"/>
      <use xlink:href="#DejaVuSans-61" x="410.603516"/>
      <use xlink:href="#DejaVuSans-6e" x="471.882812"/>
     </g>
    </g>
   </g>
  </g>
 </g>
 <defs>
  <clipPath id="p3bf8f49c4a">
   <rect x="47.72" y="26.88" width="486.88" height="363.16"/>
  </clipPath>
  <clipPath id="peebcf53120">
   <rect x="582.32" y="26.88" width="486.88" height="363.16"/>
  </clipPath>
 </defs>
</svg>
